<svg width="342" height="219" fill="none" xmlns="http://www.w3.org/2000/svg"><rect width="341.746" height="218.493" rx="6.723" fill="url(#paint0_linear_46_1035)"/><g opacity=".6" stroke="white" stroke-width="2.801" stroke-linecap="round" stroke-linejoin="round"><path d="M93.01 111.71a6.109 6.109 0 000-8.636M97.709 114.575a11.525 11.525 0 00-.002-14.369M101.851 117.401a16.53 16.53 0 00.058-19.942M106.476 94.517a21.952 21.952 0 01-.513 26.43"/></g><rect x="36.696" y="89.386" width="47.48" height="34.447" rx="7.003" fill="url(#paint1_linear_46_1035)" stroke="url(#paint2_linear_46_1035)" stroke-width=".56"/><mask id="a" style="mask-type:alpha" maskUnits="userSpaceOnUse" x="36" y="89" width="48" height="35"><rect x="37.256" y="89.946" width="46.36" height="33.326" rx="6.443" fill="#DCD59E" stroke="black" stroke-width=".56"/></mask><g mask="url(#a)" stroke="#BFB985" stroke-width=".728" stroke-linejoin="bevel"><path opacity=".5" clip-rule="evenodd" d="M61.54 90.776a1.12 1.12 0 00-2.01 0l-4.217 8.587s2.089 6.308 0 13.503l4.197 9.511c.393.891 1.657.891 2.05 0l4.197-9.511s-2.089-3.91 0-13.503l-4.216-8.587z"/><path opacity=".5" d="M36.514 99.317h18.667M65.313 99.317h19.2M36.514 112.762h18.667M65.313 112.762h19.2"/></g><path d="M306.021 182.344a14.222 14.222 0 00-4.877-.826c-5.377 0-9.175 2.652-9.202 6.458-.034 2.797 2.699 4.373 4.766 5.307 2.121.961 2.83 1.566 2.823 2.425-.013 1.306-1.694 1.898-3.257 1.898-2.147 0-3.32-.293-5.125-1.026l-.669-.306-.763 4.382c1.307.533 3.663.991 6.097 1.03 5.717 0 9.454-2.635 9.498-6.685.047-2.234-1.432-3.922-4.544-5.317-1.892-.905-3.065-1.51-3.065-2.428 0-.813 1.005-1.682 3.105-1.682a10.1 10.1 0 014.077.754l.504.22.763-4.234-.131.03zm13.955-.471h-4.202c-1.307 0-2.292.352-2.863 1.622l-8.08 17.918h5.717l1.143-2.938 6.977.006c.165.688.669 2.932.669 2.932h5.041l-4.402-19.54zm-35.767-.164h5.448l-3.408 19.549h-5.442l3.402-19.556v.007zm-13.831 10.775l.565 2.714 5.324-13.325h5.77l-8.573 19.514h-5.758l-4.705-16.523a1.114 1.114 0 00-.501-.655 23.69 23.69 0 00-5.35-1.938l.074-.411h8.768c1.19.046 2.148.411 2.467 1.655l1.916 8.978v-.009h.003zm42.876 1.993l2.171-5.468c-.027.059.447-1.128.722-1.862l.374 1.688 1.26 5.639h-4.531v.003h.004zM26.229 195.741l2.245-7.005h1.48L26.82 198h-1.17l-1.586-5.62-1.56 5.62h-1.17l-3.132-9.264h1.479l2.232 7.005L23.54 190h1.062l1.627 5.741zM32.78 198h-1.385v-9.264h1.385V198zm3.887-9.264v8h3.724V198h-5.11v-9.264h1.386zm6.644 0v8h3.724V198h-5.109v-9.264h1.385zM49.956 198h-1.385v-9.264h1.385V198zm9.749 0h-1.452l-.86-2.34h-3.86l-.86 2.34H51.22l3.51-9.264h1.478L59.705 198zm-4.235-7.583l-1.493 4.033h2.972l-1.48-4.033zm14.936-1.681l1.13 9.264h-1.372l-.82-6.723-2.757 5.701h-1.183l-2.783-5.701L61.8 198h-1.372l1.13-9.264h1.236l3.187 6.669 3.187-6.669h1.237zm15.9 0l1.13 9.264h-1.371l-.82-6.723-2.757 5.701h-1.183l-2.783-5.701-.82 6.723H76.33l1.13-9.264h1.237l3.186 6.669 3.187-6.669h1.237zm7.149 9.425c-2.636 0-4.68-2.151-4.68-4.773 0-2.635 2.044-4.813 4.68-4.813 2.649 0 4.706 2.178 4.706 4.813 0 2.622-2.057 4.773-4.706 4.773zm0-1.29c1.896 0 3.32-1.587 3.32-3.483 0-1.909-1.424-3.523-3.32-3.523-1.883 0-3.294 1.614-3.294 3.523 0 1.896 1.411 3.483 3.294 3.483zM106.51 198h-1.653l-2.38-3.456h-1.049V198h-1.385v-9.264h3.536c2.031 0 2.851 1.465 2.851 2.931 0 1.331-.807 2.73-2.353 2.877L106.51 198zm-2.944-8h-2.138v3.334h1.815c1.278 0 1.802-.685 1.802-1.667 0-.968-.578-1.667-1.479-1.667zm6.2 4.087v2.649h4.302V198h-5.674v-9.264h5.553V190h-4.181v2.81h3.643v1.277h-3.643zm7.629 3.913h-1.385v-9.264h1.385V198zm8.969 0h-1.654l-2.38-3.456h-1.049V198h-1.384v-9.264h3.536c2.03 0 2.85 1.465 2.85 2.931 0 1.331-.806 2.73-2.353 2.877l2.434 3.456zm-2.945-8h-2.138v3.334h1.816c1.277 0 1.801-.685 1.801-1.667 0-.968-.578-1.667-1.479-1.667zm12.076 8h-1.452l-.861-2.34h-3.859l-.86 2.34h-1.452l3.509-9.264h1.479l3.496 9.264zm-4.236-7.583l-1.492 4.033h2.971l-1.479-4.033zM37.147 22.815h-9.063c-.37 0-.45.027-.66.24l-7.186 6.713c-.212.213-.238.293-.238.666v3.942c0 2.238 1.11 3.356 3.329 3.356h9.063c.369 0 .448-.026.66-.24l7.186-6.712c.21-.213.237-.293.237-.666v-3.942c0-2.238-1.11-3.357-3.328-3.357zM52.881 29.431c1.775.36 2.684 2.029 2.684 3.635 0 2.05-1.458 4.143-4.48 4.143h-6.108V22.647h5.664c2.536 0 4.142 1.521 4.142 3.74 0 1.142-.422 2.516-1.902 3.044zm-.676-2.684c0-1.015-.55-1.797-1.67-1.797h-2.98v3.572h2.98c1.078 0 1.67-.718 1.67-1.775zm-4.65 8.158h3.128c1.5 0 2.283-.993 2.283-2.092 0-1.036-.677-2.114-2.22-2.114h-3.191v4.206zM64.881 28.712V27.34h2.452v9.87h-2.452v-1.543c-.655 1.078-1.965 1.796-3.381 1.796-2.642 0-4.756-2.134-4.756-5.199 0-2.98 2.03-5.178 4.82-5.178 1.352 0 2.662.592 3.317 1.627zm-2.874 6.468c1.522 0 2.832-1.268 2.832-2.917a2.89 2.89 0 00-2.853-2.895c-1.585 0-2.79 1.31-2.79 2.895s1.205 2.917 2.811 2.917zM75.139 27.085c2.536 0 3.952 1.712 3.952 4.586v5.538H76.64V31.84c0-1.585-.95-2.43-2.05-2.43-1.12 0-2.515.655-2.515 2.557v5.242h-2.451v-9.87h2.451v1.564c.508-1.247 2.05-1.818 3.065-1.818zM85.708 31.65l4.946 5.559h-3.107l-3.847-4.48v4.48H81.25V21.97H83.7v8.518l2.832-3.15h3.192l-4.016 4.312zM96.802 27.085c2.768 0 5.009 2.177 5.009 5.178s-2.24 5.2-5.01 5.2c-1.648 0-3.212-.846-3.93-2.199v1.945h-1.353V21.97h1.352v7.292c.74-1.353 2.262-2.177 3.931-2.177zm-.106 9.088c2.092 0 3.783-1.733 3.783-3.931 0-2.177-1.69-3.868-3.783-3.868-1.966 0-3.826 1.543-3.826 3.931 0 2.283 1.776 3.868 3.826 3.868zM108.367 37.462c-2.811 0-5.157-2.07-5.157-5.199 0-3.128 2.346-5.178 5.157-5.178s5.179 2.05 5.179 5.178-2.368 5.2-5.179 5.2zm0-1.289c2.072 0 3.826-1.585 3.826-3.91s-1.754-3.889-3.826-3.889c-2.092 0-3.804 1.564-3.804 3.89 0 2.324 1.712 3.91 3.804 3.91zM120.076 37.462c-2.811 0-5.157-2.07-5.157-5.199 0-3.128 2.346-5.178 5.157-5.178s5.178 2.05 5.178 5.178-2.367 5.2-5.178 5.2zm0-1.289c2.071 0 3.825-1.585 3.825-3.91s-1.754-3.889-3.825-3.889c-2.092 0-3.804 1.564-3.804 3.89 0 2.324 1.712 3.91 3.804 3.91zM130.094 37.462c-1.712 0-3.424-.993-3.593-2.874h1.247c.148.824.909 1.67 2.346 1.67 1.416 0 2.282-.74 2.282-1.733 0-.804-.549-1.332-1.564-1.586l-1.416-.338c-1.395-.338-2.515-1.056-2.515-2.705 0-1.606 1.374-2.811 3.255-2.811 1.649 0 3.17.909 3.234 2.684h-1.311c-.063-.887-.93-1.48-1.902-1.48-1.141 0-1.923.698-1.923 1.628 0 .93.803 1.332 1.522 1.5l1.458.36c1.923.465 2.515 1.627 2.515 2.769 0 1.754-1.585 2.916-3.635 2.916zM137.739 27.339H140V28.5h-2.261v8.708h-1.332V28.5h-1.796v-1.162h1.796V23.64h1.332v3.699zM154.021 24.6H150v9.867h1.758V30.93h2.263c2.191 0 3.128-1.561 3.128-3.165 0-1.576-.937-3.166-3.128-3.166zm-.086 4.754h-2.177v-3.193h2.22c1.009 0 1.412.83 1.412 1.604 0 .802-.418 1.59-1.455 1.59zM164.842 31.059c0-2.091-1.514-3.423-3.445-3.423-1.917 0-3.531 1.346-3.531 3.48 0 2.09 1.528 3.494 3.545 3.494 1.226 0 2.407-.515 3.027-1.49l-1.11-.844c-.403.544-1.095.83-1.83.83-.995 0-1.715-.472-1.903-1.403h5.203c.029-.243.044-.458.044-.644zm-5.247-.516c.202-1.017.923-1.447 1.831-1.447.937 0 1.643.53 1.744 1.447h-3.575zM167.314 26.433c.606 0 1.096-.444 1.096-1.017 0-.587-.49-1.017-1.096-1.017-.591 0-1.081.43-1.081 1.017 0 .573.49 1.017 1.081 1.017zm-2.767 11.3h.879c1.888 0 2.724-1.16 2.724-3.022v-6.932h-1.672v6.932c.015.759-.23 1.475-1.11 1.475h-.821v1.546zM173.291 34.61c1.917 0 3.589-1.389 3.589-3.508 0-2.12-1.672-3.466-3.589-3.466-1.916 0-3.574 1.346-3.574 3.466s1.658 3.508 3.574 3.508zm0-1.546c-1.037 0-1.888-.788-1.888-1.962 0-1.146.851-1.92 1.888-1.92 1.038 0 1.903.774 1.903 1.92 0 1.174-.865 1.962-1.903 1.962zM182.031 27.779h-1.427v-2.463h-1.672v2.463h-1.211v1.332h1.211v5.356h1.672v-5.356h1.427v-1.332zM188.328 27.779v.888c-.461-.702-1.398-1.031-2.248-1.031-1.773 0-3.301 1.332-3.301 3.48 0 2.134 1.542 3.494 3.315 3.494.822 0 1.773-.33 2.234-1.045v.902H190V27.78h-1.672zm-1.974 5.27c-1.038 0-1.889-.83-1.889-1.947 0-1.118.851-1.92 1.889-1.92.965 0 1.945.745 1.945 1.92 0 1.174-.922 1.947-1.945 1.947z" fill="white"/><defs><linearGradient id="paint0_linear_46_1035" x1="-168.222" y1="-49.818" x2="447.471" y2="308.075" gradientUnits="userSpaceOnUse"><stop offset=".005" stop-color="#25018A"/><stop offset="1" stop-color="#673DFD"/></linearGradient><linearGradient id="paint1_linear_46_1035" x1="60.436" y1="89.666" x2="76.597" y2="136.43" gradientUnits="userSpaceOnUse"><stop stop-color="#DCD59E"/><stop offset="1" stop-color="#CBBB82"/></linearGradient><linearGradient id="paint2_linear_46_1035" x1="40.104" y1="91.595" x2="60.436" y2="123.553" gradientUnits="userSpaceOnUse"><stop stop-color="#FBF3C0"/><stop offset="1" stop-color="#CCBC84"/></linearGradient></defs></svg>