<svg width="25" height="30" fill="none" xmlns="http://www.w3.org/2000/svg"><path d="M6.735 29.414a6.514 6.514 0 01-1.536-1.408 18.316 18.316 0 01-1.32-1.777 17.224 17.224 0 01-2.202-4.445c-.62-1.833-.919-3.59-.919-5.31 0-1.92.42-3.595 1.242-5.003a7.078 7.078 0 012.595-2.664A6.97 6.97 0 018.107 7.78c.435 0 .903.062 1.4.181.358.1.793.258 1.324.454.676.258 1.048.415 1.175.454.396.143.729.205.99.205.199 0 .479-.062.797-.157.179-.063.517-.173 1-.377.479-.172.855-.32 1.155-.43.459-.134.903-.258 1.3-.32.469-.073.945-.093 1.42-.058.821.053 1.63.225 2.401.51 1.26.502 2.28 1.285 3.039 2.398-.32.195-.622.42-.899.673a7.492 7.492 0 00-1.522 1.838 6.199 6.199 0 00-.797 3.08c.02 1.322.363 2.487 1.039 3.495a6.609 6.609 0 001.899 1.877c.387.257.72.434 1.039.553-.15.459-.31.902-.498 1.342a17.506 17.506 0 01-1.546 2.827c-.536.769-.956 1.342-1.275 1.723-.497.582-.976 1.027-1.46 1.337a3.286 3.286 0 01-1.797.534 4.123 4.123 0 01-1.28-.153c-.357-.12-.71-.248-1.058-.396a8.558 8.558 0 00-1.116-.415 5.881 5.881 0 00-2.875-.005c-.387.11-.759.239-1.126.396-.517.215-.86.359-1.059.42a5.545 5.545 0 01-1.222.21c-.643 0-1.242-.181-1.836-.55l.016-.012zm8.478-22.566c-.84.416-1.643.593-2.44.535-.125-.793 0-1.604.334-2.493a6.574 6.574 0 013.251-3.59c.816-.416 1.594-.64 2.338-.673.097.83 0 1.647-.309 2.53a7.294 7.294 0 01-1.236 2.149 6.323 6.323 0 01-1.962 1.542h.024z" fill="white"/></svg>