<svg width="31" height="31" fill="none" xmlns="http://www.w3.org/2000/svg"><circle opacity=".6" cx="15.5" cy="15.5" r="14.5" stroke="url(#paint0_linear_46_783)" stroke-width="2" stroke-linecap="round" stroke-linejoin="round"/><path opacity=".8" d="M15.39 6.02v18.043" stroke="white" stroke-width="2" stroke-linecap="round" stroke-linejoin="round"/><path d="M19.119 9.3h-5.592c-.692 0-1.356.303-1.845.841a3.022 3.022 0 00-.764 2.03c0 .761.275 1.491.764 2.03.49.538 1.153.84 1.845.84h3.728c.692 0 1.356.303 1.845.841.49.538.764 1.268.764 2.03 0 .76-.275 1.491-.764 2.03-.49.538-1.153.84-1.845.84h-6.337" stroke="white" stroke-width="2" stroke-linecap="round" stroke-linejoin="round"/><defs><linearGradient id="paint0_linear_46_783" x1="15.5" y1="0" x2="15.5" y2="31" gradientUnits="userSpaceOnUse"><stop stop-color="white"/><stop offset="1" stop-color="white" stop-opacity="0"/></linearGradient></defs></svg>