<svg width="254" height="550" fill="none" xmlns="http://www.w3.org/2000/svg"><mask id="a" style="mask-type:alpha" maskUnits="userSpaceOnUse" x="0" y="0" width="254" height="550"><path fill-rule="evenodd" clip-rule="evenodd" d="M.156 29.58a31.61 31.61 0 00-.043 1.635v486.806c0 17.177 13.925 31.101 31.102 31.101h191.341c17.177 0 31.102-13.924 31.102-31.101V31.215l-.001-.201c-.108-17.084-13.991-30.9-31.101-30.9h-20.34c-2.33.82-4 3.04-4 5.65 0 8.268-6.703 14.971-14.971 14.971H69.85c-8.268 0-14.971-6.703-14.971-14.971a5.99 5.99 0 00-4-5.65H31.215A30.98 30.98 0 0010.93 7.637a31.273 31.273 0 00-5.506 6.189A30.932 30.932 0 00.155 29.58z" fill="black"/></mask><g mask="url(#a)"><path d="M.11.114h253.545v549.008H.11V.114z" fill="url(#paint0_linear_181_259)"/><g clip-path="url(#clip0_181_259)"><rect x=".093" y="-.469" width="254.307" height="550.659" rx="10.85" fill="#0046A0"/><path fill="#330BC5" d="M.093-.469h254.533v68.832H.093z"/><path fill="#3D12DA" d="M.093 137.421h254.533v68.832H.093z"/><path fill="#3410B3" d="M-.217 206.024h254.533v68.832H-.217z"/><path fill="#33159E" d="M.093 274.86h254.533v68.832H.093z"/><path fill="#2D1489" d="M.093 343.693h254.533v68.832H.093z"/><path fill="#270F7D" d="M.093 412.525h254.533v68.832H.093z"/><path fill="#1F0A6D" d="M.093 481.357h254.533v68.832H.093z"/><path d="M19.236 46.629a.272.272 0 01-.2-.082.272.272 0 01-.083-.2v-5.548c0-.079.028-.145.083-.2a.272.272 0 01.2-.082h.916c.079 0 .145.027.2.082a.272.272 0 01.083.2v.4c.164-.22.384-.404.658-.553.282-.157.615-.24.999-.247.893-.016 1.516.333 1.869 1.046.18-.313.439-.564.776-.752a2.268 2.268 0 011.14-.294c.408 0 .776.094 1.105.282.337.188.6.474.788.858.195.376.293.854.293 1.434v3.374a.272.272 0 01-.082.2.272.272 0 01-.2.082h-.964a.272.272 0 01-.2-.082.272.272 0 01-.082-.2v-3.28c0-.352-.05-.63-.152-.834a.922.922 0 00-.412-.447 1.27 1.27 0 00-.576-.13c-.172 0-.345.044-.517.13a.98.98 0 00-.423.447c-.11.204-.165.482-.165.834v3.28a.272.272 0 01-.082.2.272.272 0 01-.2.082h-.964a.287.287 0 01-.211-.082.296.296 0 01-.071-.2v-3.28c0-.352-.055-.63-.165-.834a.98.98 0 00-.423-.447 1.218 1.218 0 00-.552-.13c-.18 0-.357.048-.53.142a.989.989 0 00-.422.435c-.11.204-.165.482-.165.834v3.28a.272.272 0 01-.082.2.272.272 0 01-.2.082h-.987zm12.957.117c-.87 0-1.56-.25-2.068-.752-.51-.501-.784-1.214-.823-2.14a3.018 3.018 0 01-.012-.293c0-.125.004-.223.012-.294.031-.588.164-1.097.4-1.528.242-.431.575-.76.998-.987.424-.235.921-.353 1.493-.353.635 0 1.168.133 1.599.4.43.258.756.623.976 1.093.219.462.329.999.329 1.61v.247a.272.272 0 01-.083.2.286.286 0 01-.211.082H30.9v.095c.008.274.06.528.153.763.102.227.247.412.435.553.196.14.427.211.694.211.219 0 .403-.031.552-.094a1.461 1.461 0 00.564-.446c.07-.094.126-.15.165-.165a.455.455 0 01.2-.035h1.01c.079 0 .142.023.189.07a.192.192 0 01.07.177c-.008.125-.074.278-.2.458-.117.18-.29.357-.517.529a3.03 3.03 0 01-.858.435c-.337.11-.725.164-1.164.164zM30.9 43.044h2.598v-.035a1.94 1.94 0 00-.153-.8 1.263 1.263 0 00-.446-.54 1.224 1.224 0 00-.706-.2c-.274 0-.51.066-.705.2a1.264 1.264 0 00-.447.54 2.082 2.082 0 00-.14.8v.035zm7.713 3.703c-.478 0-.893-.106-1.246-.318a2.173 2.173 0 01-.8-.917c-.187-.4-.281-.87-.281-1.41v-3.303c0-.079.027-.145.082-.2a.272.272 0 01.2-.082h1.034c.086 0 .153.027.2.082a.272.272 0 01.082.2v3.232c0 .972.427 1.458 1.282 1.458.407 0 .728-.13.963-.388.243-.259.365-.615.365-1.07V40.8c0-.079.027-.145.082-.2a.272.272 0 01.2-.082h1.034c.079 0 .145.027.2.082a.272.272 0 01.082.2v5.548a.272.272 0 01-.082.2.272.272 0 01-.2.082h-.952a.287.287 0 01-.211-.082.297.297 0 01-.07-.2v-.482c-.212.274-.475.49-.788.646-.314.157-.706.235-1.176.235zm8-.118a.272.272 0 01-.2-.082.272.272 0 01-.082-.2v-5.548c0-.079.028-.145.082-.2a.272.272 0 01.2-.082h.964c.079 0 .145.027.2.082a.272.272 0 01.082.2v.482c.204-.251.463-.459.776-.623.322-.173.717-.259 1.187-.259.478 0 .894.11 1.246.33.353.21.623.512.812.904.195.392.293.862.293 1.41v3.304a.272.272 0 01-.082.2.272.272 0 01-.2.082h-1.034a.272.272 0 01-.2-.082.272.272 0 01-.082-.2v-3.233c0-.454-.114-.81-.341-1.07-.22-.258-.54-.387-.964-.387-.408 0-.733.13-.976.388s-.364.615-.364 1.07v3.232a.272.272 0 01-.082.2.272.272 0 01-.2.082h-1.035zm9.687.117c-.87 0-1.56-.25-2.07-.752-.509-.501-.783-1.214-.822-2.14a3.055 3.055 0 01-.012-.293c0-.125.004-.223.012-.294.031-.588.164-1.097.4-1.528.242-.431.575-.76.999-.987.423-.235.92-.353 1.492-.353.635 0 1.168.133 1.6.4.43.258.755.623.975 1.093.22.462.329.999.329 1.61v.247a.272.272 0 01-.082.2.286.286 0 01-.212.082h-3.902v.095c.007.274.058.528.152.763.102.227.247.412.435.553.196.14.427.211.694.211.22 0 .403-.031.552-.094a1.463 1.463 0 00.564-.446c.07-.094.126-.15.165-.165a.455.455 0 01.2-.035h1.01c.08 0 .142.023.189.07a.192.192 0 01.07.177c-.007.125-.074.278-.2.458-.117.18-.29.357-.517.529a3.03 3.03 0 01-.858.435c-.337.11-.725.164-1.163.164zm-1.293-3.702h2.597v-.035c0-.306-.05-.572-.153-.8a1.263 1.263 0 00-.446-.54 1.224 1.224 0 00-.706-.2c-.274 0-.509.066-.705.2a1.264 1.264 0 00-.447.54 2.082 2.082 0 00-.14.8v.035zm8.147 3.703c-.627 0-1.156-.11-1.587-.33a2.326 2.326 0 01-.975-.928c-.22-.4-.345-.866-.377-1.399a9.605 9.605 0 01-.011-.517 9.6 9.6 0 01.011-.517c.032-.541.161-1.007.388-1.4.236-.399.565-.708.988-.928.43-.22.952-.329 1.563-.329s1.129.11 1.552.33c.43.219.76.528.987.928.235.392.368.858.4 1.399.008.14.012.313.012.517 0 .203-.004.376-.012.517-.032.533-.16 1-.388 1.399-.22.4-.545.709-.976.928-.423.22-.948.33-1.575.33zm0-1.164c.415 0 .737-.13.964-.388.227-.267.353-.654.376-1.164.008-.117.012-.27.012-.458s-.004-.341-.012-.459c-.023-.501-.149-.885-.376-1.152-.227-.266-.548-.4-.964-.4-.415 0-.737.134-.964.4-.227.267-.352.65-.376 1.152-.008.118-.012.27-.012.459 0 .188.004.34.012.458.024.51.149.898.376 1.164.227.258.549.388.964.388zm4.535 1.046a.272.272 0 01-.2-.082.272.272 0 01-.082-.2v-5.548c0-.079.027-.145.082-.2a.272.272 0 01.2-.082h.964c.078 0 .145.027.2.082a.272.272 0 01.082.2v.482c.204-.251.462-.459.776-.623.321-.173.717-.259 1.187-.259.478 0 .893.11 1.246.33.353.21.623.512.811.904.196.392.294.862.294 1.41v3.304a.272.272 0 01-.082.2.272.272 0 01-.2.082h-1.034a.272.272 0 01-.2-.082.272.272 0 01-.083-.2v-3.233c0-.454-.113-.81-.34-1.07-.22-.258-.541-.387-.964-.387-.408 0-.733.13-.976.388s-.364.615-.364 1.07v3.232a.272.272 0 01-.083.2.272.272 0 01-.2.082H67.69zM21.598 175.665c-.564 0-1.062-.106-1.493-.317a2.41 2.41 0 01-1-.917c-.234-.408-.364-.898-.387-1.47a7.1 7.1 0 01-.012-.458c0-.196.004-.357.012-.482.023-.572.153-1.058.388-1.458a2.377 2.377 0 01.999-.928c.431-.212.929-.318 1.493-.318.501 0 .928.071 1.281.212.353.141.643.317.87.529.227.212.396.435.505.67.118.227.18.435.188.623a.238.238 0 01-.082.212.296.296 0 01-.2.07h-1.034a.28.28 0 01-.188-.059.684.684 0 01-.118-.176c-.117-.313-.274-.533-.47-.658-.188-.133-.43-.2-.729-.2-.391 0-.705.125-.94.376-.227.243-.349.631-.364 1.164a7.183 7.183 0 000 .823c.015.54.137.932.364 1.175.235.243.549.364.94.364.306 0 .553-.062.74-.188.189-.133.342-.356.46-.67a.684.684 0 01.117-.176.285.285 0 01.188-.059h1.034c.079 0 .145.028.2.083.063.047.09.113.082.199a1.968 1.968 0 01-.435 1.023c-.14.18-.32.349-.54.506-.22.148-.486.27-.8.364a3.65 3.65 0 01-1.07.141zm4.353-.118a.271.271 0 01-.2-.082.272.272 0 01-.083-.2v-5.536c0-.086.028-.157.083-.212a.271.271 0 01.2-.082h.952c.078 0 .145.027.2.082a.27.27 0 01.093.212v.482c.18-.251.412-.443.694-.576.29-.133.623-.2 1-.2h.481c.086 0 .153.027.2.082a.273.273 0 01.082.2v.846a.272.272 0 01-.082.2.249.249 0 01-.2.083h-.917c-.376 0-.67.105-.881.317-.204.212-.306.501-.306.87v3.232a.272.272 0 01-.082.2.286.286 0 01-.212.082h-1.022zm7.172.118c-.87 0-1.56-.251-2.07-.752-.509-.502-.783-1.215-.822-2.14a3.01 3.01 0 01-.012-.294c0-.125.004-.223.012-.293.031-.588.164-1.097.4-1.529a2.47 2.47 0 01.999-.987c.423-.235.92-.353 1.493-.353.634 0 1.167.134 1.598.4.431.259.757.623.976 1.093.22.463.329.999.329 1.611v.247a.27.27 0 01-.082.199.286.286 0 01-.212.083H31.83v.094c.007.274.058.529.152.764.102.227.247.411.435.552.196.141.427.212.694.212.22 0 .403-.032.552-.094a1.481 1.481 0 00.565-.447c.07-.094.125-.149.164-.164a.448.448 0 01.2-.036h1.01c.08 0 .142.024.189.071a.192.192 0 01.07.176c-.007.125-.074.278-.2.459-.117.18-.29.356-.517.528a3 3 0 01-.858.435c-.337.11-.724.165-1.163.165zm-1.293-3.703h2.597v-.035c0-.306-.05-.572-.152-.799a1.259 1.259 0 00-.447-.541 1.226 1.226 0 00-.705-.2c-.275 0-.51.067-.706.2a1.258 1.258 0 00-.446.541 2.076 2.076 0 00-.141.799v.035zm.787-3.409c-.125 0-.188-.062-.188-.188 0-.062.02-.113.059-.152l.952-1.164a.67.67 0 01.2-.165.484.484 0 01.235-.047h1.175c.15 0 .224.075.224.224 0 .054-.02.101-.06.141l-1.457 1.199a.624.624 0 01-.188.117.609.609 0 01-.235.035h-.717zm6.925 7.112c-.407 0-.768-.067-1.081-.2a2.103 2.103 0 01-.764-.588 2.705 2.705 0 01-.47-.881 4.248 4.248 0 01-.188-1.129 6.788 6.788 0 010-.764c.015-.392.074-.756.176-1.093.11-.337.266-.631.47-.881.212-.259.47-.459.776-.6a2.611 2.611 0 011.081-.212c.424 0 .78.075 1.07.224.298.141.545.325.74.552v-2.609c0-.079.024-.145.071-.2a.286.286 0 01.212-.082h.999c.078 0 .145.027.2.082a.272.272 0 01.082.2v7.781a.272.272 0 01-.082.2.271.271 0 01-.2.082h-.929a.285.285 0 01-.211-.082.296.296 0 01-.07-.2v-.435a2.299 2.299 0 01-.753.6c-.298.157-.674.235-1.129.235zm.435-1.258c.33 0 .592-.074.788-.223.196-.149.34-.337.435-.564a2.1 2.1 0 00.153-.717 8.105 8.105 0 000-.905 1.648 1.648 0 00-.165-.67c-.102-.22-.25-.4-.447-.541-.196-.141-.45-.212-.764-.212-.329 0-.591.075-.787.224a1.205 1.205 0 00-.412.564 2.67 2.67 0 00-.152.776c-.008.235-.008.47 0 .705.015.282.066.541.152.776.087.235.224.427.412.576.196.141.458.211.787.211zm4.788 1.14a.271.271 0 01-.2-.082.272.272 0 01-.082-.2v-5.548c0-.078.027-.145.082-.2a.271.271 0 01.2-.082h.975c.087 0 .153.027.2.082a.273.273 0 01.083.2v5.548a.272.272 0 01-.083.2.248.248 0 01-.2.082h-.975zm-.047-7.123a.314.314 0 01-.212-.07.315.315 0 01-.07-.212v-.846c0-.079.023-.145.07-.2a.286.286 0 01.212-.082h1.07c.086 0 .156.027.211.082a.272.272 0 01.082.2v.846a.288.288 0 01-.082.212.314.314 0 01-.212.07h-1.07zm5.626 7.123c-.47 0-.866-.082-1.187-.246a1.58 1.58 0 01-.717-.729c-.157-.329-.235-.737-.235-1.223v-2.668h-.929a.271.271 0 01-.2-.082.273.273 0 01-.082-.2v-.682c0-.078.028-.145.083-.2a.271.271 0 01.2-.082h.928v-1.951c0-.079.023-.145.07-.2a.286.286 0 01.212-.082h.952c.079 0 .145.027.2.082a.272.272 0 01.082.2v1.951h1.47c.078 0 .145.027.2.082a.273.273 0 01.082.2v.682a.273.273 0 01-.082.2.271.271 0 01-.2.082h-1.47v2.551c0 .321.055.572.165.752.117.18.317.27.6.27h.81c.079 0 .145.028.2.083a.272.272 0 01.083.2v.728a.272.272 0 01-.083.2.271.271 0 01-.2.082h-.952zm4.98.118c-.626 0-1.155-.11-1.586-.329a2.33 2.33 0 01-.976-.929c-.219-.399-.344-.866-.376-1.399a9.471 9.471 0 01-.012-.517c0-.204.004-.376.012-.517.032-.541.16-1.007.388-1.399.235-.399.564-.709.987-.928.431-.22.953-.33 1.564-.33.611 0 1.128.11 1.551.33.431.219.76.529.988.928.235.392.368.858.4 1.399.007.141.011.313.011.517 0 .204-.004.376-.011.517-.032.533-.161 1-.388 1.399-.22.4-.545.709-.976.929-.423.219-.948.329-1.575.329zm0-1.164c.416 0 .738-.129.965-.388.227-.266.352-.654.376-1.163.008-.118.012-.271.012-.459a7.1 7.1 0 00-.012-.458c-.024-.502-.149-.886-.376-1.152-.227-.267-.549-.4-.964-.4-.415 0-.737.133-.964.4-.227.266-.353.65-.376 1.152a7.1 7.1 0 00-.012.458c0 .188.004.341.012.459.023.509.149.897.376 1.163.227.259.549.388.964.388zM19.235 244.267a.275.275 0 01-.2-.082.273.273 0 01-.082-.2v-5.548c0-.079.027-.145.082-.2a.272.272 0 01.2-.083h.976c.086 0 .153.028.2.083a.272.272 0 01.082.2v5.548a.273.273 0 01-.082.2.251.251 0 01-.2.082h-.976zm-.047-7.123a.314.314 0 01-.211-.071.313.313 0 01-.071-.212v-.846c0-.078.024-.145.07-.2a.285.285 0 01.212-.082h1.07c.086 0 .157.027.211.082a.273.273 0 01.083.2v.846a.286.286 0 01-.083.212.314.314 0 01-.211.071h-1.07zm3.388 7.123a.275.275 0 01-.2-.082.273.273 0 01-.082-.2v-5.548c0-.079.027-.145.082-.2a.272.272 0 01.2-.083h.963c.079 0 .145.028.2.083a.272.272 0 01.083.2v.481c.203-.25.462-.458.775-.623.322-.172.717-.258 1.188-.258.478 0 .893.11 1.246.329.352.212.623.513.81.905.197.392.294.862.294 1.411v3.303a.273.273 0 01-.082.2.275.275 0 01-.2.082H26.82a.275.275 0 01-.2-.082.273.273 0 01-.082-.2v-3.233c0-.454-.114-.811-.341-1.069-.22-.259-.54-.388-.964-.388-.407 0-.733.129-.976.388-.242.258-.364.615-.364 1.069v3.233a.273.273 0 01-.082.2.275.275 0 01-.2.082h-1.034zm9.032 0c-.126 0-.22-.028-.282-.082a1.015 1.015 0 01-.141-.212l-2.198-5.454a.292.292 0 01-.024-.106c0-.07.023-.129.07-.176a.259.259 0 01.189-.083h.952c.094 0 .164.028.211.083a.37.37 0 01.094.141l1.564 4.126 1.563-4.126a.37.37 0 01.094-.141c.047-.055.118-.083.212-.083h.964c.062 0 .117.028.164.083a.223.223 0 01.083.176.551.551 0 01-.012.106l-2.21 5.454a.634.634 0 01-.141.212c-.063.054-.157.082-.282.082h-.87zm7.002.117c-.87 0-1.56-.25-2.07-.752-.508-.501-.783-1.215-.822-2.139a3.07 3.07 0 01-.012-.294c0-.125.004-.223.012-.294.031-.588.165-1.097.4-1.528a2.47 2.47 0 01.999-.987c.423-.236.92-.353 1.493-.353.634 0 1.167.133 1.598.4.431.258.757.623.976 1.093.22.462.329.999.329 1.61v.247a.273.273 0 01-.082.2.286.286 0 01-.212.082h-3.902v.094c.008.274.058.529.152.764.102.227.247.412.435.553.196.141.427.211.694.211.22 0 .404-.031.552-.094a1.483 1.483 0 00.564-.447c.071-.094.126-.148.165-.164a.45.45 0 01.2-.035h1.01c.08 0 .142.023.189.07a.193.193 0 01.07.177c-.007.125-.074.278-.2.458-.117.18-.29.357-.517.529a3.05 3.05 0 01-.858.435 3.75 3.75 0 01-1.163.164zm-1.293-3.702h2.597v-.036c0-.305-.05-.572-.152-.799a1.27 1.27 0 00-.447-.541 1.225 1.225 0 00-.705-.199c-.275 0-.51.066-.706.199a1.27 1.27 0 00-.446.541 2.081 2.081 0 00-.141.799v.036zm7.76 3.702c-.47 0-.874-.054-1.211-.164-.33-.11-.6-.247-.811-.412a1.95 1.95 0 01-.47-.493c-.102-.165-.157-.302-.165-.412-.008-.086.016-.153.07-.2a.303.303 0 01.2-.082h.929c.031 0 .059.004.082.012a.287.287 0 01.094.07l.318.271c.117.094.254.176.411.247.157.062.353.094.588.094.305 0 .56-.059.764-.177.211-.125.317-.301.317-.529a.566.566 0 00-.14-.399c-.087-.102-.252-.192-.495-.271a8.56 8.56 0 00-1.034-.27 4.404 4.404 0 01-1.093-.388 1.63 1.63 0 01-.647-.588 1.566 1.566 0 01-.211-.822c0-.306.09-.596.27-.87.188-.282.462-.514.823-.694.368-.18.823-.27 1.363-.27.424 0 .792.055 1.105.164.314.102.572.232.776.388.212.157.372.318.482.482.11.157.169.294.176.412a.25.25 0 01-.07.211.282.282 0 01-.188.071h-.87a.23.23 0 01-.106-.024.599.599 0 01-.094-.058 9.224 9.224 0 00-.282-.247 1.433 1.433 0 00-.376-.224c-.141-.07-.33-.105-.564-.105-.298 0-.525.066-.682.199a.591.591 0 00-.235.482c0 .134.035.251.106.353.078.094.23.184.458.27.227.087.572.177 1.034.271.526.094.94.235 1.246.423.314.18.533.392.659.635.133.235.2.497.2.787 0 .353-.106.67-.318.952-.204.282-.51.506-.917.67-.4.157-.897.235-1.493.235zm6.68-.117c-.47 0-.867-.082-1.188-.247a1.576 1.576 0 01-.717-.729c-.157-.329-.235-.736-.235-1.222V239.4h-.929a.271.271 0 01-.2-.082.272.272 0 01-.082-.2v-.681c0-.079.028-.145.083-.2a.272.272 0 01.2-.083h.928v-1.951c0-.078.023-.145.07-.2a.285.285 0 01.212-.082h.952c.078 0 .145.027.2.082a.273.273 0 01.082.2v1.951h1.47c.078 0 .145.028.2.083a.272.272 0 01.082.2v.681a.272.272 0 01-.083.2.271.271 0 01-.2.082h-1.469v2.551c0 .321.055.572.165.752.117.181.317.271.6.271h.81c.079 0 .145.027.2.082a.273.273 0 01.082.2v.729a.273.273 0 01-.082.2.275.275 0 01-.2.082h-.952zm2.558 0a.275.275 0 01-.2-.082.273.273 0 01-.082-.2v-5.548c0-.079.028-.145.083-.2a.272.272 0 01.2-.083h.975c.086 0 .153.028.2.083a.272.272 0 01.082.2v5.548a.273.273 0 01-.082.2.251.251 0 01-.2.082h-.976zm-.047-7.123a.314.314 0 01-.211-.071.314.314 0 01-.07-.212v-.846c0-.078.023-.145.07-.2a.286.286 0 01.211-.082h1.07c.086 0 .157.027.212.082a.273.273 0 01.082.2v.846a.286.286 0 01-.082.212.314.314 0 01-.212.071h-1.07zm3.388 7.123a.275.275 0 01-.2-.082.273.273 0 01-.082-.2v-5.548c0-.079.027-.145.082-.2a.272.272 0 01.2-.083h.917c.078 0 .145.028.2.083a.272.272 0 01.082.2v.399c.164-.219.384-.403.658-.552a2.116 2.116 0 011-.247c.893-.016 1.516.333 1.868 1.046.18-.313.439-.564.776-.752a2.267 2.267 0 011.14-.294c.408 0 .776.094 1.105.282.337.188.6.474.788.858.196.376.294.854.294 1.434v3.374a.273.273 0 01-.083.2.275.275 0 01-.2.082h-.963a.275.275 0 01-.2-.082.273.273 0 01-.083-.2v-3.28c0-.352-.05-.631-.152-.834a.92.92 0 00-.412-.447 1.272 1.272 0 00-.576-.129 1.15 1.15 0 00-.517.129.977.977 0 00-.423.447c-.11.203-.165.482-.165.834v3.28a.273.273 0 01-.082.2.275.275 0 01-.2.082h-.964a.29.29 0 01-.211-.082.298.298 0 01-.07-.2v-3.28c0-.352-.056-.631-.165-.834a.977.977 0 00-.424-.447 1.221 1.221 0 00-.552-.129c-.18 0-.357.047-.529.141a.986.986 0 00-.423.435c-.11.203-.165.482-.165.834v3.28a.273.273 0 01-.082.2.275.275 0 01-.2.082h-.987zm12.958.117c-.87 0-1.56-.25-2.07-.752-.509-.501-.783-1.215-.822-2.139a3.075 3.075 0 01-.012-.294c0-.125.004-.223.012-.294.031-.588.164-1.097.4-1.528a2.47 2.47 0 01.999-.987c.423-.236.92-.353 1.493-.353.634 0 1.167.133 1.598.4.431.258.756.623.976 1.093.22.462.329.999.329 1.61v.247a.273.273 0 01-.082.2.286.286 0 01-.212.082H69.32v.094c.008.274.06.529.153.764.102.227.247.412.435.553.196.141.427.211.694.211.22 0 .403-.031.552-.094a1.455 1.455 0 00.564-.447c.07-.094.126-.148.165-.164a.45.45 0 01.2-.035h1.01c.079 0 .142.023.189.07a.193.193 0 01.07.177c-.008.125-.074.278-.2.458-.117.18-.29.357-.517.529a3.053 3.053 0 01-.858.435c-.337.11-.725.164-1.163.164zm-1.294-3.702h2.598v-.036c0-.305-.05-.572-.153-.799a1.27 1.27 0 00-.446-.541 1.225 1.225 0 00-.706-.199c-.274 0-.509.066-.705.199a1.27 1.27 0 00-.447.541 2.081 2.081 0 00-.14.799v.036zm5.727 3.585a.275.275 0 01-.2-.082.273.273 0 01-.082-.2v-5.548c0-.079.027-.145.082-.2a.272.272 0 01.2-.083h.964c.078 0 .145.028.2.083a.272.272 0 01.082.2v.481c.203-.25.462-.458.775-.623.322-.172.718-.258 1.188-.258.478 0 .893.11 1.246.329.352.212.623.513.81.905.197.392.295.862.295 1.411v3.303a.273.273 0 01-.083.2.275.275 0 01-.2.082H79.29a.275.275 0 01-.2-.082.273.273 0 01-.082-.2v-3.233c0-.454-.114-.811-.34-1.069-.22-.259-.542-.388-.965-.388-.407 0-.733.129-.975.388-.243.258-.365.615-.365 1.069v3.233a.273.273 0 01-.082.2.275.275 0 01-.2.082h-1.034zm9.746 0c-.47 0-.866-.082-1.187-.247a1.575 1.575 0 01-.717-.729c-.157-.329-.235-.736-.235-1.222V239.4h-.929a.271.271 0 01-.2-.082.272.272 0 01-.082-.2v-.681c0-.079.028-.145.082-.2a.272.272 0 01.2-.083h.929v-1.951c0-.078.023-.145.07-.2a.286.286 0 01.212-.082h.952c.078 0 .145.027.2.082a.273.273 0 01.082.2v1.951h1.47c.078 0 .144.028.2.083a.272.272 0 01.082.2v.681a.272.272 0 01-.083.2.271.271 0 01-.2.082H84.17v2.551c0 .321.055.572.165.752.117.181.317.271.6.271h.81c.079 0 .145.027.2.082a.273.273 0 01.082.2v.729a.273.273 0 01-.082.2.275.275 0 01-.2.082h-.952zm4.98.117c-.626 0-1.155-.109-1.586-.329a2.326 2.326 0 01-.976-.928c-.22-.4-.344-.866-.376-1.399a9.612 9.612 0 01-.012-.517c0-.204.004-.377.012-.518.032-.54.16-1.007.388-1.398.235-.4.564-.71.987-.929.431-.219.953-.329 1.564-.329.611 0 1.128.11 1.551.329.431.219.76.529.988.929.235.391.368.858.4 1.398.007.141.011.314.011.518 0 .203-.004.376-.012.517-.03.533-.16.999-.388 1.399-.219.399-.544.709-.975.928-.423.22-.948.329-1.575.329zm0-1.163c.416 0 .737-.13.965-.388.227-.267.352-.655.376-1.164.008-.117.012-.27.012-.458a7.23 7.23 0 00-.012-.459c-.024-.501-.15-.885-.376-1.152-.228-.266-.549-.399-.964-.399-.415 0-.737.133-.964.399-.227.267-.353.651-.376 1.152a7.155 7.155 0 00-.012.459c0 .188.004.341.012.458.023.509.149.897.376 1.164.227.258.549.388.964.388zm6.57 1.163c-.471 0-.874-.054-1.212-.164-.329-.11-.599-.247-.81-.412a1.952 1.952 0 01-.47-.493c-.103-.165-.157-.302-.165-.412-.008-.086.015-.153.07-.2a.303.303 0 01.2-.082h.929c.031 0 .058.004.082.012a.287.287 0 01.094.07l.317.271c.118.094.255.176.412.247.156.062.352.094.587.094.306 0 .56-.059.764-.177.212-.125.318-.301.318-.529a.566.566 0 00-.141-.399c-.086-.102-.25-.192-.494-.271a8.56 8.56 0 00-1.034-.27 4.404 4.404 0 01-1.093-.388 1.63 1.63 0 01-.647-.588 1.566 1.566 0 01-.212-.822c0-.306.09-.596.27-.87.189-.282.463-.514.824-.694.368-.18.822-.27 1.363-.27.423 0 .792.055 1.105.164.314.102.572.232.776.388.212.157.372.318.482.482.11.157.168.294.176.412a.251.251 0 01-.07.211.282.282 0 01-.188.071h-.87a.23.23 0 01-.106-.024.599.599 0 01-.094-.058 9.224 9.224 0 00-.282-.247 1.433 1.433 0 00-.376-.224c-.141-.07-.33-.105-.564-.105-.298 0-.526.066-.682.199a.591.591 0 00-.235.482c0 .134.035.251.105.353.079.094.232.184.459.27.227.087.572.177 1.034.271.525.094.94.235 1.246.423.314.18.533.392.659.635.133.235.2.497.2.787 0 .353-.106.67-.318.952-.204.282-.51.506-.917.67-.4.157-.897.235-1.493.235zM21.598 314.008c-.564 0-1.062-.106-1.493-.317a2.41 2.41 0 01-1-.917c-.234-.408-.364-.898-.387-1.47a7.1 7.1 0 01-.012-.458c0-.196.004-.357.012-.482.023-.572.153-1.058.388-1.458a2.377 2.377 0 01.999-.928c.431-.212.929-.318 1.493-.318.501 0 .928.071 1.281.212.353.141.643.317.87.529.227.212.396.435.505.67.118.227.18.435.188.623a.238.238 0 01-.082.212.296.296 0 01-.2.07h-1.034a.285.285 0 01-.188-.059.684.684 0 01-.118-.176c-.117-.313-.274-.533-.47-.658-.188-.133-.43-.2-.729-.2-.391 0-.705.125-.94.376-.227.243-.349.631-.364 1.164a7.183 7.183 0 000 .823c.015.54.137.932.364 1.175.235.243.549.364.94.364.306 0 .553-.062.74-.188.189-.133.342-.356.46-.67a.684.684 0 01.117-.176.285.285 0 01.188-.059h1.034c.079 0 .145.028.2.083.063.047.09.113.082.199a1.968 1.968 0 01-.435 1.023c-.14.18-.32.349-.54.505-.22.149-.486.271-.8.365a3.65 3.65 0 01-1.07.141zm5.845 0c-.407 0-.776-.078-1.105-.235a2.148 2.148 0 01-.787-.647 1.584 1.584 0 01-.282-.917c0-.548.22-.983.658-1.304.447-.329 1.034-.549 1.763-.659l1.61-.235v-.246c0-.33-.082-.584-.246-.765-.165-.18-.447-.27-.847-.27-.282 0-.513.059-.693.176-.173.11-.302.259-.388.447a.3.3 0 01-.27.153h-.93a.27.27 0 01-.199-.071.283.283 0 01-.059-.188c.008-.125.06-.278.153-.458.094-.18.243-.353.447-.517a2.56 2.56 0 01.787-.435c.322-.118.71-.177 1.164-.177.494 0 .91.063 1.246.189.345.117.62.278.823.481.204.204.353.443.447.717.094.275.14.565.14.87v3.691a.272.272 0 01-.082.2.271.271 0 01-.2.082h-.952a.286.286 0 01-.211-.082.296.296 0 01-.07-.2v-.458c-.103.149-.24.29-.412.423a2.406 2.406 0 01-.635.317 2.827 2.827 0 01-.87.118zm.4-1.117c.274 0 .521-.059.74-.176.228-.118.404-.298.53-.541.133-.251.2-.564.2-.94v-.247l-1.176.188c-.463.071-.807.184-1.035.341-.227.157-.34.349-.34.576a.69.69 0 00.152.447c.11.117.247.207.412.27.164.055.337.082.517.082zm4.823.999a.271.271 0 01-.2-.082.272.272 0 01-.082-.2v-5.536c0-.086.027-.157.082-.212a.271.271 0 01.2-.082h.952c.078 0 .145.027.2.082a.27.27 0 01.094.212v.482c.18-.251.411-.443.693-.576.29-.133.623-.2 1-.2h.481c.087 0 .153.027.2.082a.273.273 0 01.082.2v.846a.272.272 0 01-.082.2.249.249 0 01-.2.083h-.916c-.377 0-.67.105-.882.317-.204.211-.306.501-.306.87v3.232a.272.272 0 01-.082.2.286.286 0 01-.212.082h-1.022zm7.382 0c-.47 0-.866-.082-1.188-.246a1.58 1.58 0 01-.717-.729c-.156-.329-.235-.737-.235-1.223v-2.668h-.928a.271.271 0 01-.2-.082.273.273 0 01-.083-.2v-.682c0-.078.028-.145.083-.2a.271.271 0 01.2-.082h.928v-1.951c0-.079.024-.145.07-.2a.286.286 0 01.212-.082h.953c.078 0 .144.027.2.082a.272.272 0 01.082.2v1.951h1.469c.078 0 .145.027.2.082a.273.273 0 01.082.2v.682a.273.273 0 01-.082.2.271.271 0 01-.2.082h-1.47v2.551c0 .321.055.572.165.752.118.18.318.27.6.27h.81c.08 0 .146.028.2.083a.27.27 0 01.083.199v.729a.272.272 0 01-.082.2.271.271 0 01-.2.082h-.952zm4.98.118c-.627 0-1.156-.11-1.587-.329a2.329 2.329 0 01-.975-.929c-.22-.399-.345-.866-.377-1.399a9.471 9.471 0 01-.011-.517c0-.204.004-.376.011-.517.032-.541.161-1.007.388-1.399.236-.399.565-.709.988-.928.43-.22.952-.33 1.563-.33s1.129.11 1.552.33c.43.219.76.529.987.928.235.392.368.858.4 1.399.008.141.011.313.011.517 0 .204-.003.376-.011.517-.032.533-.16 1-.388 1.399-.22.4-.545.709-.976.929-.423.219-.948.329-1.575.329zm0-1.164c.416 0 .737-.129.964-.388.227-.266.353-.654.376-1.163.008-.118.012-.271.012-.459s-.004-.341-.012-.458c-.023-.502-.149-.886-.376-1.152-.227-.267-.548-.4-.964-.4-.415 0-.736.133-.964.4-.227.266-.352.65-.376 1.152-.008.117-.012.27-.012.458s.004.341.012.459c.024.509.149.897.376 1.163.227.259.549.388.964.388zm.647-5.889c-.204 0-.369-.031-.494-.094a7.023 7.023 0 01-.353-.211.582.582 0 00-.34-.106c-.102 0-.177.031-.224.094a3.36 3.36 0 00-.117.176c-.04.055-.102.082-.188.082h-.541a.192.192 0 01-.141-.058.195.195 0 01-.06-.141c0-.118.02-.247.06-.388.047-.149.117-.29.211-.424a1.05 1.05 0 01.87-.446c.212 0 .38.035.506.106.125.062.239.129.34.199.11.071.228.106.353.106.102 0 .172-.031.212-.094.047-.063.09-.121.129-.176.04-.063.102-.094.188-.094h.54c.063 0 .11.023.142.07.039.04.059.087.059.141 0 .118-.024.251-.07.4-.04.141-.107.278-.2.411a1.137 1.137 0 01-.365.33 1.055 1.055 0 01-.517.117zm6.239 7.053c-.87 0-1.56-.251-2.069-.752-.51-.502-.783-1.215-.823-2.14a3.045 3.045 0 01-.011-.294c0-.125.003-.223.011-.293.032-.588.165-1.098.4-1.529a2.47 2.47 0 011-.987c.422-.235.92-.353 1.492-.353.635 0 1.168.134 1.599.4.43.259.756.623.975 1.093.22.463.33.999.33 1.611v.246a.272.272 0 01-.083.2.286.286 0 01-.212.083h-3.902v.094c.008.274.059.529.153.764.102.227.247.411.435.552.196.141.427.212.693.212.22 0 .404-.032.553-.094a1.483 1.483 0 00.564-.447c.07-.094.125-.149.165-.165a.464.464 0 01.2-.035h1.01c.078 0 .141.024.188.071a.192.192 0 01.07.176c-.007.125-.074.278-.199.458-.118.181-.29.357-.517.529a3 3 0 01-.858.435 3.75 3.75 0 01-1.164.165zm-1.293-3.703h2.598v-.035c0-.306-.051-.572-.153-.799a1.259 1.259 0 00-.447-.541 1.226 1.226 0 00-.705-.2c-.274 0-.51.067-.705.2a1.259 1.259 0 00-.447.541 2.078 2.078 0 00-.141.799v.035zm7.76 3.703c-.47 0-.874-.055-1.211-.165-.33-.109-.6-.246-.811-.411a1.952 1.952 0 01-.47-.494c-.102-.164-.157-.301-.165-.411-.008-.086.016-.153.07-.2a.298.298 0 01.2-.082h.93a.29.29 0 01.081.011.294.294 0 01.094.071l.318.27c.117.094.255.177.411.247.157.063.353.094.588.094.306 0 .56-.059.764-.176.212-.125.317-.302.317-.529a.566.566 0 00-.14-.4c-.087-.102-.251-.192-.494-.27a8.55 8.55 0 00-1.035-.27 4.444 4.444 0 01-1.093-.388 1.637 1.637 0 01-.646-.588 1.567 1.567 0 01-.212-.823c0-.305.09-.595.27-.87.188-.282.463-.513.823-.693.369-.18.823-.271 1.364-.271.423 0 .791.055 1.105.165.313.102.572.231.776.388.211.157.372.317.481.482.11.157.169.294.177.411a.253.253 0 01-.07.212.28.28 0 01-.189.07h-.87a.229.229 0 01-.105-.023.602.602 0 01-.095-.059 10.84 10.84 0 00-.282-.247 1.46 1.46 0 00-.376-.223c-.14-.071-.329-.106-.564-.106-.298 0-.525.067-.682.2a.59.59 0 00-.235.482c0 .133.035.251.106.353.078.094.231.184.458.27a7.2 7.2 0 001.035.27c.525.094.94.235 1.246.423.313.181.533.392.658.635.133.235.2.498.2.788 0 .352-.106.67-.318.952-.203.282-.509.505-.916.67-.4.157-.898.235-1.493.235zM21.715 383.514c-.47 0-.866-.082-1.187-.247a1.571 1.571 0 01-.717-.729c-.157-.329-.235-.736-.235-1.222v-2.669h-.929a.271.271 0 01-.2-.082.272.272 0 01-.082-.2v-.681c0-.079.028-.145.083-.2a.271.271 0 01.2-.082h.928v-1.952c0-.078.024-.145.07-.2a.29.29 0 01.212-.082h.952c.079 0 .145.028.2.082a.273.273 0 01.082.2v1.952h1.47c.078 0 .145.027.2.082a.272.272 0 01.082.2v.681a.272.272 0 01-.082.2.271.271 0 01-.2.082h-1.47v2.551c0 .322.055.572.165.753.117.18.317.27.6.27h.81c.079 0 .145.027.2.082a.273.273 0 01.083.2v.729a.273.273 0 01-.083.2.275.275 0 01-.2.082h-.952zm2.56 0a.275.275 0 01-.2-.082.273.273 0 01-.083-.2v-5.537c0-.086.028-.156.083-.211a.271.271 0 01.2-.082h.952c.078 0 .145.027.2.082a.268.268 0 01.093.211v.482c.18-.25.412-.442.694-.576.29-.133.623-.199 1-.199h.481c.086 0 .153.027.2.082a.272.272 0 01.082.2v.846a.273.273 0 01-.082.2.248.248 0 01-.2.082h-.917c-.376 0-.67.106-.881.317-.204.212-.306.502-.306.87v3.233a.273.273 0 01-.082.2.29.29 0 01-.212.082h-1.023zm6.302.117c-.407 0-.776-.078-1.105-.235a2.146 2.146 0 01-.787-.646 1.584 1.584 0 01-.282-.917c0-.549.219-.983.658-1.305.446-.329 1.034-.548 1.763-.658l1.61-.235v-.247c0-.329-.082-.584-.246-.764-.165-.18-.447-.27-.847-.27-.282 0-.513.058-.693.176-.173.11-.302.259-.388.447a.299.299 0 01-.27.152h-.93c-.085 0-.152-.023-.2-.07a.285.285 0 01-.058-.188c.008-.126.059-.278.153-.459.094-.18.243-.352.447-.517.203-.172.466-.317.787-.435.322-.117.71-.176 1.164-.176.494 0 .909.063 1.246.188.345.118.619.278.823.482.204.204.352.443.446.717.094.274.141.564.141.87v3.691a.273.273 0 01-.082.2.275.275 0 01-.2.082h-.952a.29.29 0 01-.211-.082.298.298 0 01-.07-.2v-.459c-.103.149-.24.29-.412.424a2.406 2.406 0 01-.635.317 2.86 2.86 0 01-.87.117zm.4-1.116c.274 0 .52-.059.74-.177.228-.117.404-.297.53-.54.133-.251.2-.564.2-.941v-.246l-1.176.188c-.463.07-.808.184-1.035.34-.227.157-.34.349-.34.576 0 .173.05.322.152.447.11.118.247.208.412.27.164.055.337.083.517.083zm4.823.999a.275.275 0 01-.2-.082.273.273 0 01-.083-.2v-5.548c0-.079.028-.145.083-.2a.271.271 0 01.2-.082h.963c.079 0 .145.027.2.082a.272.272 0 01.082.2v.482c.204-.251.463-.459.776-.623.322-.173.717-.259 1.188-.259.478 0 .893.11 1.246.329.352.212.622.513.81.905.197.392.294.862.294 1.411v3.303a.273.273 0 01-.082.2.275.275 0 01-.2.082h-1.034a.275.275 0 01-.2-.082.273.273 0 01-.082-.2v-3.233c0-.454-.114-.811-.341-1.069-.22-.259-.54-.388-.964-.388-.407 0-.733.129-.976.388-.242.258-.364.615-.364 1.069v3.233a.273.273 0 01-.082.2.275.275 0 01-.2.082h-1.035zm9.368.117c-.47 0-.873-.054-1.21-.164-.33-.11-.6-.247-.811-.412a1.95 1.95 0 01-.47-.493c-.103-.165-.157-.302-.165-.412-.008-.086.015-.152.07-.199a.3.3 0 01.2-.083h.929c.031 0 .059.004.082.012a.28.28 0 01.094.071l.317.27c.118.094.255.176.412.247.157.062.352.094.587.094.306 0 .56-.059.765-.177.211-.125.317-.301.317-.528a.566.566 0 00-.141-.4c-.086-.102-.25-.192-.494-.271a8.55 8.55 0 00-1.034-.27 4.407 4.407 0 01-1.093-.388 1.63 1.63 0 01-.647-.587 1.573 1.573 0 01-.212-.823c0-.306.09-.596.27-.87.189-.282.463-.513.824-.694.368-.18.822-.27 1.363-.27.423 0 .792.055 1.105.165.314.101.572.231.776.387.212.157.372.318.482.482.11.157.168.294.176.412a.25.25 0 01-.07.211.281.281 0 01-.188.071h-.87a.23.23 0 01-.106-.024.598.598 0 01-.094-.058 9.345 9.345 0 00-.282-.247 1.463 1.463 0 00-.376-.224c-.141-.07-.33-.105-.565-.105-.297 0-.525.066-.681.199a.591.591 0 00-.235.482c0 .134.035.251.105.353.079.094.232.184.459.27.227.087.572.177 1.034.271.525.094.94.235 1.246.423.314.18.533.392.659.635.133.235.2.497.2.787 0 .353-.107.67-.318.952-.204.282-.51.506-.917.67-.4.157-.897.235-1.493.235zm4.858-.117a.275.275 0 01-.2-.082.273.273 0 01-.082-.2v-4.585h-.952a.271.271 0 01-.2-.082.272.272 0 01-.082-.2v-.681c0-.079.027-.145.082-.2a.271.271 0 01.2-.082h.952v-.482c0-.471.086-.859.259-1.164.172-.314.427-.549.764-.705.337-.157.764-.236 1.28-.236h.8c.087 0 .153.028.2.083a.272.272 0 01.082.2v.681a.272.272 0 01-.082.2.248.248 0 01-.2.082h-.752c-.313 0-.529.079-.646.236-.118.156-.177.384-.177.681v.424h1.458c.086 0 .153.027.2.082a.272.272 0 01.082.2v.681a.272.272 0 01-.083.2.248.248 0 01-.2.082h-1.457v4.585a.273.273 0 01-.082.2.275.275 0 01-.2.082h-.964zm6.468.117c-.87 0-1.56-.25-2.069-.752-.51-.501-.783-1.214-.822-2.139a3.024 3.024 0 01-.012-.294c0-.125.004-.223.011-.294.032-.588.165-1.097.4-1.528a2.47 2.47 0 011-.987c.422-.235.92-.353 1.492-.353.635 0 1.168.133 1.599.4.43.258.756.623.975 1.093.22.462.33.999.33 1.61v.247a.273.273 0 01-.083.2.285.285 0 01-.211.082H55.2v.094c.008.274.059.529.153.764.102.227.247.412.435.553.196.141.427.211.693.211.22 0 .404-.031.553-.094a1.542 1.542 0 00.564-.446c.07-.094.125-.149.165-.165a.45.45 0 01.2-.035h1.01c.079 0 .141.023.188.07a.193.193 0 01.071.177c-.008.125-.075.278-.2.458-.117.18-.29.357-.517.529a3.052 3.052 0 01-.858.435 3.75 3.75 0 01-1.164.164zm-1.293-3.702H57.8v-.036c0-.305-.051-.572-.153-.799a1.27 1.27 0 00-.447-.541 1.225 1.225 0 00-.705-.199c-.274 0-.51.066-.705.199a1.27 1.27 0 00-.447.541 2.08 2.08 0 00-.14.799v.036zm5.726 3.585a.275.275 0 01-.2-.082.273.273 0 01-.082-.2v-5.537c0-.086.028-.156.082-.211a.271.271 0 01.2-.082h.953c.078 0 .145.027.2.082a.268.268 0 01.093.211v.482c.18-.25.412-.442.694-.576.29-.133.623-.199.999-.199h.482c.086 0 .153.027.2.082a.272.272 0 01.082.2v.846a.273.273 0 01-.082.2.248.248 0 01-.2.082h-.917c-.376 0-.67.106-.881.317-.204.212-.306.502-.306.87v3.233a.273.273 0 01-.082.2.29.29 0 01-.212.082h-1.023zm7.173.117c-.87 0-1.56-.25-2.07-.752-.509-.501-.783-1.214-.822-2.139a3.056 3.056 0 01-.012-.294c0-.125.004-.223.012-.294.031-.588.165-1.097.4-1.528a2.47 2.47 0 01.999-.987c.423-.235.92-.353 1.493-.353.634 0 1.167.133 1.598.4.431.258.756.623.976 1.093.22.462.329.999.329 1.61v.247a.273.273 0 01-.082.2.285.285 0 01-.212.082h-3.903v.094c.008.274.06.529.153.764.102.227.247.412.435.553.196.141.427.211.694.211.22 0 .403-.031.552-.094a1.542 1.542 0 00.564-.446c.071-.094.126-.149.165-.165a.45.45 0 01.2-.035h1.01c.08 0 .142.023.189.07a.193.193 0 01.07.177c-.007.125-.074.278-.2.458-.117.18-.29.357-.517.529a3.052 3.052 0 01-.858.435 3.75 3.75 0 01-1.163.164zm-1.293-3.702h2.597v-.036c0-.305-.05-.572-.153-.799a1.27 1.27 0 00-.446-.541 1.225 1.225 0 00-.706-.199c-.274 0-.509.066-.705.199a1.269 1.269 0 00-.446.541 2.08 2.08 0 00-.141.799v.036zm-.506-3.409c-.118 0-.176-.051-.176-.153 0-.063.035-.129.106-.2l1.14-1.175a.58.58 0 01.211-.153.521.521 0 01.188-.035h.647c.07 0 .133.011.188.035a.476.476 0 01.212.153l1.14 1.175c.07.071.106.137.106.2 0 .102-.06.153-.177.153h-.423a1.78 1.78 0 01-.2-.012.716.716 0 01-.176-.07l-.987-.623-1 .623a.691.691 0 01-.188.07 1.398 1.398 0 01-.176.012h-.435zm6.232 6.994a.275.275 0 01-.2-.082.273.273 0 01-.082-.2v-5.548c0-.079.027-.145.082-.2a.271.271 0 01.2-.082h.964c.078 0 .145.027.2.082a.272.272 0 01.082.2v.482a2.44 2.44 0 01.776-.623c.32-.173.717-.259 1.187-.259.478 0 .893.11 1.246.329.352.212.623.513.81.905.197.392.295.862.295 1.411v3.303a.273.273 0 01-.083.2.275.275 0 01-.2.082h-1.034a.275.275 0 01-.2-.082.273.273 0 01-.082-.2v-3.233c0-.454-.114-.811-.34-1.069-.22-.259-.541-.388-.965-.388-.407 0-.732.129-.975.388-.243.258-.365.615-.365 1.069v3.233a.273.273 0 01-.082.2.275.275 0 01-.2.082h-1.034zm9.698.117c-.565 0-1.062-.105-1.493-.317a2.397 2.397 0 01-1-.917c-.234-.407-.364-.897-.387-1.469a7.219 7.219 0 01-.012-.459c0-.195.004-.356.012-.481.023-.573.153-1.058.388-1.458a2.38 2.38 0 01.999-.929c.43-.211.928-.317 1.493-.317.501 0 .928.07 1.28.212.354.141.644.317.87.529.228.211.397.434.506.67.118.227.18.434.188.623a.237.237 0 01-.082.211.297.297 0 01-.2.071H83.76a.286.286 0 01-.188-.059.687.687 0 01-.118-.176c-.118-.314-.274-.533-.47-.659-.188-.133-.431-.2-.729-.2-.392 0-.705.126-.94.377-.227.243-.349.63-.365 1.163a7.183 7.183 0 000 .823c.016.541.138.933.365 1.176.235.243.548.364.94.364.306 0 .553-.063.74-.188.189-.133.341-.357.46-.67a.687.687 0 01.117-.176.28.28 0 01.188-.059h1.034c.078 0 .145.027.2.082.063.047.09.114.082.2a1.587 1.587 0 01-.117.482 1.997 1.997 0 01-.318.541c-.14.18-.321.348-.54.505-.22.149-.486.27-.8.364a3.65 3.65 0 01-1.07.141zm4.352-.117a.275.275 0 01-.2-.082.273.273 0 01-.082-.2v-5.548c0-.079.028-.145.082-.2a.271.271 0 01.2-.082h.976c.086 0 .153.027.2.082a.272.272 0 01.082.2v5.548a.273.273 0 01-.082.2.251.251 0 01-.2.082h-.976zm-.047-7.123a.314.314 0 01-.211-.071.314.314 0 01-.07-.212v-.846c0-.078.023-.145.07-.2a.286.286 0 01.211-.082h1.07c.086 0 .157.027.212.082a.273.273 0 01.082.2v.846a.286.286 0 01-.083.212.314.314 0 01-.211.071h-1.07zm4.64 7.24c-.408 0-.776-.078-1.106-.235a2.147 2.147 0 01-.787-.646 1.585 1.585 0 01-.282-.917c0-.549.22-.983.658-1.305.447-.329 1.034-.548 1.763-.658l1.61-.235v-.247c0-.329-.082-.584-.246-.764-.165-.18-.447-.27-.847-.27-.282 0-.513.058-.693.176-.172.11-.302.259-.388.447a.299.299 0 01-.27.152h-.929c-.086 0-.153-.023-.2-.07a.285.285 0 01-.059-.188c.008-.126.06-.278.153-.459.094-.18.243-.352.447-.517a2.6 2.6 0 01.787-.435c.322-.117.71-.176 1.164-.176.494 0 .91.063 1.246.188.345.118.62.278.823.482.204.204.353.443.447.717.094.274.14.564.14.87v3.691a.273.273 0 01-.082.2.275.275 0 01-.2.082h-.951a.29.29 0 01-.212-.082.298.298 0 01-.07-.2v-.459a1.91 1.91 0 01-.412.424 2.407 2.407 0 01-.635.317 2.861 2.861 0 01-.87.117zm.4-1.116c.273 0 .52-.059.74-.177.227-.117.403-.297.529-.54.133-.251.2-.564.2-.941v-.246l-1.176.188c-.462.07-.807.184-1.034.34-.228.157-.341.349-.341.576 0 .173.05.322.153.447.11.118.246.208.41.27.165.055.338.083.518.083zm6.855 1.116c-.47 0-.873-.054-1.21-.164-.33-.11-.6-.247-.811-.412a1.95 1.95 0 01-.47-.493c-.102-.165-.157-.302-.165-.412-.008-.086.016-.152.07-.199a.3.3 0 01.2-.083h.929c.031 0 .059.004.082.012a.278.278 0 01.094.071l.318.27c.117.094.254.176.411.247.157.062.353.094.588.094.305 0 .56-.059.764-.177.211-.125.317-.301.317-.528a.566.566 0 00-.14-.4c-.087-.102-.252-.192-.495-.271a8.56 8.56 0 00-1.034-.27 4.404 4.404 0 01-1.093-.388 1.628 1.628 0 01-.647-.587 1.572 1.572 0 01-.211-.823c0-.306.09-.596.27-.87.188-.282.462-.513.823-.694.368-.18.823-.27 1.363-.27.424 0 .792.055 1.105.165.314.101.572.231.776.387.212.157.372.318.482.482.11.157.169.294.176.412a.249.249 0 01-.07.211.282.282 0 01-.188.071h-.87a.23.23 0 01-.106-.024.599.599 0 01-.094-.058 9.224 9.224 0 00-.282-.247 1.461 1.461 0 00-.376-.224c-.141-.07-.33-.105-.564-.105-.298 0-.525.066-.682.199a.591.591 0 00-.235.482c0 .134.035.251.106.353.078.094.23.184.458.27.227.087.572.177 1.034.271.525.094.94.235 1.246.423.314.18.533.392.659.635.133.235.2.497.2.787 0 .353-.106.67-.318.952-.204.282-.509.506-.917.67-.4.157-.897.235-1.493.235zM19.247 455.371a.271.271 0 01-.2-.082.273.273 0 01-.082-.2v-7.782c0-.078.027-.145.082-.2a.275.275 0 01.2-.082h.928c.087 0 .153.028.2.082a.273.273 0 01.083.2v.47c.188-.25.435-.458.74-.623.306-.164.686-.246 1.14-.246.416 0 .776.066 1.082.199.305.134.56.326.764.576.204.243.36.533.47.87.11.337.172.709.188 1.117a6.935 6.935 0 010 .835 3.76 3.76 0 01-.176 1.093c-.11.329-.27.619-.482.87a2.188 2.188 0 01-.764.576c-.306.141-.666.211-1.082.211-.423 0-.783-.074-1.081-.223a2.152 2.152 0 01-.729-.611v2.668a.273.273 0 01-.082.2.248.248 0 01-.2.082h-1zm2.657-3.374c.336 0 .599-.07.787-.211.188-.149.321-.341.4-.576.086-.235.137-.494.152-.776.016-.235.016-.47 0-.705a2.677 2.677 0 00-.152-.776 1.134 1.134 0 00-.4-.564c-.188-.149-.45-.224-.787-.224-.322 0-.584.075-.788.224-.196.149-.341.341-.435.576a2.41 2.41 0 00-.153.705 8.007 8.007 0 000 .905c.008.235.063.462.165.682.102.211.25.388.446.529.196.141.451.211.765.211zm6.044 1.258c-.407 0-.775-.078-1.105-.235a2.156 2.156 0 01-.787-.646 1.587 1.587 0 01-.282-.917c0-.549.22-.984.658-1.305.447-.329 1.034-.549 1.763-.658l1.61-.235v-.247c0-.329-.082-.584-.246-.764-.165-.181-.447-.271-.847-.271-.282 0-.513.059-.693.177a1.018 1.018 0 00-.388.446.3.3 0 01-.27.153h-.929c-.086 0-.153-.023-.2-.07a.286.286 0 01-.059-.189c.008-.125.06-.278.153-.458.094-.18.243-.353.447-.517a2.56 2.56 0 01.788-.435c.32-.118.709-.176 1.163-.176.494 0 .91.062 1.246.188.345.117.62.278.823.482.204.203.353.442.447.717.094.274.14.564.14.87v3.69a.272.272 0 01-.082.2.272.272 0 01-.2.083h-.951a.286.286 0 01-.212-.083.296.296 0 01-.07-.2v-.458c-.102.149-.24.29-.412.423a2.407 2.407 0 01-.635.318 2.86 2.86 0 01-.87.117zm.4-1.117c.274 0 .521-.058.74-.176.228-.117.404-.298.53-.541.133-.25.2-.564.2-.94v-.247l-1.176.188c-.462.071-.807.184-1.034.341-.228.157-.341.349-.341.576 0 .173.05.321.152.447.11.117.247.207.412.27.164.055.337.082.517.082zm7.303 3.586c-.572 0-1.042-.075-1.41-.224-.369-.149-.659-.329-.87-.54a2.168 2.168 0 01-.459-.635 1.623 1.623 0 01-.14-.482.27.27 0 01.07-.212.312.312 0 01.211-.082h1.023c.078 0 .141.016.188.047a.435.435 0 01.118.2c.047.102.11.211.188.329a.889.889 0 00.352.294c.165.086.388.129.67.129.298 0 .549-.043.753-.129a.884.884 0 00.458-.435c.11-.204.165-.486.165-.846v-.8a2.081 2.081 0 01-.73.553c-.29.141-.65.211-1.08.211-.424 0-.788-.066-1.094-.2a2.174 2.174 0 01-.764-.575 2.722 2.722 0 01-.47-.882 4.447 4.447 0 01-.176-1.117 8.619 8.619 0 010-.635 4.38 4.38 0 01.176-1.093c.102-.337.255-.631.458-.881.212-.259.47-.459.776-.6.306-.141.67-.211 1.093-.211.447 0 .823.086 1.129.258.305.165.556.372.752.623v-.47c0-.086.028-.157.082-.212a.275.275 0 01.2-.082h.952c.079 0 .145.028.2.082a.288.288 0 01.082.212l.012 5.666c0 .564-.106 1.05-.317 1.457a2.155 2.155 0 01-.964.941c-.423.227-.968.341-1.634.341zm-.059-3.868c.322 0 .58-.07.776-.211.196-.141.341-.325.435-.553.094-.227.149-.458.165-.693.007-.102.011-.231.011-.388s-.004-.282-.011-.376a2.096 2.096 0 00-.165-.694 1.26 1.26 0 00-.435-.552c-.196-.149-.454-.224-.776-.224-.321 0-.58.075-.776.224a1.177 1.177 0 00-.423.564 2.964 2.964 0 00-.14.776c-.016.188-.016.38 0 .576.015.274.062.533.14.776.087.235.228.423.423.564.196.141.455.211.776.211zm6.315 1.399c-.407 0-.776-.078-1.105-.235a2.156 2.156 0 01-.788-.646 1.587 1.587 0 01-.282-.917c0-.549.22-.984.659-1.305.446-.329 1.034-.549 1.763-.658l1.61-.235v-.247c0-.329-.082-.584-.247-.764-.164-.181-.446-.271-.846-.271-.282 0-.513.059-.694.177a1.018 1.018 0 00-.387.446.3.3 0 01-.27.153h-.93c-.086 0-.152-.023-.2-.07a.286.286 0 01-.058-.189c.008-.125.059-.278.153-.458s.243-.353.447-.517a2.56 2.56 0 01.787-.435c.321-.118.71-.176 1.164-.176.493 0 .909.062 1.246.188.345.117.619.278.823.482.203.203.352.442.446.717.094.274.141.564.141.87v3.69a.272.272 0 01-.082.2.272.272 0 01-.2.083h-.952a.286.286 0 01-.211-.083.296.296 0 01-.071-.2v-.458c-.102.149-.239.29-.411.423a2.407 2.407 0 01-.635.318 2.86 2.86 0 01-.87.117zm.4-1.117c.274 0 .52-.058.74-.176.228-.117.404-.298.53-.541.132-.25.199-.564.199-.94v-.247l-1.176.188c-.462.071-.807.184-1.034.341-.227.157-.34.349-.34.576 0 .173.05.321.152.447.11.117.247.207.411.27.165.055.337.082.518.082zm4.822 1a.272.272 0 01-.2-.083.272.272 0 01-.082-.2v-5.548c0-.078.028-.145.083-.2a.275.275 0 01.2-.082h.916c.079 0 .145.028.2.082a.273.273 0 01.082.2v.4c.165-.219.384-.404.659-.553a2.115 2.115 0 01.999-.246c.893-.016 1.516.333 1.869 1.046.18-.314.439-.564.776-.753a2.276 2.276 0 011.14-.293c.407 0 .776.094 1.105.282.337.188.6.474.787.858.196.376.294.854.294 1.434v3.373a.272.272 0 01-.082.2.272.272 0 01-.2.083h-.964a.272.272 0 01-.2-.083.272.272 0 01-.082-.2v-3.279c0-.353-.05-.631-.153-.835a.922.922 0 00-.411-.446 1.26 1.26 0 00-.576-.13c-.172 0-.345.043-.517.13a.98.98 0 00-.423.446c-.11.204-.165.482-.165.835v3.279a.272.272 0 01-.082.2.272.272 0 01-.2.083h-.964a.286.286 0 01-.212-.083.296.296 0 01-.07-.2v-3.279c0-.353-.055-.631-.165-.835a.98.98 0 00-.423-.446 1.209 1.209 0 00-.552-.13c-.18 0-.357.047-.53.141a.997.997 0 00-.422.435c-.11.204-.165.482-.165.835v3.279a.272.272 0 01-.082.2.272.272 0 01-.2.083h-.988zm12.958.117c-.87 0-1.56-.251-2.069-.752-.51-.502-.783-1.215-.822-2.14a3.001 3.001 0 01-.012-.293c0-.126.004-.224.012-.294.03-.588.164-1.097.4-1.528.242-.431.575-.76.998-.988.423-.235.921-.352 1.493-.352.635 0 1.168.133 1.599.399.43.259.756.623.975 1.093.22.463.33 1 .33 1.611v.247a.273.273 0 01-.083.2.29.29 0 01-.211.082h-3.903v.094c.008.274.059.529.153.764.102.227.247.411.435.552.196.141.427.212.693.212.22 0 .404-.031.553-.094a1.481 1.481 0 00.564-.447c.07-.094.125-.149.165-.164a.448.448 0 01.2-.036h1.01c.079 0 .141.024.188.071a.192.192 0 01.07.176c-.007.126-.074.278-.199.459-.117.18-.29.356-.517.529a3.053 3.053 0 01-.858.435 3.781 3.781 0 01-1.164.164zm-1.293-3.703h2.598v-.035c0-.305-.051-.572-.153-.799a1.264 1.264 0 00-.447-.541 1.226 1.226 0 00-.705-.2c-.274 0-.51.067-.705.2a1.264 1.264 0 00-.447.541 2.081 2.081 0 00-.14.799v.035zm5.726 3.586a.272.272 0 01-.2-.083.272.272 0 01-.082-.2v-5.548c0-.078.028-.145.082-.2a.275.275 0 01.2-.082h.964c.079 0 .145.028.2.082a.273.273 0 01.082.2v.482c.204-.251.463-.458.776-.623.321-.172.717-.258 1.187-.258.478 0 .894.109 1.246.329.353.211.623.513.811.905.196.392.294.862.294 1.41v3.303a.272.272 0 01-.082.2.272.272 0 01-.2.083h-1.034a.272.272 0 01-.2-.083.272.272 0 01-.082-.2v-3.232c0-.455-.114-.811-.341-1.07-.22-.258-.541-.388-.964-.388-.408 0-.733.13-.976.388-.243.259-.364.615-.364 1.07v3.232a.272.272 0 01-.082.2.272.272 0 01-.2.083H64.52zm9.747 0c-.47 0-.866-.083-1.187-.247a1.58 1.58 0 01-.717-.729c-.157-.329-.236-.737-.236-1.223v-2.668H71.2a.271.271 0 01-.2-.082.273.273 0 01-.082-.2v-.682c0-.078.027-.145.082-.2a.275.275 0 01.2-.082h.928v-1.951c0-.078.024-.145.071-.2a.286.286 0 01.212-.082h.952c.078 0 .145.027.2.082a.273.273 0 01.082.2v1.951h1.47c.078 0 .144.028.199.082a.273.273 0 01.082.2v.682a.273.273 0 01-.082.2.271.271 0 01-.2.082h-1.47v2.551c0 .321.056.572.165.752.118.18.318.271.6.271h.811c.078 0 .145.027.2.082a.272.272 0 01.082.2v.728a.272.272 0 01-.082.2.272.272 0 01-.2.083h-.952zm4.98.117c-.626 0-1.156-.11-1.587-.329a2.323 2.323 0 01-.975-.929c-.22-.399-.345-.866-.376-1.398a9.511 9.511 0 01-.012-.518c0-.203.004-.376.012-.517.031-.541.16-1.007.388-1.399.235-.399.564-.709.987-.928.431-.22.952-.329 1.563-.329.612 0 1.129.109 1.552.329.431.219.76.529.987.928.236.392.369.858.4 1.399.008.141.012.314.012.517 0 .204-.004.377-.012.518-.031.532-.16.999-.388 1.398-.22.4-.544.71-.975.929-.424.219-.949.329-1.576.329zm0-1.164c.416 0 .737-.129.964-.387.228-.267.353-.655.376-1.164.008-.118.012-.271.012-.459a7.1 7.1 0 00-.012-.458c-.023-.502-.148-.886-.376-1.152-.227-.266-.548-.4-.964-.4-.415 0-.736.134-.963.4-.228.266-.353.65-.377 1.152a7.1 7.1 0 00-.011.458c0 .188.004.341.011.459.024.509.15.897.377 1.164.227.258.548.387.963.387zm6.569 1.164c-.47 0-.874-.055-1.21-.164-.33-.11-.6-.247-.812-.412a1.937 1.937 0 01-.47-.494c-.102-.164-.157-.301-.165-.411-.008-.086.016-.153.07-.2a.298.298 0 01.2-.082h.93c.03 0 .058.004.082.012a.287.287 0 01.094.07l.317.271c.117.094.255.176.411.246.157.063.353.094.588.094.306 0 .56-.058.764-.176.212-.125.318-.302.318-.529a.564.564 0 00-.142-.399c-.086-.102-.25-.192-.493-.271a8.55 8.55 0 00-1.035-.27 4.407 4.407 0 01-1.093-.388 1.639 1.639 0 01-.646-.588 1.568 1.568 0 01-.212-.823c0-.305.09-.595.27-.87.189-.282.463-.513.823-.693.369-.18.823-.27 1.364-.27.423 0 .791.054 1.105.164.313.102.572.231.776.388.211.157.372.317.481.482.11.157.169.294.177.411a.252.252 0 01-.07.212.281.281 0 01-.189.071h-.87a.23.23 0 01-.105-.024.607.607 0 01-.094-.059c-.087-.078-.18-.16-.282-.247a1.462 1.462 0 00-.377-.223c-.14-.07-.329-.106-.564-.106-.298 0-.525.067-.682.2a.591.591 0 00-.235.482c0 .133.035.251.106.353.078.094.231.184.459.27.227.086.572.176 1.034.27.525.094.94.236 1.246.424.313.18.533.391.658.634.133.235.2.498.2.788 0 .353-.106.67-.317.952-.204.282-.51.505-.917.67-.4.157-.898.235-1.493.235zM19.235 522.761a.271.271 0 01-.2-.082.273.273 0 01-.082-.2v-5.536c0-.087.027-.157.082-.212a.271.271 0 01.2-.082h.952c.079 0 .145.027.2.082a.268.268 0 01.094.212v.482c.18-.251.412-.443.694-.576.29-.134.623-.2.999-.2h.482c.086 0 .153.027.2.082a.273.273 0 01.082.2v.846a.272.272 0 01-.082.2.248.248 0 01-.2.082h-.917c-.376 0-.67.106-.882.318-.203.211-.305.501-.305.87v3.232a.273.273 0 01-.083.2.286.286 0 01-.211.082h-1.023zm7.172.118c-.87 0-1.56-.251-2.069-.753-.509-.501-.783-1.214-.822-2.139a3.01 3.01 0 01-.012-.294c0-.125.004-.223.012-.294.031-.587.164-1.097.4-1.528a2.47 2.47 0 01.998-.987c.424-.235.921-.353 1.493-.353.635 0 1.168.133 1.599.4.431.259.756.623.976 1.093.219.462.329.999.329 1.61v.247a.272.272 0 01-.083.2.285.285 0 01-.211.082h-3.903v.094c.008.275.06.529.153.765.102.227.247.411.435.552.196.141.427.212.694.212.219 0 .403-.032.552-.094.149-.071.27-.149.364-.236.095-.086.161-.156.2-.211.07-.094.126-.149.165-.165a.465.465 0 01.2-.035h1.01c.079 0 .142.024.189.071a.191.191 0 01.07.176c-.008.125-.074.278-.2.458-.117.181-.29.357-.517.529a3 3 0 01-.858.435c-.337.11-.725.165-1.164.165zm-1.293-3.703h2.598v-.035c0-.306-.05-.572-.153-.8a1.262 1.262 0 00-.446-.54 1.226 1.226 0 00-.706-.2c-.274 0-.509.067-.705.2a1.26 1.26 0 00-.447.54 2.085 2.085 0 00-.14.8v.035zm8.09 3.703c-.565 0-1.063-.106-1.494-.318a2.4 2.4 0 01-.999-.916c-.235-.408-.364-.898-.388-1.47a7.1 7.1 0 01-.011-.458c0-.196.003-.357.011-.482.024-.572.153-1.058.388-1.458a2.377 2.377 0 011-.928c.43-.212.928-.318 1.492-.318.502 0 .929.071 1.281.212.353.141.643.317.87.529.228.211.396.435.506.67.117.227.18.435.188.623a.236.236 0 01-.082.211.297.297 0 01-.2.071H34.73a.285.285 0 01-.188-.059.684.684 0 01-.117-.176c-.118-.314-.275-.533-.47-.658-.189-.134-.431-.2-.73-.2-.391 0-.704.125-.94.376-.227.243-.348.631-.364 1.164a7.166 7.166 0 000 .822c.016.541.137.933.364 1.176.236.243.549.364.94.364.306 0 .553-.062.741-.188.188-.133.341-.356.459-.67a.684.684 0 01.117-.176.285.285 0 01.188-.059h1.035c.078 0 .145.028.2.082.062.047.09.114.082.2a1.968 1.968 0 01-.435 1.023c-.141.18-.321.349-.54.505-.22.149-.487.271-.8.365a3.65 3.65 0 01-1.07.141zm5.845 0c-.408 0-.776-.079-1.105-.235a2.148 2.148 0 01-.788-.647 1.584 1.584 0 01-.282-.917c0-.548.22-.983.658-1.304.447-.33 1.035-.549 1.764-.659l1.61-.235v-.247c0-.329-.082-.583-.247-.764-.164-.18-.447-.27-.846-.27-.282 0-.514.059-.694.176-.172.11-.301.259-.388.447a.3.3 0 01-.27.153h-.929a.27.27 0 01-.2-.071.283.283 0 01-.058-.188c.008-.125.059-.278.153-.458.094-.181.242-.353.446-.517a2.56 2.56 0 01.788-.435c.321-.118.709-.177 1.163-.177.494 0 .91.063 1.247.188.344.118.619.279.822.482.204.204.353.443.447.717.094.275.141.565.141.87v3.691a.273.273 0 01-.082.2.271.271 0 01-.2.082h-.952a.286.286 0 01-.212-.082.298.298 0 01-.07-.2v-.458c-.102.149-.24.29-.412.423a2.406 2.406 0 01-.634.317 2.827 2.827 0 01-.87.118zm.4-1.117c.274 0 .52-.059.74-.176a1.22 1.22 0 00.529-.541c.133-.251.2-.564.2-.94v-.247l-1.176.188c-.462.07-.807.184-1.034.341-.227.157-.341.349-.341.576 0 .172.05.321.153.446.11.118.247.208.411.271.165.055.337.082.517.082zm4.822.999a.271.271 0 01-.2-.082.273.273 0 01-.082-.2v-5.536c0-.087.028-.157.082-.212a.271.271 0 01.2-.082h.952c.079 0 .145.027.2.082a.268.268 0 01.094.212v.482c.18-.251.411-.443.694-.576.29-.134.623-.2.999-.2h.482c.086 0 .153.027.2.082a.273.273 0 01.082.2v.846a.272.272 0 01-.082.2.248.248 0 01-.2.082h-.917c-.376 0-.67.106-.882.318-.203.211-.305.501-.305.87v3.232a.273.273 0 01-.083.2.286.286 0 01-.211.082H44.27zm7.29 2.586c-.572 0-1.042-.074-1.41-.223-.369-.149-.659-.329-.87-.541a2.14 2.14 0 01-.459-.635 1.614 1.614 0 01-.14-.481.27.27 0 01.07-.212.312.312 0 01.211-.082h1.023c.078 0 .141.015.188.047a.43.43 0 01.118.199c.047.102.11.212.188.33a.888.888 0 00.352.293c.165.087.388.13.67.13.298 0 .549-.043.753-.13a.886.886 0 00.458-.434c.11-.204.165-.486.165-.847v-.799a2.09 2.09 0 01-.73.552c-.29.141-.65.212-1.08.212-.424 0-.788-.067-1.094-.2a2.164 2.164 0 01-.764-.576 2.715 2.715 0 01-.47-.881 4.45 4.45 0 01-.176-1.117 8.619 8.619 0 010-.635c.015-.392.074-.756.176-1.093.102-.337.255-.631.459-.882a2.16 2.16 0 01.775-.599c.306-.141.67-.212 1.093-.212.447 0 .823.086 1.129.259.306.164.556.372.752.623v-.47c0-.087.028-.157.083-.212a.271.271 0 01.2-.082h.951c.079 0 .145.027.2.082a.286.286 0 01.083.212l.011 5.665c0 .565-.105 1.051-.317 1.458a2.153 2.153 0 01-.964.94c-.423.228-.968.341-1.634.341zm-.059-3.867c.322 0 .58-.071.776-.212a1.26 1.26 0 00.435-.552c.094-.227.149-.459.165-.694.008-.101.011-.231.011-.388 0-.156-.004-.282-.011-.376a2.082 2.082 0 00-.165-.693 1.264 1.264 0 00-.435-.553c-.196-.149-.454-.223-.776-.223-.32 0-.58.074-.775.223a1.174 1.174 0 00-.424.565 2.96 2.96 0 00-.14.775 3.55 3.55 0 000 .576c.015.275.062.533.14.776.087.235.228.423.424.564.196.141.454.212.775.212zm6.315 1.399c-.407 0-.776-.079-1.105-.235a2.148 2.148 0 01-.787-.647 1.584 1.584 0 01-.282-.917c0-.548.219-.983.658-1.304.446-.33 1.034-.549 1.763-.659l1.61-.235v-.247c0-.329-.082-.583-.246-.764-.165-.18-.447-.27-.847-.27-.282 0-.513.059-.693.176-.173.11-.302.259-.388.447a.3.3 0 01-.27.153h-.93a.27.27 0 01-.2-.071.283.283 0 01-.058-.188c.008-.125.059-.278.153-.458.094-.181.243-.353.447-.517a2.56 2.56 0 01.787-.435c.322-.118.71-.177 1.164-.177.494 0 .909.063 1.246.188.345.118.619.279.823.482.203.204.352.443.446.717.094.275.141.565.141.87v3.691a.273.273 0 01-.082.2.271.271 0 01-.2.082h-.952a.286.286 0 01-.211-.082.298.298 0 01-.07-.2v-.458c-.103.149-.24.29-.412.423a2.406 2.406 0 01-.635.317 2.828 2.828 0 01-.87.118zm.4-1.117c.274 0 .52-.059.74-.176a1.22 1.22 0 00.53-.541c.133-.251.2-.564.2-.94v-.247l-1.176.188c-.463.07-.808.184-1.035.341-.227.157-.34.349-.34.576 0 .172.05.321.152.446.11.118.247.208.412.271.164.055.336.082.517.082zm6.856 1.117c-.47 0-.874-.055-1.21-.165-.33-.109-.6-.247-.812-.411a1.953 1.953 0 01-.47-.494c-.102-.164-.157-.302-.165-.411-.007-.087.016-.153.071-.2a.298.298 0 01.2-.082h.928c.032 0 .06.004.083.011a.294.294 0 01.094.071l.317.27c.118.094.255.177.412.247.156.063.352.094.587.094.306 0 .56-.059.764-.176.212-.126.318-.302.318-.529a.566.566 0 00-.141-.4c-.087-.102-.251-.192-.494-.27a8.519 8.519 0 00-1.034-.271 4.408 4.408 0 01-1.094-.387 1.639 1.639 0 01-.646-.588 1.57 1.57 0 01-.212-.823c0-.306.09-.596.27-.87.189-.282.463-.513.824-.693.368-.181.822-.271 1.363-.271.423 0 .791.055 1.105.165.314.102.572.231.776.388.211.156.372.317.482.482.11.156.168.294.176.411a.253.253 0 01-.07.212.28.28 0 01-.189.07h-.87a.242.242 0 01-.105-.023.693.693 0 01-.094-.059c-.086-.078-.18-.161-.282-.247a1.434 1.434 0 00-.376-.223c-.141-.071-.33-.106-.565-.106-.297 0-.525.067-.681.2a.59.59 0 00-.236.482c0 .133.036.25.106.352.079.094.231.185.459.271.227.086.572.176 1.034.27.525.094.94.235 1.246.423.314.18.533.392.658.635.134.235.2.498.2.788 0 .352-.106.67-.317.952-.204.282-.51.505-.917.67-.4.156-.897.235-1.493.235zM209.913 527.585h10.309a1.852 1.852 0 001.853-1.844v-19.37a1.852 1.852 0 00-1.853-1.844h-10.309a1.852 1.852 0 00-1.853 1.844v19.37c0 1.016.832 1.844 1.853 1.844zm10.874-5.379h-11.444v-13.424h11.444v13.424zm-.57 4.103h-10.304a.57.57 0 01-.57-.568v-2.26h11.444v2.26a.57.57 0 01-.57.568zm-10.304-20.506h10.309a.57.57 0 01.571.568v1.135h-11.45v-1.135a.57.57 0 01.57-.568z" fill="white"/><path d="M216.261 524.138h-2.53a.637.637 0 100 1.275h2.53a.637.637 0 100-1.275z" fill="white"/><path fill="#4D20EF" d="M.093 68.702h254.533v68.832H.093z"/><path d="M21.269 107.398c-.47 0-.874-.055-1.211-.165-.33-.11-.6-.247-.811-.411a1.953 1.953 0 01-.47-.494c-.102-.165-.157-.302-.165-.411-.008-.087.016-.153.07-.2a.3.3 0 01.2-.083h.93c.03 0 .058.004.081.012a.294.294 0 01.095.071l.317.27c.117.094.255.176.411.247.157.063.353.094.588.094.306 0 .56-.059.764-.176.212-.126.317-.302.317-.529a.566.566 0 00-.14-.4c-.087-.102-.251-.192-.494-.27a8.343 8.343 0 00-1.035-.271 4.404 4.404 0 01-1.093-.388 1.628 1.628 0 01-.646-.587 1.57 1.57 0 01-.212-.823c0-.306.09-.596.27-.87.188-.282.463-.513.823-.694.369-.18.823-.27 1.364-.27.423 0 .791.055 1.105.165.313.102.572.231.775.388.212.156.373.317.482.482.11.156.169.293.177.411a.253.253 0 01-.07.212.28.28 0 01-.189.07h-.87a.242.242 0 01-.106-.023.694.694 0 01-.094-.059 9.224 9.224 0 00-.282-.247 1.433 1.433 0 00-.376-.223c-.14-.071-.329-.106-.564-.106-.298 0-.525.066-.682.2a.59.59 0 00-.235.482c0 .133.035.25.106.352.078.094.231.184.458.271a7.2 7.2 0 001.035.27c.525.094.94.235 1.246.423.313.18.533.392.658.635.133.235.2.497.2.787 0 .353-.106.67-.318.953-.203.282-.509.505-.916.67-.4.156-.898.235-1.493.235zm5.715 0c-.407 0-.776-.079-1.105-.235a2.159 2.159 0 01-.787-.647 1.585 1.585 0 01-.282-.917c0-.548.219-.983.658-1.305.447-.329 1.034-.548 1.763-.658l1.61-.235v-.247c0-.329-.082-.584-.247-.764-.164-.18-.446-.27-.846-.27-.282 0-.513.059-.693.176-.173.11-.302.259-.388.447a.3.3 0 01-.27.153h-.93a.27.27 0 01-.199-.071.285.285 0 01-.059-.188c.008-.125.059-.278.153-.458.094-.181.243-.353.447-.518a2.6 2.6 0 01.787-.435c.322-.117.71-.176 1.164-.176.494 0 .909.063 1.246.188.345.118.619.278.823.482.203.204.352.443.446.717.095.274.142.564.142.87v3.691a.273.273 0 01-.083.2.271.271 0 01-.2.082h-.952a.285.285 0 01-.211-.082.298.298 0 01-.07-.2v-.458a1.929 1.929 0 01-.412.423 2.407 2.407 0 01-.635.317 2.86 2.86 0 01-.87.118zm.4-1.117c.274 0 .52-.059.74-.176a1.22 1.22 0 00.53-.541c.133-.251.2-.564.2-.94v-.247l-1.176.188c-.463.07-.808.184-1.035.341-.227.156-.34.348-.34.576 0 .172.05.321.152.446.11.118.247.208.412.271.164.055.336.082.517.082zm4.834.999a.271.271 0 01-.2-.082.273.273 0 01-.082-.2v-7.782c0-.078.028-.145.083-.2a.272.272 0 01.2-.082h.975c.078 0 .145.028.2.083a.272.272 0 01.082.2v7.781a.273.273 0 01-.082.2.271.271 0 01-.2.082h-.976zm5.086.118c-.407 0-.768-.067-1.082-.2a2.103 2.103 0 01-.764-.588 2.718 2.718 0 01-.47-.882 4.237 4.237 0 01-.188-1.128 6.879 6.879 0 010-.764c.016-.392.075-.756.177-1.093.11-.337.266-.631.47-.882.211-.258.47-.458.775-.599a2.612 2.612 0 011.082-.212c.423 0 .78.075 1.07.223.297.142.544.326.74.553v-2.61c0-.078.024-.145.07-.2a.286.286 0 01.212-.082h1c.078 0 .144.028.2.083a.272.272 0 01.082.2v7.781a.273.273 0 01-.083.2.271.271 0 01-.2.082h-.928a.286.286 0 01-.212-.082.298.298 0 01-.07-.2v-.435a2.3 2.3 0 01-.753.6c-.297.156-.674.235-1.128.235zm.435-1.258c.329 0 .592-.075.787-.223a1.34 1.34 0 00.435-.565c.094-.235.145-.474.153-.717a8.097 8.097 0 000-.905 1.658 1.658 0 00-.164-.67 1.373 1.373 0 00-.447-.541c-.196-.141-.45-.211-.764-.211-.33 0-.592.074-.788.223a1.205 1.205 0 00-.411.564 2.683 2.683 0 00-.153.776c-.008.235-.008.47 0 .706.016.282.067.54.153.775s.223.427.411.576c.196.141.459.212.788.212zm7.209 1.258c-.627 0-1.156-.11-1.587-.329a2.328 2.328 0 01-.976-.929c-.22-.4-.344-.866-.376-1.399a9.586 9.586 0 01-.012-.517c0-.204.004-.376.012-.517.032-.541.16-1.007.388-1.399.235-.4.564-.709.987-.929.431-.219.953-.329 1.564-.329.611 0 1.128.11 1.551.329.431.22.76.529.988.929.235.392.368.858.4 1.399.007.141.011.313.011.517 0 .204-.004.376-.012.517-.03.533-.16.999-.388 1.399-.219.4-.544.709-.975.929-.423.219-.948.329-1.575.329zm0-1.164c.415 0 .736-.129.964-.388.227-.266.352-.654.376-1.164.008-.117.012-.27.012-.458a7.23 7.23 0 00-.012-.459c-.024-.501-.15-.885-.376-1.151-.228-.267-.549-.4-.964-.4-.416 0-.737.133-.964.4-.227.266-.353.65-.376 1.151a7.241 7.241 0 00-.012.459c0 .188.004.341.012.458.023.51.149.898.376 1.164.227.259.548.388.964.388zM164.725 107.732a.27.27 0 01-.2-.071.294.294 0 01-.071-.199v-7.676a.27.27 0 01.071-.2.248.248 0 01.2-.082h2.868c.885 0 1.587.207 2.104.623.517.415.776 1.03.776 1.845 0 .604-.153 1.097-.459 1.481-.298.376-.705.639-1.222.788l1.81 3.127c.023.047.035.09.035.129a.21.21 0 01-.082.164.227.227 0 01-.165.071h-.564c-.133 0-.231-.035-.294-.106a2.01 2.01 0 01-.164-.211l-1.705-2.986h-2.057v3.033a.269.269 0 01-.082.199.271.271 0 01-.2.071h-.599zm.881-4.302h1.94c.587 0 1.026-.122 1.316-.365.29-.25.435-.619.435-1.105 0-.478-.145-.842-.435-1.093-.282-.25-.721-.376-1.316-.376h-1.94v2.939zm8.937 5.477a.249.249 0 01-.2-.082.254.254 0 01-.07-.188v-.823c-.572-.047-1.054-.176-1.446-.388-.392-.219-.69-.482-.894-.787a1.9 1.9 0 01-.329-.976c0-.063.024-.117.071-.164a.258.258 0 01.188-.083h.599c.094 0 .165.024.212.071a.353.353 0 01.094.164c.047.188.145.377.294.565.149.18.36.333.635.458.282.118.642.176 1.081.176.674 0 1.168-.117 1.481-.352a1.15 1.15 0 00.482-.964c0-.274-.086-.494-.259-.658-.164-.173-.419-.326-.764-.459a16.166 16.166 0 00-1.34-.435 7.787 7.787 0 01-1.422-.54c-.376-.196-.658-.439-.846-.729-.181-.29-.271-.658-.271-1.105 0-.572.212-1.062.635-1.469.423-.416 1.023-.659 1.799-.73v-.81c0-.079.023-.141.07-.188a.25.25 0 01.2-.083h.447c.078 0 .141.028.188.083.055.047.082.11.082.188v.822c.525.063.964.208 1.316.435.353.228.62.49.8.788.18.298.274.588.282.87a.28.28 0 01-.059.164c-.039.047-.102.071-.188.071h-.623a.397.397 0 01-.176-.047c-.055-.031-.098-.09-.13-.176-.047-.322-.227-.592-.54-.812-.314-.219-.721-.329-1.223-.329-.509 0-.924.098-1.246.294-.313.196-.47.502-.47.917 0 .267.075.49.223.67.149.172.384.325.706.459.321.133.74.274 1.257.423.627.172 1.141.356 1.54.552.4.188.694.427.882.717.196.282.294.647.294 1.093 0 .447-.11.835-.329 1.164a2.227 2.227 0 01-.917.788c-.392.196-.858.317-1.399.364v.811a.235.235 0 01-.082.188.235.235 0 01-.188.082h-.447zm10.242-1.057c-.494 0-.925-.059-1.294-.177a2.99 2.99 0 01-.928-.493 2.295 2.295 0 01-.576-.67 1.748 1.748 0 01-.2-.753c0-.07.024-.125.071-.164a.26.26 0 01.176-.059h.576c.07 0 .133.016.188.047.055.031.102.098.141.2.078.282.212.501.4.658.196.157.419.266.67.329.258.055.517.082.776.082.54 0 .979-.129 1.316-.388.337-.258.505-.638.505-1.14 0-.509-.152-.873-.458-1.093-.306-.219-.729-.329-1.269-.329h-1.117a.297.297 0 01-.2-.071.269.269 0 01-.071-.199v-.318c0-.07.012-.129.036-.176a.985.985 0 01.094-.141l2.28-2.492h-3.467a.297.297 0 01-.2-.071.269.269 0 01-.071-.199v-.447a.27.27 0 01.071-.2.272.272 0 01.2-.082h4.69c.086 0 .152.027.2.082a.252.252 0 01.082.2v.423a.273.273 0 01-.047.153 1.052 1.052 0 01-.083.117l-2.268 2.528.188.011c.517.016.968.11 1.352.282.392.173.693.432.905.776.219.337.329.764.329 1.282 0 .525-.129.975-.388 1.351a2.46 2.46 0 01-1.07.847 3.847 3.847 0 01-1.539.294zm4.614-.118a.298.298 0 01-.2-.071.293.293 0 01-.07-.199v-.847c0-.078.023-.141.07-.188a.272.272 0 01.2-.082h.847c.078 0 .141.027.188.082.054.047.082.11.082.188v.847a.272.272 0 01-.082.199.255.255 0 01-.188.071h-.847zm2.75 0a.298.298 0 01-.2-.071.293.293 0 01-.07-.199v-.377c0-.07.019-.148.059-.235a.885.885 0 01.235-.282l2.492-2.492c.399-.337.713-.623.94-.858.235-.243.4-.474.494-.693.102-.22.153-.447.153-.682 0-.447-.126-.799-.377-1.058-.25-.266-.623-.4-1.116-.4-.314 0-.584.067-.811.2a1.403 1.403 0 00-.541.529c-.125.22-.208.47-.247.752-.016.102-.059.173-.129.212a.34.34 0 01-.176.059h-.612a.267.267 0 01-.176-.059.227.227 0 01-.071-.165c.008-.297.071-.595.189-.893.117-.306.289-.58.517-.823.235-.243.521-.439.858-.588a2.871 2.871 0 011.199-.234c.619 0 1.124.113 1.516.34.4.22.694.514.882.882.188.368.282.772.282 1.211 0 .344-.059.662-.176.952-.118.282-.29.56-.518.834a6.643 6.643 0 01-.823.823l-2.256 2.292h3.667c.086 0 .153.024.2.071.055.047.082.113.082.2v.482a.269.269 0 01-.082.199.271.271 0 01-.2.071h-5.184zm9.779.118c-.541 0-.999-.083-1.375-.247a2.46 2.46 0 01-.905-.706 2.93 2.93 0 01-.518-1.022 5.618 5.618 0 01-.176-1.223 82.128 82.128 0 01-.023-.67v-.705c.007-.243.015-.474.023-.694.008-.431.067-.838.176-1.222.118-.392.29-.733.518-1.023.235-.297.54-.529.917-.693.376-.173.83-.259 1.363-.259.541 0 .995.086 1.364.259.376.164.681.396.916.693.236.29.408.631.518 1.023.117.384.18.791.188 1.222.008.22.012.451.012.694.007.235.007.47 0 .705 0 .235-.004.459-.012.67a4.463 4.463 0 01-.188 1.223c-.11.384-.282.725-.518 1.022a2.336 2.336 0 01-.905.706c-.368.164-.826.247-1.375.247zm0-1c.611 0 1.062-.199 1.352-.599.298-.408.45-.96.458-1.657.016-.228.024-.447.024-.659v-.646c0-.22-.008-.435-.024-.647-.008-.682-.16-1.226-.458-1.634-.29-.415-.741-.623-1.352-.623-.603 0-1.054.208-1.352.623-.29.408-.442.952-.458 1.634 0 .212-.004.427-.012.647v.646c.008.212.012.431.012.659.016.697.172 1.249.47 1.657.298.4.745.599 1.34.599zm7.462 1c-.541 0-1-.083-1.376-.247a2.468 2.468 0 01-.905-.706 2.927 2.927 0 01-.517-1.022 5.498 5.498 0 01-.176-1.223l-.024-.67v-.705l.024-.694c.007-.431.066-.838.176-1.222.117-.392.29-.733.517-1.023.235-.297.541-.529.917-.693.376-.173.831-.259 1.364-.259.54 0 .995.086 1.363.259.376.164.682.396.917.693.235.29.407.631.517 1.023.118.384.18.791.188 1.222.008.22.012.451.012.694.008.235.008.47 0 .705 0 .235-.004.459-.012.67-.008.431-.07.839-.188 1.223-.11.384-.282.725-.517 1.022a2.343 2.343 0 01-.905.706c-.368.164-.827.247-1.375.247zm0-1c.611 0 1.061-.199 1.351-.599.298-.408.451-.96.459-1.657.015-.228.023-.447.023-.659v-.646c0-.22-.008-.435-.023-.647-.008-.682-.161-1.226-.459-1.634-.29-.415-.74-.623-1.351-.623-.604 0-1.054.208-1.352.623-.29.408-.443.952-.459 1.634 0 .212-.004.427-.011.647v.646c.007.212.011.431.011.659.016.697.173 1.249.47 1.657.298.4.745.599 1.341.599zm4.62.882a.294.294 0 01-.199-.071.294.294 0 01-.071-.199v-.847c0-.078.024-.141.071-.188a.269.269 0 01.199-.082h.847c.078 0 .141.027.188.082.055.047.082.11.082.188v.847a.269.269 0 01-.082.199.255.255 0 01-.188.071h-.847zm5.458.118c-.541 0-.999-.083-1.375-.247a2.468 2.468 0 01-.905-.706 2.91 2.91 0 01-.517-1.022 5.557 5.557 0 01-.177-1.223l-.023-.67v-.705l.023-.694c.008-.431.067-.838.177-1.222.117-.392.29-.733.517-1.023.235-.297.541-.529.917-.693.376-.173.83-.259 1.363-.259.541 0 .995.086 1.364.259.376.164.682.396.917.693.235.29.407.631.517 1.023.117.384.18.791.188 1.222.008.22.012.451.012.694.007.235.007.47 0 .705 0 .235-.004.459-.012.67a4.463 4.463 0 01-.188 1.223c-.11.384-.282.725-.517 1.022a2.346 2.346 0 01-.906.706c-.368.164-.826.247-1.375.247zm0-1c.611 0 1.062-.199 1.352-.599.298-.408.451-.96.458-1.657.016-.228.024-.447.024-.659v-.646c0-.22-.008-.435-.024-.647-.007-.682-.16-1.226-.458-1.634-.29-.415-.741-.623-1.352-.623-.603 0-1.054.208-1.352.623-.29.408-.442.952-.458 1.634 0 .212-.004.427-.012.647v.646c.008.212.012.431.012.659.016.697.172 1.249.47 1.657.298.4.745.599 1.34.599zm7.462 1c-.541 0-1-.083-1.376-.247a2.468 2.468 0 01-.905-.706 2.927 2.927 0 01-.517-1.022 5.498 5.498 0 01-.176-1.223l-.024-.67v-.705l.024-.694c.008-.431.066-.838.176-1.222a3.08 3.08 0 01.517-1.023c.235-.297.541-.529.917-.693.376-.173.831-.259 1.364-.259.54 0 .995.086 1.363.259.376.164.682.396.917.693.235.29.408.631.517 1.023.118.384.18.791.188 1.222.008.22.012.451.012.694.008.235.008.47 0 .705 0 .235-.004.459-.012.67-.008.431-.07.839-.188 1.223a2.91 2.91 0 01-.517 1.022 2.343 2.343 0 01-.905.706c-.368.164-.827.247-1.375.247zm0-1c.611 0 1.061-.199 1.351-.599.298-.408.451-.96.459-1.657.016-.228.023-.447.023-.659v-.646c0-.22-.007-.435-.023-.647-.008-.682-.161-1.226-.459-1.634-.29-.415-.74-.623-1.351-.623-.604 0-1.054.208-1.352.623-.29.408-.443.952-.459 1.634 0 .212-.003.427-.011.647v.646c.008.212.011.431.011.659.016.697.173 1.249.471 1.657.297.4.744.599 1.34.599zM164.679 176.451c-.086 0-.153-.023-.2-.07a.298.298 0 01-.07-.2v-7.676c0-.086.023-.152.07-.199a.25.25 0 01.2-.083h2.868c.886 0 1.587.208 2.104.623.518.416.776 1.031.776 1.846 0 .603-.153 1.097-.458 1.481-.298.376-.706.638-1.223.787l1.81 3.127c.024.047.036.09.036.129a.212.212 0 01-.083.165.223.223 0 01-.164.07h-.564c-.134 0-.232-.035-.294-.105a1.906 1.906 0 01-.165-.212l-1.704-2.986h-2.057v3.033a.273.273 0 01-.083.2c-.047.047-.113.07-.199.07h-.6zm.882-4.302h1.939c.588 0 1.027-.121 1.317-.364.29-.251.435-.619.435-1.105 0-.478-.145-.842-.435-1.093-.282-.251-.721-.376-1.317-.376h-1.939v2.938zm8.936 5.478a.247.247 0 01-.199-.082.255.255 0 01-.071-.188v-.823c-.572-.047-1.054-.177-1.446-.388-.392-.22-.689-.482-.893-.788a1.887 1.887 0 01-.329-.975c0-.063.023-.118.07-.165a.259.259 0 01.188-.082h.6c.094 0 .164.023.212.07a.351.351 0 01.094.165c.047.188.145.376.293.564.149.18.361.333.635.459.282.117.643.176 1.082.176.674 0 1.167-.118 1.481-.353a1.15 1.15 0 00.482-.964c0-.274-.087-.493-.259-.658-.165-.172-.419-.325-.764-.458a15.674 15.674 0 00-1.34-.435 7.782 7.782 0 01-1.422-.541c-.377-.196-.659-.439-.847-.729-.18-.29-.27-.658-.27-1.105 0-.572.212-1.062.635-1.469.423-.415 1.022-.658 1.798-.729v-.811c0-.078.024-.141.071-.188a.247.247 0 01.199-.082h.447c.079 0 .141.027.188.082.055.047.083.11.083.188v.823c.525.063.963.208 1.316.435.353.227.619.49.799.787.181.298.275.588.282.87 0 .055-.019.11-.058.165-.039.047-.102.07-.188.07h-.623a.391.391 0 01-.177-.047c-.055-.031-.098-.09-.129-.176-.047-.321-.227-.592-.541-.811-.313-.219-.721-.329-1.222-.329-.51 0-.925.098-1.246.294-.314.196-.47.501-.47.917 0 .266.074.489.223.67.149.172.384.325.705.458.322.133.741.274 1.258.423.627.173 1.14.357 1.54.553.4.188.693.427.881.717.196.282.294.646.294 1.093 0 .447-.109.834-.329 1.164-.211.329-.517.591-.917.787-.392.196-.858.317-1.398.365v.811a.236.236 0 01-.083.188.234.234 0 01-.188.082h-.447zm10.172-1.058c-.62 0-1.145-.106-1.576-.317-.423-.22-.748-.502-.975-.847a2.169 2.169 0 01-.353-1.093c-.008-.07.012-.125.059-.164a.262.262 0 01.176-.059h.635c.071 0 .133.015.188.047.055.031.098.098.129.2.079.29.204.529.377.717.18.18.384.313.611.399.235.079.478.118.729.118.337 0 .642-.067.916-.2a1.62 1.62 0 00.67-.611c.165-.274.247-.604.247-.988 0-.352-.082-.654-.247-.905a1.496 1.496 0 00-.658-.587 2 2 0 00-.928-.212c-.259 0-.471.031-.635.094a1.787 1.787 0 00-.423.223c-.11.087-.212.161-.306.224a.49.49 0 01-.294.094h-.611a.28.28 0 01-.188-.071.22.22 0 01-.071-.188l.376-3.926a.327.327 0 01.083-.211.286.286 0 01.211-.083h4.103c.078 0 .141.028.188.083a.234.234 0 01.082.188v.458a.249.249 0 01-.082.2.254.254 0 01-.188.07h-3.386l-.223 2.316c.11-.07.286-.153.529-.247.243-.102.576-.153.999-.153.384 0 .745.059 1.082.177.344.117.65.29.916.517.267.227.475.505.623.834.149.322.224.694.224 1.117 0 .596-.133 1.101-.4 1.517a2.53 2.53 0 01-1.07.952c-.446.211-.96.317-1.539.317zm4.501-.118a.298.298 0 01-.2-.07.298.298 0 01-.07-.2v-.846c0-.079.023-.141.07-.188a.273.273 0 01.2-.083h.846c.079 0 .141.028.189.083a.237.237 0 01.082.188v.846a.276.276 0 01-.082.2.257.257 0 01-.189.07h-.846zm6.445 0a.298.298 0 01-.2-.07.298.298 0 01-.07-.2v-1.693h-3.809a.293.293 0 01-.199-.07.298.298 0 01-.071-.2v-.47a.636.636 0 01.129-.353l3.527-4.972c.094-.133.239-.2.435-.2h.846c.078 0 .141.028.188.083a.234.234 0 01.082.188v4.972h1.058c.086 0 .153.027.2.082.055.047.082.11.082.188v.482a.272.272 0 01-.082.2.254.254 0 01-.188.07h-1.07v1.693a.272.272 0 01-.082.2.254.254 0 01-.188.07h-.588zm-3.091-2.962h2.833v-4.032l-2.833 4.032zm9.405 3.08c-.541 0-1-.082-1.376-.247a2.455 2.455 0 01-.905-.705 2.94 2.94 0 01-.517-1.023 5.49 5.49 0 01-.176-1.222 181.85 181.85 0 01-.024-.67v-.706l.024-.693c.007-.431.066-.839.176-1.223.118-.391.29-.732.517-1.022.235-.298.541-.529.917-.694.376-.172.831-.258 1.364-.258.54 0 .995.086 1.363.258.376.165.682.396.917.694.235.29.407.631.517 1.022.118.384.18.792.188 1.223.008.219.012.451.012.693.008.236.008.471 0 .706 0 .235-.004.458-.012.67-.008.431-.07.838-.188 1.222a2.94 2.94 0 01-.517 1.023 2.331 2.331 0 01-.905.705c-.368.165-.827.247-1.375.247zm0-.999c.611 0 1.061-.2 1.351-.6.298-.407.451-.96.459-1.657.015-.227.023-.447.023-.658v-.647a9.12 9.12 0 00-.023-.646c-.008-.682-.161-1.227-.459-1.634-.29-.416-.74-.623-1.351-.623-.604 0-1.054.207-1.352.623-.29.407-.443.952-.459 1.634 0 .211-.004.427-.011.646v.647c.007.211.011.431.011.658.016.697.173 1.25.471 1.657.297.4.744.6 1.34.6zm7.461.999c-.541 0-.999-.082-1.375-.247a2.447 2.447 0 01-.905-.705 2.942 2.942 0 01-.518-1.023 5.608 5.608 0 01-.176-1.222 83.708 83.708 0 01-.023-.67v-.706c.007-.242.015-.474.023-.693a4.79 4.79 0 01.176-1.223c.118-.391.29-.732.518-1.022.235-.298.54-.529.916-.694.377-.172.831-.258 1.364-.258.541 0 .995.086 1.364.258.376.165.681.396.916.694.235.29.408.631.518 1.022.117.384.18.792.188 1.223.008.219.011.451.011.693.008.236.008.471 0 .706 0 .235-.003.458-.011.67a4.456 4.456 0 01-.188 1.222c-.11.384-.283.725-.518 1.023a2.331 2.331 0 01-.905.705c-.368.165-.826.247-1.375.247zm0-.999c.611 0 1.062-.2 1.352-.6.298-.407.45-.96.458-1.657a9.38 9.38 0 00.024-.658v-.647c0-.219-.008-.435-.024-.646-.008-.682-.16-1.227-.458-1.634-.29-.416-.741-.623-1.352-.623-.603 0-1.054.207-1.352.623-.29.407-.443.952-.458 1.634 0 .211-.004.427-.012.646v.647c.008.211.012.431.012.658.015.697.172 1.25.47 1.657.298.4.744.6 1.34.6zm4.621.881a.298.298 0 01-.2-.07.298.298 0 01-.07-.2v-.846c0-.079.023-.141.07-.188a.273.273 0 01.2-.083h.846c.079 0 .141.028.188.083a.234.234 0 01.083.188v.846a.273.273 0 01-.083.2.253.253 0 01-.188.07h-.846zm5.458.118c-.541 0-.999-.082-1.376-.247a2.455 2.455 0 01-.905-.705 2.94 2.94 0 01-.517-1.023 5.49 5.49 0 01-.176-1.222 181.85 181.85 0 01-.024-.67v-.706l.024-.693c.008-.431.066-.839.176-1.223.118-.391.29-.732.517-1.022.235-.298.541-.529.917-.694.376-.172.831-.258 1.364-.258.54 0 .995.086 1.363.258.376.165.682.396.917.694.235.29.408.631.517 1.022.118.384.181.792.188 1.223.008.219.012.451.012.693.008.236.008.471 0 .706 0 .235-.004.458-.012.67-.007.431-.07.838-.188 1.222a2.923 2.923 0 01-.517 1.023 2.331 2.331 0 01-.905.705c-.368.165-.827.247-1.375.247zm0-.999c.611 0 1.062-.2 1.351-.6.298-.407.451-.96.459-1.657.016-.227.023-.447.023-.658v-.647a8.56 8.56 0 00-.023-.646c-.008-.682-.161-1.227-.459-1.634-.289-.416-.74-.623-1.351-.623-.604 0-1.054.207-1.352.623-.29.407-.443.952-.459 1.634 0 .211-.003.427-.011.646v.647c.008.211.011.431.011.658.016.697.173 1.25.471 1.657.297.4.744.6 1.34.6zm7.461.999c-.541 0-.999-.082-1.375-.247a2.455 2.455 0 01-.905-.705 2.923 2.923 0 01-.517-1.023 5.548 5.548 0 01-.177-1.222l-.023-.67v-.706l.023-.693c.008-.431.067-.839.177-1.223.117-.391.289-.732.517-1.022.235-.298.54-.529.917-.694.376-.172.83-.258 1.363-.258.541 0 .995.086 1.364.258.376.165.681.396.917.694.235.29.407.631.517 1.022.117.384.18.792.188 1.223.008.219.012.451.012.693.007.236.007.471 0 .706 0 .235-.004.458-.012.67a4.456 4.456 0 01-.188 1.222 2.94 2.94 0 01-.517 1.023 2.335 2.335 0 01-.906.705c-.368.165-.826.247-1.375.247zm0-.999c.611 0 1.062-.2 1.352-.6.298-.407.45-.96.458-1.657a9.38 9.38 0 00.024-.658v-.647c0-.219-.008-.435-.024-.646-.008-.682-.16-1.227-.458-1.634-.29-.416-.741-.623-1.352-.623-.603 0-1.054.207-1.352.623-.29.407-.442.952-.458 1.634 0 .211-.004.427-.012.646v.647c.008.211.012.431.012.658.016.697.172 1.25.47 1.657.298.4.745.6 1.34.6zM164.221 245.236a.27.27 0 01-.2-.071.294.294 0 01-.071-.199v-7.676c0-.086.024-.153.071-.2.047-.055.113-.082.2-.082h2.868c.885 0 1.587.207 2.104.623.517.415.776 1.03.776 1.845 0 .604-.153 1.097-.459 1.481-.298.376-.705.639-1.222.788l1.81 3.127c.023.047.035.09.035.129a.21.21 0 01-.082.164.227.227 0 01-.165.071h-.564c-.133 0-.231-.035-.294-.106a2.01 2.01 0 01-.164-.211l-1.705-2.986h-2.057v3.033a.269.269 0 01-.082.199.271.271 0 01-.2.071h-.599zm.881-4.302h1.94c.587 0 1.026-.122 1.316-.365.29-.25.435-.619.435-1.105 0-.478-.145-.842-.435-1.093-.282-.251-.721-.376-1.316-.376h-1.94v2.939zm8.937 5.477a.249.249 0 01-.2-.082.254.254 0 01-.07-.188v-.823c-.573-.047-1.054-.176-1.446-.388-.392-.219-.69-.482-.894-.787a1.9 1.9 0 01-.329-.976c0-.063.024-.117.071-.164a.258.258 0 01.188-.083h.599c.094 0 .165.024.212.071a.353.353 0 01.094.164c.047.188.145.377.294.565.149.18.36.333.635.458.282.118.642.176 1.081.176.674 0 1.168-.117 1.481-.352a1.15 1.15 0 00.482-.964c0-.274-.086-.494-.259-.658-.164-.173-.419-.326-.764-.459a16.166 16.166 0 00-1.34-.435 7.787 7.787 0 01-1.422-.54c-.376-.196-.658-.439-.846-.729-.181-.29-.271-.659-.271-1.105 0-.572.212-1.062.635-1.47.423-.415 1.023-.658 1.799-.728v-.811c0-.079.023-.141.07-.188a.25.25 0 01.2-.083h.447c.078 0 .141.028.188.083a.237.237 0 01.082.188v.822c.525.063.964.208 1.316.435.353.228.62.49.8.788.18.298.274.588.282.87 0 .055-.02.109-.059.164-.039.047-.102.071-.188.071h-.623a.397.397 0 01-.176-.047.322.322 0 01-.13-.176c-.047-.322-.227-.592-.54-.812-.314-.219-.721-.329-1.223-.329-.509 0-.924.098-1.246.294-.313.196-.47.502-.47.917 0 .266.074.49.223.67.149.172.384.325.706.458.321.134.74.275 1.257.424.627.172 1.141.356 1.54.552.4.188.694.427.882.717.196.282.294.647.294 1.093 0 .447-.11.835-.329 1.164a2.227 2.227 0 01-.917.788c-.392.196-.858.317-1.399.364v.811a.238.238 0 01-.082.188.235.235 0 01-.188.082h-.447zm10.359-1.057c-.65 0-1.203-.13-1.657-.388a2.827 2.827 0 01-1.047-1.035 2.875 2.875 0 01-.352-1.399c0-.235.027-.458.082-.67.063-.219.137-.423.223-.611.094-.196.185-.368.271-.517.094-.157.176-.282.247-.376l2.233-3.115.141-.141c.055-.063.137-.094.247-.094h.623a.19.19 0 01.164.082.24.24 0 01.071.176.373.373 0 01-.012.094.145.145 0 01-.035.059l-1.716 2.398c.094-.031.2-.051.317-.059.126-.015.243-.023.353-.023.431.008.823.086 1.175.235.353.149.655.353.905.611.259.251.455.545.588.882.133.329.2.681.2 1.058 0 .493-.118.956-.353 1.387a2.71 2.71 0 01-1.034 1.046c-.447.266-.991.4-1.634.4zm-.012-1c.329 0 .635-.07.917-.211.282-.141.509-.345.682-.611.18-.275.27-.608.27-1 0-.399-.086-.732-.258-.999a1.59 1.59 0 00-.694-.611 2.023 2.023 0 00-.917-.212c-.329 0-.634.071-.917.212a1.675 1.675 0 00-.693.611c-.173.267-.259.6-.259.999 0 .392.086.725.259 1 .18.266.411.47.693.611.283.141.588.211.917.211zm4.532.882a.298.298 0 01-.2-.071.293.293 0 01-.07-.199v-.847c0-.078.023-.141.07-.188a.272.272 0 01.2-.082h.846c.079 0 .142.027.189.082.054.047.082.11.082.188v.847a.272.272 0 01-.082.199.256.256 0 01-.189.071h-.846zm5.407.118c-.494 0-.925-.059-1.293-.177a2.965 2.965 0 01-.929-.494 2.27 2.27 0 01-.576-.67 1.74 1.74 0 01-.2-.752c0-.07.024-.125.071-.164a.262.262 0 01.176-.059h.576c.071 0 .133.016.188.047.055.031.102.098.141.2.079.282.212.501.4.658.196.157.419.266.67.329.259.055.517.082.776.082.54 0 .979-.129 1.316-.388.337-.258.506-.638.506-1.14 0-.509-.153-.873-.459-1.093-.305-.219-.729-.329-1.269-.329h-1.117a.298.298 0 01-.2-.071c-.047-.047-.07-.113-.07-.199v-.318c0-.07.011-.129.035-.176.031-.055.063-.102.094-.141l2.28-2.492h-3.467a.297.297 0 01-.2-.071.269.269 0 01-.071-.199v-.447c0-.086.024-.153.071-.2a.27.27 0 01.2-.082h4.69c.086 0 .153.027.2.082a.249.249 0 01.082.2v.423a.273.273 0 01-.047.153 1.188 1.188 0 01-.082.117l-2.269 2.528.188.011c.517.016.968.11 1.352.282.392.173.693.431.905.776.219.337.329.764.329 1.282 0 .525-.129.975-.388 1.351a2.456 2.456 0 01-1.069.847 3.855 3.855 0 01-1.54.294zm7.283 0c-.541 0-.999-.083-1.376-.247a2.468 2.468 0 01-.905-.706 2.927 2.927 0 01-.517-1.022 5.498 5.498 0 01-.176-1.223l-.024-.67v-.705l.024-.694c.008-.431.066-.838.176-1.222a3.08 3.08 0 01.517-1.023 2.34 2.34 0 01.917-.693c.376-.173.831-.259 1.364-.259.54 0 .995.086 1.363.259.376.164.682.396.917.693.235.29.408.631.517 1.023.118.384.181.791.188 1.222.008.22.012.451.012.694.008.235.008.47 0 .705 0 .235-.004.459-.012.67-.007.431-.07.839-.188 1.223a2.91 2.91 0 01-.517 1.022 2.343 2.343 0 01-.905.706c-.368.164-.827.247-1.375.247zm0-1c.611 0 1.062-.199 1.351-.599.298-.408.451-.96.459-1.658.016-.227.023-.446.023-.658v-.646c0-.22-.007-.435-.023-.647-.008-.682-.161-1.226-.459-1.634-.289-.415-.74-.623-1.351-.623-.604 0-1.054.208-1.352.623-.29.408-.443.952-.458 1.634 0 .212-.004.427-.012.647v.646c.008.212.012.431.012.658.015.698.172 1.25.47 1.658.297.4.744.599 1.34.599zm7.461 1c-.541 0-.999-.083-1.375-.247a2.468 2.468 0 01-.905-.706 2.91 2.91 0 01-.517-1.022 5.557 5.557 0 01-.177-1.223l-.023-.67v-.705l.023-.694c.008-.431.067-.838.177-1.222.117-.392.289-.733.517-1.023.235-.297.54-.529.917-.693.376-.173.83-.259 1.363-.259.541 0 .995.086 1.364.259.376.164.681.396.917.693.235.29.407.631.517 1.023.117.384.18.791.188 1.222.008.22.012.451.012.694.007.235.007.47 0 .705 0 .235-.004.459-.012.67a4.463 4.463 0 01-.188 1.223c-.11.384-.282.725-.517 1.022a2.346 2.346 0 01-.906.706c-.368.164-.826.247-1.375.247zm0-1c.611 0 1.062-.199 1.352-.599.298-.408.451-.96.458-1.658.016-.227.024-.446.024-.658v-.646c0-.22-.008-.435-.024-.647-.007-.682-.16-1.226-.458-1.634-.29-.415-.741-.623-1.352-.623-.603 0-1.054.208-1.352.623-.29.408-.442.952-.458 1.634 0 .212-.004.427-.012.647v.646c.008.212.012.431.012.658.016.698.172 1.25.47 1.658.298.4.745.599 1.34.599zm4.621.882a.298.298 0 01-.2-.071.293.293 0 01-.07-.199v-.847c0-.078.023-.141.07-.188a.272.272 0 01.2-.082h.846c.079 0 .141.027.189.082.054.047.082.11.082.188v.847a.272.272 0 01-.082.199.257.257 0 01-.189.071h-.846zm5.458.118c-.541 0-.999-.083-1.375-.247a2.471 2.471 0 01-.906-.706 2.927 2.927 0 01-.517-1.022 5.557 5.557 0 01-.176-1.223l-.024-.67v-.705l.024-.694c.008-.431.067-.838.176-1.222a3.08 3.08 0 01.517-1.023c.236-.297.541-.529.917-.693.376-.173.831-.259 1.364-.259.541 0 .995.086 1.363.259.377.164.682.396.917.693.235.29.408.631.517 1.023.118.384.181.791.189 1.222.007.22.011.451.011.694.008.235.008.47 0 .705 0 .235-.004.459-.011.67a4.425 4.425 0 01-.189 1.223 2.91 2.91 0 01-.517 1.022 2.343 2.343 0 01-.905.706c-.368.164-.827.247-1.375.247zm0-1c.611 0 1.062-.199 1.352-.599.297-.408.45-.96.458-1.658.016-.227.024-.446.024-.658v-.646c0-.22-.008-.435-.024-.647-.008-.682-.161-1.226-.458-1.634-.29-.415-.741-.623-1.352-.623-.604 0-1.054.208-1.352.623-.29.408-.443.952-.458 1.634 0 .212-.004.427-.012.647v.646c.008.212.012.431.012.658.015.698.172 1.25.47 1.658.298.4.744.599 1.34.599zm7.461 1c-.54 0-.999-.083-1.375-.247a2.468 2.468 0 01-.905-.706 2.91 2.91 0 01-.517-1.022 5.557 5.557 0 01-.177-1.223l-.023-.67v-.705l.023-.694c.008-.431.067-.838.177-1.222.117-.392.29-.733.517-1.023a2.34 2.34 0 01.917-.693c.376-.173.83-.259 1.363-.259.541 0 .995.086 1.364.259.376.164.682.396.917.693.235.29.407.631.517 1.023.117.384.18.791.188 1.222.008.22.012.451.012.694.008.235.008.47 0 .705 0 .235-.004.459-.012.67a4.463 4.463 0 01-.188 1.223c-.11.384-.282.725-.517 1.022a2.35 2.35 0 01-.905.706c-.369.164-.827.247-1.376.247zm0-1c.611 0 1.062-.199 1.352-.599.298-.408.451-.96.458-1.658.016-.227.024-.446.024-.658v-.646c0-.22-.008-.435-.024-.647-.007-.682-.16-1.226-.458-1.634-.29-.415-.741-.623-1.352-.623-.603 0-1.054.208-1.352.623-.289.408-.442.952-.458 1.634 0 .212-.004.427-.012.647v.646c.008.212.012.431.012.658.016.698.172 1.25.47 1.658.298.4.745.599 1.34.599z" fill="white"/><rect x="85.88" y="34.16" width="49.053" height="16.954" rx="8.477" stroke="white" stroke-width=".678"/><path fill-rule="evenodd" clip-rule="evenodd" d="M94.552 40.82a.904.904 0 00-.64 1.108l1.17 4.367a.904.904 0 001.108.639l7.963-2.134a.904.904 0 00.639-1.107l-.826-3.083-9.71 2.602-.192-.72 9.71-2.601-.152-.565a.904.904 0 00-1.107-.64l-7.963 2.134z" fill="white"/><path d="M222.439 367.089h-15.441a2.803 2.803 0 00-2.802 2.802v12.782l-1.772-1.771a.668.668 0 00-.948 0 .67.67 0 000 .949l2.922 2.922a.669.669 0 00.478.198.668.668 0 00.477-.198l2.922-2.922a.668.668 0 000-.949.668.668 0 00-.948 0l-1.777 1.777v-12.788c0-.806.653-1.459 1.459-1.459h15.436c.806 0 1.459.653 1.459 1.459v1.864a.674.674 0 101.349 0v-1.864c-.017-1.541-1.273-2.802-2.814-2.802zM224.09 374.727l-2.923 2.923a.67.67 0 00.477 1.146.668.668 0 00.477-.197l1.777-1.777v12.782c0 .806-.653 1.459-1.459 1.459h-15.441a1.458 1.458 0 01-1.459-1.459v-1.864a.675.675 0 10-1.349 0v1.864a2.803 2.803 0 002.802 2.802h15.436a2.803 2.803 0 002.802-2.802v-12.782l1.777 1.777a.67.67 0 00.949 0 .67.67 0 000-.949l-2.923-2.923c-.241-.252-.691-.252-.943 0z" fill="white"/><path d="M214.718 373.806a.674.674 0 00-.674.675v1.031h-.088c-1.283 0-2.331 1.102-2.331 2.451s1.048 2.451 2.331 2.451h1.513c.543 0 .988.499.988 1.108 0 .614-.445 1.107-.988 1.107h-2.719a.675.675 0 100 1.349h1.294v1.048a.674.674 0 101.349 0v-1.053h.115c1.272-.017 2.297-1.113 2.297-2.451 0-1.355-1.047-2.452-2.33-2.452h-1.514c-.542 0-.987-.499-.987-1.107 0-.609.445-1.108.987-1.108h2.671a.674.674 0 100-1.349h-1.239v-1.031a.677.677 0 00-.675-.669zM110.477 44.794a.164.164 0 01-.122-.048.167.167 0 01-.041-.115v-3.513l-1.031.793a.18.18 0 01-.122.034.186.186 0 01-.108-.074l-.285-.366a.19.19 0 01-.034-.13.167.167 0 01.074-.108l1.519-1.173a.18.18 0 01.082-.04.533.533 0 01.088-.007h.597c.045 0 .083.015.115.047s.047.07.047.115v4.422a.155.155 0 01-.047.115.157.157 0 01-.115.048h-.617zm3.485.068a2.12 2.12 0 01-.821-.143 1.48 1.48 0 01-.556-.393 1.693 1.693 0 01-.326-.577 2.734 2.734 0 01-.128-.705l-.014-.4v-.448l.014-.413a2.36 2.36 0 01.128-.699c.077-.221.188-.414.333-.576a1.58 1.58 0 01.563-.387c.226-.095.495-.142.807-.142.316 0 .587.047.813.142a1.555 1.555 0 01.889.963c.077.217.12.45.129.699.009.126.013.264.013.413v.448c0 .145-.004.278-.013.4-.009.249-.05.484-.122.705-.073.217-.181.41-.326.577a1.468 1.468 0 01-.563.393 2.114 2.114 0 01-.82.142zm0-.78c.293 0 .508-.095.644-.285.14-.195.212-.457.217-.787a5.74 5.74 0 00.013-.393v-.407c0-.136-.004-.265-.013-.387-.005-.32-.077-.578-.217-.773-.136-.199-.351-.298-.644-.298-.29 0-.505.1-.645.298-.135.195-.208.452-.217.773 0 .122-.002.251-.006.387v.407c.004.13.006.262.006.393.009.33.084.592.224.787.14.19.353.285.638.285zm2.385 1.281a.13.13 0 01-.095-.04.139.139 0 01-.041-.102c0-.018.005-.043.014-.075l2.306-5.54a.472.472 0 01.074-.095c.032-.032.077-.048.136-.048h.441a.13.13 0 01.095.041.13.13 0 01.047.102.216.216 0 01-.02.074l-2.313 5.54a.353.353 0 01-.067.09c-.032.035-.08.053-.143.053h-.434zm4.958-.57a.168.168 0 01-.123-.047.171.171 0 01-.04-.115v-3.513l-1.031.793a.18.18 0 01-.122.034.191.191 0 01-.109-.074l-.284-.366a.185.185 0 01-.034-.13.167.167 0 01.074-.108l1.519-1.173a.175.175 0 01.082-.04.533.533 0 01.088-.007h.597c.045 0 .083.015.115.047s.047.07.047.115v4.422a.155.155 0 01-.047.115.157.157 0 01-.115.048h-.617zm3.484.069c-.32 0-.594-.048-.82-.143a1.48 1.48 0 01-.556-.393 1.693 1.693 0 01-.326-.577 2.777 2.777 0 01-.129-.705l-.013-.4v-.448l.013-.413a2.36 2.36 0 01.129-.699c.077-.221.188-.414.333-.576.149-.163.336-.292.562-.387.227-.095.496-.142.807-.142.317 0 .588.047.814.142a1.555 1.555 0 01.889.963c.077.217.119.45.129.699.009.126.013.264.013.413v.448c0 .145-.004.278-.013.4-.01.249-.05.484-.123.705-.072.217-.18.41-.325.577a1.468 1.468 0 01-.563.393 2.12 2.12 0 01-.821.142zm0-.78c.294 0 .509-.095.645-.285.14-.195.212-.457.217-.787a5.74 5.74 0 00.013-.393v-.407c0-.136-.004-.265-.013-.387-.005-.32-.077-.578-.217-.773-.136-.199-.351-.298-.645-.298-.289 0-.504.1-.644.298-.135.195-.208.452-.217.773 0 .122-.002.251-.007.387v.407c.005.13.007.262.007.393.009.33.084.592.224.787.14.19.353.285.637.285z" fill="white"/><circle cx="214.65" cy="37.388" r="17.406" stroke="url(#paint1_linear_181_259)" stroke-width=".904"/><circle cx="214.65" cy="37.388" r="14.057" stroke="white" stroke-width=".904"/><path d="M205.347 441.685v-3.842h3.617M227.048 452.536v3.843h-3.616M227.048 441.685v-3.842h-3.616M205.347 452.536v3.843h3.617M209.868 440.781v13.111M219.362 440.781v13.111M216.198 440.781v13.111M222.527 440.781v13.111M213.033 440.781v13.111" stroke="white" stroke-width="1.356" stroke-linejoin="round"/><rect x="199.922" y="306.152" width="23.156" height="16.84" rx="2.713" transform="rotate(-16.112 199.922 306.152)" stroke="white" stroke-width="1.356" stroke-linejoin="round"/><rect x="204.132" y="305.339" width="23.156" height="16.84" rx="2.713" fill="#653DF5" stroke="white" stroke-width="1.356" stroke-linejoin="round"/><path d="M211.938 38.892l1.489-4.709h1.274l-2.267 6.703h-.963l-1.06-3.823-1.041 3.823h-.973l-2.257-6.703h1.275l1.478 4.69 1.051-3.765h.944l1.05 3.784zm10.493-4.709l.817 6.703h-1.187l-.535-4.504-1.809 3.745h-.963l-1.819-3.735-.545 4.494h-1.187l.817-6.703h1.031l2.179 4.612 2.17-4.612h1.031z" fill="white"/></g></g><defs><linearGradient id="paint0_linear_181_259" x1="241.852" y1=".323" x2="-81.144" y2="658.158" gradientUnits="userSpaceOnUse"><stop stop-color="white"/><stop offset="1" stop-color="#FFF5D5"/></linearGradient><linearGradient id="paint1_linear_181_259" x1="214.65" y1="19.53" x2="214.65" y2="55.246" gradientUnits="userSpaceOnUse"><stop stop-color="white"/><stop offset="1" stop-color="white" stop-opacity="0"/></linearGradient><clipPath id="clip0_181_259"><rect x=".093" y="-.469" width="254.307" height="550.659" rx="10.85" fill="white"/></clipPath></defs></svg>