<svg width="5" height="83" fill="none" xmlns="http://www.w3.org/2000/svg"><path opacity=".6" fill-rule="evenodd" clip-rule="evenodd" d="M0 80.5a2.5 2.5 0 115 0 2.5 2.5 0 01-5 0zm0-13a2.5 2.5 0 115 0 2.5 2.5 0 01-5 0zM2.5 52a2.5 2.5 0 100 5 2.5 2.5 0 000-5zM0 41.5a2.5 2.5 0 115 0 2.5 2.5 0 01-5 0zM2.5 26a2.5 2.5 0 100 5 2.5 2.5 0 000-5zM0 15.5a2.5 2.5 0 115 0 2.5 2.5 0 01-5 0zM2.5 0a2.5 2.5 0 100 5 2.5 2.5 0 000-5z" fill="url(#paint0_linear_46_873)"/><defs><linearGradient id="paint0_linear_46_873" x1="2.5" y1="83" x2="2.5" y2="0" gradientUnits="userSpaceOnUse"><stop stop-color="#653DF5"/><stop offset="1" stop-color="#653DF5" stop-opacity="0"/></linearGradient></defs></svg>