<svg width="213" height="459" viewBox="0 0 213 459" fill="none" xmlns="http://www.w3.org/2000/svg">
<mask id="mask0_115_644" style="mask-type:alpha" maskUnits="userSpaceOnUse" x="0" y="0" width="213" height="459">
<path fill-rule="evenodd" clip-rule="evenodd" d="M0.805648 25.3584C0.782237 25.8103 0.770386 26.2653 0.770386 26.7231V432.941C0.770386 447.274 12.3898 458.893 26.7232 458.893H186.389C200.723 458.893 212.342 447.274 212.342 432.941V26.7231C212.342 26.6671 212.342 26.6111 212.341 26.5552C212.251 12.2992 200.667 0.770264 186.389 0.770264H169.416C167.472 1.45443 166.078 3.3072 166.078 5.48531C166.078 12.3849 160.485 17.9781 153.586 17.9781H58.9626C52.0631 17.9781 46.4699 12.3849 46.4699 5.48531C46.4699 3.3072 45.0763 1.45443 43.132 0.770264H26.7232C20.2561 0.770264 14.3416 3.13565 9.79745 7.04845C8.0469 8.55578 6.49973 10.2928 5.20271 12.2126C2.64268 16.002 1.05714 20.5037 0.805648 25.3584Z" fill="black"/>
</mask>
<g mask="url(#mask0_115_644)">
<path d="M0.766968 0.770264H212.339V458.893H0.766968V0.770264Z" fill="url(#paint0_linear_115_644)"/>
<rect x="0.50769" y="0.934448" width="211.364" height="457.674" rx="9.0182" fill="url(#paint1_linear_115_644)"/>
<path fill-rule="evenodd" clip-rule="evenodd" d="M53.9946 74.9061C54.1307 75.1914 54.5368 75.1914 54.6729 74.9061L57.4177 69.1509H57.6906L60.4354 74.9061C60.5715 75.1914 60.9776 75.1914 61.1137 74.9061L63.8586 69.1509H64.1311L66.8759 74.9061C67.012 75.1914 67.4181 75.1914 67.5542 74.9061L70.299 69.1509H70.5715L73.3163 74.9061C73.4524 75.1914 73.8585 75.1914 73.9946 74.9061L76.7394 69.1509H77.0122L79.757 74.9061C79.8931 75.1914 80.2992 75.1914 80.4353 74.9061L83.1801 69.1509H83.4527L86.1975 74.9061C86.3336 75.1914 86.7397 75.1914 86.8758 74.9061L89.6207 69.1509H89.8932L92.638 74.9061C92.7741 75.1914 93.1802 75.1914 93.3163 74.9061L96.0611 69.1509H96.3334L99.0783 74.9061C99.2143 75.1914 99.6205 75.1914 99.7566 74.9061L102.501 69.1509H102.774L105.519 74.9061C105.655 75.1914 106.061 75.1914 106.197 74.9061L108.942 69.1509H109.215L111.96 74.9061C112.096 75.1914 112.502 75.1914 112.638 74.9061L115.383 69.1509H115.655L118.4 74.9061C118.536 75.1914 118.942 75.1914 119.078 74.9061L121.823 69.1509H122.096L124.84 74.9062C124.977 75.1915 125.383 75.1915 125.519 74.9062L128.264 69.1509H128.536L131.281 74.9062C131.417 75.1915 131.823 75.1915 131.96 74.9062L134.704 69.1509H134.977L137.722 74.9062C137.858 75.1915 138.264 75.1915 138.4 74.9062L141.145 69.1509H141.417L144.162 74.9062C144.298 75.1915 144.704 75.1915 144.84 74.9062L147.585 69.1509H147.858L150.602 74.9062C150.739 75.1915 151.145 75.1915 151.281 74.9062L154.026 69.1509H154.298L157.043 74.9062C157.179 75.1915 157.585 75.1915 157.722 74.9062L160.466 69.1509H160.738L163.483 74.9062C163.619 75.1915 164.026 75.1915 164.162 74.9062L166.907 69.1509H167.179L169.924 74.9062C170.06 75.1915 170.466 75.1915 170.602 74.9062L173.347 69.1509H173.635L176.38 74.9062C176.516 75.1915 176.922 75.1915 177.058 74.9062L179.803 69.1509H180.091L182.835 74.9062C182.971 75.1915 183.378 75.1915 183.514 74.9062L186.259 69.1509H186.546L189.291 74.9062C189.427 75.1915 189.833 75.1915 189.969 74.9062L192.714 69.1509H193.108V370.509H18.5441V69.1509H19.0474L21.7923 74.9062C21.9284 75.1915 22.3346 75.1915 22.4706 74.9062L25.2155 69.1509H25.4877L28.2326 74.9062C28.3687 75.1915 28.7748 75.1915 28.9109 74.9062L31.6558 69.1509H31.9284L34.6733 74.9062C34.8094 75.1915 35.2155 75.1915 35.3516 74.9062L38.0965 69.1509H38.369L41.1139 74.9062C41.25 75.1915 41.6562 75.1915 41.7922 74.9062L44.5371 69.1509H44.8093L47.5542 74.9062C47.6903 75.1915 48.0964 75.1915 48.2325 74.9062L50.9774 69.1509H51.2497L53.9946 74.9061Z" fill="#FBF9BE"/>
<rect opacity="0.6" x="18.5441" y="327.673" width="174.728" height="37.5758" fill="url(#paint2_linear_115_644)"/>
<path d="M9.15002 353.976H202.666V373.515C202.666 375.175 201.32 376.521 199.66 376.521H12.1561C10.4959 376.521 9.15002 375.175 9.15002 373.515V353.976Z" fill="#33159E"/>
<path d="M18.544 353.976H9.15002L18.544 349.091V353.976Z" fill="#33159E"/>
<path d="M193.272 353.976H202.666L193.272 349.091V353.976Z" fill="#33159E"/>
<path d="M71.6071 48.0628C73.0139 48.0628 74.2404 47.3774 74.9859 46.3433L73.7113 45.4054C73.2424 46.0788 72.545 46.4876 71.6552 46.4876C70.1521 46.4876 69.0699 45.2852 69.0699 43.8062C69.0699 42.3272 70.1642 41.1489 71.6672 41.1489C72.545 41.1489 73.2424 41.5577 73.7113 42.219L74.9859 41.2931C74.2404 40.247 73.0139 39.5737 71.6071 39.5737C69.2623 39.5737 67.3986 41.4735 67.3986 43.8062C67.3986 46.163 69.2623 48.0628 71.6071 48.0628ZM78.7054 48.0628C80.3047 48.0628 81.7235 46.9085 81.7235 45.1409C81.7235 43.3613 80.3047 42.207 78.7054 42.207C77.1062 42.207 75.6873 43.3613 75.6873 45.1409C75.6873 46.9085 77.1062 48.0628 78.7054 48.0628ZM78.7054 46.5958C77.9238 46.5958 77.2866 46.0067 77.2866 45.1409C77.2866 44.2631 77.9238 43.674 78.7054 43.674C79.487 43.674 80.1243 44.2631 80.1243 45.1409C80.1243 46.0067 79.487 46.5958 78.7054 46.5958ZM89.8059 42.207C89.2287 42.207 88.363 42.4715 87.9301 43.2892C87.6054 42.6038 86.9561 42.207 86.1265 42.207C85.5012 42.207 84.7076 42.5797 84.5393 43.3493V42.3513H82.9641V47.9546H84.5393V45.0327C84.5393 44.0227 85.1164 43.7581 85.6816 43.7581C86.2106 43.7581 86.6676 44.1068 86.6676 44.9846V47.9546H88.2427V44.9846C88.2788 44.1429 88.7237 43.7461 89.349 43.7581C89.9021 43.7581 90.359 44.1188 90.359 44.9966V47.9546H91.9462V44.8764C91.9462 43.193 91.2127 42.207 89.8059 42.207ZM96.8289 42.207C96.1916 42.207 95.4221 42.4595 95.0253 43.0246V42.3513H93.4501V50.7081H95.0253V47.2572C95.4221 47.8223 96.1916 48.0628 96.8289 48.0628C98.2718 48.0628 99.5825 46.9446 99.5825 45.1409C99.5825 43.3373 98.2718 42.207 96.8289 42.207ZM96.5283 46.5838C95.7948 46.5838 95.0734 46.0067 95.0734 45.1409C95.0734 44.2872 95.7587 43.686 96.5283 43.686C97.3219 43.686 97.9712 44.3233 97.9712 45.1409C97.9712 45.9706 97.3219 46.5838 96.5283 46.5838ZM104.047 42.207C103.349 42.207 102.712 42.6038 102.399 43.5417V42.3513H100.836V47.9546H102.411V46.0307C102.411 44.4315 102.964 43.686 103.77 43.686C103.962 43.686 104.239 43.71 104.576 43.8904L104.936 42.3874C104.684 42.2551 104.347 42.207 104.047 42.207ZM108.32 48.0628C109.919 48.0628 111.338 46.9085 111.338 45.1409C111.338 43.3613 109.919 42.207 108.32 42.207C106.721 42.207 105.302 43.3613 105.302 45.1409C105.302 46.9085 106.721 48.0628 108.32 48.0628ZM108.32 46.5958C107.538 46.5958 106.901 46.0067 106.901 45.1409C106.901 44.2631 107.538 43.674 108.32 43.674C109.101 43.674 109.739 44.2631 109.739 45.1409C109.739 46.0067 109.101 46.5958 108.32 46.5958ZM116.129 42.3513L114.782 45.9345L113.411 42.3513H111.704L114.073 47.9546H115.479L117.848 42.3513H116.129ZM122.776 42.3513V43.0246C122.379 42.4595 121.622 42.219 120.972 42.219C119.529 42.219 118.219 43.3373 118.219 45.1409C118.219 46.9446 119.529 48.0628 120.972 48.0628C121.598 48.0628 122.379 47.8103 122.776 47.2572V47.9546H124.351V42.3513H122.776ZM121.273 46.5958C120.479 46.5958 119.818 45.9586 119.818 45.1409C119.818 44.3112 120.479 43.698 121.273 43.698C122.006 43.698 122.728 44.2752 122.728 45.1409C122.728 45.9946 122.042 46.5958 121.273 46.5958ZM129.2 42.207C128.647 42.207 127.757 42.5316 127.517 43.2892V42.3513H125.941V47.9546H127.517V45.0808C127.517 44.0587 128.214 43.7581 128.779 43.7581C129.32 43.7581 129.849 44.1549 129.849 45.0447V47.9546H131.425V44.8764C131.437 43.193 130.667 42.207 129.2 42.207ZM136.176 42.3513H134.986V40.2951H133.411V42.3513H132.389V43.5657H133.411V47.9546H134.986V43.5657H136.176V42.3513ZM142.652 45.0567C142.652 43.3373 141.341 42.207 139.742 42.207C138.131 42.207 136.76 43.3373 136.76 45.1529C136.76 46.8844 138.023 48.0628 139.742 48.0628C140.728 48.0628 141.714 47.678 142.243 46.9686L141.317 46.0427C140.981 46.4395 140.415 46.668 139.85 46.668C139.093 46.668 138.564 46.3073 138.395 45.658H142.628C142.64 45.4054 142.652 45.2131 142.652 45.0567ZM138.395 44.6359C138.564 43.8784 139.129 43.5778 139.766 43.5778C140.476 43.5778 141.029 43.9746 141.077 44.6359H138.395Z" fill="white"/>
<path fill-rule="evenodd" clip-rule="evenodd" d="M23.5176 43.8363L18.9375 48.4165L19.7346 49.2136L24.3147 44.6335L28.8949 49.2136L29.692 48.4165L25.1118 43.8363L29.6922 39.256L28.8951 38.4589L24.3147 43.0392L19.7344 38.4589L18.9373 39.256L23.5176 43.8363Z" fill="white"/>
<rect x="38.8351" y="406.378" width="133.723" height="27.4304" rx="13.7152" fill="white"/>
<path d="M81.304 423.631C79.521 423.631 78.1038 422.168 78.1038 420.385C78.1038 418.602 79.521 417.111 81.304 417.111C82.3007 417.111 83.1693 417.55 83.727 418.245L83.0321 418.803C82.6298 418.309 82.0081 417.989 81.3132 417.989C80.0331 417.989 79.0456 419.086 79.0456 420.385C79.0456 421.674 80.0239 422.753 81.3132 422.753C82.0081 422.753 82.6298 422.433 83.0321 421.939L83.727 422.497C83.1693 423.192 82.3007 423.631 81.304 423.631ZM86.5935 423.631C85.3774 423.631 84.3534 422.735 84.3534 421.381C84.3534 420.028 85.3774 419.141 86.5935 419.141C87.8096 419.141 88.8428 420.028 88.8428 421.381C88.8428 422.735 87.8096 423.631 86.5935 423.631ZM86.5935 422.79C87.325 422.79 87.9467 422.213 87.9467 421.381C87.9467 420.559 87.325 419.982 86.5935 419.982C85.862 419.982 85.2494 420.559 85.2494 421.381C85.2494 422.213 85.862 422.79 86.5935 422.79ZM94.9977 419.141C96.0675 419.141 96.6435 419.864 96.6435 421.08V423.521H95.7383V421.125C95.7383 420.431 95.3726 420.001 94.7965 420.001C94.0925 419.992 93.7268 420.495 93.7268 421.391V423.521H92.8216V421.125C92.8216 420.431 92.4558 420.001 91.9255 420.001C91.3677 420.001 90.8009 420.357 90.8009 421.226V423.521H89.9048V419.251H90.8009V419.918C90.9929 419.443 91.5598 419.141 92.1358 419.141C92.7575 419.141 93.2787 419.47 93.5347 420.037C93.9005 419.297 94.568 419.141 94.9977 419.141ZM100.3 419.141C101.453 419.141 102.422 420.037 102.422 421.391C102.422 422.753 101.462 423.631 100.3 423.631C99.697 423.631 99.1027 423.375 98.8192 422.89V425.597H97.9232V419.251H98.8192V419.891C99.1027 419.406 99.7244 419.141 100.3 419.141ZM100.191 422.79C100.931 422.79 101.517 422.204 101.517 421.4C101.517 420.595 100.931 419.982 100.191 419.982C99.4776 419.982 98.8284 420.54 98.8284 421.4C98.8284 422.259 99.5324 422.79 100.191 422.79ZM106.805 419.891V419.251H107.701V423.521H106.805V422.799C106.531 423.292 105.946 423.631 105.287 423.631C104.172 423.631 103.212 422.698 103.212 421.381C103.212 420.11 104.117 419.141 105.324 419.141C105.946 419.141 106.531 419.406 106.805 419.891ZM105.443 422.79C106.156 422.79 106.796 422.186 106.796 421.381C106.796 420.559 106.11 419.982 105.424 419.982C104.693 419.982 104.117 420.623 104.117 421.381C104.117 422.149 104.693 422.79 105.443 422.79ZM111.152 419.141C111.444 419.141 111.746 419.214 111.883 419.297L111.728 420.147C111.49 420.037 111.271 420.001 111.097 420.001C110.32 420.001 109.954 420.833 109.954 421.985V423.521H109.049V419.251H109.954V420.211C110.174 419.461 110.603 419.141 111.152 419.141ZM113.891 419.251H114.805V420.001H113.891V423.521H112.995V420.001H112.227V419.251H112.995V417.651H113.891V419.251ZM116.104 418.273C115.775 418.273 115.492 418.026 115.492 417.697C115.492 417.367 115.775 417.121 116.104 417.121C116.443 417.121 116.717 417.367 116.717 417.697C116.717 418.026 116.443 418.273 116.104 418.273ZM116.553 423.521H115.656V419.251H116.553V423.521ZM118.794 423.521H117.898V416.929H118.794V423.521ZM122.425 419.141C123.504 419.141 124.144 419.864 124.135 421.08V423.521H123.239V421.135C123.239 420.44 122.818 420.019 122.269 420.019C121.712 420.019 121.035 420.348 121.035 421.226V423.521H120.139V416.929H121.035V419.9C121.282 419.379 121.968 419.141 122.425 419.141ZM128.735 419.891V419.251H129.631V423.521H128.735V422.799C128.461 423.292 127.876 423.631 127.217 423.631C126.102 423.631 125.142 422.698 125.142 421.381C125.142 420.11 126.047 419.141 127.254 419.141C127.876 419.141 128.461 419.406 128.735 419.891ZM127.373 422.79C128.086 422.79 128.726 422.186 128.726 421.381C128.726 420.559 128.04 419.982 127.354 419.982C126.623 419.982 126.047 420.623 126.047 421.381C126.047 422.149 126.623 422.79 127.373 422.79ZM133.082 419.141C133.374 419.141 133.676 419.214 133.813 419.297L133.658 420.147C133.42 420.037 133.201 420.001 133.027 420.001C132.25 420.001 131.884 420.833 131.884 421.985V423.521H130.979V419.251H131.884V420.211C132.104 419.461 132.533 419.141 133.082 419.141Z" fill="#33159E"/>
<path d="M57.7552 126.865C55.9967 126.865 54.5989 125.422 54.5989 123.664C54.5989 121.905 55.9967 120.435 57.7552 120.435C58.7112 120.435 59.5408 120.841 60.0909 121.49L59.4957 121.995C59.0809 121.508 58.4496 121.193 57.7552 121.193C56.4476 121.193 55.4195 122.329 55.4195 123.664C55.4195 124.989 56.4476 126.108 57.7552 126.108C58.4496 126.108 59.0809 125.792 59.4957 125.305L60.0909 125.81C59.5408 126.459 58.7112 126.865 57.7552 126.865ZM62.9368 126.865C61.7374 126.865 60.7364 125.981 60.7364 124.647C60.7364 123.312 61.7374 122.437 62.9368 122.437C64.1362 122.437 65.1463 123.312 65.1463 124.647C65.1463 125.981 64.1362 126.865 62.9368 126.865ZM62.9368 126.126C63.7124 126.126 64.3617 125.521 64.3617 124.647C64.3617 123.781 63.7124 123.177 62.9368 123.177C62.1703 123.177 61.53 123.781 61.53 124.647C61.53 125.521 62.1703 126.126 62.9368 126.126ZM71.2347 122.437C72.2898 122.437 72.867 123.141 72.867 124.322V126.757H72.0824V124.367C72.0824 123.664 71.6946 123.195 71.0814 123.195C70.3329 123.186 69.9451 123.709 69.9451 124.647V126.757H69.1605V124.367C69.1605 123.655 68.7727 123.195 68.2136 123.195C67.6184 123.195 67.0232 123.583 67.0232 124.475V126.757H66.2386V122.545H67.0232V123.195C67.2306 122.735 67.7807 122.437 68.3759 122.437C68.9892 122.437 69.5212 122.762 69.7647 123.339C70.1525 122.582 70.8108 122.437 71.2347 122.437ZM76.4552 122.437C77.6095 122.437 78.5654 123.33 78.5654 124.656C78.5654 125.99 77.6185 126.865 76.4642 126.865C75.8329 126.865 75.2377 126.595 74.9581 126.099V128.804H74.1736V122.545H74.9581V123.204C75.2377 122.726 75.851 122.437 76.4552 122.437ZM76.383 126.126C77.1586 126.126 77.7718 125.512 77.7718 124.665C77.7718 123.826 77.1586 123.177 76.383 123.177C75.6345 123.177 74.9581 123.763 74.9581 124.665C74.9581 125.576 75.6976 126.126 76.383 126.126ZM81.6352 122.437C81.9328 122.437 82.2394 122.518 82.3657 122.6L82.2394 123.339C82.014 123.231 81.7885 123.195 81.6262 123.195C80.7875 123.195 80.4538 124.106 80.4538 125.215V126.757H79.6602V122.545H80.4538V123.501C80.6703 122.762 81.0761 122.437 81.6352 122.437ZM84.9187 126.865C83.7193 126.865 82.7182 125.981 82.7182 124.647C82.7182 123.312 83.7193 122.437 84.9187 122.437C86.1181 122.437 87.1281 123.312 87.1281 124.647C87.1281 125.981 86.1181 126.865 84.9187 126.865ZM84.9187 126.126C85.6942 126.126 86.3436 125.521 86.3436 124.647C86.3436 123.781 85.6942 123.177 84.9187 123.177C84.1521 123.177 83.5118 123.781 83.5118 124.647C83.5118 125.521 84.1521 126.126 84.9187 126.126ZM89.702 125.756L90.9916 122.545H91.8393L90.0808 126.757H89.3142L87.5647 122.545H88.4034L89.702 125.756ZM95.8721 123.204V122.545H96.6567V126.757H95.8721V126.008C95.5926 126.513 95.0064 126.865 94.33 126.865C93.2298 126.865 92.2648 125.936 92.2648 124.647C92.2648 123.402 93.1757 122.437 94.3661 122.437C94.9974 122.437 95.5926 122.708 95.8721 123.204ZM94.4473 126.126C95.1958 126.126 95.8721 125.503 95.8721 124.647C95.8721 123.781 95.1417 123.177 94.4382 123.177C93.6717 123.177 93.0584 123.853 93.0584 124.647C93.0584 125.449 93.6717 126.126 94.4473 126.126ZM100.214 122.437C101.26 122.437 101.918 123.141 101.909 124.322V126.757H101.125V124.367C101.125 123.664 100.692 123.213 100.105 123.213C99.5193 123.213 98.8159 123.565 98.8159 124.475V126.757H98.0313V122.545H98.8159V123.186C99.0684 122.672 99.7538 122.437 100.214 122.437ZM104.275 122.545H105.186V123.222H104.275V126.757H103.49V123.222H102.733V122.545H103.49V120.958H104.275V122.545ZM109.952 124.638C109.952 124.755 109.943 124.872 109.934 124.989H106.507C106.624 125.738 107.165 126.126 107.887 126.126C108.401 126.126 108.87 125.891 109.113 125.467L109.79 125.738C109.429 126.468 108.671 126.865 107.86 126.865C106.66 126.865 105.695 125.972 105.695 124.638C105.695 123.303 106.66 122.437 107.86 122.437C109.059 122.437 109.952 123.303 109.952 124.638ZM106.516 124.313H109.167C109.068 123.592 108.554 123.177 107.86 123.177C107.147 123.177 106.642 123.555 106.516 124.313ZM116.341 125.034H113.221V124.277H116.341V125.034ZM122.787 124.051L121.398 125.648H123.491V126.757H119.514V126.117L121.822 123.348C122.066 123.05 122.228 122.744 122.228 122.545C122.228 122.149 121.903 121.869 121.444 121.869C120.92 121.869 120.623 122.212 120.551 122.726L119.478 122.545C119.622 121.49 120.307 120.769 121.489 120.769C122.67 120.769 123.437 121.481 123.437 122.554C123.437 123.123 123.166 123.628 122.787 124.051ZM126.63 126.865C124.907 126.865 124.42 125.494 124.42 123.817C124.42 122.113 124.907 120.769 126.63 120.769C128.334 120.769 128.812 122.113 128.812 123.817C128.812 125.494 128.334 126.865 126.63 126.865ZM126.63 125.765C127.387 125.765 127.604 124.89 127.604 123.817C127.604 122.726 127.387 121.869 126.63 121.869C125.854 121.869 125.62 122.726 125.62 123.817C125.62 124.89 125.854 125.765 126.63 125.765ZM132.959 124.051L131.57 125.648H133.663V126.757H129.686V126.117L131.994 123.348C132.238 123.05 132.4 122.744 132.4 122.545C132.4 122.149 132.075 121.869 131.615 121.869C131.092 121.869 130.795 122.212 130.723 122.726L129.649 122.545C129.794 121.49 130.479 120.769 131.66 120.769C132.842 120.769 133.608 121.481 133.608 122.554C133.608 123.123 133.338 123.628 132.959 124.051ZM136.747 120.769C138.127 120.769 139.038 121.923 139.038 123.601C139.038 125.35 138.19 126.865 136.54 126.865C135.764 126.865 134.998 126.495 134.637 125.693L135.593 125.161C135.773 125.567 136.143 125.765 136.522 125.765C137.261 125.765 137.793 125.089 137.839 124.151C137.55 124.448 137.126 124.656 136.558 124.656C135.359 124.656 134.565 123.781 134.565 122.753C134.565 121.626 135.431 120.769 136.747 120.769ZM136.711 123.655C137.306 123.655 137.73 123.294 137.739 122.78C137.739 122.257 137.334 121.878 136.747 121.869C136.17 121.869 135.755 122.239 135.755 122.762C135.755 123.276 136.152 123.646 136.711 123.655ZM143.608 124.575H144.51V125.63H143.608V126.757H142.409V125.63H139.559V125.278L142.905 120.85H143.608V124.575ZM142.409 123.014L141.246 124.575H142.409V123.014ZM147.474 120.769C148.854 120.769 149.765 121.923 149.765 123.601C149.765 125.35 148.917 126.865 147.267 126.865C146.491 126.865 145.725 126.495 145.364 125.693L146.32 125.161C146.5 125.567 146.87 125.765 147.249 125.765C147.988 125.765 148.52 125.089 148.565 124.151C148.277 124.448 147.853 124.656 147.285 124.656C146.085 124.656 145.292 123.781 145.292 122.753C145.292 121.626 146.157 120.769 147.474 120.769ZM147.438 123.655C148.033 123.655 148.457 123.294 148.466 122.78C148.466 122.257 148.06 121.878 147.474 121.869C146.897 121.869 146.482 122.239 146.482 122.762C146.482 123.276 146.879 123.646 147.438 123.655ZM150.43 121.788L152.883 120.769H152.982V126.757H151.792V122.374L150.43 122.897V121.788ZM156.405 126.865C154.683 126.865 154.196 125.494 154.196 123.817C154.196 122.113 154.683 120.769 156.405 120.769C158.11 120.769 158.588 122.113 158.588 123.817C158.588 125.494 158.11 126.865 156.405 126.865ZM156.405 125.765C157.163 125.765 157.379 124.89 157.379 123.817C157.379 122.726 157.163 121.869 156.405 121.869C155.63 121.869 155.395 122.726 155.395 123.817C155.395 124.89 155.63 125.765 156.405 125.765Z" fill="#33159E"/>
<path opacity="0.3" d="M31.6957 142.799H179.369" stroke="#855B35" stroke-width="0.751517"/>
<path opacity="0.3" d="M31.6957 245.006H179.369" stroke="#855B35" stroke-width="0.751517"/>
<path d="M75.4725 170H73.496V164.987H75.4725C77.0432 164.987 78.1329 165.987 78.1329 167.497C78.1329 169.008 77.0432 170 75.4725 170ZM74.5632 165.927V169.061H75.4725C76.4645 169.061 77.0432 168.347 77.0432 167.497C77.0432 166.611 76.5021 165.927 75.4725 165.927H74.5632ZM82.4373 170H78.8902V164.987H82.4373V165.904H79.9573V166.994H82.3847V167.911H79.9573V169.076H82.4373V170ZM90.1619 170H89.0271L88.1479 166.558L87.2761 170H86.1413L84.7059 164.987H85.9008L86.7801 168.61L87.7345 164.987H88.5687L89.5156 168.61L90.3874 164.987H91.5898L90.1619 170ZM93.1603 170H92.0931V164.987H93.1603V170ZM97.3418 170H94.1554V164.987H95.2225V169.061H97.3418V170ZM101.276 170H98.0891V164.987H99.1562V169.061H101.276V170ZM103.09 170H102.023V164.987H103.09V170ZM108.76 170H107.595L107.279 169.136H105.04L104.724 170H103.551L105.49 164.987H106.828L108.76 170ZM106.986 168.211L106.159 165.912L105.325 168.211H106.986ZM114.656 170H113.581V166.393L112.168 170H111.702L110.29 166.393V170H109.222V164.987H110.718L111.935 168.114L113.153 164.987H114.656V170ZM123.008 170H121.933V166.393L120.52 170H120.054L118.641 166.393V170H117.574V164.987H119.07L120.287 168.114L121.505 164.987H123.008V170ZM123.763 167.497C123.763 165.987 124.867 164.905 126.378 164.905C127.896 164.905 129.001 165.987 129.001 167.497C129.001 169.008 127.896 170.09 126.378 170.09C124.867 170.09 123.763 169.008 123.763 167.497ZM127.904 167.497C127.904 166.558 127.302 165.852 126.378 165.852C125.454 165.852 124.86 166.558 124.86 167.497C124.86 168.429 125.454 169.143 126.378 169.143C127.302 169.143 127.904 168.429 127.904 167.497ZM133.808 170H132.583L131.598 168.204H130.817V170H129.75V164.987H132.094C133.139 164.987 133.778 165.671 133.778 166.603C133.778 167.49 133.222 167.963 132.681 168.091L133.808 170ZM132.688 166.596C132.688 166.175 132.365 165.904 131.937 165.904H130.817V167.287H131.937C132.365 167.287 132.688 167.016 132.688 166.596ZM138.126 170H134.579V164.987H138.126V165.904H135.646V166.994H138.073V167.911H135.646V169.076H138.126V170ZM140.027 170H138.96V164.987H140.027V170ZM145.081 170H143.856L142.871 168.204H142.09V170H141.022V164.987H143.367C144.412 164.987 145.051 165.671 145.051 166.603C145.051 167.49 144.494 167.963 143.953 168.091L145.081 170ZM143.961 166.596C143.961 166.175 143.638 165.904 143.209 165.904H142.09V167.287H143.209C143.638 167.287 143.961 167.016 143.961 166.596ZM150.526 170H149.361L149.045 169.136H146.806L146.49 170H145.318L147.257 164.987H148.595L150.526 170ZM148.752 168.211L147.926 165.912L147.091 168.211H148.752Z" fill="#855B35"/>
<path d="M74.5632 272H73.496V266.987H75.8407C76.9304 266.987 77.5241 267.724 77.5241 268.603C77.5241 269.475 76.9229 270.204 75.8407 270.204H74.5632V272ZM76.4344 268.596C76.4344 268.182 76.1188 267.904 75.6979 267.904H74.5632V269.287H75.6979C76.1188 269.287 76.4344 269.016 76.4344 268.596ZM82.3023 272H81.1375L80.8218 271.136H78.5823L78.2667 272H77.0943L79.0332 266.987H80.3709L82.3023 272ZM80.5287 270.211L79.7021 267.912L78.8679 270.211H80.5287ZM86.8234 272H85.5984L84.6139 270.204H83.8323V272H82.7652V266.987H85.1099C86.1545 266.987 86.7933 267.671 86.7933 268.603C86.7933 269.49 86.2372 269.963 85.6961 270.091L86.8234 272ZM85.7036 268.596C85.7036 268.175 85.3805 267.904 84.9521 267.904H83.8323V269.287H84.9521C85.3805 269.287 85.7036 269.016 85.7036 268.596ZM92.2687 272H91.1039L90.7882 271.136H88.5487L88.2331 272H87.0607L88.9996 266.987H90.3373L92.2687 272ZM90.4951 270.211L89.6685 267.912L88.8343 270.211H90.4951ZM97.3749 272H94.6544V266.987H97.2922C98.2467 266.987 98.7352 267.596 98.7352 268.265C98.7352 268.896 98.3444 269.317 97.8709 269.415C98.4045 269.497 98.8329 270.016 98.8329 270.647C98.8329 271.399 98.3293 272 97.3749 272ZM95.7216 267.897V269.001H97.0593C97.42 269.001 97.6455 268.768 97.6455 268.445C97.6455 268.137 97.42 267.897 97.0593 267.897H95.7216ZM95.7216 269.911V271.091H97.0969C97.5027 271.091 97.7432 270.858 97.7432 270.497C97.7432 270.181 97.5177 269.911 97.0969 269.911H95.7216ZM100.705 272H99.6376V266.987H100.705V272ZM106.374 272H105.209L104.894 271.136H102.654L102.339 272H101.166L103.105 266.987H104.443L106.374 272ZM104.601 270.211L103.774 267.912L102.94 270.211H104.601ZM111.324 272H110.294L107.904 268.633V272H106.837V266.987H107.934L110.257 270.234V266.987H111.324V272ZM114.702 272.09C113.236 272.09 112.072 271.038 112.072 269.497C112.072 267.957 113.236 266.905 114.702 266.905C115.844 266.905 116.483 267.506 116.836 268.13L115.919 268.581C115.709 268.175 115.258 267.852 114.702 267.852C113.83 267.852 113.169 268.551 113.169 269.497C113.169 270.444 113.83 271.143 114.702 271.143C115.258 271.143 115.709 270.828 115.919 270.414L116.836 270.858C116.476 271.481 115.844 272.09 114.702 272.09ZM122.095 272H120.93L120.614 271.136H118.375L118.059 272H116.887L118.825 266.987H120.163L122.095 272ZM120.321 270.211L119.494 267.912L118.66 270.211H120.321ZM129.914 272H128.839V268.393L127.426 272H126.96L125.547 268.393V272H124.48V266.987H125.976L127.193 270.114L128.411 266.987H129.914V272ZM130.669 269.497C130.669 267.987 131.773 266.905 133.284 266.905C134.802 266.905 135.907 267.987 135.907 269.497C135.907 271.008 134.802 272.09 133.284 272.09C131.773 272.09 130.669 271.008 130.669 269.497ZM134.81 269.497C134.81 268.558 134.208 267.852 133.284 267.852C132.36 267.852 131.766 268.558 131.766 269.497C131.766 270.429 132.36 271.143 133.284 271.143C134.208 271.143 134.81 270.429 134.81 269.497ZM140.714 272H139.489L138.504 270.204H137.723V272H136.656V266.987H139C140.045 266.987 140.684 267.671 140.684 268.603C140.684 269.49 140.128 269.963 139.587 270.091L140.714 272ZM139.594 268.596C139.594 268.175 139.271 267.904 138.843 267.904H137.723V269.287H138.843C139.271 269.287 139.594 269.016 139.594 268.596ZM145.032 272H141.485V266.987H145.032V267.904H142.552V268.994H144.979V269.911H142.552V271.076H145.032V272ZM146.933 272H145.866V266.987H146.933V272ZM151.987 272H150.762L149.777 270.204H148.996V272H147.928V266.987H150.273C151.318 266.987 151.957 267.671 151.957 268.603C151.957 269.49 151.4 269.963 150.859 270.091L151.987 272ZM150.867 268.596C150.867 268.175 150.544 267.904 150.115 267.904H148.996V269.287H150.115C150.544 269.287 150.867 269.016 150.867 268.596ZM157.432 272H156.267L155.951 271.136H153.712L153.396 272H152.224L154.163 266.987H155.501L157.432 272ZM155.658 270.211L154.832 267.912L153.998 270.211H155.658Z" fill="#855B35"/>
<path d="M33.7774 196.521H34.5514L36.573 191.508H35.8591L34.1682 195.837L32.4773 191.508H31.7633L33.7774 196.521ZM38.9984 196.521H39.562V194.026C39.562 193.146 38.9232 192.801 38.1567 192.801C37.563 192.801 37.097 192.996 36.7062 193.402L36.9693 193.793C37.2924 193.447 37.6456 193.289 38.0815 193.289C38.6076 193.289 38.9984 193.567 38.9984 194.056V194.71C38.7053 194.371 38.2919 194.214 37.7959 194.214C37.1797 194.214 36.5259 194.597 36.5259 195.409C36.5259 196.198 37.1797 196.611 37.7959 196.611C38.2844 196.611 38.6978 196.438 38.9984 196.107V196.521ZM38.9984 195.754C38.7804 196.055 38.3972 196.205 37.9988 196.205C37.4728 196.205 37.1045 195.874 37.1045 195.416C37.1045 194.95 37.4728 194.619 37.9988 194.619C38.3972 194.619 38.7804 194.77 38.9984 195.07V195.754ZM40.6919 196.521H41.2555V191.508H40.6919V196.521ZM43.9655 196.611C45.0703 196.611 45.7617 195.754 45.7617 194.702C45.7617 193.65 45.0703 192.801 43.9655 192.801C42.8608 192.801 42.1694 193.65 42.1694 194.702C42.1694 195.754 42.8608 196.611 43.9655 196.611ZM43.9655 196.107C43.1915 196.107 42.7556 195.446 42.7556 194.702C42.7556 193.966 43.1915 193.304 43.9655 193.304C44.7396 193.304 45.168 193.966 45.168 194.702C45.168 195.446 44.7396 196.107 43.9655 196.107ZM46.6805 196.521H47.2441V193.951C47.4095 193.657 47.8829 193.372 48.2286 193.372C48.3188 193.372 48.3865 193.379 48.4541 193.394V192.816C47.9581 192.816 47.5372 193.094 47.2441 193.477V192.891H46.6805V196.521ZM32.2819 212.521H34.5665C35.4833 212.521 36.0169 211.972 36.0169 211.168C36.0169 210.567 35.5735 210.018 35.0399 209.936C35.4984 209.838 35.9192 209.417 35.9192 208.786C35.9192 208.034 35.3856 207.508 34.5139 207.508H32.2819V212.521ZM32.9056 209.68V208.064H34.4087C34.9723 208.064 35.2729 208.425 35.2729 208.876C35.2729 209.334 34.9723 209.68 34.4087 209.68H32.9056ZM32.9056 211.965V210.236H34.4387C35.055 210.236 35.3706 210.642 35.3706 211.1C35.3706 211.634 35.0249 211.965 34.4387 211.965H32.9056ZM39.2552 212.521H39.8189V210.026C39.8189 209.146 39.1801 208.801 38.4135 208.801C37.8198 208.801 37.3539 208.996 36.9631 209.402L37.2261 209.793C37.5493 209.447 37.9025 209.289 38.3384 209.289C38.8644 209.289 39.2552 209.567 39.2552 210.056V210.71C38.9621 210.371 38.5488 210.214 38.0528 210.214C37.4366 210.214 36.7827 210.597 36.7827 211.409C36.7827 212.198 37.4366 212.611 38.0528 212.611C38.5413 212.611 38.9546 212.438 39.2552 212.107V212.521ZM39.2552 211.754C39.0373 212.055 38.654 212.205 38.2557 212.205C37.7297 212.205 37.3614 211.874 37.3614 211.416C37.3614 210.95 37.7297 210.619 38.2557 210.619C38.654 210.619 39.0373 210.77 39.2552 211.07V211.754ZM43.3987 212.521H43.9623V209.973C43.9623 209.184 43.564 208.801 42.805 208.801C42.2639 208.801 41.7679 209.116 41.5124 209.417V208.891H40.9487V212.521H41.5124V209.868C41.7228 209.575 42.1436 209.304 42.587 209.304C43.0755 209.304 43.3987 209.507 43.3987 210.146V212.521ZM44.8775 210.702C44.8775 211.784 45.6065 212.611 46.6887 212.611C47.35 212.611 47.7408 212.34 48.0189 211.98L47.6431 211.634C47.4026 211.957 47.0945 212.107 46.7187 212.107C45.9447 212.107 45.4637 211.506 45.4637 210.702C45.4637 209.898 45.9447 209.304 46.7187 209.304C47.0945 209.304 47.4026 209.447 47.6431 209.778L48.0189 209.432C47.7408 209.071 47.35 208.801 46.6887 208.801C45.6065 208.801 44.8775 209.627 44.8775 210.702ZM50.3945 212.611C51.4993 212.611 52.1907 211.754 52.1907 210.702C52.1907 209.65 51.4993 208.801 50.3945 208.801C49.2898 208.801 48.5984 209.65 48.5984 210.702C48.5984 211.754 49.2898 212.611 50.3945 212.611ZM50.3945 212.107C49.6205 212.107 49.1846 211.446 49.1846 210.702C49.1846 209.966 49.6205 209.304 50.3945 209.304C51.1686 209.304 51.597 209.966 51.597 210.702C51.597 211.446 51.1686 212.107 50.3945 212.107ZM52.9968 209.252C52.9968 209.477 53.1846 209.665 53.4101 209.665C53.6356 209.665 53.8234 209.477 53.8234 209.252C53.8234 209.026 53.6356 208.838 53.4101 208.838C53.1846 208.838 52.9968 209.026 52.9968 209.252ZM52.9968 212.183C52.9968 212.408 53.1846 212.596 53.4101 212.596C53.6356 212.596 53.8234 212.408 53.8234 212.183C53.8234 211.957 53.6356 211.769 53.4101 211.769C53.1846 211.769 52.9968 211.957 52.9968 212.183ZM35.8816 228.521H36.573L34.5514 223.508H33.7774L31.7633 228.521H32.4547L32.8981 227.409H35.4382L35.8816 228.521ZM34.1682 224.064L35.2504 226.852H33.0785L34.1682 224.064ZM37.1983 229.453C37.6267 229.873 38.0475 229.994 38.6638 229.994C39.5506 229.994 40.3923 229.618 40.3923 228.416V224.891H39.8286V225.44C39.5355 225.041 39.0996 224.801 38.6112 224.801C37.6567 224.801 36.9954 225.522 36.9954 226.687C36.9954 227.859 37.6642 228.566 38.6112 228.566C39.1222 228.566 39.5656 228.288 39.8286 227.92V228.438C39.8286 229.235 39.265 229.528 38.6638 229.528C38.1452 229.528 37.7845 229.393 37.4839 229.032L37.1983 229.453ZM39.8286 227.476C39.6332 227.792 39.1973 228.07 38.7464 228.07C38.0175 228.07 37.5816 227.484 37.5816 226.687C37.5816 225.883 38.0175 225.304 38.7464 225.304C39.1973 225.304 39.6332 225.575 39.8286 225.89V227.476ZM43.7156 224.342H44.0989L43.3624 223.26H42.8213L42.1074 224.342H42.4906L43.0918 223.546L43.7156 224.342ZM41.3107 226.702C41.3107 227.837 42.0848 228.611 43.1595 228.611C43.7532 228.611 44.2417 228.416 44.6024 228.055L44.3318 227.687C44.0463 227.98 43.6254 228.145 43.2121 228.145C42.4305 228.145 41.9495 227.574 41.9044 226.89H44.8429V226.747C44.8429 225.657 44.1966 224.801 43.0994 224.801C42.0623 224.801 41.3107 225.65 41.3107 226.702ZM43.0918 225.267C43.9185 225.267 44.2792 225.936 44.2868 226.477H41.9044C41.9345 225.921 42.3178 225.267 43.0918 225.267ZM48.2057 228.521H48.7694V225.973C48.7694 225.184 48.3711 224.801 47.612 224.801C47.0709 224.801 46.5749 225.116 46.3194 225.417V224.891H45.7558V228.521H46.3194V225.868C46.5299 225.575 46.9507 225.304 47.3941 225.304C47.8826 225.304 48.2057 225.507 48.2057 226.146V228.521ZM49.6846 226.702C49.6846 227.784 50.4136 228.611 51.4957 228.611C52.1571 228.611 52.5479 228.34 52.8259 227.98L52.4502 227.634C52.2097 227.957 51.9016 228.107 51.5258 228.107C50.7517 228.107 50.2708 227.506 50.2708 226.702C50.2708 225.898 50.7517 225.304 51.5258 225.304C51.9016 225.304 52.2097 225.447 52.4502 225.778L52.8259 225.432C52.5479 225.071 52.1571 224.801 51.4957 224.801C50.4136 224.801 49.6846 225.627 49.6846 226.702ZM53.894 224.282C54.1044 224.282 54.2772 224.109 54.2772 223.899C54.2772 223.688 54.1044 223.523 53.894 223.523C53.691 223.523 53.5182 223.688 53.5182 223.899C53.5182 224.109 53.691 224.282 53.894 224.282ZM53.6159 228.521H54.1795V224.891H53.6159V228.521ZM57.5735 228.521H58.1371V226.026C58.1371 225.146 57.4983 224.801 56.7318 224.801C56.1381 224.801 55.6721 224.996 55.2813 225.402L55.5444 225.793C55.8675 225.447 56.2207 225.289 56.6566 225.289C57.1827 225.289 57.5735 225.567 57.5735 226.056V226.71C57.2804 226.371 56.867 226.214 56.371 226.214C55.7548 226.214 55.101 226.597 55.101 227.409C55.101 228.198 55.7548 228.611 56.371 228.611C56.8595 228.611 57.2728 228.438 57.5735 228.107V228.521ZM57.5735 227.754C57.3555 228.055 56.9722 228.205 56.5739 228.205C56.0479 228.205 55.6796 227.874 55.6796 227.416C55.6796 226.95 56.0479 226.619 56.5739 226.619C56.9722 226.619 57.3555 226.77 57.5735 227.07V227.754ZM59.1542 225.252C59.1542 225.477 59.3421 225.665 59.5676 225.665C59.793 225.665 59.9809 225.477 59.9809 225.252C59.9809 225.026 59.793 224.838 59.5676 224.838C59.3421 224.838 59.1542 225.026 59.1542 225.252ZM59.1542 228.183C59.1542 228.408 59.3421 228.596 59.5676 228.596C59.793 228.596 59.9809 228.408 59.9809 228.183C59.9809 227.957 59.793 227.769 59.5676 227.769C59.3421 227.769 59.1542 227.957 59.1542 228.183Z" fill="#855B35"/>
<path d="M35.0097 297.69C35.9191 297.69 36.5203 297.269 36.9411 296.698L36.4075 296.405C36.122 296.833 35.6034 297.134 35.0097 297.134C33.9351 297.134 33.1009 296.285 33.1009 295.097C33.1009 293.902 33.9351 293.061 35.0097 293.061C35.6034 293.061 36.122 293.369 36.4075 293.79L36.9336 293.496C36.5353 292.933 35.9191 292.504 35.0097 292.504C33.5894 292.504 32.4546 293.557 32.4546 295.097C32.4546 296.638 33.5894 297.69 35.0097 297.69ZM37.7361 297.6H38.3598V295.608H39.7501C40.7421 295.608 41.3208 294.917 41.3208 294.098C41.3208 293.279 40.7572 292.587 39.7501 292.587H37.7361V297.6ZM40.6745 294.098C40.6745 294.661 40.2687 295.052 39.675 295.052H38.3598V293.143H39.675C40.2687 293.143 40.6745 293.534 40.6745 294.098ZM42.1468 297.6H42.7706V295.315H45.3784V294.759H42.7706V293.143H45.431V292.587H42.1468V297.6ZM46.1434 294.331C46.1434 294.556 46.3313 294.744 46.5568 294.744C46.7822 294.744 46.9701 294.556 46.9701 294.331C46.9701 294.105 46.7822 293.917 46.5568 293.917C46.3313 293.917 46.1434 294.105 46.1434 294.331ZM46.1434 297.262C46.1434 297.487 46.3313 297.675 46.5568 297.675C46.7822 297.675 46.9701 297.487 46.9701 297.262C46.9701 297.036 46.7822 296.848 46.5568 296.848C46.3313 296.848 46.1434 297.036 46.1434 297.262ZM32.6575 313.6H34.9421C35.8589 313.6 36.3925 313.051 36.3925 312.247C36.3925 311.646 35.9491 311.097 35.4155 311.015C35.874 310.917 36.2948 310.496 36.2948 309.865C36.2948 309.113 35.7612 308.587 34.8895 308.587H32.6575V313.6ZM33.2812 310.759V309.143H34.7843C35.3479 309.143 35.6485 309.504 35.6485 309.955C35.6485 310.413 35.3479 310.759 34.7843 310.759H33.2812ZM33.2812 313.044V311.315H34.8143C35.4306 311.315 35.7462 311.721 35.7462 312.179C35.7462 312.713 35.4005 313.044 34.8143 313.044H33.2812ZM39.6308 313.6H40.1945V311.105C40.1945 310.225 39.5557 309.88 38.7891 309.88C38.1954 309.88 37.7295 310.075 37.3387 310.481L37.6017 310.872C37.9249 310.526 38.2781 310.368 38.714 310.368C39.2401 310.368 39.6308 310.646 39.6308 311.135V311.789C39.3378 311.45 38.9244 311.293 38.4284 311.293C37.8122 311.293 37.1584 311.676 37.1584 312.487C37.1584 313.277 37.8122 313.69 38.4284 313.69C38.9169 313.69 39.3302 313.517 39.6308 313.186V313.6ZM39.6308 312.833C39.4129 313.134 39.0296 313.284 38.6313 313.284C38.1053 313.284 37.737 312.953 37.737 312.495C37.737 312.029 38.1053 311.698 38.6313 311.698C39.0296 311.698 39.4129 311.849 39.6308 312.149V312.833ZM43.7743 313.6H44.3379V311.052C44.3379 310.263 43.9396 309.88 43.1806 309.88C42.6395 309.88 42.1435 310.195 41.888 310.496V309.97H41.3243V313.6H41.888V310.947C42.0984 310.654 42.5192 310.383 42.9626 310.383C43.4511 310.383 43.7743 310.586 43.7743 311.225V313.6ZM45.2531 311.781C45.2531 312.863 45.9821 313.69 47.0643 313.69C47.7256 313.69 48.1164 313.419 48.3945 313.059L48.0187 312.713C47.7782 313.036 47.4701 313.186 47.0943 313.186C46.3203 313.186 45.8393 312.585 45.8393 311.781C45.8393 310.977 46.3203 310.383 47.0943 310.383C47.4701 310.383 47.7782 310.526 48.0187 310.857L48.3945 310.511C48.1164 310.15 47.7256 309.88 47.0643 309.88C45.9821 309.88 45.2531 310.706 45.2531 311.781ZM50.7701 313.69C51.8749 313.69 52.5663 312.833 52.5663 311.781C52.5663 310.729 51.8749 309.88 50.7701 309.88C49.6654 309.88 48.974 310.729 48.974 311.781C48.974 312.833 49.6654 313.69 50.7701 313.69ZM50.7701 313.186C49.9961 313.186 49.5602 312.525 49.5602 311.781C49.5602 311.045 49.9961 310.383 50.7701 310.383C51.5442 310.383 51.9726 311.045 51.9726 311.781C51.9726 312.525 51.5442 313.186 50.7701 313.186ZM53.3724 310.331C53.3724 310.556 53.5603 310.744 53.7857 310.744C54.0112 310.744 54.199 310.556 54.199 310.331C54.199 310.105 54.0112 309.917 53.7857 309.917C53.5603 309.917 53.3724 310.105 53.3724 310.331ZM53.3724 313.262C53.3724 313.487 53.5603 313.675 53.7857 313.675C54.0112 313.675 54.199 313.487 54.199 313.262C54.199 313.036 54.0112 312.848 53.7857 312.848C53.5603 312.848 53.3724 313.036 53.3724 313.262ZM36.2572 329.6H36.9486L34.9271 324.587H34.153L32.1389 329.6H32.8303L33.2737 328.487H35.8138L36.2572 329.6ZM34.5438 325.143L35.626 327.931H33.4541L34.5438 325.143ZM37.5739 330.532C38.0023 330.952 38.4231 331.073 39.0394 331.073C39.9262 331.073 40.7679 330.697 40.7679 329.495V325.97H40.2042V326.519C39.9111 326.12 39.4753 325.88 38.9868 325.88C38.0323 325.88 37.371 326.601 37.371 327.766C37.371 328.938 38.0399 329.645 38.9868 329.645C39.4978 329.645 39.9412 329.367 40.2042 328.999V329.517C40.2042 330.314 39.6406 330.607 39.0394 330.607C38.5208 330.607 38.1601 330.471 37.8595 330.111L37.5739 330.532ZM40.2042 328.555C40.0088 328.871 39.573 329.149 39.122 329.149C38.3931 329.149 37.9572 328.563 37.9572 327.766C37.9572 326.962 38.3931 326.383 39.122 326.383C39.573 326.383 40.0088 326.654 40.2042 326.969V328.555ZM44.0912 325.421H44.4745L43.738 324.339H43.1969L42.483 325.421H42.8662L43.4675 324.625L44.0912 325.421ZM41.6864 327.781C41.6864 328.916 42.4604 329.69 43.5351 329.69C44.1288 329.69 44.6173 329.495 44.978 329.134L44.7075 328.766C44.4219 329.059 44.001 329.224 43.5877 329.224C42.8061 329.224 42.3251 328.653 42.2801 327.969H45.2185V327.826C45.2185 326.736 44.5722 325.88 43.475 325.88C42.4379 325.88 41.6864 326.729 41.6864 327.781ZM43.4675 326.346C44.2941 326.346 44.6548 327.015 44.6624 327.556H42.2801C42.3101 326.999 42.6934 326.346 43.4675 326.346ZM48.5813 329.6H49.145V327.052C49.145 326.263 48.7467 325.88 47.9876 325.88C47.4466 325.88 46.9506 326.195 46.695 326.496V325.97H46.1314V329.6H46.695V326.947C46.9055 326.654 47.3263 326.383 47.7697 326.383C48.2582 326.383 48.5813 326.586 48.5813 327.225V329.6ZM50.0602 327.781C50.0602 328.863 50.7892 329.69 51.8713 329.69C52.5327 329.69 52.9235 329.419 53.2015 329.059L52.8258 328.713C52.5853 329.036 52.2772 329.186 51.9014 329.186C51.1273 329.186 50.6464 328.585 50.6464 327.781C50.6464 326.977 51.1273 326.383 51.9014 326.383C52.2772 326.383 52.5853 326.526 52.8258 326.857L53.2015 326.511C52.9235 326.15 52.5327 325.88 51.8713 325.88C50.7892 325.88 50.0602 326.706 50.0602 327.781ZM54.2696 325.361C54.48 325.361 54.6528 325.188 54.6528 324.978C54.6528 324.767 54.48 324.602 54.2696 324.602C54.0667 324.602 53.8938 324.767 53.8938 324.978C53.8938 325.188 54.0667 325.361 54.2696 325.361ZM53.9915 329.6H54.5551V325.97H53.9915V329.6ZM57.9491 329.6H58.5127V327.105C58.5127 326.225 57.8739 325.88 57.1074 325.88C56.5137 325.88 56.0477 326.075 55.6569 326.481L55.92 326.872C56.2431 326.526 56.5963 326.368 57.0322 326.368C57.5583 326.368 57.9491 326.646 57.9491 327.135V327.789C57.656 327.45 57.2426 327.293 56.7466 327.293C56.1304 327.293 55.4766 327.676 55.4766 328.487C55.4766 329.277 56.1304 329.69 56.7466 329.69C57.2351 329.69 57.6485 329.517 57.9491 329.186V329.6ZM57.9491 328.833C57.7311 329.134 57.3478 329.284 56.9495 329.284C56.4235 329.284 56.0552 328.953 56.0552 328.495C56.0552 328.029 56.4235 327.698 56.9495 327.698C57.3478 327.698 57.7311 327.849 57.9491 328.149V328.833ZM59.5298 326.331C59.5298 326.556 59.7177 326.744 59.9432 326.744C60.1686 326.744 60.3565 326.556 60.3565 326.331C60.3565 326.105 60.1686 325.917 59.9432 325.917C59.7177 325.917 59.5298 326.105 59.5298 326.331ZM59.5298 329.262C59.5298 329.487 59.7177 329.675 59.9432 329.675C60.1686 329.675 60.3565 329.487 60.3565 329.262C60.3565 329.036 60.1686 328.848 59.9432 328.848C59.7177 328.848 59.5298 329.036 59.5298 329.262Z" fill="#855B35"/>
<path d="M76.0953 196.521H76.967L75.6819 194.514C76.3207 194.432 76.9294 193.951 76.9294 193.049C76.9294 192.124 76.2756 191.508 75.3212 191.508H73.2094V196.521H73.961V194.589H74.9004L76.0953 196.521ZM76.1554 193.049C76.1554 193.575 75.7646 193.928 75.2235 193.928H73.961V192.169H75.2235C75.7646 192.169 76.1554 192.523 76.1554 193.049ZM81.4623 195.1C81.4623 194.101 80.6357 193.815 79.8541 193.605V192.139C80.2524 192.207 80.6206 192.387 80.9062 192.688L81.3496 192.132C80.9738 191.749 80.4778 191.508 79.8541 191.448V190.749H79.3205V191.44C78.3886 191.508 77.7498 192.087 77.7498 192.861C77.7498 193.808 78.554 194.086 79.3205 194.281V195.92C78.7569 195.852 78.3135 195.559 78.0204 195.236L77.592 195.814C77.9753 196.243 78.5464 196.551 79.3205 196.603V197.272H79.8541V196.596C80.9964 196.506 81.4623 195.822 81.4623 195.1ZM78.5239 192.808C78.5239 192.417 78.8395 192.147 79.3205 192.109V193.462C78.8696 193.334 78.5239 193.169 78.5239 192.808ZM79.8541 195.92V194.424C80.3275 194.567 80.6958 194.74 80.6958 195.168C80.6958 195.484 80.4703 195.852 79.8541 195.92ZM83.9306 195.792C84.2538 196.243 84.9001 196.611 85.7719 196.611C86.9067 196.611 87.6056 196.002 87.6056 195.161C87.6056 194.371 86.9142 193.981 86.4407 193.936C86.9367 193.845 87.5304 193.477 87.5304 192.778C87.5304 191.937 86.7939 191.433 85.7719 191.433C84.9677 191.433 84.374 191.771 83.9983 192.215L84.3966 192.681C84.7648 192.305 85.1782 192.102 85.7042 192.102C86.2979 192.102 86.7789 192.372 86.7789 192.883C86.7789 193.402 86.2829 193.627 85.6742 193.627C85.4788 193.627 85.2157 193.627 85.1331 193.62V194.304C85.2082 194.296 85.4713 194.296 85.6742 194.296C86.4031 194.296 86.854 194.529 86.854 195.085C86.854 195.611 86.4407 195.942 85.7493 195.942C85.1857 195.942 84.6671 195.687 84.3515 195.303L83.9306 195.792ZM88.4054 196.13C88.4054 196.385 88.6158 196.603 88.8713 196.603C89.1269 196.603 89.3448 196.385 89.3448 196.13C89.3448 195.874 89.1269 195.664 88.8713 195.664C88.6158 195.664 88.4054 195.874 88.4054 196.13ZM90.1661 196.521H93.6982V195.859H91.361C92.7363 194.8 93.6756 193.921 93.6756 192.944C93.6756 191.944 92.8264 191.433 91.9246 191.433C91.2257 191.433 90.5418 191.711 90.1285 192.23L90.5719 192.718C90.88 192.35 91.3384 192.102 91.9321 192.102C92.4206 192.102 92.9091 192.357 92.9091 192.944C92.9091 193.733 92.0449 194.484 90.1661 195.927V196.521ZM94.5611 194.018C94.5611 195.258 95.1322 196.611 96.5225 196.611C97.9129 196.611 98.484 195.258 98.484 194.018C98.484 192.778 97.9129 191.433 96.5225 191.433C95.1322 191.433 94.5611 192.778 94.5611 194.018ZM97.7175 194.018C97.7175 194.995 97.4093 195.942 96.5225 195.942C95.6358 195.942 95.3276 194.995 95.3276 194.018C95.3276 193.041 95.6358 192.102 96.5225 192.102C97.4093 192.102 97.7175 193.041 97.7175 194.018ZM99.1773 194.018C99.1773 195.258 99.7485 196.611 101.139 196.611C102.529 196.611 103.1 195.258 103.1 194.018C103.1 192.778 102.529 191.433 101.139 191.433C99.7485 191.433 99.1773 192.778 99.1773 194.018ZM102.334 194.018C102.334 194.995 102.026 195.942 101.139 195.942C100.252 195.942 99.9439 194.995 99.9439 194.018C99.9439 193.041 100.252 192.102 101.139 192.102C102.026 192.102 102.334 193.041 102.334 194.018ZM103.979 197.498C104.362 197.227 104.64 196.776 104.64 196.288C104.64 195.889 104.392 195.664 104.114 195.664C103.859 195.664 103.656 195.867 103.656 196.122C103.656 196.37 103.829 196.551 104.062 196.551C104.099 196.551 104.159 196.536 104.174 196.536C104.137 196.784 103.904 197.084 103.663 197.235L103.979 197.498ZM105.371 194.018C105.371 195.258 105.943 196.611 107.333 196.611C108.723 196.611 109.294 195.258 109.294 194.018C109.294 192.778 108.723 191.433 107.333 191.433C105.943 191.433 105.371 192.778 105.371 194.018ZM108.528 194.018C108.528 194.995 108.22 195.942 107.333 195.942C106.446 195.942 106.138 194.995 106.138 194.018C106.138 193.041 106.446 192.102 107.333 192.102C108.22 192.102 108.528 193.041 108.528 194.018ZM109.988 194.018C109.988 195.258 110.559 196.611 111.949 196.611C113.339 196.611 113.911 195.258 113.911 194.018C113.911 192.778 113.339 191.433 111.949 191.433C110.559 191.433 109.988 192.778 109.988 194.018ZM113.144 194.018C113.144 194.995 112.836 195.942 111.949 195.942C111.062 195.942 110.754 194.995 110.754 194.018C110.754 193.041 111.062 192.102 111.949 192.102C112.836 192.102 113.144 193.041 113.144 194.018ZM72.999 210.026C72.999 211.401 73.5627 212.611 74.9981 212.611C76.1028 212.611 76.8017 211.852 76.8017 210.95C76.8017 209.883 76.0427 209.342 75.1408 209.342C74.5246 209.342 73.9835 209.74 73.7656 210.078C73.758 210.026 73.758 209.973 73.758 209.913C73.758 208.981 74.2165 208.102 75.1258 208.102C75.6218 208.102 75.9149 208.29 76.1704 208.583L76.5387 208.012C76.2155 207.666 75.7571 207.433 75.1258 207.433C73.6904 207.433 72.999 208.62 72.999 210.026ZM76.0427 210.973C76.0427 211.416 75.6819 211.942 74.9605 211.942C74.1413 211.942 73.8332 211.243 73.7731 210.657C74.0361 210.259 74.487 209.988 74.953 209.988C75.5467 209.988 76.0427 210.304 76.0427 210.973ZM77.5886 211.822C77.9793 212.31 78.5505 212.611 79.4072 212.611C80.4669 212.611 81.2484 211.965 81.2484 210.935C81.2484 209.905 80.4894 209.327 79.6477 209.327C79.1592 209.327 78.7384 209.53 78.4979 209.77V208.169H80.9178V207.508H77.7464V210.259L78.2875 210.432C78.6181 210.116 78.9789 209.981 79.4147 209.981C80.061 209.981 80.4894 210.364 80.4894 210.965C80.4894 211.514 80.0535 211.942 79.3997 211.942C78.8135 211.942 78.3626 211.717 78.0319 211.311L77.5886 211.822ZM82.058 211.822C82.4488 212.31 83.02 212.611 83.8767 212.611C84.9363 212.611 85.7179 211.965 85.7179 210.935C85.7179 209.905 84.9589 209.327 84.1172 209.327C83.6287 209.327 83.2078 209.53 82.9674 209.77V208.169H85.3872V207.508H82.2158V210.259L82.7569 210.432C83.0876 210.116 83.4483 209.981 83.8842 209.981C84.5305 209.981 84.9589 210.364 84.9589 210.965C84.9589 211.514 84.523 211.942 83.8692 211.942C83.283 211.942 82.8321 211.717 82.5014 211.311L82.058 211.822ZM90.1695 210.995H91.9732V210.409H90.1695V210.995ZM94.6908 212.521H97.1032C98.0275 212.521 98.5536 211.957 98.5536 211.168C98.5536 210.559 98.1177 210.018 97.5841 209.936C98.0425 209.838 98.4559 209.417 98.4559 208.786C98.4559 208.057 97.9373 207.508 97.043 207.508H94.6908V212.521ZM95.4423 209.635V208.169H96.9002C97.4038 208.169 97.6818 208.493 97.6818 208.906C97.6818 209.319 97.4038 209.635 96.9002 209.635H95.4423ZM95.4423 211.859V210.296H96.9378C97.4939 210.296 97.7795 210.657 97.7795 211.07C97.7795 211.559 97.4639 211.859 96.9378 211.859H95.4423ZM101.708 212.521H102.384V210.071C102.384 209.146 101.715 208.801 100.926 208.801C100.34 208.801 99.8439 208.996 99.4381 209.394L99.7312 209.86C100.054 209.537 100.408 209.379 100.821 209.379C101.339 209.379 101.708 209.65 101.708 210.101V210.702C101.43 210.379 101.009 210.221 100.52 210.221C99.9115 210.221 99.2577 210.582 99.2577 211.409C99.2577 212.205 99.919 212.611 100.52 212.611C101.009 212.611 101.422 212.438 101.708 212.122V212.521ZM101.708 211.724C101.505 211.995 101.152 212.137 100.776 212.137C100.287 212.137 99.9416 211.844 99.9416 211.416C99.9416 210.988 100.287 210.695 100.776 210.695C101.152 210.695 101.505 210.837 101.708 211.108V211.724ZM105.918 212.521H106.594V209.973C106.594 209.207 106.196 208.801 105.429 208.801C104.866 208.801 104.385 209.109 104.144 209.402V208.891H103.468V212.521H104.144V209.928C104.34 209.657 104.723 209.402 105.144 209.402C105.61 209.402 105.918 209.597 105.918 210.199V212.521ZM107.44 210.702C107.44 211.792 108.192 212.611 109.289 212.611C109.973 212.611 110.386 212.325 110.649 211.972L110.198 211.559C109.981 211.859 109.687 212.01 109.319 212.01C108.605 212.01 108.147 211.454 108.147 210.702C108.147 209.951 108.605 209.402 109.319 209.402C109.687 209.402 109.981 209.545 110.198 209.853L110.649 209.44C110.386 209.086 109.973 208.801 109.289 208.801C108.192 208.801 107.44 209.612 107.44 210.702ZM113.002 212.611C114.137 212.611 114.836 211.754 114.836 210.702C114.836 209.657 114.137 208.801 113.002 208.801C111.875 208.801 111.169 209.657 111.169 210.702C111.169 211.754 111.875 212.611 113.002 212.611ZM113.002 212.01C112.281 212.01 111.875 211.393 111.875 210.702C111.875 210.018 112.281 209.402 113.002 209.402C113.731 209.402 114.13 210.018 114.13 210.702C114.13 211.393 113.731 212.01 113.002 212.01ZM119.12 212.521H120.06L122.051 207.508H121.194L119.586 211.702L117.985 207.508H117.129L119.12 212.521ZM123.798 212.611C124.933 212.611 125.632 211.754 125.632 210.702C125.632 209.657 124.933 208.801 123.798 208.801C122.671 208.801 121.964 209.657 121.964 210.702C121.964 211.754 122.671 212.611 123.798 212.611ZM123.798 212.01C123.077 212.01 122.671 211.393 122.671 210.702C122.671 210.018 123.077 209.402 123.798 209.402C124.527 209.402 124.925 210.018 124.925 210.702C124.925 211.393 124.527 212.01 123.798 212.01ZM127.49 212.611C127.843 212.611 128.054 212.513 128.196 212.378L128.024 211.867C127.956 211.942 127.813 212.01 127.655 212.01C127.422 212.01 127.302 211.822 127.302 211.566V209.485H128.039V208.891H127.302V207.899H126.626V208.891H126.025V209.485H126.626V211.717C126.626 212.288 126.919 212.611 127.49 212.611ZM130.396 212.611C131.531 212.611 132.23 211.754 132.23 210.702C132.23 209.657 131.531 208.801 130.396 208.801C129.269 208.801 128.562 209.657 128.562 210.702C128.562 211.754 129.269 212.611 130.396 212.611ZM130.396 212.01C129.674 212.01 129.269 211.393 129.269 210.702C129.269 210.018 129.674 209.402 130.396 209.402C131.125 209.402 131.523 210.018 131.523 210.702C131.523 211.393 131.125 212.01 130.396 212.01ZM133.088 212.521H133.765V209.996C133.922 209.725 134.381 209.47 134.719 209.47C134.809 209.47 134.884 209.477 134.952 209.492V208.808C134.471 208.808 134.043 209.086 133.765 209.447V208.891H133.088V212.521ZM137.867 212.521H138.543V210.071C138.543 209.146 137.875 208.801 137.085 208.801C136.499 208.801 136.003 208.996 135.597 209.394L135.891 209.86C136.214 209.537 136.567 209.379 136.98 209.379C137.499 209.379 137.867 209.65 137.867 210.101V210.702C137.589 210.379 137.168 210.221 136.68 210.221C136.071 210.221 135.417 210.582 135.417 211.409C135.417 212.205 136.078 212.611 136.68 212.611C137.168 212.611 137.581 212.438 137.867 212.122V212.521ZM137.867 211.724C137.664 211.995 137.311 212.137 136.935 212.137C136.447 212.137 136.101 211.844 136.101 211.416C136.101 210.988 136.447 210.695 136.935 210.695C137.311 210.695 137.664 210.837 137.867 211.108V211.724ZM142.077 212.521H142.754V209.973C142.754 209.207 142.355 208.801 141.589 208.801C141.025 208.801 140.544 209.109 140.304 209.402V208.891H139.627V212.521H140.304V209.928C140.499 209.657 140.882 209.402 141.303 209.402C141.769 209.402 142.077 209.597 142.077 210.199V212.521ZM144.825 212.611C145.178 212.611 145.388 212.513 145.531 212.378L145.358 211.867C145.291 211.942 145.148 212.01 144.99 212.01C144.757 212.01 144.637 211.822 144.637 211.566V209.485H145.373V208.891H144.637V207.899H143.961V208.891H143.359V209.485H143.961V211.717C143.961 212.288 144.254 212.611 144.825 212.611ZM146.453 208.282C146.694 208.282 146.889 208.094 146.889 207.854C146.889 207.613 146.694 207.418 146.453 207.418C146.22 207.418 146.017 207.613 146.017 207.854C146.017 208.094 146.22 208.282 146.453 208.282ZM146.122 212.521H146.799V208.891H146.122V212.521ZM152.288 212.521H152.964V209.898C152.964 209.169 152.603 208.801 151.935 208.801C151.401 208.801 150.92 209.139 150.71 209.477C150.597 209.086 150.274 208.801 149.725 208.801C149.184 208.801 148.703 209.177 148.553 209.402V208.891H147.876V212.521H148.553V209.928C148.733 209.665 149.086 209.402 149.44 209.402C149.898 209.402 150.078 209.68 150.078 210.101V212.521H150.755V209.921C150.928 209.657 151.288 209.402 151.657 209.402C152.1 209.402 152.288 209.68 152.288 210.101V212.521ZM75.5692 228.611C76.5537 228.611 77.1624 228.137 77.5607 227.551L76.9219 227.213C76.6589 227.634 76.1629 227.942 75.5692 227.942C74.5547 227.942 73.7731 227.138 73.7731 226.018C73.7731 224.891 74.5547 224.094 75.5692 224.094C76.1629 224.094 76.6589 224.402 76.9219 224.823L77.5607 224.485C77.1699 223.899 76.5537 223.425 75.5692 223.425C74.1413 223.425 72.999 224.478 72.999 226.018C72.999 227.559 74.1413 228.611 75.5692 228.611ZM79.9033 228.611C81.0381 228.611 81.737 227.754 81.737 226.702C81.737 225.657 81.0381 224.801 79.9033 224.801C78.776 224.801 78.0696 225.657 78.0696 226.702C78.0696 227.754 78.776 228.611 79.9033 228.611ZM79.9033 228.01C79.1818 228.01 78.776 227.393 78.776 226.702C78.776 226.018 79.1818 225.402 79.9033 225.402C80.6323 225.402 81.0306 226.018 81.0306 226.702C81.0306 227.393 80.6323 228.01 79.9033 228.01ZM85.0457 228.521H85.722V225.973C85.722 225.207 85.3237 224.801 84.5572 224.801C83.9935 224.801 83.5126 225.109 83.2721 225.402V224.891H82.5957V228.521H83.2721V225.928C83.4675 225.657 83.8507 225.402 84.2716 225.402C84.7375 225.402 85.0457 225.597 85.0457 226.199V228.521ZM87.7932 228.611C88.1464 228.611 88.3568 228.513 88.4996 228.378L88.3267 227.867C88.2591 227.942 88.1163 228.01 87.9585 228.01C87.7255 228.01 87.6053 227.822 87.6053 227.566V225.485H88.3418V224.891H87.6053V223.899H86.9289V224.891H86.3277V225.485H86.9289V227.717C86.9289 228.288 87.222 228.611 87.7932 228.611ZM91.3303 228.521H92.0066V226.071C92.0066 225.146 91.3378 224.801 90.5487 224.801C89.9625 224.801 89.4665 224.996 89.0607 225.394L89.3538 225.86C89.6769 225.537 90.0301 225.379 90.4435 225.379C90.962 225.379 91.3303 225.65 91.3303 226.101V226.702C91.0522 226.379 90.6314 226.221 90.1429 226.221C89.5341 226.221 88.8803 226.582 88.8803 227.409C88.8803 228.205 89.5417 228.611 90.1429 228.611C90.6314 228.611 91.0447 228.438 91.3303 228.122V228.521ZM91.3303 227.724C91.1274 227.995 90.7741 228.137 90.3984 228.137C89.9099 228.137 89.5642 227.844 89.5642 227.416C89.5642 226.988 89.9099 226.695 90.3984 226.695C90.7741 226.695 91.1274 226.837 91.3303 227.108V227.724ZM92.9703 225.312C92.9703 225.56 93.1807 225.778 93.4362 225.778C93.6917 225.778 93.9097 225.56 93.9097 225.312C93.9097 225.056 93.6917 224.838 93.4362 224.838C93.1807 224.838 92.9703 225.056 92.9703 225.312ZM92.9703 228.13C92.9703 228.385 93.1807 228.603 93.4362 228.603C93.6917 228.603 93.9097 228.385 93.9097 228.13C93.9097 227.874 93.6917 227.664 93.4362 227.664C93.1807 227.664 92.9703 227.874 92.9703 228.13ZM96.6234 226.018C96.6234 227.258 97.1945 228.611 98.5848 228.611C99.9751 228.611 100.546 227.258 100.546 226.018C100.546 224.778 99.9751 223.433 98.5848 223.433C97.1945 223.433 96.6234 224.778 96.6234 226.018ZM99.7797 226.018C99.7797 226.995 99.4716 227.942 98.5848 227.942C97.698 227.942 97.3899 226.995 97.3899 226.018C97.3899 225.041 97.698 224.102 98.5848 224.102C99.4716 224.102 99.7797 225.041 99.7797 226.018ZM101.24 226.018C101.24 227.258 101.811 228.611 103.201 228.611C104.591 228.611 105.163 227.258 105.163 226.018C105.163 224.778 104.591 223.433 103.201 223.433C101.811 223.433 101.24 224.778 101.24 226.018ZM104.396 226.018C104.396 226.995 104.088 227.942 103.201 227.942C102.314 227.942 102.006 226.995 102.006 226.018C102.006 225.041 102.314 224.102 103.201 224.102C104.088 224.102 104.396 225.041 104.396 226.018ZM105.856 226.018C105.856 227.258 106.427 228.611 107.817 228.611C109.208 228.611 109.779 227.258 109.779 226.018C109.779 224.778 109.208 223.433 107.817 223.433C106.427 223.433 105.856 224.778 105.856 226.018ZM109.012 226.018C109.012 226.995 108.704 227.942 107.817 227.942C106.931 227.942 106.622 226.995 106.622 226.018C106.622 225.041 106.931 224.102 107.817 224.102C108.704 224.102 109.012 225.041 109.012 226.018ZM110.472 226.018C110.472 227.258 111.043 228.611 112.434 228.611C113.824 228.611 114.395 227.258 114.395 226.018C114.395 224.778 113.824 223.433 112.434 223.433C111.043 223.433 110.472 224.778 110.472 226.018ZM113.628 226.018C113.628 226.995 113.32 227.942 112.434 227.942C111.547 227.942 111.239 226.995 111.239 226.018C111.239 225.041 111.547 224.102 112.434 224.102C113.32 224.102 113.628 225.041 113.628 226.018ZM115.088 226.018C115.088 227.258 115.66 228.611 117.05 228.611C118.44 228.611 119.011 227.258 119.011 226.018C119.011 224.778 118.44 223.433 117.05 223.433C115.66 223.433 115.088 224.778 115.088 226.018ZM118.245 226.018C118.245 226.995 117.937 227.942 117.05 227.942C116.163 227.942 115.855 226.995 115.855 226.018C115.855 225.041 116.163 224.102 117.05 224.102C117.937 224.102 118.245 225.041 118.245 226.018ZM119.584 226.995H121.388V226.409H119.584V226.995ZM121.958 226.018C121.958 227.258 122.529 228.611 123.919 228.611C125.309 228.611 125.881 227.258 125.881 226.018C125.881 224.778 125.309 223.433 123.919 223.433C122.529 223.433 121.958 224.778 121.958 226.018ZM125.114 226.018C125.114 226.995 124.806 227.942 123.919 227.942C123.032 227.942 122.724 226.995 122.724 226.018C122.724 225.041 123.032 224.102 123.919 224.102C124.806 224.102 125.114 225.041 125.114 226.018Z" fill="#855B35"/>
<path d="M72.999 296.6C72.999 297.84 73.5702 299.193 74.9605 299.193C76.3508 299.193 76.9219 297.84 76.9219 296.6C76.9219 295.36 76.3508 294.015 74.9605 294.015C73.5702 294.015 72.999 295.36 72.999 296.6ZM76.1554 296.6C76.1554 297.577 75.8473 298.524 74.9605 298.524C74.0737 298.524 73.7656 297.577 73.7656 296.6C73.7656 295.623 74.0737 294.684 74.9605 294.684C75.8473 294.684 76.1554 295.623 76.1554 296.6ZM77.6153 296.6C77.6153 297.84 78.1864 299.193 79.5767 299.193C80.967 299.193 81.5382 297.84 81.5382 296.6C81.5382 295.36 80.967 294.015 79.5767 294.015C78.1864 294.015 77.6153 295.36 77.6153 296.6ZM80.7716 296.6C80.7716 297.577 80.4635 298.524 79.5767 298.524C78.6899 298.524 78.3818 297.577 78.3818 296.6C78.3818 295.623 78.6899 294.684 79.5767 294.684C80.4635 294.684 80.7716 295.623 80.7716 296.6ZM82.0938 298.712C82.0938 298.968 82.3043 299.185 82.5598 299.185C82.8153 299.185 83.0332 298.968 83.0332 298.712C83.0332 298.456 82.8153 298.246 82.5598 298.246C82.3043 298.246 82.0938 298.456 82.0938 298.712ZM83.8094 296.6C83.8094 297.84 84.3806 299.193 85.7709 299.193C87.1612 299.193 87.7323 297.84 87.7323 296.6C87.7323 295.36 87.1612 294.015 85.7709 294.015C84.3806 294.015 83.8094 295.36 83.8094 296.6ZM86.9658 296.6C86.9658 297.577 86.6577 298.524 85.7709 298.524C84.8841 298.524 84.576 297.577 84.576 296.6C84.576 295.623 84.8841 294.684 85.7709 294.684C86.6577 294.684 86.9658 295.623 86.9658 296.6ZM88.4257 296.6C88.4257 297.84 88.9968 299.193 90.3871 299.193C91.7774 299.193 92.3486 297.84 92.3486 296.6C92.3486 295.36 91.7774 294.015 90.3871 294.015C88.9968 294.015 88.4257 295.36 88.4257 296.6ZM91.582 296.6C91.582 297.577 91.2739 298.524 90.3871 298.524C89.5003 298.524 89.1922 297.577 89.1922 296.6C89.1922 295.623 89.5003 294.684 90.3871 294.684C91.2739 294.684 91.582 295.623 91.582 296.6ZM93.0419 296.6C93.0419 297.84 93.6131 299.193 95.0034 299.193C96.3937 299.193 96.9648 297.84 96.9648 296.6C96.9648 295.36 96.3937 294.015 95.0034 294.015C93.6131 294.015 93.0419 295.36 93.0419 296.6ZM96.1983 296.6C96.1983 297.577 95.8902 298.524 95.0034 298.524C94.1166 298.524 93.8085 297.577 93.8085 296.6C93.8085 295.623 94.1166 294.684 95.0034 294.684C95.8902 294.684 96.1983 295.623 96.1983 296.6ZM97.5205 298.712C97.5205 298.968 97.7309 299.185 97.9864 299.185C98.2419 299.185 98.4599 298.968 98.4599 298.712C98.4599 298.456 98.2419 298.246 97.9864 298.246C97.7309 298.246 97.5205 298.456 97.5205 298.712ZM99.236 296.6C99.236 297.84 99.8072 299.193 101.198 299.193C102.588 299.193 103.159 297.84 103.159 296.6C103.159 295.36 102.588 294.015 101.198 294.015C99.8072 294.015 99.236 295.36 99.236 296.6ZM102.392 296.6C102.392 297.577 102.084 298.524 101.198 298.524C100.311 298.524 100.003 297.577 100.003 296.6C100.003 295.623 100.311 294.684 101.198 294.684C102.084 294.684 102.392 295.623 102.392 296.6ZM103.852 296.6C103.852 297.84 104.423 299.193 105.814 299.193C107.204 299.193 107.775 297.84 107.775 296.6C107.775 295.36 107.204 294.015 105.814 294.015C104.423 294.015 103.852 295.36 103.852 296.6ZM107.009 296.6C107.009 297.577 106.701 298.524 105.814 298.524C104.927 298.524 104.619 297.577 104.619 296.6C104.619 295.623 104.927 294.684 105.814 294.684C106.701 294.684 107.009 295.623 107.009 296.6ZM108.469 296.6C108.469 297.84 109.04 299.193 110.43 299.193C111.82 299.193 112.391 297.84 112.391 296.6C112.391 295.36 111.82 294.015 110.43 294.015C109.04 294.015 108.469 295.36 108.469 296.6ZM111.625 296.6C111.625 297.577 111.317 298.524 110.43 298.524C109.543 298.524 109.235 297.577 109.235 296.6C109.235 295.623 109.543 294.684 110.43 294.684C111.317 294.684 111.625 295.623 111.625 296.6ZM112.739 299.253H113.258L115.039 293.94H114.52L112.739 299.253ZM115.382 296.6C115.382 297.84 115.953 299.193 117.343 299.193C118.734 299.193 119.305 297.84 119.305 296.6C119.305 295.36 118.734 294.015 117.343 294.015C115.953 294.015 115.382 295.36 115.382 296.6ZM118.538 296.6C118.538 297.577 118.23 298.524 117.343 298.524C116.457 298.524 116.148 297.577 116.148 296.6C116.148 295.623 116.457 294.684 117.343 294.684C118.23 294.684 118.538 295.623 118.538 296.6ZM119.998 296.6C119.998 297.84 120.569 299.193 121.96 299.193C123.35 299.193 123.921 297.84 123.921 296.6C123.921 295.36 123.35 294.015 121.96 294.015C120.569 294.015 119.998 295.36 119.998 296.6ZM123.155 296.6C123.155 297.577 122.846 298.524 121.96 298.524C121.073 298.524 120.765 297.577 120.765 296.6C120.765 295.623 121.073 294.684 121.96 294.684C122.846 294.684 123.155 295.623 123.155 296.6ZM124.614 296.6C124.614 297.84 125.186 299.193 126.576 299.193C127.966 299.193 128.537 297.84 128.537 296.6C128.537 295.36 127.966 294.015 126.576 294.015C125.186 294.015 124.614 295.36 124.614 296.6ZM127.771 296.6C127.771 297.577 127.463 298.524 126.576 298.524C125.689 298.524 125.381 297.577 125.381 296.6C125.381 295.623 125.689 294.684 126.576 294.684C127.463 294.684 127.771 295.623 127.771 296.6ZM130.275 299.103H131.027V294.09H130.365L129.02 295.465L129.464 295.924L130.275 295.075V299.103ZM131.811 297.577H133.615V296.991H131.811V297.577ZM134.185 296.6C134.185 297.84 134.756 299.193 136.146 299.193C137.536 299.193 138.107 297.84 138.107 296.6C138.107 295.36 137.536 294.015 136.146 294.015C134.756 294.015 134.185 295.36 134.185 296.6ZM137.341 296.6C137.341 297.577 137.033 298.524 136.146 298.524C135.259 298.524 134.951 297.577 134.951 296.6C134.951 295.623 135.259 294.684 136.146 294.684C137.033 294.684 137.341 295.623 137.341 296.6ZM138.801 296.6C138.801 297.84 139.372 299.193 140.762 299.193C142.153 299.193 142.724 297.84 142.724 296.6C142.724 295.36 142.153 294.015 140.762 294.015C139.372 294.015 138.801 295.36 138.801 296.6ZM141.957 296.6C141.957 297.577 141.649 298.524 140.762 298.524C139.875 298.524 139.567 297.577 139.567 296.6C139.567 295.623 139.875 294.684 140.762 294.684C141.649 294.684 141.957 295.623 141.957 296.6ZM72.999 312.608C72.999 313.983 73.5627 315.193 74.9981 315.193C76.1028 315.193 76.8017 314.434 76.8017 313.532C76.8017 312.465 76.0427 311.924 75.1408 311.924C74.5246 311.924 73.9835 312.322 73.7656 312.66C73.758 312.608 73.758 312.555 73.758 312.495C73.758 311.563 74.2165 310.684 75.1258 310.684C75.6218 310.684 75.9149 310.872 76.1704 311.165L76.5387 310.594C76.2155 310.248 75.7571 310.015 75.1258 310.015C73.6904 310.015 72.999 311.202 72.999 312.608ZM76.0427 313.555C76.0427 313.998 75.6819 314.524 74.9605 314.524C74.1413 314.524 73.8332 313.825 73.7731 313.239C74.0361 312.841 74.487 312.57 74.953 312.57C75.5467 312.57 76.0427 312.886 76.0427 313.555ZM77.5886 314.404C77.9793 314.892 78.5505 315.193 79.4072 315.193C80.4669 315.193 81.2484 314.547 81.2484 313.517C81.2484 312.488 80.4894 311.909 79.6477 311.909C79.1592 311.909 78.7384 312.112 78.4979 312.352V310.752H80.9178V310.09H77.7464V312.841L78.2875 313.014C78.6181 312.698 78.9789 312.563 79.4147 312.563C80.061 312.563 80.4894 312.946 80.4894 313.547C80.4894 314.096 80.0535 314.524 79.3997 314.524C78.8135 314.524 78.3626 314.299 78.0319 313.893L77.5886 314.404ZM82.058 314.404C82.4488 314.892 83.02 315.193 83.8767 315.193C84.9363 315.193 85.7179 314.547 85.7179 313.517C85.7179 312.488 84.9589 311.909 84.1172 311.909C83.6287 311.909 83.2078 312.112 82.9674 312.352V310.752H85.3872V310.09H82.2158V312.841L82.7569 313.014C83.0876 312.698 83.4483 312.563 83.8842 312.563C84.5305 312.563 84.9589 312.946 84.9589 313.547C84.9589 314.096 84.523 314.524 83.8692 314.524C83.283 314.524 82.8321 314.299 82.5014 313.893L82.058 314.404ZM90.1695 313.577H91.9732V312.991H90.1695V313.577ZM94.6908 315.103H97.1032C98.0275 315.103 98.5536 314.539 98.5536 313.75C98.5536 313.141 98.1177 312.6 97.5841 312.518C98.0425 312.42 98.4559 311.999 98.4559 311.368C98.4559 310.639 97.9373 310.09 97.043 310.09H94.6908V315.103ZM95.4423 312.217V310.752H96.9002C97.4038 310.752 97.6818 311.075 97.6818 311.488C97.6818 311.901 97.4038 312.217 96.9002 312.217H95.4423ZM95.4423 314.441V312.878H96.9378C97.4939 312.878 97.7795 313.239 97.7795 313.652C97.7795 314.141 97.4639 314.441 96.9378 314.441H95.4423ZM101.708 315.103H102.384V312.653C102.384 311.728 101.715 311.383 100.926 311.383C100.34 311.383 99.8439 311.578 99.4381 311.976L99.7312 312.442C100.054 312.119 100.408 311.961 100.821 311.961C101.339 311.961 101.708 312.232 101.708 312.683V313.284C101.43 312.961 101.009 312.803 100.52 312.803C99.9115 312.803 99.2577 313.164 99.2577 313.991C99.2577 314.787 99.919 315.193 100.52 315.193C101.009 315.193 101.422 315.02 101.708 314.704V315.103ZM101.708 314.306C101.505 314.577 101.152 314.72 100.776 314.72C100.287 314.72 99.9416 314.426 99.9416 313.998C99.9416 313.57 100.287 313.277 100.776 313.277C101.152 313.277 101.505 313.419 101.708 313.69V314.306ZM105.918 315.103H106.594V312.555C106.594 311.789 106.196 311.383 105.429 311.383C104.866 311.383 104.385 311.691 104.144 311.984V311.473H103.468V315.103H104.144V312.51C104.34 312.24 104.723 311.984 105.144 311.984C105.61 311.984 105.918 312.179 105.918 312.781V315.103ZM107.44 313.284C107.44 314.374 108.192 315.193 109.289 315.193C109.973 315.193 110.386 314.907 110.649 314.554L110.198 314.141C109.981 314.441 109.687 314.592 109.319 314.592C108.605 314.592 108.147 314.036 108.147 313.284C108.147 312.533 108.605 311.984 109.319 311.984C109.687 311.984 109.981 312.127 110.198 312.435L110.649 312.022C110.386 311.668 109.973 311.383 109.289 311.383C108.192 311.383 107.44 312.194 107.44 313.284ZM113.002 315.193C114.137 315.193 114.836 314.336 114.836 313.284C114.836 312.24 114.137 311.383 113.002 311.383C111.875 311.383 111.169 312.24 111.169 313.284C111.169 314.336 111.875 315.193 113.002 315.193ZM113.002 314.592C112.281 314.592 111.875 313.976 111.875 313.284C111.875 312.6 112.281 311.984 113.002 311.984C113.731 311.984 114.13 312.6 114.13 313.284C114.13 313.976 113.731 314.592 113.002 314.592ZM119.12 315.103H120.06L122.051 310.09H121.194L119.586 314.284L117.985 310.09H117.129L119.12 315.103ZM123.798 315.193C124.933 315.193 125.632 314.336 125.632 313.284C125.632 312.24 124.933 311.383 123.798 311.383C122.671 311.383 121.964 312.24 121.964 313.284C121.964 314.336 122.671 315.193 123.798 315.193ZM123.798 314.592C123.077 314.592 122.671 313.976 122.671 313.284C122.671 312.6 123.077 311.984 123.798 311.984C124.527 311.984 124.925 312.6 124.925 313.284C124.925 313.976 124.527 314.592 123.798 314.592ZM127.49 315.193C127.843 315.193 128.054 315.095 128.196 314.96L128.024 314.449C127.956 314.524 127.813 314.592 127.655 314.592C127.422 314.592 127.302 314.404 127.302 314.148V312.067H128.039V311.473H127.302V310.481H126.626V311.473H126.025V312.067H126.626V314.299C126.626 314.87 126.919 315.193 127.49 315.193ZM130.396 315.193C131.531 315.193 132.23 314.336 132.23 313.284C132.23 312.24 131.531 311.383 130.396 311.383C129.269 311.383 128.562 312.24 128.562 313.284C128.562 314.336 129.269 315.193 130.396 315.193ZM130.396 314.592C129.674 314.592 129.269 313.976 129.269 313.284C129.269 312.6 129.674 311.984 130.396 311.984C131.125 311.984 131.523 312.6 131.523 313.284C131.523 313.976 131.125 314.592 130.396 314.592ZM133.088 315.103H133.765V312.578C133.922 312.307 134.381 312.052 134.719 312.052C134.809 312.052 134.884 312.059 134.952 312.074V311.39C134.471 311.39 134.043 311.668 133.765 312.029V311.473H133.088V315.103ZM137.867 315.103H138.543V312.653C138.543 311.728 137.875 311.383 137.085 311.383C136.499 311.383 136.003 311.578 135.597 311.976L135.891 312.442C136.214 312.119 136.567 311.961 136.98 311.961C137.499 311.961 137.867 312.232 137.867 312.683V313.284C137.589 312.961 137.168 312.803 136.68 312.803C136.071 312.803 135.417 313.164 135.417 313.991C135.417 314.787 136.078 315.193 136.68 315.193C137.168 315.193 137.581 315.02 137.867 314.704V315.103ZM137.867 314.306C137.664 314.577 137.311 314.72 136.935 314.72C136.447 314.72 136.101 314.426 136.101 313.998C136.101 313.57 136.447 313.277 136.935 313.277C137.311 313.277 137.664 313.419 137.867 313.69V314.306ZM142.077 315.103H142.754V312.555C142.754 311.789 142.355 311.383 141.589 311.383C141.025 311.383 140.544 311.691 140.304 311.984V311.473H139.627V315.103H140.304V312.51C140.499 312.24 140.882 311.984 141.303 311.984C141.769 311.984 142.077 312.179 142.077 312.781V315.103ZM144.825 315.193C145.178 315.193 145.388 315.095 145.531 314.96L145.358 314.449C145.291 314.524 145.148 314.592 144.99 314.592C144.757 314.592 144.637 314.404 144.637 314.148V312.067H145.373V311.473H144.637V310.481H143.961V311.473H143.359V312.067H143.961V314.299C143.961 314.87 144.254 315.193 144.825 315.193ZM146.453 310.864C146.694 310.864 146.889 310.676 146.889 310.436C146.889 310.195 146.694 310 146.453 310C146.22 310 146.017 310.195 146.017 310.436C146.017 310.676 146.22 310.864 146.453 310.864ZM146.122 315.103H146.799V311.473H146.122V315.103ZM152.288 315.103H152.964V312.48C152.964 311.751 152.603 311.383 151.935 311.383C151.401 311.383 150.92 311.721 150.71 312.059C150.597 311.668 150.274 311.383 149.725 311.383C149.184 311.383 148.703 311.759 148.553 311.984V311.473H147.876V315.103H148.553V312.51C148.733 312.247 149.086 311.984 149.44 311.984C149.898 311.984 150.078 312.262 150.078 312.683V315.103H150.755V312.503C150.928 312.24 151.288 311.984 151.657 311.984C152.1 311.984 152.288 312.262 152.288 312.683V315.103ZM75.5692 331.193C76.5537 331.193 77.1624 330.72 77.5607 330.133L76.9219 329.795C76.6589 330.216 76.1629 330.524 75.5692 330.524C74.5547 330.524 73.7731 329.72 73.7731 328.6C73.7731 327.473 74.5547 326.676 75.5692 326.676C76.1629 326.676 76.6589 326.984 76.9219 327.405L77.5607 327.067C77.1699 326.481 76.5537 326.008 75.5692 326.008C74.1413 326.008 72.999 327.06 72.999 328.6C72.999 330.141 74.1413 331.193 75.5692 331.193ZM79.9033 331.193C81.0381 331.193 81.737 330.336 81.737 329.284C81.737 328.24 81.0381 327.383 79.9033 327.383C78.776 327.383 78.0696 328.24 78.0696 329.284C78.0696 330.336 78.776 331.193 79.9033 331.193ZM79.9033 330.592C79.1818 330.592 78.776 329.976 78.776 329.284C78.776 328.6 79.1818 327.984 79.9033 327.984C80.6323 327.984 81.0306 328.6 81.0306 329.284C81.0306 329.976 80.6323 330.592 79.9033 330.592ZM85.0457 331.103H85.722V328.555C85.722 327.789 85.3237 327.383 84.5572 327.383C83.9935 327.383 83.5126 327.691 83.2721 327.984V327.473H82.5957V331.103H83.2721V328.51C83.4675 328.24 83.8507 327.984 84.2716 327.984C84.7375 327.984 85.0457 328.179 85.0457 328.781V331.103ZM87.7932 331.193C88.1464 331.193 88.3568 331.095 88.4996 330.96L88.3267 330.449C88.2591 330.524 88.1163 330.592 87.9585 330.592C87.7255 330.592 87.6053 330.404 87.6053 330.148V328.067H88.3418V327.473H87.6053V326.481H86.9289V327.473H86.3277V328.067H86.9289V330.299C86.9289 330.87 87.222 331.193 87.7932 331.193ZM91.3303 331.103H92.0066V328.653C92.0066 327.728 91.3378 327.383 90.5487 327.383C89.9625 327.383 89.4665 327.578 89.0607 327.976L89.3538 328.442C89.6769 328.119 90.0301 327.961 90.4435 327.961C90.962 327.961 91.3303 328.232 91.3303 328.683V329.284C91.0522 328.961 90.6314 328.803 90.1429 328.803C89.5341 328.803 88.8803 329.164 88.8803 329.991C88.8803 330.787 89.5417 331.193 90.1429 331.193C90.6314 331.193 91.0447 331.02 91.3303 330.704V331.103ZM91.3303 330.306C91.1274 330.577 90.7741 330.72 90.3984 330.72C89.9099 330.72 89.5642 330.426 89.5642 329.998C89.5642 329.57 89.9099 329.277 90.3984 329.277C90.7741 329.277 91.1274 329.419 91.3303 329.69V330.306ZM92.9703 327.894C92.9703 328.142 93.1807 328.36 93.4362 328.36C93.6917 328.36 93.9097 328.142 93.9097 327.894C93.9097 327.638 93.6917 327.42 93.4362 327.42C93.1807 327.42 92.9703 327.638 92.9703 327.894ZM92.9703 330.712C92.9703 330.968 93.1807 331.185 93.4362 331.185C93.6917 331.185 93.9097 330.968 93.9097 330.712C93.9097 330.456 93.6917 330.246 93.4362 330.246C93.1807 330.246 92.9703 330.456 92.9703 330.712ZM96.6234 328.6C96.6234 329.84 97.1945 331.193 98.5848 331.193C99.9751 331.193 100.546 329.84 100.546 328.6C100.546 327.36 99.9751 326.015 98.5848 326.015C97.1945 326.015 96.6234 327.36 96.6234 328.6ZM99.7797 328.6C99.7797 329.577 99.4716 330.524 98.5848 330.524C97.698 330.524 97.3899 329.577 97.3899 328.6C97.3899 327.623 97.698 326.684 98.5848 326.684C99.4716 326.684 99.7797 327.623 99.7797 328.6ZM101.24 328.6C101.24 329.84 101.811 331.193 103.201 331.193C104.591 331.193 105.163 329.84 105.163 328.6C105.163 327.36 104.591 326.015 103.201 326.015C101.811 326.015 101.24 327.36 101.24 328.6ZM104.396 328.6C104.396 329.577 104.088 330.524 103.201 330.524C102.314 330.524 102.006 329.577 102.006 328.6C102.006 327.623 102.314 326.684 103.201 326.684C104.088 326.684 104.396 327.623 104.396 328.6ZM105.856 328.6C105.856 329.84 106.427 331.193 107.817 331.193C109.208 331.193 109.779 329.84 109.779 328.6C109.779 327.36 109.208 326.015 107.817 326.015C106.427 326.015 105.856 327.36 105.856 328.6ZM109.012 328.6C109.012 329.577 108.704 330.524 107.817 330.524C106.931 330.524 106.622 329.577 106.622 328.6C106.622 327.623 106.931 326.684 107.817 326.684C108.704 326.684 109.012 327.623 109.012 328.6ZM110.472 328.6C110.472 329.84 111.043 331.193 112.434 331.193C113.824 331.193 114.395 329.84 114.395 328.6C114.395 327.36 113.824 326.015 112.434 326.015C111.043 326.015 110.472 327.36 110.472 328.6ZM113.628 328.6C113.628 329.577 113.32 330.524 112.434 330.524C111.547 330.524 111.239 329.577 111.239 328.6C111.239 327.623 111.547 326.684 112.434 326.684C113.32 326.684 113.628 327.623 113.628 328.6ZM115.088 328.6C115.088 329.84 115.66 331.193 117.05 331.193C118.44 331.193 119.011 329.84 119.011 328.6C119.011 327.36 118.44 326.015 117.05 326.015C115.66 326.015 115.088 327.36 115.088 328.6ZM118.245 328.6C118.245 329.577 117.937 330.524 117.05 330.524C116.163 330.524 115.855 329.577 115.855 328.6C115.855 327.623 116.163 326.684 117.05 326.684C117.937 326.684 118.245 327.623 118.245 328.6ZM119.584 329.577H121.388V328.991H119.584V329.577ZM121.958 328.6C121.958 329.84 122.529 331.193 123.919 331.193C125.309 331.193 125.881 329.84 125.881 328.6C125.881 327.36 125.309 326.015 123.919 326.015C122.529 326.015 121.958 327.36 121.958 328.6ZM125.114 328.6C125.114 329.577 124.806 330.524 123.919 330.524C123.032 330.524 122.724 329.577 122.724 328.6C122.724 327.623 123.032 326.684 123.919 326.684C124.806 326.684 125.114 327.623 125.114 328.6Z" fill="#855B35"/>
<circle cx="42.2169" cy="166.472" r="10.5212" fill="#653DF5"/>
<path d="M38.4593 166.472L39.2515 167.264L41.6567 164.859L41.6567 170.23L42.7772 170.23L42.7772 164.859L45.1823 167.264L45.9745 166.472L42.2169 162.715L38.4593 166.472Z" fill="#FBF9BE"/>
<circle cx="42.2169" cy="268.678" r="10.5212" fill="#653DF5"/>
<path d="M45.9744 268.678L45.1822 267.886L42.7771 270.291V264.921H41.6566V270.291L39.2514 267.886L38.4592 268.678L42.2168 272.436L45.9744 268.678Z" fill="#FBF9BE"/>
<path d="M72.4316 93.0698H65.3322C65.0425 93.0698 64.9804 93.0906 64.8149 93.2576L59.1864 98.5159C59.0208 98.6828 59.0001 98.7454 59.0001 99.0376V102.126C59.0001 103.878 59.8693 104.755 61.6077 104.755H68.707C68.9962 104.755 69.0583 104.734 69.2239 104.567L74.8529 99.3088C75.0179 99.1419 75.0386 99.0793 75.0386 98.7871V95.6992C75.0386 93.9462 74.17 93.0698 72.4316 93.0698Z" fill="#653DF5"/>
<path d="M84.7569 98.2522C86.1476 98.5336 86.8595 99.8415 86.8595 101.1C86.8595 102.706 85.7172 104.345 83.3497 104.345H78.565V92.9377H83.002C84.9887 92.9377 86.247 94.1298 86.247 95.8681C86.247 96.7622 85.9158 97.8383 84.7569 98.2522ZM84.2271 96.1496C84.2271 95.3549 83.7967 94.7423 82.9192 94.7423H80.5848V97.5403H82.9192C83.7636 97.5403 84.2271 96.9774 84.2271 96.1496ZM80.5848 102.54H83.0351C84.2106 102.54 84.8232 101.762 84.8232 100.901C84.8232 100.09 84.2934 99.2455 83.0848 99.2455H80.5848V102.54Z" fill="#11004F"/>
<path d="M94.1572 97.6893V96.6132H96.0777V104.345H94.1572V103.136C93.6439 103.981 92.6175 104.543 91.5082 104.543C89.4387 104.543 87.7832 102.871 87.7832 100.471C87.7832 98.1363 89.3725 96.4145 91.5579 96.4145C92.6175 96.4145 93.6439 96.878 94.1572 97.6893ZM91.9056 102.755C93.0976 102.755 94.1241 101.762 94.1241 100.471C94.1241 99.1462 93.0314 98.2025 91.889 98.2025C90.6473 98.2025 89.7036 99.229 89.7036 100.471C89.7036 101.712 90.6473 102.755 91.9056 102.755Z" fill="#11004F"/>
<path d="M102.192 96.4145C104.179 96.4145 105.288 97.7555 105.288 100.007V104.345H103.368V100.14C103.368 98.8979 102.623 98.2356 101.762 98.2356C100.884 98.2356 99.7916 98.7489 99.7916 100.239V104.345H97.8711V96.6132H99.7916V97.8383C100.189 96.8615 101.398 96.4145 102.192 96.4145Z" fill="#11004F"/>
<path d="M110.471 99.9905L114.346 104.345H111.912L108.899 100.835V104.345H106.978V92.408H108.899V99.08L111.117 96.6132H113.617L110.471 99.9905Z" fill="#11004F"/>
<path d="M119.161 96.4145C121.33 96.4145 123.085 98.1197 123.085 100.471C123.085 102.822 121.33 104.543 119.161 104.543C117.87 104.543 116.645 103.881 116.082 102.822V104.345H115.022V92.408H116.082V98.1197C116.661 97.0602 117.853 96.4145 119.161 96.4145ZM119.079 103.534C120.718 103.534 122.042 102.176 122.042 100.454C122.042 98.7489 120.718 97.4244 119.079 97.4244C117.539 97.4244 116.082 98.633 116.082 100.504C116.082 102.292 117.473 103.534 119.079 103.534Z" fill="#11004F"/>
<path d="M128.221 104.543C126.019 104.543 124.182 102.921 124.182 100.471C124.182 98.0204 126.019 96.4145 128.221 96.4145C130.423 96.4145 132.277 98.0204 132.277 100.471C132.277 102.921 130.423 104.543 128.221 104.543ZM128.221 103.534C129.844 103.534 131.218 102.292 131.218 100.471C131.218 98.6495 129.844 97.4244 128.221 97.4244C126.582 97.4244 125.241 98.6495 125.241 100.471C125.241 102.292 126.582 103.534 128.221 103.534Z" fill="#11004F"/>
<path d="M137.393 104.543C135.191 104.543 133.353 102.921 133.353 100.471C133.353 98.0204 135.191 96.4145 137.393 96.4145C139.595 96.4145 141.449 98.0204 141.449 100.471C141.449 102.921 139.595 104.543 137.393 104.543ZM137.393 103.534C139.015 103.534 140.39 102.292 140.39 100.471C140.39 98.6495 139.015 97.4244 137.393 97.4244C135.754 97.4244 134.413 98.6495 134.413 100.471C134.413 102.292 135.754 103.534 137.393 103.534Z" fill="#11004F"/>
<path d="M145.24 104.543C143.899 104.543 142.558 103.765 142.426 102.292H143.402C143.518 102.937 144.114 103.6 145.24 103.6C146.349 103.6 147.028 103.02 147.028 102.242C147.028 101.613 146.598 101.199 145.803 101L144.694 100.736C143.601 100.471 142.724 99.9078 142.724 98.6164C142.724 97.3582 143.8 96.4145 145.273 96.4145C146.565 96.4145 147.757 97.1264 147.806 98.5171H146.78C146.73 97.8217 146.051 97.3582 145.29 97.3582C144.396 97.3582 143.783 97.9045 143.783 98.633C143.783 99.3614 144.412 99.676 144.975 99.8084L146.118 100.09C147.624 100.454 148.088 101.365 148.088 102.259C148.088 103.633 146.846 104.543 145.24 104.543Z" fill="#11004F"/>
<path d="M151.229 96.6132H153V97.5237H151.229V104.345H150.186V97.5237H148.778V96.6132H150.186V93.7159H151.229V96.6132Z" fill="#11004F"/>
</g>
<defs>
<linearGradient id="paint0_linear_115_644" x1="202.49" y1="0.945029" x2="-67.0354" y2="549.879" gradientUnits="userSpaceOnUse">
<stop stop-color="white"/>
<stop offset="1" stop-color="#FFF5D5"/>
</linearGradient>
<linearGradient id="paint1_linear_115_644" x1="-162.791" y1="-142.743" x2="361.212" y2="-84.0873" gradientUnits="userSpaceOnUse">
<stop stop-color="#1A0078"/>
<stop offset="1" stop-color="#6F47FF"/>
</linearGradient>
<linearGradient id="paint2_linear_115_644" x1="105.908" y1="327.673" x2="106.095" y2="382.721" gradientUnits="userSpaceOnUse">
<stop stop-color="#CCB579" stop-opacity="0"/>
<stop offset="1" stop-color="#CCB579"/>
</linearGradient>
</defs>
</svg>
