<svg width="117" height="79" fill="none" xmlns="http://www.w3.org/2000/svg"><path fill-rule="evenodd" clip-rule="evenodd" d="M.806 0c.455-.01.831.352.84.806.2 9.699.461 19.1 4.141 28.055 6.645 16.17 19.626 28.234 35.565 35.163 20.647 8.977 45.45 10.688 67.809 8.592a.824.824 0 01.154 1.64c-22.52 2.11-47.628.405-68.62-8.721-16.277-7.078-29.602-19.431-36.431-36.048C.45 20.205.199 10.499 0 .84A.823.823 0 01.806 0z" fill="#F67ACB"/><path fill-rule="evenodd" clip-rule="evenodd" d="M104.751 70.202a.824.824 0 011.08-.436c1.885.802 3.874 1.326 5.928 1.746 1.029.21 2.058.37 3.099.476.116.012.262.019.433.027.156.008.332.016.527.03.142.01.369.029.536.076a.966.966 0 01.276.127.835.835 0 01.083 1.326.91.91 0 01-.176.121c-.08.042-.156.068-.203.082l-.554.17c-2.399.735-4.78 1.464-7.09 2.345-1.687.644-3.305 1.342-4.665 2.362a.823.823 0 11-.988-1.318c1.556-1.167 3.36-1.931 5.066-2.582a79.633 79.633 0 014.221-1.458 33.94 33.94 0 01-.894-.17c-2.108-.431-4.216-.982-6.243-1.844a.823.823 0 01-.436-1.08z" fill="#F67ACB"/></svg>