<svg width="1232" height="577" fill="none" xmlns="http://www.w3.org/2000/svg"><g clip-path="url(#clip0_10013_212)"><mask id="a" fill="white"><path d="M16 95.179C16 77.959 29.96 64 47.179 64H1089.82c17.22 0 31.18 13.96 31.18 31.179V593H16V95.179z"/></mask><path d="M16 95.179C16 77.959 29.96 64 47.179 64H1089.82c17.22 0 31.18 13.96 31.18 31.179V593H16V95.179z" fill="url(#paint0_linear_10013_212)"/><path stroke="white" d="M641.5 183.5h541v375h-541z"/><g clip-path="url(#clip1_10013_212)"><path d="M845.774 327l-27.269 36.678 20.719 27.811-11.629 8.867-32.884-43.933L751 415h160.408l-65.634-88z" fill="#F67ACB"/></g><path d="M158.378 116.245c-3.808 0-6.372-2.435-6.372-5.466h3.134c.026 1.399 1.347 2.669 3.316 2.669 1.813 0 2.979-1.114 2.979-2.513 0-1.244-1.062-1.969-2.565-2.383l-2.228-.622c-3.833-.984-4.507-3.29-4.507-4.844 0-3.16 2.772-5.31 6.062-5.31 3.264 0 5.828 2.02 5.828 5.362h-3.134c0-1.477-1.114-2.539-2.772-2.539-1.528 0-2.798 1.036-2.798 2.435 0 .492.156 1.528 2.202 2.072l2.124.622c2.798.777 4.948 2.228 4.948 5.077 0 3.264-2.72 5.44-6.217 5.44zM170.589 103.837h2.564v2.383h-2.564v9.715h-3.005v-9.715h-2.176v-2.383h2.176v-4.456h3.005v4.456zM181.15 103.526c.725 0 1.503.156 1.969.415l-.596 2.849a3.777 3.777 0 00-1.761-.44c-1.969 0-3.057 1.969-3.057 5.362v4.223h-3.031v-12.098h3.005v2.59c.647-2.02 1.969-2.901 3.471-2.901zM192.79 110.313v-6.476h3.005v12.098h-3.005v-1.891c-.622 1.528-2.539 2.201-3.756 2.201-3.109 0-4.845-2.098-4.845-5.621v-6.787h3.005v6.658c0 1.942 1.166 2.953 2.513 2.953 1.373 0 3.083-.777 3.083-3.135zM204.397 116.245c-3.497 0-6.58-2.538-6.58-6.372s3.083-6.347 6.58-6.347c2.098 0 3.808.933 4.922 2.332l-2.124 1.683c-.622-.751-1.658-1.217-2.746-1.217-2.098 0-3.601 1.502-3.601 3.549 0 2.02 1.503 3.575 3.601 3.575 1.088 0 2.124-.467 2.746-1.218l2.124 1.684c-1.114 1.399-2.824 2.331-4.922 2.331zM215.217 103.837h2.564v2.383h-2.564v9.715h-3.005v-9.715h-2.176v-2.383h2.176v-4.456h3.005v4.456zM226.063 103.526c3.394 0 6.14 2.668 6.14 6.347 0 3.678-2.746 6.372-6.14 6.372-2.02 0-3.937-1.036-4.818-2.694v2.384h-1.658V97.257h1.658v8.937c.907-1.658 2.772-2.668 4.818-2.668zm-.129 11.139c2.564 0 4.637-2.124 4.637-4.818 0-2.668-2.073-4.741-4.637-4.741-2.409 0-4.689 1.891-4.689 4.819 0 2.797 2.176 4.74 4.689 4.74zM240.239 116.245c-3.445 0-6.32-2.538-6.32-6.372s2.875-6.347 6.32-6.347c3.446 0 6.347 2.513 6.347 6.347 0 3.834-2.901 6.372-6.347 6.372zm0-1.58c2.539 0 4.689-1.943 4.689-4.792 0-2.85-2.15-4.767-4.689-4.767-2.564 0-4.662 1.917-4.662 4.767 0 2.849 2.098 4.792 4.662 4.792zM254.59 116.245c-3.445 0-6.321-2.538-6.321-6.372s2.876-6.347 6.321-6.347c3.446 0 6.347 2.513 6.347 6.347 0 3.834-2.901 6.372-6.347 6.372zm0-1.58c2.539 0 4.689-1.943 4.689-4.792 0-2.85-2.15-4.767-4.689-4.767-2.564 0-4.663 1.917-4.663 4.767 0 2.849 2.099 4.792 4.663 4.792zM266.869 116.245c-2.098 0-4.197-1.217-4.404-3.523h1.528c.182 1.011 1.114 2.047 2.876 2.047 1.735 0 2.798-.907 2.798-2.124 0-.985-.674-1.632-1.917-1.943l-1.736-.415c-1.71-.414-3.083-1.295-3.083-3.316 0-1.968 1.684-3.445 3.99-3.445 2.02 0 3.885 1.114 3.963 3.29h-1.606c-.078-1.088-1.14-1.813-2.331-1.813-1.399 0-2.358.855-2.358 1.994 0 1.14.985 1.632 1.865 1.84l1.788.44c2.357.57 3.082 1.995 3.082 3.394 0 2.15-1.942 3.574-4.455 3.574zM276.239 103.837h2.772v1.425h-2.772v10.673h-1.632v-10.673h-2.202v-1.425h2.202v-4.533h1.632v4.533z" fill="white"/><path d="M141.016 98.524h-11.108c-.454 0-.551.032-.81.293l-8.807 8.228c-.259.261-.291.359-.291.816v4.833c0 2.742 1.36 4.113 4.08 4.113h11.108c.453 0 .55-.032.809-.293l8.808-8.228c.258-.261.29-.359.29-.816v-4.832c0-2.743-1.359-4.114-4.079-4.114z" fill="#F67ACB"/><path stroke="#F67ACB" stroke-width="1.039" d="M1069.32 89.463h101.846v34.746H1069.32z"/><path d="M1103.77 105.061h-1.28a2.561 2.561 0 00-.4-.972 2.526 2.526 0 00-.68-.702 2.848 2.848 0 00-.88-.434 3.529 3.529 0 00-1.01-.145c-.65 0-1.23.162-1.75.486-.51.323-.92.8-1.23 1.431-.3.63-.46 1.404-.46 2.32 0 .916.16 1.689.46 2.32.31.63.72 1.107 1.23 1.431.52.324 1.1.486 1.75.486.35 0 .68-.049 1.01-.145.32-.096.62-.239.88-.429.27-.193.5-.429.68-.708.19-.282.33-.606.4-.971h1.28a4.226 4.226 0 01-.52 1.452 4.058 4.058 0 01-2.23 1.767 4.76 4.76 0 01-1.5.232c-.91 0-1.71-.22-2.41-.661-.71-.441-1.26-1.068-1.66-1.881-.4-.813-.61-1.777-.61-2.893 0-1.116.21-2.081.61-2.894.4-.813.95-1.44 1.66-1.88.7-.441 1.5-.662 2.41-.662.53 0 1.03.078 1.5.233.47.155.9.382 1.27.682.38.296.7.658.96 1.085.25.423.43.907.52 1.452zm4.7 7.44c-.72 0-1.35-.17-1.89-.511a3.443 3.443 0 01-1.26-1.432c-.3-.613-.45-1.329-.45-2.149 0-.827.15-1.549.45-2.165.3-.617.72-1.095 1.26-1.436.54-.342 1.17-.512 1.89-.512.71 0 1.34.17 1.88.512.54.341.96.819 1.26 1.436.3.616.45 1.338.45 2.165 0 .82-.15 1.536-.45 2.149-.3.613-.72 1.09-1.26 1.432-.54.341-1.17.511-1.88.511zm0-1.095c.54 0 .99-.14 1.34-.419.35-.279.61-.646.78-1.1.17-.455.25-.948.25-1.478 0-.531-.08-1.025-.25-1.483a2.523 2.523 0 00-.78-1.111c-.35-.282-.8-.424-1.34-.424-.55 0-1 .142-1.35.424-.35.283-.61.653-.78 1.111-.17.458-.25.952-.25 1.483 0 .53.08 1.023.25 1.478.17.454.43.821.78 1.1.35.279.8.419 1.35.419zm6.24-3.845v4.775h-1.22v-7.937h1.17v1.24h.11c.18-.403.47-.726.85-.971.37-.248.86-.372 1.46-.372.54 0 1.01.11 1.41.331.41.217.72.547.94.992.23.441.34.999.34 1.674v5.043h-1.22v-4.961c0-.623-.16-1.109-.49-1.457-.32-.351-.76-.527-1.33-.527-.39 0-.74.085-1.04.254-.31.168-.54.415-.72.738-.18.324-.26.717-.26 1.178zm10.3-3.162v1.034h-4.11v-1.034h4.11zm-2.91-1.901h1.22v7.564c0 .345.05.603.15.775.1.169.23.283.39.341.16.055.33.083.51.083.14 0 .25-.007.33-.021l.21-.041.25 1.095a2.8 2.8 0 01-.91.145c-.35 0-.68-.074-1.01-.222-.33-.148-.6-.374-.82-.677-.21-.303-.32-.685-.32-1.147v-7.895zm6.65 10.024c-.51 0-.96-.095-1.37-.284a2.358 2.358 0 01-.98-.832c-.24-.365-.36-.806-.36-1.323 0-.455.09-.823.27-1.106.18-.286.42-.51.72-.671.3-.162.63-.283.99-.362.36-.083.73-.148 1.1-.197.48-.062.87-.108 1.17-.139.3-.034.52-.091.66-.171.14-.079.21-.217.21-.413v-.041c0-.51-.14-.906-.41-1.189-.28-.282-.7-.423-1.26-.423-.58 0-1.04.127-1.37.382-.33.255-.56.527-.7.816l-1.15-.413c.2-.482.48-.858.82-1.126.35-.272.73-.462 1.14-.569.41-.11.82-.165 1.22-.165.25 0 .55.031.88.093.33.059.65.181.96.367.32.186.58.467.78.842.21.376.31.878.31 1.509v5.229h-1.22v-1.075h-.06c-.08.172-.22.356-.41.553-.19.196-.45.363-.77.501s-.71.207-1.17.207zm.18-1.096c.48 0 .89-.094 1.22-.284.34-.189.59-.434.76-.734.17-.299.25-.614.25-.945v-1.116c-.05.062-.16.119-.34.17-.17.049-.37.092-.6.13-.22.034-.44.065-.65.093-.21.024-.38.044-.51.062-.32.041-.62.108-.89.201-.27.09-.5.226-.66.408-.17.179-.25.424-.25.734 0 .424.15.744.47.961.32.214.72.32 1.2.32zm8.69-7.027v1.034h-4.11v-1.034h4.11zm-2.91-1.901h1.22v7.564c0 .345.05.603.15.775.1.169.23.283.39.341.16.055.33.083.51.083a2.016 2.016 0 00.54-.062l.25 1.095c-.08.031-.2.062-.35.093-.15.035-.33.052-.56.052-.35 0-.68-.074-1.01-.222-.33-.148-.6-.374-.82-.677-.21-.303-.32-.685-.32-1.147v-7.895zm7.45 10.003c-.72 0-1.34-.17-1.89-.511-.53-.342-.95-.819-1.26-1.432-.3-.613-.45-1.329-.45-2.149 0-.827.15-1.549.45-2.165.31-.617.73-1.095 1.26-1.436.55-.342 1.17-.512 1.89-.512s1.34.17 1.88.512c.54.341.96.819 1.26 1.436.31.616.46 1.338.46 2.165 0 .82-.15 1.536-.46 2.149-.3.613-.72 1.09-1.26 1.432-.54.341-1.16.511-1.88.511zm0-1.095c.55 0 .99-.14 1.34-.419.36-.279.62-.646.78-1.1.17-.455.26-.948.26-1.478 0-.531-.09-1.025-.26-1.483a2.374 2.374 0 00-.78-1.111c-.35-.282-.79-.424-1.34-.424-.54 0-.99.142-1.34.424-.35.283-.61.653-.78 1.111-.17.458-.26.952-.26 1.483 0 .53.09 1.023.26 1.478.17.454.43.821.78 1.1.35.279.8.419 1.34.419z" fill="#F67ACB"/><path fill="white" d="M395.339 105.571h49.886v2.079h-49.886zM486.796 105.571h49.886v2.079h-49.886zM578.254 105.571h49.886v2.079h-49.886z"/><path d="M640.611 104.532l4.157 4.157 4.157-4.157" stroke="#F67ACB" stroke-width="1.559" stroke-linecap="round" stroke-linejoin="round"/><path fill="white" d="M698.811 105.571h49.886v2.079h-49.886z"/><path d="M761.168 104.532l4.157 4.157 4.157-4.157" stroke="#F67ACB" stroke-width="1.559" stroke-linecap="round" stroke-linejoin="round"/><path fill="white" d="M819.368 105.571h49.886v2.079h-49.886z"/><path d="M881.725 104.532l4.157 4.157 4.158-4.157" stroke="#F67ACB" stroke-width="1.559" stroke-linecap="round" stroke-linejoin="round"/><path fill="white" d="M939.925 105.571h49.886v2.079h-49.886z"/><path d="M526.532 319.997c-.159-.007-.289-.1-.387-.278a.628.628 0 01-.144-.347c-.007-.134.051-.378.174-.733.124-.368.33-.926.618-1.673.157-.5.28-.861.371-1.084.091-.236.139-.407.144-.514.007-.146.025-.266.056-.358a.841.841 0 00.074-.296c.08.003.164-.066.25-.209.087-.143.163-.34.228-.59.064-.224.119-.402.165-.533a1.13 1.13 0 00.094-.296c.071-.104.145-.267.223-.49.09-.223.222-.49.397-.803.125-.394.264-.802.417-1.222.154-.433.306-.833.456-1.2.165-.379.299-.673.402-.882a8.68 8.68 0 01.379-.843c.088-.17.093-.283.016-.34-.09-.071-.105-.185-.044-.343.061-.157.215-.33.464-.519.155-.166.287-.28.397-.342a.65.65 0 01.405-.101c.173.008.419.033.737.074.239.025.492.043.758.056l.52.024c.117.059.261.125.431.2.171.061.321.122.452.181.144.06.215.11.213.15-.003.08.021.135.073.164l.198.049c.093.004.216.083.369.237.154.141.312.322.476.543.163.208.287.427.369.658.096.231.167.448.211.65.057.203.044.489-.04.859a3.21 3.21 0 01-.128.595c-.049.198-.102.329-.158.393a1.02 1.02 0 00-.229.19c-.071.076-.107.148-.111.215-.002.053-.054.157-.154.313a9.767 9.767 0 01-.891 1.08 6.301 6.301 0 01-.524.496 3.843 3.843 0 01-.647.571 6.588 6.588 0 01-.641.43c-.353.144-.747.286-1.181.426-.42.141-.826.255-1.217.344-.378.089-.693.121-.945.096-.389.036-.645.077-.767.125-.108.035-.194.144-.256.328-.074.17-.149.347-.224.531-.062.17-.094.289-.097.355a9.632 9.632 0 00-.223.491c-.106.262-.227.57-.363.924-.123.354-.246.703-.369 1.044-.123.341-.216.624-.28.848-.062.184-.133.287-.214.31a.668.668 0 01-.303.046zm2.765-6.078c.051.056.257.072.619.049a4.72 4.72 0 001.172-.246 6.79 6.79 0 00.815-.303c.286-.12.559-.254.82-.402.137-.087.345-.245.622-.472.278-.227.557-.501.839-.822.043-.065.116-.188.218-.37.115-.195.217-.377.305-.547.129-.181.261-.448.398-.802.137-.367.178-.673.122-.915-.05-.35-.208-.677-.474-.983a2.076 2.076 0 00-.971-.666 4.204 4.204 0 00-.735-.114 3.5 3.5 0 00-.622.031c-.216.057-.381.142-.493.257-.099.116-.237.363-.415.742-.101.182-.248.462-.439.84-.19.365-.353.711-.489 1.039-.28.868-.554 1.582-.82 2.144-.252.549-.409.895-.469 1.039a.752.752 0 01-.034.319c-.03.052-.019.113.031.182zm6.759 4.858a1 1 0 01-.246-.291c-.036-.095-.028-.275.025-.54.057-.371.125-.695.205-.971.08-.29.176-.619.286-.988.034-.159.12-.428.258-.809a29.41 29.41 0 011.157-2.489c.205-.404.379-.703.522-.897a.53.53 0 01.384-.082c.159.021.29.087.391.198.141.127.151.341.03.642-.106.289-.328.746-.664 1.371-.176.352-.309.62-.397.803-.088.169-.127.274-.115.315.012.027.073.01.182-.052.087-.143.241-.303.463-.479.222-.19.458-.373.706-.548.249-.175.483-.331.703-.468.22-.137.37-.223.452-.259.11-.062.232-.11.367-.143.149-.047.251-.082.305-.106.314-.133.629-.171.947-.117.318.055.512.184.583.388a.345.345 0 00.108.245l.116.086c.054.002.079.023.078.063l.017.061c-.005.093-.081.15-.228.17-.134.007-.308.012-.522.016a1.557 1.557 0 00-.464.078c-.135.047-.298.106-.489.178-.519.269-1.019.533-1.498.791a6.268 6.268 0 00-1.37 1.058 3.129 3.129 0 00-.298.366l-.322.466c-.069.063-.143.207-.22.43-.077.223-.147.44-.21.651a3.122 3.122 0 00-.077.357l-.069.197a1.237 1.237 0 01-.216.35c-.17.206-.308.306-.415.301-.106-.005-.261-.119-.465-.342zm8.18.781a.781.781 0 01-.415-.12 7.88 7.88 0 01-.346-.296c-.241-.278-.409-.54-.505-.784a1.27 1.27 0 01-.066-.724.606.606 0 00.054-.298l.007-.16c-.063-.07-.081-.111-.054-.123a.452.452 0 00.085-.116c.08.004.11-.068.09-.216-.021-.108.043-.338.193-.692.15-.353.332-.685.546-.995.087-.13.214-.297.384-.503.171-.219.354-.431.55-.635.211-.217.399-.389.565-.515.346-.264.648-.457.907-.578.26-.122.537-.209.833-.262.297-.053.498-.077.604-.072.12.006.275.12.465.342.3.147.513.317.637.51.138.193.219.471.242.832.021.402-.033.86-.164 1.374-.117.502-.459 1.12-1.027 1.854-.355.464-.678.81-.969 1.037a8.2 8.2 0 01-1.031.633 4.54 4.54 0 01-.778.384 3.31 3.31 0 01-.807.123zm2.016-2.029a6.217 6.217 0 001.423-2.177c.06-.144.102-.322.125-.534a3.18 3.18 0 00.009-.621c-.005-.2-.046-.315-.125-.346-.155-.1-.347-.136-.575-.107-.228.017-.48.132-.757.346a4.96 4.96 0 00-1.139 1.248c-.33.492-.657 1.058-.98 1.697-.222.47-.286.854-.194 1.152.107.285.349.397.726.334.39-.075.886-.406 1.487-.992zm8.759 2.629a2.301 2.301 0 01-.239-.031.45.45 0 01-.232-.191c-.188-.249-.305-.455-.351-.617-.046-.163-.042-.396.012-.7.036-.199.057-.372.064-.518.021-.159.04-.292.059-.398-.051-.055-.153-.02-.305.106-.139.114-.333.258-.581.434-.477.498-.902.879-1.275 1.142-.358.25-.68.415-.964.496a2.102 2.102 0 01-.802.043.798.798 0 01-.527-.305 1.409 1.409 0 01-.229-.672 4.644 4.644 0 01.04-.859c.074-.437.186-.852.338-1.245.165-.393.419-.828.761-1.306.159-.26.364-.511.616-.753a5.08 5.08 0 01.851-.661 3.54 3.54 0 01.901-.419c.312-.105.628-.157.948-.156.321-.012.606.028.856.12.156.087.28.133.374.138.106.004.189-.058.249-.189.071-.104.145-.26.222-.47.077-.224.166-.413.266-.569l.5-1.278c.163-.353.341-.725.532-1.116.192-.392.421-.868.687-1.43.247-.416.444-.653.594-.713.15-.073.314-.012.492.183.139.18.183.382.132.607-.05.211-.186.552-.408 1.022a8.59 8.59 0 00-.565.975c-.193.404-.37.77-.532 1.096a20.11 20.11 0 00-.51 1.078c-.064.21-.148.453-.254.729-.093.276-.172.526-.236.749a6.292 6.292 0 01-.167.593c-.048.172-.099.256-.152.254-.112.115-.222.323-.329.625a9.368 9.368 0 00-.283.908c-.068.317-.127.581-.177.793a5.746 5.746 0 00-.088.616c-.026.253-.044.499-.055.738l-.022.48a4.67 4.67 0 01-.046.558c-.017.08-.072.117-.165.113zm-4.197-1.456c.279.013.578-.094.895-.319.331-.225.663-.477.996-.755.209-.177.433-.414.674-.709.254-.296.495-.591.722-.888.241-.296.433-.554.577-.774.144-.234.217-.377.22-.43.003-.067-.055-.116-.174-.148a1.922 1.922 0 00-.417-.06 1.02 1.02 0 00-.361.003 2.584 2.584 0 00-.897.359c-.289.187-.61.472-.961.857-.366.41-.673.836-.92 1.278-.235.443-.385.817-.453 1.121-.067.303-.035.458.099.465zm11.613 1.96c-.096.049-.221.023-.377-.077a1.839 1.839 0 01-.42-.44 1.782 1.782 0 01-.176-.529 5.777 5.777 0 01-.003-.781c.025-.266.02-.44-.016-.521-.023-.082-.097-.072-.222.029-.124.088-.34.272-.646.551-.349.318-.68.562-.995.735-.302.173-.546.248-.732.226-.093-.004-.197-.056-.313-.155a2.251 2.251 0 01-.282-.393 3.958 3.958 0 01-.217-.491c-.067-.297-.063-.67.012-1.12.088-.464.217-.945.387-1.444s.359-.971.566-1.415c.221-.444.438-.801.651-1.071.226-.27.419-.401.578-.394.107.005.198.063.273.173.088.111.174.282.256.512.049.096.065.177.049.243-.003.066-.06.144-.171.232a4.993 4.993 0 00-.453.7c-.161.313-.324.652-.488 1.018-.15.367-.287.721-.409 1.063a7.503 7.503 0 00-.26.848c-.05.212-.048.319.005.321.187.009.41-.054.67-.189.274-.148.536-.329.786-.544.292-.267.553-.562.782-.885.242-.322.484-.665.728-1.027.186-.259.379-.543.58-.854.215-.311.352-.531.411-.662.203-.338.354-.564.452-.68.1-.129.217-.21.352-.244a15.434 15.434 0 01.28.013c.079.017.17.082.271.193.104.058.162.114.173.168a.542.542 0 01.012.161c-.059.131-.155.326-.287.587-.119.248-.207.431-.266.549-.28.561-.559 1.115-.838 1.663a7.62 7.62 0 00-.597 1.654 3.349 3.349 0 00-.051.658c.015.241.047.416.096.525l.127.286c.062.096.131.18.208.25.116.086.132.173.048.263a.834.834 0 01-.534.295zm5.598-.221a1.246 1.246 0 01-.604.073c-.225-.024-.528-.112-.908-.263a.537.537 0 01-.176-.088 2.785 2.785 0 01-.251-.212 1.484 1.484 0 01-.186-.309c-.199-.316-.264-.773-.196-1.371.067-.597.287-1.308.659-2.131.103-.196.254-.442.455-.74a17.9 17.9 0 01.618-.812c.212-.257.359-.404.441-.44l.224-.07c.149-.046.339-.124.571-.234a4.72 4.72 0 01.223-.069c.095-.023.189-.038.283-.047a.706.706 0 01.24.011c.265.025.534.138.805.338.285.186.515.404.69.652.176.235.227.438.152.608-.001.027-.043.078-.127.154-.07.064-.153.133-.25.209a1.407 1.407 0 00-.209.19c-.07.077-.165.106-.284.087a.516.516 0 01-.293-.173.77.77 0 01-.121-.407c-.022-.107-.117-.212-.286-.313l-.233-.151c-.106-.005-.264.088-.473.278a5.107 5.107 0 00-.591.654 3.433 3.433 0 00-.659.83 6.95 6.95 0 00-.463.899l-.227.59c-.06.131-.075.317-.046.559.029.242.069.39.119.446.052.029.185.042.399.039.227-.003.495-.018.803-.043.309-.039.611-.085.907-.138a4.32 4.32 0 00.73-.187c.26-.148.484-.231.672-.249.188-.018.327-.011.419.02.144.06.228.137.25.231.022.095-.016.2-.115.315-.098.103-.263.208-.495.318a3.443 3.443 0 00-.596.333c-.165.112-.25.202-.253.268a.36.36 0 00-.182.052c-.055.024-.102.028-.141.013a3.252 3.252 0 00-.323.045c-.188.032-.383.069-.585.113a1.908 1.908 0 00-.387.122zm6.137.666a1.122 1.122 0 01-.449-.241 3.084 3.084 0 01-.379-.458 2.023 2.023 0 01-.199-.47c.001-.027-.017-.061-.055-.103a2.856 2.856 0 01-.037-.062c-.052-.042-.077-.217-.076-.524.015-.319.051-.671.109-1.056.058-.384.119-.688.183-.912.076-.21.189-.492.339-.845.151-.367.279-.695.386-.984l.593-1.133-.789-.257a.48.48 0 01-.232-.171.391.391 0 01-.071-.204c.005-.106.071-.23.198-.371.127-.154.217-.23.271-.228.066.017.185.029.358.037.187.009.367.01.541.005.173-.005.281-.014.321-.025a1.05 1.05 0 00.165-.092.51.51 0 00.13-.215l.198-.391c.06-.131.14-.274.24-.429.102-.169.182-.312.24-.43.073-.116.18-.278.323-.485.071-.09.15-.2.236-.33.086-.129.191-.238.315-.325.125-.101.247-.142.366-.123.134.006.296.1.488.283.1.138.155.24.166.308.01.067-.049.191-.178.372a5.77 5.77 0 01-.411.661c-.144.221-.281.441-.411.662-.227.283-.274.448-.143.494.131.046.505.037 1.122-.028.39-.049.669-.016.837.099.169.101.261.266.277.493.025.322-.017.513-.127.575-.109.062-.417.081-.923.057a7.855 7.855 0 01-.824.062l-.499-.023a5.475 5.475 0 01-.341.004 1.113 1.113 0 00-.242.029.432.432 0 00-.246.129 1.638 1.638 0 00-.151.233c-.056.051-.142.187-.259.408a8.4 8.4 0 01-.434.721 20.01 20.01 0 00-.557 1.656c-.159.54-.29 1.068-.394 1.583-.069.331-.073.564-.013.701.061.122.231.204.51.243.145.021.379.031.699.033.334-.011.596-.039.785-.084.149-.06.305-.119.468-.178.164-.073.314-.146.451-.22l.369-.183.185-.111c.072-.104.147-.134.225-.09.078.044.14.147.186.309-.008.16-.049.325-.124.495-.074.17-.33.365-.767.585-.617.345-1.18.546-1.69.602-.496.044-.916.024-1.259-.058zm10.293-.363a.664.664 0 01-.198-.05l-.097-.064a.484.484 0 00-.051-.203.67.67 0 01-.031-.201c-.09-.058-.141-.114-.152-.168-.01-.067.015-.173.075-.317.086-.129.202-.337.349-.624.148-.3.303-.62.465-.96.163-.352.32-.699.469-1.039l.38-.863c.105-.249.166-.4.181-.452a.474.474 0 01.07-.197.75.75 0 01.149-.194c.111-.088.224-.089.34-.004.117.072.211.197.283.374.086.164.124.346.115.546-.004.093-.082.329-.233.71-.151.366-.351.804-.602 1.313-.237.51-.501 1.025-.792 1.545-.218.377-.356.618-.414.722-.058.09-.16.132-.306.126zm3.288-7.436c-.16-.007-.33-.075-.511-.204a2.225 2.225 0 01-.437-.501 1.155 1.155 0 01-.152-.607c.003-.067.047-.158.133-.275l.256-.348c.086-.116.129-.188.13-.214.107.005.186.015.239.031a.5.5 0 01.236.091c.131.34.298.621.501.844.217.224.322.409.315.555-.014.293-.049.478-.106.556-.056.064-.258.088-.604.072zm.607 7.857a1.474 1.474 0 01-.111-.206.633.633 0 01-.03-.201.32.32 0 00-.016-.101c.002-.04-.023-.061-.077-.064-.038-.042-.004-.194.101-.456.12-.274.268-.588.445-.94.189-.352.379-.69.567-1.015.203-.338.369-.603.498-.798a.237.237 0 00.127-.154c.03-.079.032-.119.006-.12l.108-.175a1.55 1.55 0 01.192-.251c.115-.182.203-.365.265-.549.063-.197.084-.363.064-.497-.051-.069-.11-.092-.177-.068l-.102.035a2.557 2.557 0 00-.244.069.927.927 0 00-.265.107c-.316.199-.527.29-.633.271-.106-.031-.217-.21-.336-.536-.046-.149-.061-.256-.045-.322.017-.066.073-.137.17-.213a.813.813 0 01.308-.165c.095-.036.17-.073.226-.11a2.51 2.51 0 01.368-.183c.109-.035.19-.058.244-.069.351-.09.645-.097.882-.019.236.078.408.259.515.544.176.235.257.499.244.792-.013.28-.122.602-.326.966l-.213.291c-.073.13-.089.196-.049.198.053.002.115-.042.186-.132.042-.051.126-.127.251-.228s.207-.151.247-.149l.041-.018c.04-.012.063-.064.067-.157l.126-.115.082-.056c.054.003.156-.053.308-.166.166-.125.36-.27.581-.433.151-.1.287-.147.407-.141.311-.079.552.032.725.334.186.302.269.686.247 1.152l-.47 1.06.76-.846c.085-.103.17-.192.253-.269.097-.075.18-.138.249-.188.031-.092.074-.144.128-.155l.08-.016.04.002c.028-.012.042-.038.044-.078a1.28 1.28 0 01.226-.13.441.441 0 00.167-.152c.231-.083.438-.087.622-.011.184.062.336.235.456.521a1.1 1.1 0 01.14.427c.008.121.006.301-.005.541-.036.198-.07.357-.102.475l-.056.338c-.019.12-.046.285-.083.497a.987.987 0 00-.115.335l-.016.34a2.18 2.18 0 00.003.36c.011.054.063.083.156.087.189-.031.446-.112.772-.244.341-.144.594-.286.761-.425.208-.177.386-.263.532-.256.161-.006.257.072.29.234.024.054-.028.172-.157.353-.115.182-.25.355-.404.522-.142.167-.245.249-.312.246-.04-.002-.088.036-.145.113a.666.666 0 01-.188.151 4.844 4.844 0 01-.291.247.386.386 0 01-.286.107.465.465 0 00-.202.051.668.668 0 01-.242.029c-.135.033-.34.004-.616-.089-.263-.092-.428-.287-.494-.584a3.537 3.537 0 01-.107-.705 3.56 3.56 0 01.066-.998c.064-.238.108-.456.131-.655.022-.199.055-.338.099-.416l.013-.28c.007-.159-.009-.24-.049-.242-.053-.003-.184.091-.393.282-.196.178-.433.407-.713.688a28.33 28.33 0 00-.802.883 9.952 9.952 0 00-.659.831 2.31 2.31 0 00-.345.524c-.103.209-.175.326-.216.351-.098.102-.212.11-.342.024a1.218 1.218 0 01-.322-.395.988.988 0 01-.07-.204.796.796 0 01.012-.26c.032-.118.087-.289.164-.513a52.618 52.618 0 00.8-2.145l.206-.551c.002-.053-.1-.004-.307.146a12.57 12.57 0 00-.726.527c-.126.141-.336.351-.63.631-.293.281-.615.599-.965.957-.35.357-.688.735-1.014 1.134-.411.528-.7.848-.865.961-.152.113-.297.073-.435-.12zm11.812.568a.604.604 0 00-.188-.249c-.077-.07-.114-.132-.112-.186a.62.62 0 00-.012-.16.25.25 0 00-.072-.184c-.063-.083-.048-.262.045-.538.094-.29.243-.636.449-1.041.206-.417.447-.853.721-1.308.112-.101.225-.236.339-.404.115-.168.2-.278.256-.329a.193.193 0 01.066-.137c.043-.051.091-.076.144-.073l.005-.12c.004-.067.069-.177.196-.331a7.99 7.99 0 01.504-.498c.195-.191.397-.368.605-.532.208-.177.381-.303.518-.377a2.04 2.04 0 01.875-.299c.308-.026.565.053.77.236l.19.209.305.334c.128.113.256.232.384.358l.708.694-.406.982c-.197.525-.266.989-.204 1.392.074.404.192.757.351 1.058.06.149.187.295.38.438.207.143.403.232.588.267a.663.663 0 01.295.134c.09.071.131.18.125.326a.575.575 0 01-.095.316c-.057.078-.153.127-.287.147a1.753 1.753 0 01-1.224-.377c-.361-.284-.687-.739-.978-1.367a3.23 3.23 0 01-.199-.45 4.41 4.41 0 01-.12-.446l-.317.366a7.25 7.25 0 01-.357.364c-.99.915-1.839 1.523-2.548 1.824-.694.288-1.26.275-1.7-.039zm.772-1.086c-.005.094.135.1.419.02.298-.093.62-.265.965-.516.471-.365.944-.77 1.418-1.215.488-.445.881-.861 1.179-1.247l.473-.699c-.119-.312-.256-.526-.411-.64-.141-.126-.265-.192-.371-.197-.173-.008-.44.14-.801.443a9.57 9.57 0 00-1.139 1.229 15.92 15.92 0 00-1.18 1.707c-.146.26-.278.514-.396.762l-.156.353zm10.057 6.133c-.258.095-.54.115-.844.061a2.452 2.452 0 01-.867-.3 3.404 3.404 0 01-.734-.575 1.92 1.92 0 01-.28-.453 3.568 3.568 0 01-.194-.55c-.032-.175-.021-.275.034-.299.055-.037.129-.047.221-.029.093.017.178.041.257.072.091.044.136.093.133.146.077.07.213.177.406.319.193.156.342.249.448.281.275.106.48.156.613.149a.712.712 0 00.366-.123 1.96 1.96 0 00.531-.657c.133-.26.276-.621.431-1.081l.072-.257c.129-.488.274-1.008.433-1.561.159-.554.293-.988.401-1.303.081-.303.11-.509.088-.617-.008-.107-.069-.09-.182.052a1.545 1.545 0 00-.224.07l-.286.126-.49.218c-.163.059-.299.1-.407.121a2.109 2.109 0 00-.3.006l-.14-.006c-.11.062-.302.046-.578-.047a2.388 2.388 0 01-.701-.433 7.304 7.304 0 01-.243-.372.781.781 0 01-.087-.284 4.257 4.257 0 01.002-.48c-.003-.214.111-.516.343-.905.245-.403.536-.776.872-1.121a6.428 6.428 0 011.016-.734 7.62 7.62 0 011.229-.604c.421-.154.764-.218 1.03-.192.132.019.258.045.377.078.119.018.249.085.391.198.182.102.311.208.386.318.075.11.172.322.291.634.07.217.12.433.15.648.03.202.041.396.033.582-.01.2-.045.378-.105.536a.955.955 0 01-.238.369.32.32 0 00-.1.016.168.168 0 00-.081.016.639.639 0 01-.202.03c-.04-.001-.089.043-.146.134a.89.89 0 00-.135.314 1.64 1.64 0 01-.071.237c-.017.079-.04.152-.07.217-.03.065-.059.124-.088.176a.298.298 0 00-.025.099.219.219 0 01-.025.099 1.627 1.627 0 00-.196.351 1.087 1.087 0 00-.054.298l-.09.216a5.671 5.671 0 01-.137.354 1.214 1.214 0 00-.049.198l-.098.396a1.558 1.558 0 01-.112.255c-.03.065-.062.171-.095.316-.033.132-.076.35-.131.655-.319 1.133-.625 1.979-.918 2.54-.294.573-.571.934-.831 1.082zm-1.042-7.316c.34.149.699.179 1.077.09.377-.089.815-.309 1.312-.66.316-.212.582-.46.795-.744.227-.296.395-.602.503-.917.076-.197.102-.336.079-.417-.022-.095-.106-.152-.252-.172-.224-.064-.512-.037-.864.08a5.22 5.22 0 00-1.083.47c-.071.09-.155.173-.252.249a2.814 2.814 0 01-.269.188l-.103.055a.981.981 0 01-.064.097c-.016.039-.05.071-.105.095-.139.114-.28.288-.425.521a3.738 3.738 0 00-.331.666c-.063.21-.069.343-.018.399zm7.778 3.865a1.802 1.802 0 01-1.408-.726c-.352-.47-.505-1.038-.461-1.703.049-.479.166-.987.351-1.526a8.49 8.49 0 01.753-1.566c.304-.507.632-.946.982-1.316.351-.371.71-.628 1.077-.771.137-.061.279-.107.427-.141.162-.032.323-.045.483-.037.146.007.298.04.455.101.158.047.289.1.393.158.223.104.39.225.504.364.114.139.211.35.291.634.028.255.04.436.035.542a1.807 1.807 0 01-.122.475 4.49 4.49 0 01-.677 1.21 3.14 3.14 0 01-1.06.832 1.386 1.386 0 01-.387.142 2.253 2.253 0 01-1.194-.155 1.415 1.415 0 01-.558-.487l-.132-.166-.068.157c-.15.353-.272.681-.366.984a3.99 3.99 0 00-.139.835c-.007.159-.001.313.019.461.033.148.081.277.142.387a.49.49 0 00.252.192c.132.033.271.052.417.059l.28.013c.107-.008.208-.03.303-.066.231-.069.414-.147.552-.234a8.55 8.55 0 00.453-.28l.082-.036-.02-.001c.164-.072.307-.146.431-.22l.205-.111c.053.003.108-.028.165-.092.109-.049.241-.022.396.078.169.101.25.225.243.372-.016.066-.081.17-.194.311a3.334 3.334 0 01-.377.363c-.126.114-.229.176-.309.186a.759.759 0 01-.144.073.416.416 0 00-.163.073l.02.001c-.128.154-.251.228-.371.223l-.16-.008c-.058.091-.236.19-.534.296a2.508 2.508 0 01-.867.12zm1.103-4.354c.24.012.45-.045.629-.171.193-.137.36-.29.502-.457.283-.347.452-.686.507-1.017.07-.344.041-.586-.086-.725a.494.494 0 00-.217-.07c-.053-.016-.167-.001-.343.044-.121.021-.292.113-.513.276a8.636 8.636 0 00-.666.55c-.21.204-.371.377-.485.518l-.279.408a.844.844 0 01.303-.046c.107-.009.166.001.178.028a.97.97 0 00.045.342.752.752 0 00.169.228.46.46 0 00.256.092zM575.555 346.825c1.722 2.017 3.382 3.948 5.034 5.882.331.384.564.656.902 1.204.256.406.78 1.276.3 1.452-.412.102-.719.12-1.357-.493-1.64-1.591-3.039-3.411-4.438-5.209-1.233-1.59-2.15-2.819-3.162-4.289-.472-.686-.293-1.173.397-1.458.62-.255 1.25-.529 1.909-.66 2.37-.486 4.744-.909 7.125-1.356.295-.058.522-.12.884-.138.439-.017.758-.054.869.367.11.399-.393.667-.674.749-2.33.746-7.163 2.202-7.403 2.34 1.331.71 2.547 1.396 3.802 2.014 8.756 4.266 17.721 7.87 27.367 9.289 7.634 1.123 15.245 1.314 22.849.314.449-.056.91-.074 1.354-.082.602-.02.922.078.961.393-.004.6-.407.72-.72.843-.618.256-1.303.379-1.966.502-8.886 1.549-17.774.989-26.654-.758-9.115-1.793-17.511-5.567-25.638-10.072-.42-.254-1.515-.784-1.741-.834z" fill="#F67ACB"/><path fill="white" d="M120 208h343v2H120zM120 250h283v2H120zM120 292h190v2H120z"/><path stroke="#F67ACB" stroke-width="1.039" d="M120.52 334.52h216.171v45.729H120.52z"/><path d="M143.927 361.384v-9.104h1.223v9.104h-1.223zm.973-4.053v-1.098l3.904-.012v1.097l-3.904.013zm0-3.954v-1.097h4.116v1.097H144.9zm9.266 8.007v-1.996h-.199v-2.307c0-.457-.121-.802-.362-1.035-.233-.233-.578-.349-1.035-.349-.258 0-.524.004-.798.012l-.786.025c-.249.009-.465.021-.648.038v-1.048c.183-.016.374-.029.573-.037.208-.017.42-.025.636-.025.217-.009.424-.013.624-.013.682 0 1.239.083 1.671.25.432.158.753.42.96.785.208.366.312.861.312 1.485v4.215h-.948zm-2.182.175c-.499 0-.931-.084-1.297-.25a1.979 1.979 0 01-.836-.748c-.191-.324-.287-.715-.287-1.173 0-.473.104-.868.312-1.184.216-.316.528-.553.936-.711.407-.166.898-.25 1.471-.25h1.809v.898h-1.859c-.482 0-.852.117-1.11.35a1.155 1.155 0 00-.386.897c0 .366.129.661.386.886.258.224.628.337 1.11.337.283 0 .553-.05.811-.15.258-.108.47-.283.636-.524.175-.249.27-.59.287-1.022l.324.473c-.041.474-.158.873-.349 1.198a1.807 1.807 0 01-.773.723c-.325.166-.72.25-1.185.25zm4.529-.175v-1.335l3.63-4.352v.199l-.2-.299.162.075h-3.641v-.948h4.739v1.335l-3.629 4.352v-.174l.224.311-.175-.112h3.779v.948h-4.889zm8.91.224c-.582 0-1.085-.099-1.509-.299a2.908 2.908 0 01-1.035-.786 3.492 3.492 0 01-.599-1.11 4.258 4.258 0 01-.187-1.247v-.224c0-.433.063-.852.187-1.26.133-.407.333-.773.599-1.097a2.785 2.785 0 011.01-.786c.416-.2.902-.299 1.459-.299.724 0 1.318.158 1.784.474.474.307.823.706 1.047 1.197.233.49.349 1.014.349 1.571v.537h-5.911v-.898h5.038l-.274.486c0-.474-.075-.881-.224-1.222a1.76 1.76 0 00-.674-.811c-.299-.191-.678-.287-1.135-.287-.474 0-.869.108-1.185.325a2.01 2.01 0 00-.698.885c-.15.374-.224.806-.224 1.297 0 .474.074.902.224 1.285.158.374.399.673.723.898.325.216.736.324 1.235.324.524 0 .948-.117 1.272-.349.333-.233.532-.503.599-.811h1.122a2.635 2.635 0 01-.549 1.185 2.64 2.64 0 01-1.035.76 3.597 3.597 0 01-1.409.262zm4.431-.224v-6.66h.948v2.744h-.05c0-.973.212-1.684.636-2.133.433-.457 1.077-.686 1.933-.686h.225v1.073h-.424c-.665 0-1.177.179-1.534.536-.358.349-.537.857-.537 1.522v3.604h-1.197zm7.205 2.494v-9.154h.948v2.881l-.225-.025c.042-.715.191-1.297.449-1.746.266-.457.611-.794 1.035-1.01a3.008 3.008 0 011.385-.324 3.077 3.077 0 012.332 1.022c.282.316.499.682.648 1.098.15.416.225.856.225 1.322v.224c0 .466-.079.907-.237 1.322a3.37 3.37 0 01-.674 1.098 3.063 3.063 0 01-1.022.748 3.02 3.02 0 01-1.297.274c-.474 0-.927-.104-1.36-.311-.432-.208-.79-.545-1.072-1.011-.283-.465-.445-1.076-.487-1.833l.549.998v4.427h-1.197zm3.38-3.317c.449 0 .839-.104 1.172-.312.333-.216.59-.511.773-.885a3 3 0 00.275-1.31c0-.499-.092-.935-.275-1.309a2.068 2.068 0 00-.773-.873c-.333-.217-.723-.325-1.172-.325-.399 0-.769.092-1.11.275a2.03 2.03 0 00-.823.773c-.2.332-.3.736-.3 1.21v.573c0 .458.104.848.312 1.173.208.324.482.573.823.748.341.174.707.262 1.098.262zm8.872.823v-1.996h-.199v-2.307c0-.457-.121-.802-.362-1.035-.233-.233-.578-.349-1.035-.349-.258 0-.524.004-.798.012l-.786.025c-.249.009-.465.021-.648.038v-1.048c.183-.016.374-.029.573-.037.208-.017.42-.025.636-.025.217-.009.424-.013.624-.013.682 0 1.239.083 1.671.25.433.158.753.42.961.785.207.366.311.861.311 1.485v4.215h-.948zm-2.182.175c-.499 0-.931-.084-1.297-.25a1.979 1.979 0 01-.836-.748c-.191-.324-.286-.715-.286-1.173 0-.473.103-.868.311-1.184.216-.316.528-.553.936-.711.407-.166.898-.25 1.471-.25h1.809v.898h-1.859c-.482 0-.852.117-1.11.35a1.155 1.155 0 00-.386.897c0 .366.129.661.386.886.258.224.628.337 1.11.337.283 0 .553-.05.811-.15.258-.108.47-.283.636-.524.175-.249.27-.59.287-1.022l.324.473c-.041.474-.158.873-.349 1.198a1.807 1.807 0 01-.773.723c-.325.166-.719.25-1.185.25zm4.954-.175v-6.66h.947v2.744h-.05c0-.973.213-1.684.637-2.133.432-.457 1.076-.686 1.933-.686h.224v1.073h-.424c-.665 0-1.176.179-1.534.536-.357.349-.536.857-.536 1.522v3.604h-1.197zm7.456.075c-.498 0-.931-.071-1.297-.212a1.651 1.651 0 01-.835-.724c-.191-.349-.287-.819-.287-1.409v-6.41h1.147v6.56c0 .357.096.636.287.835.2.192.478.287.836.287h1.172v1.073h-1.023zm-3.566-5.837v-.898h4.589v.898h-4.589zm8.691 5.986c-.582 0-1.085-.099-1.509-.299a2.908 2.908 0 01-1.035-.786 3.472 3.472 0 01-.599-1.11 4.225 4.225 0 01-.187-1.247v-.224c0-.433.062-.852.187-1.26.133-.407.332-.773.599-1.097a2.777 2.777 0 011.01-.786c.415-.2.902-.299 1.459-.299.723 0 1.318.158 1.783.474.474.307.823.706 1.048 1.197.233.49.349 1.014.349 1.571v.537h-5.911v-.898h5.038l-.274.486c0-.474-.075-.881-.225-1.222a1.751 1.751 0 00-.673-.811c-.3-.191-.678-.287-1.135-.287-.474 0-.869.108-1.185.325-.308.216-.54.511-.698.885-.15.374-.225.806-.225 1.297 0 .474.075.902.225 1.285.158.374.399.673.723.898.324.216.736.324 1.235.324.523 0 .948-.117 1.272-.349.332-.233.532-.503.598-.811h1.123a2.656 2.656 0 01-.549 1.185 2.64 2.64 0 01-1.035.76 3.604 3.604 0 01-1.409.262zm9.676 0c-.474 0-.911-.087-1.31-.262a3.188 3.188 0 01-1.048-.735 3.54 3.54 0 01-.685-1.098 3.758 3.758 0 01-.237-1.347v-.224c0-.474.079-.919.237-1.335.158-.415.378-.781.661-1.097a3.134 3.134 0 012.344-1.01c.507 0 .969.108 1.384.324.416.208.757.536 1.023.985.266.449.416 1.031.449 1.746l-.499-.798v-4.477h1.198v9.104h-.948v-2.956h.349c-.033.757-.191 1.372-.474 1.846-.283.466-.64.806-1.073 1.023a3.084 3.084 0 01-1.371.311zm.162-1.047c.407 0 .777-.092 1.11-.275.332-.182.598-.444.798-.785.199-.349.299-.757.299-1.222v-.574c0-.457-.104-.844-.312-1.16a1.92 1.92 0 00-.81-.736 2.335 2.335 0 00-1.098-.262c-.44 0-.831.104-1.172.312a2.164 2.164 0 00-.786.873c-.183.374-.274.815-.274 1.322 0 .507.095.952.287 1.334.191.375.457.666.798.873.341.2.727.3 1.16.3zm9.309.823v-1.996h-.2v-2.307c0-.457-.12-.802-.361-1.035-.233-.233-.578-.349-1.035-.349-.258 0-.524.004-.798.012l-.786.025c-.25.009-.466.021-.649.038v-1.048c.183-.016.374-.029.574-.037.208-.017.42-.025.636-.025.216-.009.424-.013.624-.013.681 0 1.238.083 1.671.25.432.158.752.42.96.785.208.366.312.861.312 1.485v4.215h-.948zm-2.182.175c-.499 0-.932-.084-1.297-.25a1.973 1.973 0 01-.836-.748c-.191-.324-.287-.715-.287-1.173 0-.473.104-.868.312-1.184.216-.316.528-.553.935-.711.408-.166.898-.25 1.472-.25h1.808v.898h-1.858c-.482 0-.852.117-1.11.35a1.153 1.153 0 00-.387.897c0 .366.129.661.387.886.258.224.628.337 1.11.337.283 0 .553-.05.811-.15.257-.108.469-.283.636-.524.174-.249.27-.59.286-1.022l.325.473c-.042.474-.158.873-.349 1.198a1.803 1.803 0 01-.774.723c-.324.166-.719.25-1.184.25zm7.492-.175v-9.104h1.197v9.104h-1.197zm-.923-8.156v-.948h2.12v.948h-2.12zm4.366 8.156v-6.66h1.198v6.66h-1.198zm-1.022-5.712v-.948h2.22v.948h-2.22zm1.359-2.02c-.266 0-.466-.071-.599-.212a.786.786 0 01-.187-.537c0-.216.063-.395.187-.536.133-.141.333-.212.599-.212.266 0 .461.071.586.212.133.141.2.32.2.536a.753.753 0 01-.2.537c-.125.141-.32.212-.586.212zm4.984 7.931c-.873 0-1.551-.187-2.033-.561-.474-.374-.719-.885-.736-1.534h1.123c.016.258.145.503.386.736.25.225.67.337 1.26.337.532 0 .939-.104 1.222-.312.283-.216.424-.478.424-.786a.738.738 0 00-.312-.636c-.208-.158-.544-.262-1.01-.312l-.723-.074c-.632-.067-1.148-.254-1.547-.562-.399-.316-.598-.756-.598-1.322 0-.424.108-.785.324-1.085.216-.307.515-.54.898-.698.382-.166.823-.249 1.322-.249.748 0 1.355.166 1.821.498.465.333.706.828.723 1.485h-1.122c-.009-.266-.133-.491-.375-.674-.232-.191-.582-.287-1.047-.287-.466 0-.819.096-1.06.287a.886.886 0 00-.362.723c0 .25.083.449.25.599.174.15.457.245.848.287l.723.075c.715.075 1.289.274 1.721.598.432.316.649.765.649 1.347 0 .416-.121.786-.362 1.11-.233.316-.557.566-.973.749-.416.174-.894.261-1.434.261zm6.724-.124c-.499 0-.932-.071-1.297-.212a1.653 1.653 0 01-.836-.724c-.191-.349-.287-.819-.287-1.409v-6.41h1.148v6.56c0 .357.095.636.286.835.2.192.478.287.836.287h1.172v1.073h-1.022zm-3.567-5.837v-.898h4.589v.898h-4.589zm9.912 5.762v-1.996h-.199v-2.307c0-.457-.121-.802-.362-1.035-.233-.233-.578-.349-1.035-.349-.258 0-.524.004-.798.012l-.786.025c-.249.009-.465.021-.648.038v-1.048c.183-.016.374-.029.573-.037.208-.017.42-.025.636-.025.217-.009.424-.013.624-.013.682 0 1.239.083 1.671.25.433.158.753.42.96.785.208.366.312.861.312 1.485v4.215h-.948zm-2.182.175c-.499 0-.931-.084-1.297-.25a1.979 1.979 0 01-.836-.748c-.191-.324-.287-.715-.287-1.173 0-.473.104-.868.312-1.184.216-.316.528-.553.936-.711.407-.166.898-.25 1.471-.25h1.809v.898h-1.859c-.482 0-.852.117-1.11.35a1.155 1.155 0 00-.386.897c0 .366.129.661.386.886.258.224.628.337 1.11.337.283 0 .553-.05.811-.15.258-.108.47-.283.636-.524.175-.249.27-.59.287-1.022l.324.473c-.041.474-.158.873-.349 1.198a1.807 1.807 0 01-.773.723c-.325.166-.719.25-1.185.25zm10.198.049a3.177 3.177 0 01-2.357-.997 3.544 3.544 0 01-.686-1.098 3.758 3.758 0 01-.237-1.347v-.224c0-.474.079-.919.237-1.335.158-.415.379-.781.661-1.097a3.134 3.134 0 012.345-1.01c.507 0 .968.108 1.384.324.416.208.757.536 1.023.985.266.449.416 1.031.449 1.746l-.499-.798v-4.477h1.197v9.104h-.948v-2.956h.35c-.034.757-.192 1.372-.474 1.846-.283.466-.641.806-1.073 1.023a3.085 3.085 0 01-1.372.311zm.162-1.047c.408 0 .778-.092 1.11-.275.333-.182.599-.444.798-.785.2-.349.3-.757.3-1.222v-.574c0-.457-.104-.844-.312-1.16-.2-.324-.47-.57-.811-.736a2.328 2.328 0 00-1.097-.262c-.441 0-.832.104-1.172.312a2.164 2.164 0 00-.786.873c-.183.374-.274.815-.274 1.322 0 .507.095.952.286 1.334.192.375.458.666.799.873.34.2.727.3 1.159.3zm8.112 1.047c-.582 0-1.085-.099-1.509-.299a2.908 2.908 0 01-1.035-.786 3.489 3.489 0 01-.598-1.11 4.225 4.225 0 01-.187-1.247v-.224c0-.433.062-.852.187-1.26.133-.407.332-.773.598-1.097a2.785 2.785 0 011.01-.786c.416-.2.903-.299 1.46-.299.723 0 1.317.158 1.783.474.474.307.823.706 1.048 1.197.232.49.349 1.014.349 1.571v.537h-5.912v-.898h5.039l-.275.486c0-.474-.074-.881-.224-1.222a1.757 1.757 0 00-.673-.811c-.3-.191-.678-.287-1.135-.287-.474 0-.869.108-1.185.325a2.006 2.006 0 00-.699.885 3.486 3.486 0 00-.224 1.297c0 .474.075.902.224 1.285.158.374.4.673.724.898.324.216.736.324 1.234.324.524 0 .948-.117 1.273-.349.332-.233.532-.503.598-.811h1.123a2.656 2.656 0 01-.549 1.185c-.275.332-.62.586-1.035.76a3.605 3.605 0 01-1.41.262zm9.726 0c-.582 0-1.085-.099-1.509-.299a2.908 2.908 0 01-1.035-.786 3.492 3.492 0 01-.599-1.11 4.258 4.258 0 01-.187-1.247v-.224c0-.433.063-.852.187-1.26.133-.407.333-.773.599-1.097a2.785 2.785 0 011.01-.786c.416-.2.902-.299 1.459-.299.724 0 1.318.158 1.784.474.474.307.823.706 1.047 1.197.233.49.35 1.014.35 1.571v.537h-5.912v-.898h5.039l-.275.486c0-.474-.075-.881-.224-1.222a1.753 1.753 0 00-.674-.811c-.299-.191-.677-.287-1.135-.287-.474 0-.868.108-1.184.325a2.006 2.006 0 00-.699.885 3.486 3.486 0 00-.224 1.297c0 .474.075.902.224 1.285.158.374.399.673.724.898.324.216.735.324 1.234.324.524 0 .948-.117 1.272-.349.333-.233.532-.503.599-.811h1.122a2.644 2.644 0 01-.548 1.185 2.65 2.65 0 01-1.036.76 3.597 3.597 0 01-1.409.262zm6.614-.025c-.873 0-1.551-.187-2.033-.561-.474-.374-.719-.885-.736-1.534h1.123c.016.258.145.503.386.736.25.225.67.337 1.26.337.532 0 .939-.104 1.222-.312.283-.216.424-.478.424-.786a.738.738 0 00-.312-.636c-.208-.158-.544-.262-1.01-.312l-.723-.074c-.632-.067-1.148-.254-1.547-.562-.399-.316-.598-.756-.598-1.322 0-.424.108-.785.324-1.085.216-.307.515-.54.898-.698.382-.166.823-.249 1.322-.249.748 0 1.355.166 1.821.498.465.333.706.828.723 1.485h-1.122c-.009-.266-.133-.491-.375-.674-.232-.191-.582-.287-1.047-.287-.466 0-.819.096-1.06.287a.886.886 0 00-.362.723c0 .25.083.449.25.599.174.15.457.245.848.287l.723.075c.715.075 1.289.274 1.721.598.432.316.649.765.649 1.347 0 .416-.121.786-.362 1.11-.233.316-.557.566-.973.749-.416.174-.894.261-1.434.261zm4.13 2.295v-9.154h.947v2.881l-.224-.025c.041-.715.191-1.297.449-1.746.266-.457.611-.794 1.035-1.01a3.004 3.004 0 011.384-.324 3.077 3.077 0 012.333 1.022c.282.316.498.682.648 1.098.15.416.225.856.225 1.322v.224c0 .466-.079.907-.237 1.322a3.37 3.37 0 01-.674 1.098 3.067 3.067 0 01-1.023.748c-.39.183-.823.274-1.297.274s-.927-.104-1.359-.311c-.432-.208-.79-.545-1.073-1.011-.282-.465-.444-1.076-.486-1.833l.549.998v4.427h-1.197zm3.379-3.317c.449 0 .84-.104 1.173-.312a2.17 2.17 0 00.773-.885 3 3 0 00.274-1.31c0-.499-.091-.935-.274-1.309a2.074 2.074 0 00-.773-.873c-.333-.217-.724-.325-1.173-.325-.399 0-.769.092-1.11.275a2.037 2.037 0 00-.823.773c-.199.332-.299.736-.299 1.21v.573c0 .458.104.848.312 1.173.208.324.482.573.823.748.341.174.707.262 1.097.262zm7.676 1.047c-.582 0-1.085-.099-1.509-.299a2.908 2.908 0 01-1.035-.786 3.492 3.492 0 01-.599-1.11 4.225 4.225 0 01-.187-1.247v-.224c0-.433.062-.852.187-1.26.133-.407.333-.773.599-1.097a2.785 2.785 0 011.01-.786c.416-.2.902-.299 1.459-.299.723 0 1.318.158 1.783.474.474.307.824.706 1.048 1.197.233.49.349 1.014.349 1.571v.537h-5.911v-.898h5.038l-.274.486c0-.474-.075-.881-.225-1.222a1.751 1.751 0 00-.673-.811c-.299-.191-.678-.287-1.135-.287-.474 0-.869.108-1.185.325a2.01 2.01 0 00-.698.885c-.15.374-.225.806-.225 1.297 0 .474.075.902.225 1.285.158.374.399.673.723.898.324.216.736.324 1.235.324.524 0 .948-.117 1.272-.349.333-.233.532-.503.599-.811h1.122a2.635 2.635 0 01-.549 1.185 2.64 2.64 0 01-1.035.76 3.6 3.6 0 01-1.409.262zm4.431-.224v-6.66h.948v2.744h-.05c0-.973.212-1.684.636-2.133.432-.457 1.077-.686 1.933-.686h.225v1.073h-.424c-.666 0-1.177.179-1.534.536-.358.349-.537.857-.537 1.522v3.604H303.2zm8.745 0v-1.996h-.199v-2.307c0-.457-.121-.802-.362-1.035-.233-.233-.578-.349-1.035-.349-.258 0-.524.004-.798.012l-.786.025c-.25.009-.466.021-.649.038v-1.048c.183-.016.374-.029.574-.037.208-.017.42-.025.636-.025.216-.009.424-.013.624-.013.681 0 1.238.083 1.671.25.432.158.752.42.96.785.208.366.312.861.312 1.485v4.215h-.948zm-2.182.175c-.499 0-.932-.084-1.297-.25a1.979 1.979 0 01-.836-.748c-.191-.324-.287-.715-.287-1.173 0-.473.104-.868.312-1.184.216-.316.528-.553.935-.711.408-.166.898-.25 1.472-.25h1.808v.898h-1.858c-.482 0-.852.117-1.11.35a1.153 1.153 0 00-.387.897c0 .366.129.661.387.886.258.224.628.337 1.11.337.283 0 .553-.05.811-.15.257-.108.469-.283.636-.524.174-.249.27-.59.287-1.022l.324.473c-.042.474-.158.873-.349 1.198a1.803 1.803 0 01-.774.723c-.324.166-.719.25-1.184.25z" fill="#F67ACB"/><path d="M130.998 420.768l-6.874 6.874-4.124-4.124" stroke="#F67ACB" stroke-width="1.5" stroke-linecap="round" stroke-linejoin="round"/><path fill="white" d="M146.998 423.205h70v2h-70z"/><path d="M130.998 459.642l-6.874 6.874-4.124-4.124" stroke="#F67ACB" stroke-width="1.5" stroke-linecap="round" stroke-linejoin="round"/><path fill="white" d="M146.998 462.079h70v2h-70z"/><path d="M130.998 498.516l-6.874 6.874-4.124-4.124" stroke="#F67ACB" stroke-width="1.5" stroke-linecap="round" stroke-linejoin="round"/><path fill="white" d="M146.998 500.953h70v2h-70z"/><path d="M358.34 363.485a21.171 21.171 0 01-.639-.207 2.09 2.09 0 01-.613-.37c-.187-.159-.36-.392-.52-.7a6.245 6.245 0 01-.374-1.112 9.9 9.9 0 01-.148-1.293 10.113 10.113 0 01-.01-1.805 9.282 9.282 0 01.347-1.614 2.1 2.1 0 00.112-.351c.063-.206.131-.426.206-.659.087-.235.152-.414.195-.538.088-.235.222-.547.404-.937.194-.404.402-.796.624-1.176.338-.604.619-1.082.844-1.435.225-.354.441-.653.648-.897.207-.245.442-.479.704-.701.275-.237.625-.527 1.051-.871.275-.237.584-.376.929-.418.357-.043.696.009 1.016.156.319.134.565.354.738.661.169.267.27.599.304.998.032.385.006.802-.077 1.251a5.69 5.69 0 01-.397 1.257c-.18.403-.399.743-.657 1.018-.16.174-.314.247-.464.22-.136-.029-.304-.122-.504-.279a5.064 5.064 0 01-.233-.382c-.003-.04.021-.069.073-.087.072-.1.165-.268.279-.505.114-.237.227-.487.339-.751.111-.276.186-.497.226-.661.059-.567.1-.965.121-1.194.02-.242-.035-.418-.165-.528-.057-.049-.139-.062-.244-.04-.092.021-.246.101-.462.239-.294.159-.668.491-1.121.997a10.653 10.653 0 00-1.229 1.628c-.472.748-.865 1.41-1.179 1.985a6.966 6.966 0 00-.677 1.742 9.564 9.564 0 00-.115.311l-.061.225c.018.053.009.187-.027.404a3.294 3.294 0 01-.136.533 9.954 9.954 0 00-.099 1.935c.027.654.109 1.229.244 1.726.148.496.33.835.546 1.018.183.105.419.126.708.061a4.69 4.69 0 001.013-.365 28.3 28.3 0 001.136-.576c.308-.16.588-.33.84-.512.253-.182.441-.338.563-.469.1-.088.226-.179.379-.272.165-.107.307-.166.427-.176.18-.082.285-.117.312-.106.028.011.046.069.055.176.016.186-.074.401-.267.644-.181.243-.423.47-.726.683-.098.115-.228.24-.39.374a2.294 2.294 0 01-.515.323c-.262.236-.59.471-.985.705a6.552 6.552 0 01-1.218.563c-.403.141-.78.192-1.131.154zm10.454-1.453c-.049.057-.107.082-.174.074-.067.006-.176-.018-.328-.073-.258-.045-.425-.131-.503-.259-.063-.115-.04-.324.068-.628.046-.097.095-.302.15-.614.066-.327.135-.7.207-1.121l.216-1.263.189-1.099.107-.651c-.009-.106 0-.321.026-.645.04-.324.07-.688.09-1.091.123-.291.197-.605.222-.942.039-.337.065-.58.08-.729.035-.217.076-.448.123-.692.06-.246.106-.491.139-.734.036-.218.07-.441.105-.671.047-.232.068-.381.063-.447l-.027-.319-.737.061c-.198.03-.491.055-.877.073a29.3 29.3 0 00-1.038.067c-.627.025-1.05.001-1.271-.075-.208-.089-.338-.279-.388-.569-.04-.158-.017-.273.071-.347.087-.075.303-.133.648-.175.344-.042.876-.08 1.596-.113a13.093 13.093 0 011.455-.121c.413-.021.646-.034.699-.039a.348.348 0 00.086-.167.804.804 0 01.047-.165 1.363 1.363 0 01.001-.221c.019-.095.08-.167.183-.216.09-.208.203-.297.339-.269.148.015.304.122.468.323.063.115.121.237.171.367.065.128.148.241.25.34.048-.058.185-.102.41-.135l.714-.099c.306-.026.577-.055.816-.088.237-.047.401-.074.494-.082a.958.958 0 01.451-.138c.199-.016.399-.02.601-.01.305-.025.519-.03.641-.013.135.016.225.055.271.118l.013.159a.357.357 0 00.113.152c.058.048.087.086.09.112a1.03 1.03 0 01-.065.187.687.687 0 01-.268.162c-.13.038-.275.063-.435.077a4.62 4.62 0 00-.475.079c-.224.033-.417.055-.576.069-.301.078-.643.154-1.025.226-.37.057-.786.119-1.249.184a3.756 3.756 0 00-.555.086c-.171.028-.254.075-.249.142-.053.004-.114.15-.184.436-.056.286-.112.585-.166.897a7.547 7.547 0 01-.184.919c-.059.259-.112.431-.158.515a.213.213 0 01.076.194c.007.08-.021.223-.084.429a2.68 2.68 0 01-.123.451.905.905 0 00-.033.324l-.073.327a8.995 8.995 0 00-.097.771 4.448 4.448 0 01-.058.748c-.023.202-.059.332-.108.39l-.068.146a.495.495 0 00-.056.286c.01.119 0 .321-.03.604-.018.269-.043.526-.077.769-.033.244-.068.381-.106.411.135.015.13.196-.015.543.011.132.003.267-.026.403a1.183 1.183 0 00-.037.284c-.058.259-.128.546-.209.861l-.213.82c-.059.246-.107.39-.144.434zm3.96-.21c-.25-.113-.395-.248-.435-.405-.026-.159.043-.446.209-.861.166-.415.427-1.059.783-1.932.269-.624.469-1.109.601-1.455.144-.359.236-.615.277-.765.054-.152.08-.248.076-.288-.036-.117-.031-.211.017-.282a.585.585 0 01.242-.221c.061-.072.158-.2.289-.385a3.19 3.19 0 00.387-.655c.097-.289.212-.586.347-.892.136-.305.318-.688.547-1.149.228-.474.525-1.087.89-1.84.227-.487.48-.984.759-1.489.278-.518.576-1.031.895-1.539a3.44 3.44 0 01.362-.472c.11-.13.225-.193.346-.189.159-.014.343.025.551.114.221.089.426.212.613.371.187.158.329.333.425.526.075.101.121.325.136.671.016.347.024.767.025 1.262.001.495-.001 1.024-.008 1.587.006.548 0 1.197-.018 1.948-.018.751-.033 1.534-.045 2.352.001.816.014 1.604.037 2.365.022.747.076 1.398.163 1.953.023.118.033.231.028.339-.004.107-.004.194.002.261-.073.086-.203.13-.391.132a1.23 1.23 0 01-.528-.076c-.166-.066-.267-.158-.304-.276a.303.303 0 01-.093-.152c-.006-.08-.013-.24-.02-.48-.006-.241-.025-.62-.055-1.14l-.169-3.237-.258.042c-.119.01-.344.042-.674.096-.33.054-.685.124-1.066.209-.382.072-.737.149-1.065.23a3.989 3.989 0 00-.648.174c-.119.01-.259.102-.418.276a2.994 2.994 0 00-.407.656c-.038.19-.121.398-.249.623-.116.21-.172.349-.166.415a1.006 1.006 0 00-.219.259l-.068.146c.006.08-.044.285-.15.615-.094.315-.218.674-.372 1.074a9.313 9.313 0 01-.476 1.024l-.366.672-.339-.212zm3.591-6.762l.196-.057c.144-.038.308-.079.491-.121a2.79 2.79 0 01.534-.104c.546-.18.945-.3 1.194-.361.248-.074.418-.115.511-.123a.605.605 0 01.284.037c.059.062.109.098.15.108l.081.013c.011-.028.018-.182.022-.464l.013-1.044c.019-.417.03-.846.033-1.287.016-.457.021-.872.017-1.246l-.014-.882a41.318 41.318 0 01-.016-.681 77.334 77.334 0 01-.007-.321c-.08.007-.24.168-.482.482-.228.313-.481.723-.76 1.228a15.35 15.35 0 00-.769 1.609c-.112.264-.219.5-.322.709-.103.21-.188.317-.255.322a3.72 3.72 0 00-.209.379c-.103.209-.216.453-.34.731a7.336 7.336 0 00-.301.727c-.076.208-.093.323-.051.346z" fill="#F67ACB"/></g><path d="M15 95.179C15 77.407 29.407 63 47.179 63H1089.82c17.77 0 32.18 14.407 32.18 32.179h-2C1120 78.51 1106.49 65 1089.82 65H47.179C30.51 65 17 78.511 17 95.179h-2zM1121 593H16h1105zM15 593V95.179C15 77.407 29.407 63 47.179 63v2C30.51 65 17 78.511 17 95.179V593h-2zM1089.82 63c17.77 0 32.18 14.407 32.18 32.179V593h-2V95.179C1120 78.51 1106.49 65 1089.82 65v-2z" fill="white" mask="url(#a)"/><g clip-path="url(#clip2_10013_212)"><mask id="b" fill="white"><path d="M857 40c0-22.091 17.909-40 40-40h295c22.09 0 40 17.909 40 40v570c0 22.091-17.91 40-40 40H897c-22.091 0-40-17.909-40-40V40z"/></mask><path d="M857 40c0-22.091 17.909-40 40-40h295c22.09 0 40 17.909 40 40v570c0 22.091-17.91 40-40 40H897c-22.091 0-40-17.909-40-40V40z" fill="url(#paint1_linear_10013_212)"/><path transform="translate(857)" fill="url(#paint2_linear_10013_212)" d="M0 0h375v88H0z"/><path d="M1187 44h18M1187 38h18M1187 50h18" stroke="white" stroke-width="1.998" stroke-linecap="round" stroke-linejoin="round"/><path transform="translate(857 505)" fill="url(#paint3_linear_10013_212)" d="M0 0h375v261H0z"/><rect x="881.5" y="513.5" width="326" height="244" rx="11.5" stroke="white"/><circle cx="917" cy="124" r="35.66" stroke="#343434" stroke-width=".679"/><g clip-path="url(#clip3_10013_212)"><path d="M920.139 115.302l-5.42 7.29 4.118 5.527-2.311 1.763-6.536-8.732-8.688 11.643h31.882l-13.045-17.491z" fill="#F67ACB"/></g><circle cx="1002" cy="124" r="35.66" stroke="#343434" stroke-width=".679"/><g clip-path="url(#clip4_10013_212)"><path d="M1005.14 115.302l-5.421 7.29 4.121 5.527-2.31 1.763-6.54-8.732-8.688 11.643h31.878l-13.04-17.491z" fill="#F67ACB"/></g><circle cx="1087" cy="124" r="35.66" stroke="#343434" stroke-width=".679"/><g clip-path="url(#clip5_10013_212)"><path d="M1090.14 115.302l-5.42 7.29 4.12 5.527-2.31 1.763-6.54-8.732-8.69 11.643h31.88l-13.04-17.491z" fill="#F67ACB"/></g><circle cx="1172" cy="124" r="35.66" stroke="#343434" stroke-width=".679"/><g clip-path="url(#clip6_10013_212)"><path d="M1175.14 115.302l-5.42 7.29 4.12 5.527-2.31 1.763-6.54-8.732-8.69 11.643h31.88l-13.04-17.491z" fill="#F67ACB"/></g><path transform="translate(857 176)" fill="url(#paint4_linear_10013_212)" d="M0 0h375v261H0z"/><rect x="881.5" y="184.5" width="326" height="244" rx="11.5" stroke="white"/><rect x="881" y="376" width="327" height="1" rx=".5" fill="black"/><path d="M914.367 396.842a4.572 4.572 0 00-3.242-1.343 4.58 4.58 0 00-3.242 1.343l-.883.883-.883-.883a4.585 4.585 0 00-6.484 6.483l.884.883 6.483 6.484 6.483-6.484.884-.883a4.59 4.59 0 00.994-4.996 4.6 4.6 0 00-.994-1.487v0zM950.5 405.5c0 .442-.176.866-.488 1.179a1.67 1.67 0 01-1.179.488h-10L935.5 410.5v-13.333c0-.442.176-.866.488-1.179a1.67 1.67 0 011.179-.488h11.666c.442 0 .866.176 1.179.488.312.313.488.737.488 1.179v8.333zM1187.83 410.5l-5.83-4.167-5.83 4.167v-13.333c0-.442.17-.866.48-1.179.32-.312.74-.488 1.18-.488h8.34c.44 0 .86.176 1.18.488.31.313.48.737.48 1.179V410.5z" stroke="white" stroke-width="1.5" stroke-linecap="round" stroke-linejoin="round"/><path transform="translate(857 437)" fill="url(#paint5_linear_10013_212)" d="M0 0h375v68H0z"/><path fill="white" d="M881 461h208v2H881zM881 479h122v2H881zM917.927 53.27c-3.664 0-6.131-2.343-6.131-5.259h3.016c.025 1.346 1.296 2.567 3.19 2.567 1.745 0 2.867-1.071 2.867-2.417 0-1.197-1.022-1.895-2.468-2.293l-2.144-.599c-3.689-.947-4.337-3.165-4.337-4.66 0-3.042 2.667-5.11 5.833-5.11 3.141 0 5.608 1.944 5.608 5.16h-3.016c0-1.422-1.072-2.444-2.667-2.444-1.47 0-2.692.997-2.692 2.343 0 .474.15 1.471 2.119 1.995l2.044.598c2.692.747 4.761 2.143 4.761 4.885 0 3.14-2.618 5.234-5.983 5.234zM929.676 41.331h2.468v2.293h-2.468v9.347h-2.891v-9.347h-2.094v-2.293h2.094v-4.287h2.891v4.287zM939.839 41.032c.698 0 1.445.15 1.894.399l-.573 2.742a3.644 3.644 0 00-1.695-.424c-1.895 0-2.942 1.894-2.942 5.16v4.062h-2.916v-11.64h2.892v2.493c.623-1.944 1.894-2.792 3.34-2.792zM951.038 47.563V41.33h2.892v11.64h-2.892v-1.82c-.598 1.471-2.442 2.12-3.614 2.12-2.991 0-4.661-2.02-4.661-5.41v-6.53h2.891v6.406c0 1.87 1.122 2.841 2.418 2.841 1.321 0 2.966-.747 2.966-3.016zM962.207 53.27c-3.365 0-6.331-2.442-6.331-6.131 0-3.69 2.966-6.107 6.331-6.107 2.019 0 3.664.897 4.736 2.243l-2.044 1.62c-.598-.722-1.595-1.171-2.642-1.171-2.019 0-3.465 1.446-3.465 3.415 0 1.944 1.446 3.44 3.465 3.44 1.047 0 2.044-.45 2.642-1.172l2.044 1.62c-1.072 1.346-2.717 2.243-4.736 2.243zM972.618 41.331h2.467v2.293h-2.467v9.347h-2.892v-9.347h-2.094v-2.293h2.094v-4.287h2.892v4.287zM983.054 41.032c3.265 0 5.907 2.567 5.907 6.107s-2.642 6.131-5.907 6.131c-1.944 0-3.789-.997-4.636-2.592v2.293h-1.595V35h1.595v8.6c.872-1.596 2.667-2.568 4.636-2.568zm-.125 10.718c2.468 0 4.462-2.044 4.462-4.636 0-2.567-1.994-4.561-4.462-4.561-2.318 0-4.511 1.82-4.511 4.636 0 2.692 2.094 4.561 4.511 4.561zM996.694 53.27c-3.315 0-6.082-2.442-6.082-6.131 0-3.69 2.767-6.107 6.082-6.107 3.316 0 6.106 2.418 6.106 6.107s-2.79 6.131-6.106 6.131zm0-1.52c2.443 0 4.516-1.87 4.516-4.611 0-2.742-2.073-4.587-4.516-4.587-2.467 0-4.486 1.845-4.486 4.587s2.019 4.611 4.486 4.611zM1010.5 53.27c-3.31 0-6.08-2.442-6.08-6.131 0-3.69 2.77-6.107 6.08-6.107 3.32 0 6.11 2.418 6.11 6.107s-2.79 6.131-6.11 6.131zm0-1.52c2.45 0 4.51-1.87 4.51-4.611 0-2.742-2.06-4.587-4.51-4.587-2.46 0-4.48 1.845-4.48 4.587s2.02 4.611 4.48 4.611zM1022.32 53.27c-2.02 0-4.04-1.171-4.24-3.39h1.47c.17.973 1.07 1.97 2.77 1.97 1.67 0 2.69-.873 2.69-2.044 0-.947-.65-1.57-1.85-1.87l-1.67-.398c-1.64-.4-2.96-1.247-2.96-3.19 0-1.895 1.62-3.316 3.84-3.316 1.94 0 3.74 1.072 3.81 3.166h-1.54c-.08-1.047-1.1-1.745-2.25-1.745-1.34 0-2.27.822-2.27 1.92 0 1.096.95 1.57 1.8 1.769l1.72.423c2.27.549 2.96 1.92 2.96 3.266 0 2.069-1.87 3.44-4.28 3.44zM1031.33 41.331h2.67v1.371h-2.67v10.27h-1.57v-10.27h-2.12v-1.37h2.12v-4.363h1.57v4.362z"/><path d="M901.222 36.219h-10.689c-.436 0-.529.031-.779.282l-8.474 7.917c-.249.251-.28.346-.28.785v4.65c0 2.639 1.309 3.958 3.926 3.958h10.688c.436 0 .529-.031.778-.282l8.475-7.917c.249-.252.28-.346.28-.786v-4.649c0-2.639-1.308-3.958-3.925-3.958z" fill="#F67ACB"/><g clip-path="url(#clip7_10013_212)"><path d="M1052.03 268.374l-13.43 18.055 10.2 13.689-5.72 4.365-16.19-21.626-21.52 28.835h78.96l-32.3-43.318z" fill="#F67ACB"/></g></g><path d="M856 40c0-22.644 18.356-41 41-41h295c22.64 0 41 18.356 41 41h-2c0-21.54-17.46-39-39-39H897c-21.539 0-39 17.46-39 39h-2zm376 610H857h375zm-335 0c-22.644 0-41-18.356-41-41V40c0-22.644 18.356-41 41-41v2c-21.539 0-39 17.46-39 39v570c0 22.091 17.461 40 39 40zM1192-1c22.64 0 41 18.356 41 41v569c0 22.644-18.36 41-41 41 21.54 0 39-17.909 39-40V40c0-21.54-17.46-39-39-39v-2z" fill="white" mask="url(#b)"/><path d="M4 83.443c2.556-.706 5.012-1.375 7.464-2.052.49-.132.835-.227 1.422-.492.439-.192 1.36-.62 1.062-1.034-.284-.315-.528-.502-1.4-.352-2.25.399-4.43 1.122-6.595 1.829-1.912.625-3.361 1.13-5.022 1.78-.775.304-.9.808-.488 1.43.37.559.74 1.139 1.21 1.616 1.691 1.731 3.422 3.41 5.143 5.116.212.213.365.392.655.61.355.26.598.468.926.182.314-.27.047-.773-.139-.999-1.512-1.922-4.7-5.837-4.82-6.084 1.499.156 2.89.27 4.276.46 9.643 1.373 19.088 3.412 27.873 7.64 6.953 3.346 13.364 7.453 19.102 12.543.34.298.712.571 1.076.826.487.354.806.452 1.016.213.332-.5.066-.824-.123-1.101-.37-.559-.868-1.045-1.348-1.518-6.493-6.262-14.168-10.777-22.503-14.306-8.554-3.622-17.623-5.2-26.878-6.023-.49-.025-1.694-.198-1.91-.284z" fill="#F67ACB"/><defs><clipPath id="clip0_10013_212"><path d="M16 95.179C16 77.959 29.96 64 47.179 64H1089.82c17.22 0 31.18 13.96 31.18 31.179V593H16V95.179z" fill="white"/></clipPath><clipPath id="clip1_10013_212"><path fill="white" transform="translate(751 327)" d="M0 0h161v88H0z"/></clipPath><clipPath id="clip2_10013_212"><path d="M857 40c0-22.091 17.909-40 40-40h295c22.09 0 40 17.909 40 40v570c0 22.091-17.91 40-40 40H897c-22.091 0-40-17.909-40-40V40z" fill="white"/></clipPath><clipPath id="clip3_10013_212"><path fill="white" transform="translate(901.302 115.302)" d="M0 0h32v17.491H0z"/></clipPath><clipPath id="clip4_10013_212"><path fill="white" transform="translate(986.302 115.302)" d="M0 0h32v17.491H0z"/></clipPath><clipPath id="clip5_10013_212"><path fill="white" transform="translate(1071.3 115.302)" d="M0 0h32v17.491H0z"/></clipPath><clipPath id="clip6_10013_212"><path fill="white" transform="translate(1156.3 115.302)" d="M0 0h32v17.491H0z"/></clipPath><clipPath id="clip7_10013_212"><path fill="white" transform="translate(1005.37 268.374)" d="M0 0h79.252v43.318H0z"/></clipPath><linearGradient id="paint0_linear_10013_212" x1="-127.497" y1="-121.423" x2="1301.37" y2="-162.736" gradientUnits="userSpaceOnUse"><stop stop-color="#000205"/><stop offset="1" stop-color="#000205"/></linearGradient><linearGradient id="paint1_linear_10013_212" x1="808.302" y1="-227.836" x2="1293.59" y2="-231.711" gradientUnits="userSpaceOnUse"><stop stop-color="#000205"/><stop offset="1" stop-color="#000205"/></linearGradient><linearGradient id="paint2_linear_10013_212" x1="-48.698" y1="-30.846" x2="434.934" y2="-59.372" gradientUnits="userSpaceOnUse"><stop stop-color="#050003"/><stop offset="1" stop-color="#060004"/></linearGradient><linearGradient id="paint3_linear_10013_212" x1="-48.698" y1="-91.485" x2="436.425" y2="-101.133" gradientUnits="userSpaceOnUse"><stop stop-color="#000205"/><stop offset="1" stop-color="#000205"/></linearGradient><linearGradient id="paint4_linear_10013_212" x1="-48.698" y1="-91.485" x2="436.425" y2="-101.133" gradientUnits="userSpaceOnUse"><stop stop-color="#000205"/><stop offset="1" stop-color="#000205"/></linearGradient><linearGradient id="paint5_linear_10013_212" x1="-48.698" y1="-23.835" x2="433.805" y2="-60.665" gradientUnits="userSpaceOnUse"><stop stop-color="#000205"/><stop offset="1" stop-color="#000205"/></linearGradient></defs></svg>