<svg width="1232" height="577" viewBox="0 0 1232 577" fill="none" xmlns="http://www.w3.org/2000/svg">
<g clip-path="url(#clip0_10013_212)">
<mask id="path-1-inside-1_10013_212" fill="white">
<path d="M16 95.1786C16 77.9591 29.9591 64 47.1786 64H1089.82C1107.04 64 1121 77.9591 1121 95.1786V593H16V95.1786Z"/>
</mask>
<path d="M16 95.1786C16 77.9591 29.9591 64 47.1786 64H1089.82C1107.04 64 1121 77.9591 1121 95.1786V593H16V95.1786Z" fill="url(#paint0_linear_10013_212)"/>
<rect x="641.5" y="183.5" width="541" height="375" stroke="white"/>
<g clip-path="url(#clip1_10013_212)">
<path d="M845.774 327L818.505 363.678L839.224 391.489L827.595 400.356L794.711 356.423L751 415H911.408L845.774 327Z" fill="#F67ACB"/>
</g>
<path d="M158.378 116.245C154.57 116.245 152.006 113.81 152.006 110.779H155.14C155.166 112.178 156.487 113.448 158.456 113.448C160.269 113.448 161.435 112.334 161.435 110.935C161.435 109.691 160.373 108.966 158.87 108.552L156.642 107.93C152.809 106.946 152.135 104.64 152.135 103.086C152.135 99.9253 154.907 97.7752 158.197 97.7752C161.461 97.7752 164.025 99.7958 164.025 103.138H160.891C160.891 101.661 159.777 100.599 158.119 100.599C156.591 100.599 155.321 101.635 155.321 103.034C155.321 103.526 155.477 104.562 157.523 105.106L159.647 105.728C162.445 106.505 164.595 107.956 164.595 110.805C164.595 114.069 161.875 116.245 158.378 116.245Z" fill="white"/>
<path d="M170.589 103.837H173.153V106.22H170.589V115.935H167.584V106.22H165.408V103.837H167.584V99.3813H170.589V103.837Z" fill="white"/>
<path d="M181.15 103.526C181.875 103.526 182.653 103.682 183.119 103.941L182.523 106.79C181.824 106.427 181.202 106.35 180.762 106.35C178.793 106.35 177.705 108.319 177.705 111.712V115.935H174.674V103.837H177.679V106.427C178.326 104.407 179.648 103.526 181.15 103.526Z" fill="white"/>
<path d="M192.79 110.313V103.837H195.795V115.935H192.79V114.044C192.168 115.572 190.251 116.245 189.034 116.245C185.925 116.245 184.189 114.147 184.189 110.624V103.837H187.194V110.495C187.194 112.437 188.36 113.448 189.707 113.448C191.08 113.448 192.79 112.671 192.79 110.313Z" fill="white"/>
<path d="M204.397 116.245C200.9 116.245 197.817 113.707 197.817 109.873C197.817 106.039 200.9 103.526 204.397 103.526C206.495 103.526 208.205 104.459 209.319 105.858L207.195 107.541C206.573 106.79 205.537 106.324 204.449 106.324C202.351 106.324 200.848 107.826 200.848 109.873C200.848 111.893 202.351 113.448 204.449 113.448C205.537 113.448 206.573 112.981 207.195 112.23L209.319 113.914C208.205 115.313 206.495 116.245 204.397 116.245Z" fill="white"/>
<path d="M215.217 103.837H217.781V106.22H215.217V115.935H212.212V106.22H210.036V103.837H212.212V99.3813H215.217V103.837Z" fill="white"/>
<path d="M226.063 103.526C229.457 103.526 232.203 106.194 232.203 109.873C232.203 113.551 229.457 116.245 226.063 116.245C224.043 116.245 222.126 115.209 221.245 113.551V115.935H219.587V97.2571H221.245V106.194C222.152 104.536 224.017 103.526 226.063 103.526ZM225.934 114.665C228.498 114.665 230.571 112.541 230.571 109.847C230.571 107.179 228.498 105.106 225.934 105.106C223.525 105.106 221.245 106.997 221.245 109.925C221.245 112.722 223.421 114.665 225.934 114.665Z" fill="white"/>
<path d="M240.239 116.245C236.794 116.245 233.919 113.707 233.919 109.873C233.919 106.039 236.794 103.526 240.239 103.526C243.685 103.526 246.586 106.039 246.586 109.873C246.586 113.707 243.685 116.245 240.239 116.245ZM240.239 114.665C242.778 114.665 244.928 112.722 244.928 109.873C244.928 107.023 242.778 105.106 240.239 105.106C237.675 105.106 235.577 107.023 235.577 109.873C235.577 112.722 237.675 114.665 240.239 114.665Z" fill="white"/>
<path d="M254.59 116.245C251.145 116.245 248.269 113.707 248.269 109.873C248.269 106.039 251.145 103.526 254.59 103.526C258.036 103.526 260.937 106.039 260.937 109.873C260.937 113.707 258.036 116.245 254.59 116.245ZM254.59 114.665C257.129 114.665 259.279 112.722 259.279 109.873C259.279 107.023 257.129 105.106 254.59 105.106C252.026 105.106 249.927 107.023 249.927 109.873C249.927 112.722 252.026 114.665 254.59 114.665Z" fill="white"/>
<path d="M266.869 116.245C264.771 116.245 262.672 115.028 262.465 112.722H263.993C264.175 113.733 265.107 114.769 266.869 114.769C268.604 114.769 269.667 113.862 269.667 112.645C269.667 111.66 268.993 111.013 267.75 110.702L266.014 110.287C264.304 109.873 262.931 108.992 262.931 106.971C262.931 105.003 264.615 103.526 266.921 103.526C268.941 103.526 270.806 104.64 270.884 106.816H269.278C269.2 105.728 268.138 105.003 266.947 105.003C265.548 105.003 264.589 105.858 264.589 106.997C264.589 108.137 265.574 108.629 266.454 108.837L268.242 109.277C270.599 109.847 271.324 111.272 271.324 112.671C271.324 114.821 269.382 116.245 266.869 116.245Z" fill="white"/>
<path d="M276.239 103.837H279.011V105.262H276.239V115.935H274.607V105.262H272.405V103.837H274.607V99.3036H276.239V103.837Z" fill="white"/>
<path d="M141.016 98.5236H129.908C129.454 98.5236 129.357 98.5563 129.098 98.8175L120.291 107.045C120.032 107.306 120 107.404 120 107.861V112.694C120 115.436 121.36 116.807 124.08 116.807H135.188C135.641 116.807 135.738 116.775 135.997 116.514L144.805 108.286C145.063 108.025 145.095 107.927 145.095 107.47V102.638C145.095 99.895 143.736 98.5236 141.016 98.5236Z" fill="#F67ACB"/>
<rect x="1069.32" y="89.4625" width="101.846" height="34.7464" stroke="#F67ACB" stroke-width="1.03929"/>
<path d="M1103.77 105.061H1102.49C1102.42 104.692 1102.28 104.368 1102.09 104.089C1101.91 103.81 1101.68 103.576 1101.41 103.387C1101.15 103.194 1100.85 103.049 1100.53 102.953C1100.2 102.856 1099.87 102.808 1099.52 102.808C1098.87 102.808 1098.29 102.97 1097.77 103.294C1097.26 103.617 1096.85 104.094 1096.54 104.725C1096.24 105.355 1096.08 106.129 1096.08 107.045C1096.08 107.961 1096.24 108.734 1096.54 109.365C1096.85 109.995 1097.26 110.472 1097.77 110.796C1098.29 111.12 1098.87 111.282 1099.52 111.282C1099.87 111.282 1100.2 111.233 1100.53 111.137C1100.85 111.041 1101.15 110.898 1101.41 110.708C1101.68 110.515 1101.91 110.279 1102.09 110C1102.28 109.718 1102.42 109.394 1102.49 109.029H1103.77C1103.68 109.57 1103.5 110.054 1103.25 110.481C1102.99 110.908 1102.67 111.271 1102.29 111.571C1101.92 111.867 1101.49 112.093 1101.02 112.248C1100.55 112.403 1100.05 112.48 1099.52 112.48C1098.61 112.48 1097.81 112.26 1097.11 111.819C1096.4 111.378 1095.85 110.751 1095.45 109.938C1095.05 109.125 1094.84 108.161 1094.84 107.045C1094.84 105.929 1095.05 104.964 1095.45 104.151C1095.85 103.338 1096.4 102.711 1097.11 102.271C1097.81 101.83 1098.61 101.609 1099.52 101.609C1100.05 101.609 1100.55 101.687 1101.02 101.842C1101.49 101.997 1101.92 102.224 1102.29 102.524C1102.67 102.82 1102.99 103.182 1103.25 103.609C1103.5 104.032 1103.68 104.516 1103.77 105.061ZM1108.47 112.501C1107.75 112.501 1107.12 112.331 1106.58 111.99C1106.04 111.648 1105.62 111.171 1105.32 110.558C1105.02 109.945 1104.87 109.229 1104.87 108.409C1104.87 107.582 1105.02 106.86 1105.32 106.244C1105.62 105.627 1106.04 105.149 1106.58 104.808C1107.12 104.466 1107.75 104.296 1108.47 104.296C1109.18 104.296 1109.81 104.466 1110.35 104.808C1110.89 105.149 1111.31 105.627 1111.61 106.244C1111.91 106.86 1112.06 107.582 1112.06 108.409C1112.06 109.229 1111.91 109.945 1111.61 110.558C1111.31 111.171 1110.89 111.648 1110.35 111.99C1109.81 112.331 1109.18 112.501 1108.47 112.501ZM1108.47 111.406C1109.01 111.406 1109.46 111.266 1109.81 110.987C1110.16 110.708 1110.42 110.341 1110.59 109.887C1110.76 109.432 1110.84 108.939 1110.84 108.409C1110.84 107.878 1110.76 107.384 1110.59 106.926C1110.42 106.468 1110.16 106.098 1109.81 105.815C1109.46 105.533 1109.01 105.391 1108.47 105.391C1107.92 105.391 1107.47 105.533 1107.12 105.815C1106.77 106.098 1106.51 106.468 1106.34 106.926C1106.17 107.384 1106.09 107.878 1106.09 108.409C1106.09 108.939 1106.17 109.432 1106.34 109.887C1106.51 110.341 1106.77 110.708 1107.12 110.987C1107.47 111.266 1107.92 111.406 1108.47 111.406ZM1114.71 107.561V112.336H1113.49V104.399H1114.66V105.639H1114.77C1114.95 105.236 1115.24 104.913 1115.62 104.668C1115.99 104.42 1116.48 104.296 1117.08 104.296C1117.62 104.296 1118.09 104.406 1118.49 104.627C1118.9 104.844 1119.21 105.174 1119.43 105.619C1119.66 106.06 1119.77 106.618 1119.77 107.293V112.336H1118.55V107.375C1118.55 106.752 1118.39 106.266 1118.06 105.918C1117.74 105.567 1117.3 105.391 1116.73 105.391C1116.34 105.391 1115.99 105.476 1115.69 105.645C1115.38 105.813 1115.15 106.06 1114.97 106.383C1114.79 106.707 1114.71 107.1 1114.71 107.561ZM1125.01 104.399V105.433H1120.9V104.399H1125.01ZM1122.1 102.498H1123.32V110.062C1123.32 110.407 1123.37 110.665 1123.47 110.837C1123.57 111.006 1123.7 111.12 1123.86 111.178C1124.02 111.233 1124.19 111.261 1124.37 111.261C1124.51 111.261 1124.62 111.254 1124.7 111.24C1124.79 111.223 1124.86 111.209 1124.91 111.199L1125.16 112.294C1125.07 112.325 1124.96 112.356 1124.81 112.387C1124.66 112.422 1124.48 112.439 1124.25 112.439C1123.9 112.439 1123.57 112.365 1123.24 112.217C1122.91 112.069 1122.64 111.843 1122.42 111.54C1122.21 111.237 1122.1 110.855 1122.1 110.393V102.498ZM1128.75 112.522C1128.24 112.522 1127.79 112.427 1127.38 112.238C1126.97 112.045 1126.64 111.767 1126.4 111.406C1126.16 111.041 1126.04 110.6 1126.04 110.083C1126.04 109.628 1126.13 109.26 1126.31 108.977C1126.49 108.691 1126.73 108.467 1127.03 108.306C1127.33 108.144 1127.66 108.023 1128.02 107.944C1128.38 107.861 1128.75 107.796 1129.12 107.747C1129.6 107.685 1129.99 107.639 1130.29 107.608C1130.59 107.574 1130.81 107.517 1130.95 107.437C1131.09 107.358 1131.16 107.22 1131.16 107.024V106.983C1131.16 106.473 1131.02 106.077 1130.75 105.794C1130.47 105.512 1130.05 105.371 1129.49 105.371C1128.91 105.371 1128.45 105.498 1128.12 105.753C1127.79 106.008 1127.56 106.28 1127.42 106.569L1126.27 106.156C1126.47 105.674 1126.75 105.298 1127.09 105.03C1127.44 104.758 1127.82 104.568 1128.23 104.461C1128.64 104.351 1129.05 104.296 1129.45 104.296C1129.7 104.296 1130 104.327 1130.33 104.389C1130.66 104.448 1130.98 104.57 1131.29 104.756C1131.61 104.942 1131.87 105.223 1132.07 105.598C1132.28 105.974 1132.38 106.476 1132.38 107.107V112.336H1131.16V111.261H1131.1C1131.02 111.433 1130.88 111.617 1130.69 111.814C1130.5 112.01 1130.24 112.177 1129.92 112.315C1129.6 112.453 1129.21 112.522 1128.75 112.522ZM1128.93 111.426C1129.41 111.426 1129.82 111.332 1130.15 111.142C1130.49 110.953 1130.74 110.708 1130.91 110.408C1131.08 110.109 1131.16 109.794 1131.16 109.463V108.347C1131.11 108.409 1131 108.466 1130.82 108.517C1130.65 108.566 1130.45 108.609 1130.22 108.647C1130 108.681 1129.78 108.712 1129.57 108.74C1129.36 108.764 1129.19 108.784 1129.06 108.802C1128.74 108.843 1128.44 108.91 1128.17 109.003C1127.9 109.093 1127.67 109.229 1127.51 109.411C1127.34 109.59 1127.26 109.835 1127.26 110.145C1127.26 110.569 1127.41 110.889 1127.73 111.106C1128.05 111.32 1128.45 111.426 1128.93 111.426ZM1137.62 104.399V105.433H1133.51V104.399H1137.62ZM1134.71 102.498H1135.93V110.062C1135.93 110.407 1135.98 110.665 1136.08 110.837C1136.18 111.006 1136.31 111.12 1136.47 111.178C1136.63 111.233 1136.8 111.261 1136.98 111.261C1137.12 111.261 1137.23 111.254 1137.31 111.24C1137.4 111.223 1137.47 111.209 1137.52 111.199L1137.77 112.294C1137.69 112.325 1137.57 112.356 1137.42 112.387C1137.27 112.422 1137.09 112.439 1136.86 112.439C1136.51 112.439 1136.18 112.365 1135.85 112.217C1135.52 112.069 1135.25 111.843 1135.03 111.54C1134.82 111.237 1134.71 110.855 1134.71 110.393V102.498ZM1142.16 112.501C1141.44 112.501 1140.82 112.331 1140.27 111.99C1139.74 111.648 1139.32 111.171 1139.01 110.558C1138.71 109.945 1138.56 109.229 1138.56 108.409C1138.56 107.582 1138.71 106.86 1139.01 106.244C1139.32 105.627 1139.74 105.149 1140.27 104.808C1140.82 104.466 1141.44 104.296 1142.16 104.296C1142.88 104.296 1143.5 104.466 1144.04 104.808C1144.58 105.149 1145 105.627 1145.3 106.244C1145.61 106.86 1145.76 107.582 1145.76 108.409C1145.76 109.229 1145.61 109.945 1145.3 110.558C1145 111.171 1144.58 111.648 1144.04 111.99C1143.5 112.331 1142.88 112.501 1142.16 112.501ZM1142.16 111.406C1142.71 111.406 1143.15 111.266 1143.5 110.987C1143.86 110.708 1144.12 110.341 1144.28 109.887C1144.45 109.432 1144.54 108.939 1144.54 108.409C1144.54 107.878 1144.45 107.384 1144.28 106.926C1144.12 106.468 1143.86 106.098 1143.5 105.815C1143.15 105.533 1142.71 105.391 1142.16 105.391C1141.62 105.391 1141.17 105.533 1140.82 105.815C1140.47 106.098 1140.21 106.468 1140.04 106.926C1139.87 107.384 1139.78 107.878 1139.78 108.409C1139.78 108.939 1139.87 109.432 1140.04 109.887C1140.21 110.341 1140.47 110.708 1140.82 110.987C1141.17 111.266 1141.62 111.406 1142.16 111.406Z" fill="#F67ACB"/>
<rect x="395.339" y="105.571" width="49.8857" height="2.07857" fill="white"/>
<rect x="486.796" y="105.571" width="49.8857" height="2.07857" fill="white"/>
<rect x="578.254" y="105.571" width="49.8857" height="2.07857" fill="white"/>
<path d="M640.611 104.532L644.768 108.689L648.925 104.532" stroke="#F67ACB" stroke-width="1.55893" stroke-linecap="round" stroke-linejoin="round"/>
<rect x="698.811" y="105.571" width="49.8857" height="2.07857" fill="white"/>
<path d="M761.168 104.532L765.325 108.689L769.482 104.532" stroke="#F67ACB" stroke-width="1.55893" stroke-linecap="round" stroke-linejoin="round"/>
<rect x="819.368" y="105.571" width="49.8857" height="2.07857" fill="white"/>
<path d="M881.725 104.532L885.882 108.689L890.04 104.532" stroke="#F67ACB" stroke-width="1.55893" stroke-linecap="round" stroke-linejoin="round"/>
<rect x="939.925" y="105.571" width="49.8857" height="2.07857" fill="white"/>
<path d="M526.532 319.997C526.373 319.99 526.243 319.897 526.145 319.719C526.069 319.635 526.021 319.52 526.001 319.372C525.994 319.238 526.052 318.994 526.175 318.639C526.299 318.271 526.505 317.713 526.793 316.966C526.95 316.466 527.073 316.105 527.164 315.882C527.255 315.646 527.303 315.475 527.308 315.368C527.315 315.222 527.333 315.102 527.364 315.01C527.409 314.906 527.434 314.807 527.438 314.714C527.518 314.717 527.602 314.648 527.688 314.505C527.775 314.362 527.851 314.165 527.916 313.915C527.98 313.691 528.035 313.513 528.081 313.382C528.141 313.238 528.172 313.139 528.175 313.086C528.246 312.982 528.32 312.819 528.398 312.596C528.488 312.373 528.62 312.106 528.795 311.793C528.92 311.399 529.059 310.991 529.212 310.571C529.366 310.138 529.518 309.738 529.668 309.371C529.833 308.992 529.967 308.698 530.07 308.489C530.235 308.083 530.362 307.802 530.449 307.646C530.537 307.476 530.542 307.363 530.465 307.306C530.375 307.235 530.36 307.121 530.421 306.963C530.482 306.806 530.636 306.633 530.885 306.444C531.04 306.278 531.172 306.164 531.282 306.102C531.392 306.027 531.527 305.994 531.687 306.001C531.86 306.009 532.106 306.034 532.424 306.075C532.663 306.1 532.916 306.118 533.182 306.131C533.462 306.144 533.635 306.152 533.702 306.155C533.819 306.214 533.963 306.28 534.133 306.355C534.304 306.416 534.454 306.477 534.585 306.536C534.729 306.596 534.8 306.646 534.798 306.686C534.795 306.766 534.819 306.821 534.871 306.85C534.937 306.866 535.003 306.882 535.069 306.899C535.162 306.903 535.285 306.982 535.438 307.136C535.592 307.277 535.75 307.458 535.914 307.679C536.077 307.887 536.201 308.106 536.283 308.337C536.379 308.568 536.45 308.785 536.494 308.987C536.551 309.19 536.538 309.476 536.454 309.846C536.431 310.045 536.388 310.244 536.326 310.441C536.277 310.639 536.224 310.77 536.168 310.834C536.085 310.884 536.009 310.947 535.939 311.024C535.868 311.1 535.832 311.172 535.828 311.239C535.826 311.292 535.774 311.396 535.674 311.552C535.574 311.694 535.446 311.862 535.29 312.055C535.134 312.248 534.965 312.44 534.783 312.632C534.6 312.824 534.426 312.989 534.259 313.128C534.076 313.333 533.86 313.523 533.612 313.699C533.377 313.875 533.163 314.018 532.971 314.129C532.618 314.273 532.224 314.415 531.79 314.555C531.37 314.696 530.964 314.81 530.573 314.899C530.195 314.988 529.88 315.02 529.628 314.995C529.239 315.031 528.983 315.072 528.861 315.12C528.753 315.155 528.667 315.264 528.605 315.448C528.531 315.618 528.456 315.795 528.381 315.979C528.319 316.149 528.287 316.268 528.284 316.334C528.255 316.387 528.181 316.55 528.061 316.825C527.955 317.087 527.834 317.395 527.698 317.749C527.575 318.103 527.452 318.452 527.329 318.793C527.206 319.134 527.113 319.417 527.049 319.641C526.987 319.825 526.916 319.928 526.835 319.951C526.753 319.987 526.652 320.003 526.532 319.997ZM529.297 313.919C529.348 313.975 529.554 313.991 529.916 313.968C530.277 313.944 530.668 313.862 531.088 313.722C531.359 313.641 531.631 313.54 531.903 313.419C532.189 313.299 532.462 313.165 532.723 313.017C532.86 312.93 533.068 312.772 533.345 312.545C533.623 312.318 533.902 312.044 534.184 311.723C534.227 311.658 534.3 311.535 534.402 311.353C534.517 311.158 534.619 310.976 534.707 310.806C534.836 310.625 534.968 310.358 535.105 310.004C535.242 309.637 535.283 309.331 535.227 309.089C535.177 308.739 535.019 308.412 534.753 308.106C534.487 307.786 534.164 307.564 533.782 307.44C533.492 307.373 533.247 307.335 533.047 307.326C532.86 307.317 532.653 307.327 532.425 307.357C532.209 307.414 532.044 307.499 531.932 307.614C531.833 307.73 531.695 307.977 531.517 308.356C531.416 308.538 531.269 308.818 531.078 309.196C530.888 309.561 530.725 309.907 530.589 310.235C530.309 311.103 530.035 311.817 529.769 312.379C529.517 312.928 529.36 313.274 529.3 313.418C529.307 313.566 529.295 313.672 529.266 313.737C529.236 313.789 529.247 313.85 529.297 313.919ZM536.056 318.777C535.941 318.679 535.859 318.581 535.81 318.486C535.774 318.391 535.782 318.211 535.835 317.946C535.892 317.575 535.96 317.251 536.04 316.975C536.12 316.685 536.216 316.356 536.326 315.987C536.36 315.828 536.446 315.559 536.584 315.178C536.735 314.798 536.914 314.386 537.122 313.942C537.329 313.497 537.536 313.08 537.741 312.689C537.946 312.285 538.12 311.986 538.263 311.792C538.373 311.717 538.501 311.69 538.647 311.71C538.806 311.731 538.937 311.797 539.038 311.908C539.179 312.035 539.189 312.249 539.068 312.55C538.962 312.839 538.74 313.296 538.404 313.921C538.228 314.273 538.095 314.541 538.007 314.724C537.919 314.893 537.88 314.998 537.892 315.039C537.904 315.066 537.965 315.049 538.074 314.987C538.161 314.844 538.315 314.684 538.537 314.508C538.759 314.318 538.995 314.135 539.243 313.96C539.492 313.785 539.726 313.629 539.946 313.492C540.166 313.355 540.316 313.269 540.398 313.233C540.508 313.171 540.63 313.123 540.765 313.09C540.914 313.043 541.016 313.008 541.07 312.984C541.384 312.851 541.699 312.813 542.017 312.867C542.335 312.922 542.529 313.051 542.6 313.255C542.608 313.362 542.644 313.444 542.708 313.5C542.786 313.557 542.824 313.586 542.824 313.586C542.878 313.588 542.903 313.609 542.902 313.649C542.913 313.69 542.919 313.71 542.919 313.71C542.914 313.803 542.838 313.86 542.691 313.88C542.557 313.887 542.383 313.892 542.169 313.896C541.996 313.901 541.841 313.927 541.705 313.974C541.57 314.021 541.407 314.08 541.216 314.152C540.697 314.421 540.197 314.685 539.718 314.943C539.252 315.202 538.796 315.554 538.348 316.001C538.25 316.103 538.15 316.225 538.05 316.367C537.95 316.51 537.843 316.665 537.728 316.833C537.659 316.896 537.585 317.04 537.508 317.263C537.431 317.486 537.361 317.703 537.298 317.914C537.249 318.112 537.223 318.231 537.221 318.271C537.221 318.271 537.198 318.337 537.152 318.468C537.106 318.586 537.034 318.703 536.936 318.818C536.766 319.024 536.628 319.124 536.521 319.119C536.415 319.114 536.26 319 536.056 318.777ZM544.236 319.558C544.063 319.55 543.925 319.51 543.821 319.438C543.731 319.367 543.616 319.268 543.475 319.142C543.234 318.864 543.066 318.602 542.97 318.358C542.876 318.1 542.853 317.858 542.904 317.634C542.949 317.529 542.967 317.43 542.958 317.336C542.963 317.229 542.965 317.176 542.965 317.176C542.902 317.106 542.884 317.065 542.911 317.053C542.939 317.028 542.967 316.989 542.996 316.937C543.076 316.941 543.106 316.869 543.086 316.721C543.065 316.613 543.129 316.383 543.279 316.029C543.429 315.676 543.611 315.344 543.825 315.034C543.912 314.904 544.039 314.737 544.209 314.531C544.38 314.312 544.563 314.1 544.759 313.896C544.97 313.679 545.158 313.507 545.324 313.381C545.67 313.117 545.972 312.924 546.231 312.803C546.491 312.681 546.768 312.594 547.064 312.541C547.361 312.488 547.562 312.464 547.668 312.469C547.788 312.475 547.943 312.589 548.133 312.811C548.433 312.958 548.646 313.128 548.77 313.321C548.908 313.514 548.989 313.792 549.012 314.153C549.033 314.555 548.979 315.013 548.848 315.527C548.731 316.029 548.389 316.647 547.821 317.381C547.466 317.845 547.143 318.191 546.852 318.418C546.562 318.631 546.218 318.842 545.821 319.051C545.533 319.224 545.273 319.352 545.043 319.435C544.813 319.504 544.544 319.545 544.236 319.558ZM546.252 317.529C546.589 317.184 546.858 316.856 547.059 316.545C547.273 316.235 547.479 315.837 547.675 315.352C547.735 315.208 547.777 315.03 547.8 314.818C547.824 314.592 547.826 314.385 547.809 314.197C547.804 313.997 547.763 313.882 547.684 313.851C547.529 313.751 547.337 313.715 547.109 313.744C546.881 313.761 546.629 313.876 546.352 314.09C545.923 314.417 545.543 314.833 545.213 315.338C544.883 315.83 544.556 316.396 544.233 317.035C544.011 317.505 543.947 317.889 544.039 318.187C544.146 318.472 544.388 318.584 544.765 318.521C545.155 318.446 545.651 318.115 546.252 317.529ZM555.011 320.158C554.957 320.155 554.878 320.145 554.772 320.127C554.68 320.096 554.603 320.032 554.54 319.936C554.352 319.687 554.235 319.481 554.189 319.319C554.143 319.156 554.147 318.923 554.201 318.619C554.237 318.42 554.258 318.247 554.265 318.101C554.286 317.942 554.305 317.809 554.324 317.703C554.273 317.648 554.171 317.683 554.019 317.809C553.88 317.923 553.686 318.067 553.438 318.243C552.961 318.741 552.536 319.122 552.163 319.385C551.805 319.635 551.483 319.8 551.199 319.881C550.916 319.948 550.648 319.962 550.397 319.924C550.171 319.886 549.996 319.785 549.87 319.619C549.745 319.44 549.669 319.216 549.641 318.947C549.627 318.68 549.64 318.394 549.681 318.088C549.755 317.651 549.867 317.236 550.019 316.843C550.184 316.45 550.438 316.015 550.78 315.537C550.939 315.277 551.144 315.026 551.396 314.784C551.661 314.53 551.945 314.309 552.247 314.123C552.564 313.924 552.864 313.785 553.148 313.704C553.46 313.599 553.776 313.547 554.096 313.548C554.417 313.536 554.702 313.576 554.952 313.668C555.108 313.755 555.232 313.801 555.326 313.806C555.432 313.81 555.515 313.748 555.575 313.617C555.646 313.513 555.72 313.357 555.797 313.147C555.874 312.923 555.963 312.734 556.063 312.578L556.563 311.3C556.726 310.947 556.904 310.575 557.095 310.184C557.287 309.792 557.516 309.316 557.782 308.754C558.029 308.338 558.226 308.101 558.376 308.041C558.526 307.968 558.69 308.029 558.868 308.224C559.007 308.404 559.051 308.606 559 308.831C558.95 309.042 558.814 309.383 558.592 309.853C558.492 309.995 558.406 310.131 558.333 310.261C558.261 310.378 558.159 310.567 558.027 310.828C557.834 311.232 557.657 311.598 557.495 311.924C557.334 312.237 557.164 312.596 556.985 313.002C556.921 313.212 556.837 313.455 556.731 313.731C556.638 314.007 556.559 314.257 556.495 314.48C556.446 314.692 556.39 314.889 556.328 315.073C556.28 315.245 556.229 315.329 556.176 315.327C556.064 315.442 555.954 315.65 555.847 315.952C555.74 316.241 555.646 316.543 555.564 316.86C555.496 317.177 555.437 317.441 555.387 317.653C555.353 317.811 555.324 318.017 555.299 318.269C555.273 318.522 555.255 318.768 555.244 319.007C555.234 319.234 555.226 319.394 555.222 319.487C555.208 319.78 555.193 319.966 555.176 320.045C555.159 320.125 555.104 320.162 555.011 320.158ZM550.814 318.702C551.093 318.715 551.392 318.608 551.709 318.383C552.04 318.158 552.372 317.906 552.705 317.628C552.914 317.451 553.138 317.214 553.379 316.919C553.633 316.623 553.874 316.328 554.101 316.031C554.342 315.735 554.534 315.477 554.678 315.257C554.822 315.023 554.895 314.88 554.898 314.827C554.901 314.76 554.843 314.711 554.724 314.679C554.606 314.646 554.467 314.627 554.307 314.619C554.161 314.599 554.041 314.6 553.946 314.622C553.65 314.675 553.351 314.795 553.049 314.981C552.76 315.168 552.439 315.453 552.088 315.838C551.722 316.248 551.415 316.674 551.168 317.116C550.933 317.559 550.783 317.933 550.715 318.237C550.648 318.54 550.68 318.695 550.814 318.702ZM562.427 320.662C562.331 320.711 562.206 320.685 562.05 320.585C561.908 320.485 561.768 320.338 561.63 320.145C561.544 319.98 561.486 319.804 561.454 319.616C561.436 319.428 561.435 319.168 561.451 318.835C561.476 318.569 561.471 318.395 561.435 318.314C561.412 318.232 561.338 318.242 561.213 318.343C561.089 318.431 560.873 318.615 560.567 318.894C560.218 319.212 559.887 319.456 559.572 319.629C559.27 319.802 559.026 319.877 558.84 319.855C558.747 319.851 558.643 319.799 558.527 319.7C558.426 319.589 558.332 319.458 558.245 319.307C558.159 319.143 558.087 318.979 558.028 318.816C557.961 318.519 557.965 318.146 558.04 317.696C558.128 317.232 558.257 316.751 558.427 316.252C558.597 315.753 558.786 315.281 558.993 314.837C559.214 314.393 559.431 314.036 559.644 313.766C559.87 313.496 560.063 313.365 560.222 313.372C560.329 313.377 560.42 313.435 560.495 313.545C560.583 313.656 560.669 313.827 560.751 314.057C560.8 314.153 560.816 314.234 560.8 314.3C560.797 314.366 560.74 314.444 560.629 314.532C560.502 314.686 560.351 314.92 560.176 315.232C560.015 315.545 559.852 315.884 559.688 316.25C559.538 316.617 559.401 316.971 559.279 317.313C559.156 317.654 559.07 317.937 559.019 318.161C558.969 318.373 558.971 318.48 559.024 318.482C559.211 318.491 559.434 318.428 559.694 318.293C559.968 318.145 560.23 317.964 560.48 317.749C560.772 317.482 561.033 317.187 561.262 316.864C561.504 316.542 561.746 316.199 561.99 315.837C562.176 315.578 562.369 315.294 562.57 314.983C562.785 314.672 562.922 314.452 562.981 314.321C563.184 313.983 563.335 313.757 563.433 313.641C563.533 313.512 563.65 313.431 563.785 313.397C563.852 313.4 563.912 313.403 563.965 313.406C564.032 313.409 564.065 313.41 564.065 313.41C564.144 313.427 564.235 313.492 564.336 313.603C564.44 313.661 564.498 313.717 564.509 313.771C564.52 313.812 564.524 313.865 564.521 313.932C564.462 314.063 564.366 314.258 564.234 314.519C564.115 314.767 564.027 314.95 563.968 315.068C563.688 315.629 563.409 316.183 563.13 316.731C562.865 317.265 562.666 317.817 562.533 318.385C562.497 318.57 562.48 318.789 562.482 319.043C562.497 319.284 562.529 319.459 562.578 319.568C562.614 319.65 562.656 319.745 562.705 319.854C562.767 319.95 562.836 320.034 562.913 320.104C563.029 320.19 563.045 320.277 562.961 320.367C562.89 320.457 562.793 320.532 562.67 320.593C562.548 320.641 562.467 320.664 562.427 320.662ZM568.025 320.441C567.849 320.513 567.647 320.537 567.421 320.514C567.196 320.49 566.893 320.402 566.513 320.251C566.486 320.25 566.427 320.22 566.337 320.163C566.259 320.106 566.176 320.035 566.086 319.951C566.01 319.854 565.949 319.751 565.9 319.642C565.701 319.326 565.636 318.869 565.704 318.271C565.771 317.674 565.991 316.963 566.363 316.14C566.466 315.944 566.617 315.698 566.818 315.4C567.032 315.103 567.238 314.832 567.436 314.588C567.648 314.331 567.795 314.184 567.877 314.148C567.877 314.148 567.952 314.125 568.101 314.078C568.25 314.032 568.44 313.954 568.672 313.844C568.74 313.821 568.814 313.798 568.895 313.775C568.99 313.752 569.084 313.737 569.178 313.728C569.272 313.719 569.352 313.722 569.418 313.739C569.683 313.764 569.952 313.877 570.223 314.077C570.508 314.263 570.738 314.481 570.913 314.729C571.089 314.964 571.14 315.167 571.065 315.337C571.064 315.364 571.022 315.415 570.938 315.491C570.868 315.555 570.785 315.624 570.688 315.7C570.605 315.763 570.535 315.826 570.479 315.89C570.409 315.967 570.314 315.996 570.195 315.977C570.089 315.959 569.991 315.901 569.902 315.804C569.828 315.693 569.787 315.558 569.781 315.397C569.759 315.29 569.664 315.185 569.495 315.084C569.34 314.983 569.262 314.933 569.262 314.933C569.156 314.928 568.998 315.021 568.789 315.211C568.594 315.389 568.397 315.607 568.198 315.865C567.947 316.093 567.727 316.37 567.539 316.695C567.351 317.006 567.197 317.306 567.076 317.594C566.97 317.87 566.894 318.066 566.849 318.184C566.789 318.315 566.774 318.501 566.803 318.743C566.832 318.985 566.872 319.133 566.922 319.189C566.974 319.218 567.107 319.231 567.321 319.228C567.548 319.225 567.816 319.21 568.124 319.185C568.433 319.146 568.735 319.1 569.031 319.047C569.327 318.994 569.57 318.931 569.761 318.86C570.021 318.712 570.245 318.629 570.433 318.611C570.621 318.593 570.76 318.6 570.852 318.631C570.996 318.691 571.08 318.768 571.102 318.862C571.124 318.957 571.086 319.062 570.987 319.177C570.889 319.28 570.724 319.385 570.492 319.495C570.274 319.591 570.075 319.702 569.896 319.828C569.731 319.94 569.646 320.03 569.643 320.096C569.59 320.094 569.529 320.111 569.461 320.148C569.406 320.172 569.359 320.176 569.32 320.161C569.293 320.16 569.186 320.175 568.997 320.206C568.809 320.238 568.614 320.275 568.412 320.319C568.223 320.364 568.094 320.405 568.025 320.441ZM574.162 321.107C574.017 321.073 573.867 320.993 573.713 320.866C573.572 320.726 573.446 320.573 573.334 320.408C573.235 320.229 573.169 320.073 573.135 319.938C573.136 319.911 573.118 319.877 573.08 319.835C573.055 319.794 573.043 319.773 573.043 319.773C572.991 319.731 572.966 319.556 572.967 319.249C572.982 318.93 573.018 318.578 573.076 318.193C573.134 317.809 573.195 317.505 573.259 317.281C573.335 317.071 573.448 316.789 573.598 316.436C573.749 316.069 573.877 315.741 573.984 315.452L574.577 314.319L573.788 314.062C573.696 314.031 573.619 313.974 573.556 313.891C573.506 313.808 573.483 313.741 573.485 313.687C573.49 313.581 573.556 313.457 573.683 313.316C573.81 313.162 573.9 313.086 573.954 313.088C574.02 313.105 574.139 313.117 574.312 313.125C574.499 313.134 574.679 313.135 574.853 313.13C575.026 313.125 575.134 313.116 575.174 313.105C575.229 313.081 575.284 313.05 575.339 313.013C575.394 312.962 575.438 312.89 575.469 312.798C575.542 312.655 575.608 312.525 575.667 312.407C575.727 312.276 575.807 312.133 575.907 311.978C576.009 311.809 576.089 311.666 576.147 311.548C576.22 311.432 576.327 311.27 576.47 311.063C576.541 310.973 576.62 310.863 576.706 310.733C576.792 310.604 576.897 310.495 577.021 310.408C577.146 310.307 577.268 310.266 577.387 310.285C577.521 310.291 577.683 310.385 577.875 310.568C577.975 310.706 578.03 310.808 578.041 310.876C578.051 310.943 577.992 311.067 577.863 311.248C577.746 311.469 577.609 311.69 577.452 311.909C577.308 312.13 577.171 312.35 577.041 312.571C576.814 312.854 576.767 313.019 576.898 313.065C577.029 313.111 577.403 313.102 578.02 313.037C578.41 312.988 578.689 313.021 578.857 313.136C579.026 313.237 579.118 313.402 579.134 313.629C579.159 313.951 579.117 314.142 579.007 314.204C578.898 314.266 578.59 314.285 578.084 314.261C577.762 314.3 577.487 314.32 577.26 314.323C577.034 314.313 576.867 314.305 576.761 314.3C576.587 314.305 576.473 314.307 576.42 314.304C576.367 314.302 576.286 314.311 576.178 314.333C576.071 314.355 575.988 314.398 575.932 314.462C575.89 314.513 575.839 314.591 575.781 314.695C575.725 314.746 575.639 314.882 575.522 315.103C575.405 315.325 575.26 315.565 575.088 315.824C574.876 316.375 574.69 316.927 574.531 317.48C574.372 318.02 574.241 318.548 574.137 319.063C574.068 319.394 574.064 319.627 574.124 319.764C574.185 319.886 574.355 319.968 574.634 320.007C574.779 320.028 575.013 320.038 575.333 320.04C575.667 320.029 575.929 320.001 576.118 319.956C576.267 319.896 576.423 319.837 576.586 319.778C576.75 319.705 576.9 319.632 577.037 319.558C577.16 319.497 577.283 319.436 577.406 319.375C577.529 319.301 577.591 319.264 577.591 319.264C577.663 319.16 577.738 319.13 577.816 319.174C577.894 319.218 577.956 319.321 578.002 319.483C577.994 319.643 577.953 319.808 577.878 319.978C577.804 320.148 577.548 320.343 577.111 320.563C576.494 320.908 575.931 321.109 575.421 321.165C574.925 321.209 574.505 321.189 574.162 321.107ZM584.455 320.744C584.402 320.741 584.336 320.725 584.257 320.694C584.192 320.651 584.16 320.63 584.16 320.63C584.162 320.576 584.145 320.509 584.109 320.427C584.086 320.346 584.076 320.279 584.078 320.226C583.988 320.168 583.937 320.112 583.926 320.058C583.916 319.991 583.941 319.885 584.001 319.741C584.087 319.612 584.203 319.404 584.35 319.117C584.498 318.817 584.653 318.497 584.815 318.157C584.978 317.805 585.135 317.458 585.284 317.118C585.433 316.778 585.56 316.49 585.664 316.255C585.769 316.006 585.83 315.855 585.845 315.803C585.848 315.749 585.871 315.684 585.915 315.606C585.958 315.528 586.008 315.463 586.064 315.412C586.175 315.324 586.288 315.323 586.404 315.408C586.521 315.48 586.615 315.605 586.687 315.782C586.773 315.946 586.811 316.128 586.802 316.328C586.798 316.421 586.72 316.657 586.569 317.038C586.418 317.404 586.218 317.842 585.967 318.351C585.73 318.861 585.466 319.376 585.175 319.896C584.957 320.273 584.819 320.514 584.761 320.618C584.703 320.708 584.601 320.75 584.455 320.744ZM587.743 313.308C587.583 313.301 587.413 313.233 587.232 313.104C587.065 312.963 586.919 312.796 586.795 312.603C586.684 312.398 586.634 312.195 586.643 311.996C586.646 311.929 586.69 311.838 586.776 311.721C586.861 311.605 586.947 311.489 587.032 311.373C587.118 311.257 587.161 311.185 587.162 311.159C587.269 311.164 587.348 311.174 587.401 311.19C587.468 311.193 587.546 311.223 587.637 311.281C587.768 311.621 587.935 311.902 588.138 312.125C588.355 312.349 588.46 312.534 588.453 312.68C588.439 312.973 588.404 313.158 588.347 313.236C588.291 313.3 588.089 313.324 587.743 313.308ZM588.35 321.165C588.313 321.109 588.276 321.041 588.239 320.959C588.216 320.878 588.206 320.811 588.209 320.758C588.21 320.731 588.205 320.697 588.193 320.657C588.195 320.617 588.17 320.596 588.116 320.593C588.078 320.551 588.112 320.399 588.217 320.137C588.337 319.863 588.485 319.549 588.662 319.197C588.851 318.845 589.041 318.507 589.229 318.182C589.432 317.844 589.598 317.579 589.727 317.384C589.795 317.347 589.838 317.296 589.854 317.23C589.884 317.151 589.886 317.111 589.86 317.11C589.86 317.11 589.896 317.052 589.968 316.935C590.054 316.806 590.118 316.722 590.16 316.684C590.275 316.502 590.363 316.319 590.425 316.135C590.488 315.938 590.509 315.772 590.489 315.638C590.438 315.569 590.379 315.546 590.312 315.57C590.244 315.593 590.21 315.605 590.21 315.605C590.156 315.616 590.075 315.639 589.966 315.674C589.872 315.696 589.783 315.732 589.701 315.781C589.385 315.98 589.174 316.071 589.068 316.052C588.962 316.021 588.851 315.842 588.732 315.516C588.686 315.367 588.671 315.26 588.687 315.194C588.704 315.128 588.76 315.057 588.857 314.981C588.968 314.893 589.071 314.838 589.165 314.816C589.26 314.78 589.335 314.743 589.391 314.706C589.541 314.619 589.664 314.558 589.759 314.523C589.868 314.488 589.949 314.465 590.003 314.454C590.354 314.364 590.648 314.357 590.885 314.435C591.121 314.513 591.293 314.694 591.4 314.979C591.576 315.214 591.657 315.478 591.644 315.771C591.631 316.051 591.522 316.373 591.318 316.737L591.105 317.028C591.032 317.158 591.016 317.224 591.056 317.226C591.109 317.228 591.171 317.184 591.242 317.094C591.284 317.043 591.368 316.967 591.493 316.866C591.618 316.765 591.7 316.715 591.74 316.717C591.74 316.717 591.753 316.711 591.781 316.699C591.821 316.687 591.844 316.635 591.848 316.542C591.89 316.504 591.932 316.466 591.974 316.427C592.029 316.39 592.056 316.371 592.056 316.371C592.11 316.374 592.212 316.318 592.364 316.205C592.53 316.08 592.724 315.935 592.945 315.772C593.096 315.672 593.232 315.625 593.352 315.631C593.663 315.552 593.904 315.663 594.077 315.965C594.263 316.267 594.346 316.651 594.324 317.117L593.854 318.177L594.614 317.331C594.699 317.228 594.784 317.139 594.867 317.062C594.964 316.987 595.047 316.924 595.116 316.874C595.147 316.782 595.19 316.73 595.244 316.719C595.297 316.709 595.324 316.703 595.324 316.703C595.324 316.703 595.338 316.704 595.364 316.705C595.392 316.693 595.406 316.667 595.408 316.627C595.477 316.577 595.552 316.534 595.634 316.497C595.717 316.448 595.772 316.397 595.801 316.345C596.032 316.262 596.239 316.258 596.423 316.334C596.607 316.396 596.759 316.569 596.879 316.855C596.965 317.02 597.012 317.162 597.019 317.282C597.027 317.403 597.025 317.583 597.014 317.823C596.978 318.021 596.944 318.18 596.912 318.298C596.894 318.404 596.875 318.517 596.856 318.636C596.837 318.756 596.81 318.921 596.773 319.133C596.715 319.237 596.676 319.349 596.658 319.468C596.652 319.588 596.647 319.701 596.642 319.808C596.634 319.981 596.635 320.101 596.645 320.168C596.656 320.222 596.708 320.251 596.801 320.255C596.99 320.224 597.247 320.143 597.573 320.011C597.914 319.867 598.167 319.725 598.334 319.586C598.542 319.409 598.72 319.323 598.866 319.33C599.027 319.324 599.123 319.402 599.156 319.564C599.18 319.618 599.128 319.736 598.999 319.917C598.884 320.099 598.749 320.272 598.595 320.439C598.453 320.606 598.35 320.688 598.283 320.685C598.243 320.683 598.195 320.721 598.138 320.798C598.081 320.862 598.019 320.913 597.95 320.949C597.853 321.038 597.755 321.121 597.659 321.196C597.575 321.272 597.48 321.308 597.373 321.303C597.32 321.301 597.252 321.317 597.171 321.354C597.103 321.377 597.022 321.387 596.929 321.383C596.794 321.416 596.589 321.387 596.313 321.294C596.05 321.202 595.885 321.007 595.819 320.71C595.773 320.561 595.737 320.326 595.712 320.005C595.687 319.67 595.709 319.337 595.778 319.007C595.842 318.769 595.886 318.551 595.909 318.352C595.931 318.153 595.964 318.014 596.008 317.936C596.01 317.896 596.014 317.803 596.021 317.656C596.028 317.497 596.012 317.416 595.972 317.414C595.919 317.411 595.788 317.505 595.579 317.696C595.383 317.874 595.146 318.103 594.866 318.384C594.599 318.665 594.332 318.96 594.064 319.267C593.796 319.575 593.576 319.852 593.405 320.098C593.278 320.239 593.163 320.414 593.06 320.622C592.957 320.831 592.885 320.948 592.844 320.973C592.746 321.075 592.632 321.083 592.502 320.997C592.386 320.911 592.279 320.78 592.18 320.602C592.144 320.52 592.12 320.452 592.11 320.398C592.099 320.331 592.103 320.244 592.122 320.138C592.154 320.02 592.209 319.849 592.286 319.625C592.376 319.403 592.497 319.088 592.65 318.681C592.817 318.235 592.963 317.835 593.086 317.48C593.223 317.113 593.292 316.929 593.292 316.929C593.294 316.876 593.192 316.925 592.985 317.075C592.778 317.212 592.536 317.388 592.259 317.602C592.133 317.743 591.923 317.953 591.629 318.233C591.336 318.514 591.014 318.832 590.664 319.19C590.314 319.547 589.976 319.925 589.65 320.324C589.239 320.852 588.95 321.172 588.785 321.285C588.633 321.398 588.488 321.358 588.35 321.165ZM600.162 321.733C600.114 321.624 600.051 321.541 599.974 321.484C599.897 321.414 599.86 321.352 599.862 321.298C599.865 321.245 599.861 321.192 599.85 321.138C599.853 321.071 599.829 321.01 599.778 320.954C599.715 320.871 599.73 320.692 599.823 320.416C599.917 320.126 600.066 319.78 600.272 319.375C600.478 318.958 600.719 318.522 600.993 318.067C601.105 317.966 601.218 317.831 601.332 317.663C601.447 317.495 601.532 317.385 601.588 317.334C601.59 317.281 601.613 317.235 601.654 317.197C601.697 317.146 601.745 317.121 601.798 317.124L601.803 317.004C601.807 316.937 601.872 316.827 601.999 316.673C602.14 316.519 602.308 316.353 602.503 316.175C602.698 315.984 602.9 315.807 603.108 315.643C603.316 315.466 603.489 315.34 603.626 315.266C603.914 315.093 604.206 314.993 604.501 314.967C604.809 314.941 605.066 315.02 605.271 315.203C605.309 315.244 605.372 315.314 605.461 315.412C605.55 315.509 605.652 315.621 605.766 315.746C605.894 315.859 606.022 315.978 606.15 316.104L606.858 316.798L606.452 317.78C606.255 318.305 606.186 318.769 606.248 319.172C606.322 319.576 606.44 319.929 606.599 320.23C606.659 320.379 606.786 320.525 606.979 320.668C607.186 320.811 607.382 320.9 607.567 320.935C607.673 320.954 607.771 320.998 607.862 321.069C607.952 321.14 607.993 321.249 607.987 321.395C607.98 321.528 607.949 321.634 607.892 321.711C607.835 321.789 607.739 321.838 607.605 321.858C607.163 321.891 606.755 321.765 606.381 321.481C606.02 321.197 605.694 320.742 605.403 320.114C605.354 320.032 605.287 319.882 605.204 319.664C605.134 319.434 605.095 319.286 605.084 319.218C605.028 319.282 604.922 319.404 604.767 319.584C604.612 319.75 604.493 319.872 604.41 319.948C603.42 320.863 602.571 321.471 601.862 321.772C601.168 322.06 600.602 322.047 600.162 321.733ZM600.934 320.647C600.929 320.741 601.069 320.747 601.353 320.667C601.651 320.574 601.973 320.402 602.318 320.151C602.789 319.786 603.262 319.381 603.736 318.936C604.224 318.491 604.617 318.075 604.915 317.689L605.388 316.99C605.269 316.678 605.132 316.464 604.977 316.35C604.836 316.224 604.712 316.158 604.606 316.153C604.433 316.145 604.166 316.293 603.805 316.596C603.457 316.9 603.077 317.31 602.666 317.825C602.255 318.34 601.862 318.909 601.486 319.532C601.34 319.792 601.208 320.046 601.09 320.294C600.986 320.53 600.934 320.647 600.934 320.647ZM610.991 326.78C610.733 326.875 610.451 326.895 610.147 326.841C609.855 326.801 609.566 326.701 609.28 326.541C609.007 326.381 608.762 326.19 608.546 325.966C608.457 325.869 608.364 325.717 608.266 325.513C608.182 325.322 608.117 325.139 608.072 324.963C608.04 324.788 608.051 324.688 608.106 324.664C608.161 324.627 608.235 324.617 608.327 324.635C608.42 324.652 608.505 324.676 608.584 324.707C608.675 324.751 608.72 324.8 608.717 324.853C608.794 324.923 608.93 325.03 609.123 325.172C609.316 325.328 609.465 325.421 609.571 325.453C609.846 325.559 610.051 325.609 610.184 325.602C610.318 325.595 610.44 325.553 610.55 325.479C610.772 325.302 610.949 325.083 611.081 324.822C611.214 324.562 611.357 324.201 611.512 323.741L611.584 323.484C611.713 322.996 611.858 322.476 612.017 321.923C612.176 321.369 612.31 320.935 612.418 320.62C612.499 320.317 612.528 320.111 612.506 320.003C612.498 319.896 612.437 319.913 612.324 320.055C612.27 320.066 612.195 320.089 612.1 320.125C612.019 320.161 611.923 320.203 611.814 320.251C611.651 320.324 611.487 320.396 611.324 320.469C611.161 320.528 611.025 320.569 610.917 320.59C610.811 320.585 610.711 320.587 610.617 320.596C610.524 320.592 610.477 320.59 610.477 320.59C610.367 320.652 610.175 320.636 609.899 320.543C609.637 320.437 609.403 320.293 609.198 320.11C609.085 319.945 609.004 319.821 608.955 319.738C608.906 319.643 608.877 319.548 608.868 319.454C608.86 319.347 608.86 319.187 608.87 318.974C608.867 318.76 608.981 318.458 609.213 318.069C609.458 317.666 609.749 317.293 610.085 316.948C610.35 316.706 610.689 316.462 611.101 316.214C611.512 315.966 611.922 315.765 612.33 315.61C612.751 315.456 613.094 315.392 613.36 315.418C613.492 315.437 613.618 315.463 613.737 315.496C613.856 315.514 613.986 315.581 614.128 315.694C614.31 315.796 614.439 315.902 614.514 316.012C614.589 316.122 614.686 316.334 614.805 316.646C614.875 316.863 614.925 317.079 614.955 317.294C614.985 317.496 614.996 317.69 614.988 317.876C614.978 318.076 614.943 318.254 614.883 318.412C614.822 318.569 614.743 318.692 614.645 318.781C614.619 318.78 614.585 318.785 614.545 318.797C614.518 318.795 614.491 318.801 614.464 318.813C614.383 318.836 614.315 318.846 614.262 318.843C614.222 318.842 614.173 318.886 614.116 318.977C614.059 319.054 614.014 319.159 613.981 319.291C613.964 319.37 613.94 319.449 613.91 319.528C613.893 319.607 613.87 319.68 613.84 319.745C613.81 319.81 613.781 319.869 613.752 319.921C613.736 319.96 613.728 319.993 613.727 320.02C613.725 320.06 613.717 320.093 613.702 320.119C613.688 320.145 613.666 320.177 613.638 320.216C613.595 320.281 613.551 320.365 613.506 320.47C613.475 320.562 613.457 320.661 613.452 320.768L613.362 320.984C613.316 321.115 613.27 321.233 613.225 321.338C613.194 321.443 613.177 321.509 613.176 321.536L613.078 321.932C613.047 322.024 613.009 322.109 612.966 322.187C612.936 322.252 612.904 322.358 612.871 322.503C612.838 322.635 612.795 322.853 612.74 323.158C612.421 324.291 612.115 325.137 611.822 325.698C611.528 326.271 611.251 326.632 610.991 326.78ZM609.949 319.464C610.289 319.613 610.648 319.643 611.026 319.554C611.403 319.465 611.841 319.245 612.338 318.894C612.654 318.682 612.92 318.434 613.133 318.15C613.36 317.854 613.528 317.548 613.636 317.233C613.712 317.036 613.738 316.897 613.715 316.816C613.693 316.721 613.609 316.664 613.463 316.644C613.239 316.58 612.951 316.607 612.599 316.724C612.247 316.828 611.886 316.985 611.516 317.194C611.445 317.284 611.361 317.367 611.264 317.443C611.167 317.519 611.077 317.581 610.995 317.631C610.926 317.668 610.892 317.686 610.892 317.686C610.878 317.712 610.856 317.744 610.828 317.783C610.812 317.822 610.778 317.854 610.723 317.878C610.584 317.992 610.443 318.166 610.298 318.399C610.154 318.633 610.044 318.855 609.967 319.065C609.904 319.275 609.898 319.408 609.949 319.464ZM617.727 323.329C617.141 323.302 616.672 323.06 616.319 322.603C615.967 322.133 615.814 321.565 615.858 320.9C615.907 320.421 616.024 319.913 616.209 319.374C616.408 318.823 616.659 318.301 616.962 317.808C617.266 317.301 617.594 316.862 617.944 316.492C618.295 316.121 618.654 315.864 619.021 315.721C619.158 315.66 619.3 315.614 619.448 315.58C619.61 315.548 619.771 315.535 619.931 315.543C620.077 315.55 620.229 315.583 620.386 315.644C620.544 315.691 620.675 315.744 620.779 315.802C621.002 315.906 621.169 316.027 621.283 316.166C621.397 316.305 621.494 316.516 621.574 316.8C621.602 317.055 621.614 317.236 621.609 317.342C621.604 317.449 621.563 317.607 621.487 317.817C621.305 318.289 621.079 318.693 620.81 319.027C620.541 319.362 620.188 319.639 619.75 319.859C619.641 319.921 619.512 319.968 619.363 320.001C619.229 320.022 619.088 320.029 618.942 320.022C618.675 320.009 618.418 319.951 618.169 319.846C617.934 319.728 617.748 319.566 617.611 319.359L617.479 319.193L617.411 319.35C617.261 319.703 617.139 320.031 617.045 320.334C616.964 320.637 616.918 320.916 616.906 321.169C616.899 321.328 616.905 321.482 616.925 321.63C616.958 321.778 617.006 321.907 617.067 322.017C617.117 322.099 617.201 322.163 617.319 322.209C617.451 322.242 617.59 322.261 617.736 322.268C617.83 322.273 617.923 322.277 618.016 322.281C618.123 322.273 618.224 322.251 618.319 322.215C618.55 322.146 618.733 322.068 618.871 321.981C619.022 321.894 619.173 321.801 619.324 321.701L619.406 321.665L619.386 321.664C619.55 321.592 619.693 321.518 619.817 321.444C619.954 321.37 620.022 321.333 620.022 321.333C620.075 321.336 620.13 321.305 620.187 321.241C620.296 321.192 620.428 321.219 620.583 321.319C620.752 321.42 620.833 321.544 620.826 321.691C620.81 321.757 620.745 321.861 620.632 322.002C620.519 322.13 620.393 322.251 620.255 322.365C620.129 322.479 620.026 322.541 619.946 322.551C619.932 322.564 619.884 322.588 619.802 322.624C619.721 322.647 619.666 322.671 619.639 322.697L619.659 322.698C619.531 322.852 619.408 322.926 619.288 322.921L619.128 322.913C619.07 323.004 618.892 323.103 618.594 323.209C618.296 323.302 618.007 323.342 617.727 323.329ZM618.83 318.975C619.07 318.987 619.28 318.93 619.459 318.804C619.652 318.667 619.819 318.514 619.961 318.347C620.244 318 620.413 317.661 620.468 317.33C620.538 316.986 620.509 316.744 620.382 316.605C620.304 316.561 620.231 316.538 620.165 316.535C620.112 316.519 619.998 316.534 619.822 316.579C619.701 316.6 619.53 316.692 619.309 316.855C619.088 317.019 618.866 317.202 618.643 317.405C618.433 317.609 618.272 317.782 618.158 317.923L617.879 318.331C617.988 318.296 618.088 318.28 618.182 318.285C618.289 318.276 618.348 318.286 618.36 318.313C618.355 318.433 618.37 318.547 618.405 318.655C618.454 318.751 618.51 318.827 618.574 318.883C618.652 318.94 618.737 318.971 618.83 318.975Z" fill="#F67ACB"/>
<path d="M575.555 346.825C577.277 348.842 578.937 350.773 580.589 352.707C580.92 353.091 581.153 353.363 581.491 353.911C581.747 354.317 582.271 355.187 581.791 355.363C581.379 355.465 581.072 355.483 580.434 354.87C578.794 353.279 577.395 351.459 575.996 349.661C574.763 348.071 573.846 346.842 572.834 345.372C572.362 344.686 572.541 344.199 573.231 343.914C573.851 343.659 574.481 343.385 575.14 343.254C577.51 342.768 579.884 342.345 582.265 341.898C582.56 341.84 582.787 341.778 583.149 341.76C583.588 341.743 583.907 341.706 584.018 342.127C584.128 342.526 583.625 342.794 583.344 342.876C581.014 343.622 576.181 345.078 575.941 345.216C577.272 345.926 578.488 346.612 579.743 347.23C588.499 351.496 597.464 355.1 607.11 356.519C614.744 357.642 622.355 357.833 629.959 356.833C630.408 356.777 630.869 356.759 631.313 356.751C631.915 356.731 632.235 356.829 632.274 357.144C632.27 357.744 631.867 357.864 631.554 357.987C630.936 358.243 630.251 358.366 629.588 358.489C620.702 360.038 611.814 359.478 602.934 357.731C593.819 355.938 585.423 352.164 577.296 347.659C576.876 347.405 575.781 346.875 575.555 346.825Z" fill="#F67ACB"/>
<rect x="120" y="208" width="343" height="2" fill="white"/>
<rect x="120" y="250" width="283" height="2" fill="white"/>
<rect x="120" y="292" width="190" height="2" fill="white"/>
<rect x="120.52" y="334.52" width="216.171" height="45.7286" stroke="#F67ACB" stroke-width="1.03929"/>
<path d="M143.927 361.384V352.28H145.15V361.384H143.927ZM144.9 357.331V356.233L148.804 356.221V357.318L144.9 357.331ZM144.9 353.377V352.28H149.016V353.377H144.9ZM154.166 361.384V359.388H153.967V357.081C153.967 356.624 153.846 356.279 153.605 356.046C153.372 355.813 153.027 355.697 152.57 355.697C152.312 355.697 152.046 355.701 151.772 355.709C151.498 355.718 151.236 355.726 150.986 355.734C150.737 355.743 150.521 355.755 150.338 355.772V354.724C150.521 354.708 150.712 354.695 150.911 354.687C151.119 354.67 151.331 354.662 151.547 354.662C151.764 354.653 151.971 354.649 152.171 354.649C152.853 354.649 153.41 354.732 153.842 354.899C154.274 355.057 154.595 355.319 154.802 355.684C155.01 356.05 155.114 356.545 155.114 357.169V361.384H154.166ZM151.984 361.559C151.485 361.559 151.053 361.475 150.687 361.309C150.329 361.134 150.051 360.885 149.851 360.561C149.66 360.237 149.564 359.846 149.564 359.388C149.564 358.915 149.668 358.52 149.876 358.204C150.092 357.888 150.404 357.651 150.812 357.493C151.219 357.327 151.71 357.243 152.283 357.243H154.092V358.141H152.233C151.751 358.141 151.381 358.258 151.123 358.491C150.866 358.723 150.737 359.023 150.737 359.388C150.737 359.754 150.866 360.049 151.123 360.274C151.381 360.498 151.751 360.611 152.233 360.611C152.516 360.611 152.786 360.561 153.044 360.461C153.302 360.353 153.514 360.178 153.68 359.937C153.855 359.688 153.95 359.347 153.967 358.915L154.291 359.388C154.25 359.862 154.133 360.261 153.942 360.586C153.759 360.902 153.501 361.143 153.169 361.309C152.844 361.475 152.449 361.559 151.984 361.559ZM156.513 361.384V360.049L160.143 355.697V355.896L159.943 355.597L160.105 355.672H156.464V354.724H161.203V356.059L157.574 360.411V360.237L157.798 360.548L157.623 360.436H161.402V361.384H156.513ZM165.423 361.608C164.841 361.608 164.338 361.509 163.914 361.309C163.49 361.11 163.145 360.848 162.879 360.523C162.613 360.191 162.413 359.821 162.28 359.413C162.156 359.006 162.093 358.59 162.093 358.166V357.942C162.093 357.509 162.156 357.09 162.28 356.682C162.413 356.275 162.613 355.909 162.879 355.585C163.145 355.252 163.482 354.99 163.889 354.799C164.305 354.599 164.791 354.5 165.348 354.5C166.072 354.5 166.666 354.658 167.132 354.974C167.606 355.281 167.955 355.68 168.179 356.171C168.412 356.661 168.528 357.185 168.528 357.742V358.279H162.617V357.381H167.655L167.381 357.867C167.381 357.393 167.306 356.986 167.157 356.645C167.007 356.296 166.782 356.025 166.483 355.834C166.184 355.643 165.805 355.547 165.348 355.547C164.874 355.547 164.479 355.655 164.163 355.872C163.856 356.088 163.623 356.383 163.465 356.757C163.315 357.131 163.241 357.563 163.241 358.054C163.241 358.528 163.315 358.956 163.465 359.339C163.623 359.713 163.864 360.012 164.188 360.237C164.513 360.453 164.924 360.561 165.423 360.561C165.947 360.561 166.371 360.444 166.695 360.212C167.028 359.979 167.227 359.709 167.294 359.401H168.416C168.325 359.858 168.142 360.253 167.867 360.586C167.593 360.918 167.248 361.172 166.832 361.346C166.417 361.521 165.947 361.608 165.423 361.608ZM169.854 361.384V354.724H170.802V357.468H170.752C170.752 356.495 170.964 355.784 171.388 355.335C171.821 354.878 172.465 354.649 173.321 354.649H173.546V355.722H173.122C172.457 355.722 171.945 355.901 171.588 356.258C171.23 356.607 171.051 357.115 171.051 357.78V361.384H169.854ZM177.059 363.878V354.724H178.007V357.605L177.782 357.58C177.824 356.865 177.973 356.283 178.231 355.834C178.497 355.377 178.842 355.04 179.266 354.824C179.69 354.608 180.152 354.5 180.651 354.5C181.133 354.5 181.569 354.591 181.96 354.774C182.359 354.957 182.7 355.206 182.983 355.522C183.265 355.838 183.482 356.204 183.631 356.62C183.781 357.036 183.856 357.476 183.856 357.942V358.166C183.856 358.632 183.777 359.073 183.619 359.488C183.461 359.904 183.236 360.27 182.945 360.586C182.663 360.902 182.322 361.151 181.923 361.334C181.532 361.517 181.1 361.608 180.626 361.608C180.152 361.608 179.699 361.504 179.266 361.297C178.834 361.089 178.476 360.752 178.194 360.286C177.911 359.821 177.749 359.21 177.707 358.453L178.256 359.451V363.878H177.059ZM180.439 360.561C180.888 360.561 181.278 360.457 181.611 360.249C181.944 360.033 182.201 359.738 182.384 359.364C182.567 358.981 182.659 358.545 182.659 358.054C182.659 357.555 182.567 357.119 182.384 356.745C182.201 356.37 181.944 356.079 181.611 355.872C181.278 355.655 180.888 355.547 180.439 355.547C180.04 355.547 179.67 355.639 179.329 355.822C178.988 355.996 178.713 356.254 178.506 356.595C178.306 356.927 178.206 357.331 178.206 357.805V358.378C178.206 358.836 178.31 359.226 178.518 359.551C178.726 359.875 179 360.124 179.341 360.299C179.682 360.473 180.048 360.561 180.439 360.561ZM189.311 361.384V359.388H189.112V357.081C189.112 356.624 188.991 356.279 188.75 356.046C188.517 355.813 188.172 355.697 187.715 355.697C187.457 355.697 187.191 355.701 186.917 355.709C186.643 355.718 186.381 355.726 186.131 355.734C185.882 355.743 185.666 355.755 185.483 355.772V354.724C185.666 354.708 185.857 354.695 186.056 354.687C186.264 354.67 186.476 354.662 186.692 354.662C186.909 354.653 187.116 354.649 187.316 354.649C187.998 354.649 188.555 354.732 188.987 354.899C189.42 355.057 189.74 355.319 189.948 355.684C190.155 356.05 190.259 356.545 190.259 357.169V361.384H189.311ZM187.129 361.559C186.63 361.559 186.198 361.475 185.832 361.309C185.474 361.134 185.196 360.885 184.996 360.561C184.805 360.237 184.71 359.846 184.71 359.388C184.71 358.915 184.813 358.52 185.021 358.204C185.237 357.888 185.549 357.651 185.957 357.493C186.364 357.327 186.855 357.243 187.428 357.243H189.237V358.141H187.378C186.896 358.141 186.526 358.258 186.268 358.491C186.011 358.723 185.882 359.023 185.882 359.388C185.882 359.754 186.011 360.049 186.268 360.274C186.526 360.498 186.896 360.611 187.378 360.611C187.661 360.611 187.931 360.561 188.189 360.461C188.447 360.353 188.659 360.178 188.825 359.937C189 359.688 189.095 359.347 189.112 358.915L189.436 359.388C189.395 359.862 189.278 360.261 189.087 360.586C188.904 360.902 188.646 361.143 188.314 361.309C187.989 361.475 187.595 361.559 187.129 361.559ZM192.083 361.384V354.724H193.03V357.468H192.98C192.98 356.495 193.193 355.784 193.617 355.335C194.049 354.878 194.693 354.649 195.55 354.649H195.774V355.722H195.35C194.685 355.722 194.174 355.901 193.816 356.258C193.459 356.607 193.28 357.115 193.28 357.78V361.384H192.083ZM199.539 361.459C199.041 361.459 198.608 361.388 198.242 361.247C197.885 361.105 197.606 360.864 197.407 360.523C197.216 360.174 197.12 359.704 197.12 359.114V352.704H198.267V359.264C198.267 359.621 198.363 359.9 198.554 360.099C198.754 360.291 199.032 360.386 199.39 360.386H200.562V361.459H199.539ZM195.973 355.622V354.724H200.562V355.622H195.973ZM204.664 361.608C204.082 361.608 203.579 361.509 203.155 361.309C202.731 361.11 202.386 360.848 202.12 360.523C201.853 360.191 201.654 359.821 201.521 359.413C201.396 359.006 201.334 358.59 201.334 358.166V357.942C201.334 357.509 201.396 357.09 201.521 356.682C201.654 356.275 201.853 355.909 202.12 355.585C202.386 355.252 202.722 354.99 203.13 354.799C203.545 354.599 204.032 354.5 204.589 354.5C205.312 354.5 205.907 354.658 206.372 354.974C206.846 355.281 207.195 355.68 207.42 356.171C207.653 356.661 207.769 357.185 207.769 357.742V358.279H201.858V357.381H206.896L206.622 357.867C206.622 357.393 206.547 356.986 206.397 356.645C206.248 356.296 206.023 356.025 205.724 355.834C205.424 355.643 205.046 355.547 204.589 355.547C204.115 355.547 203.72 355.655 203.404 355.872C203.096 356.088 202.864 356.383 202.706 356.757C202.556 357.131 202.481 357.563 202.481 358.054C202.481 358.528 202.556 358.956 202.706 359.339C202.864 359.713 203.105 360.012 203.429 360.237C203.753 360.453 204.165 360.561 204.664 360.561C205.187 360.561 205.612 360.444 205.936 360.212C206.268 359.979 206.468 359.709 206.534 359.401H207.657C207.565 359.858 207.382 360.253 207.108 360.586C206.834 360.918 206.489 361.172 206.073 361.346C205.657 361.521 205.187 361.608 204.664 361.608ZM214.34 361.608C213.866 361.608 213.429 361.521 213.03 361.346C212.631 361.172 212.282 360.927 211.982 360.611C211.691 360.295 211.463 359.929 211.297 359.513C211.139 359.097 211.06 358.649 211.06 358.166V357.942C211.06 357.468 211.139 357.023 211.297 356.607C211.455 356.192 211.675 355.826 211.958 355.51C212.249 355.194 212.589 354.949 212.98 354.774C213.379 354.591 213.82 354.5 214.302 354.5C214.809 354.5 215.271 354.608 215.686 354.824C216.102 355.032 216.443 355.36 216.709 355.809C216.975 356.258 217.125 356.84 217.158 357.555L216.659 356.757V352.28H217.857V361.384H216.909V358.428H217.258C217.225 359.185 217.067 359.8 216.784 360.274C216.501 360.74 216.144 361.08 215.711 361.297C215.287 361.504 214.83 361.608 214.34 361.608ZM214.502 360.561C214.909 360.561 215.279 360.469 215.612 360.286C215.944 360.104 216.21 359.842 216.41 359.501C216.609 359.152 216.709 358.744 216.709 358.279V357.705C216.709 357.248 216.605 356.861 216.397 356.545C216.198 356.221 215.928 355.975 215.587 355.809C215.254 355.635 214.888 355.547 214.489 355.547C214.049 355.547 213.658 355.651 213.317 355.859C212.984 356.067 212.722 356.358 212.531 356.732C212.348 357.106 212.257 357.547 212.257 358.054C212.257 358.561 212.352 359.006 212.544 359.388C212.735 359.763 213.001 360.054 213.342 360.261C213.683 360.461 214.069 360.561 214.502 360.561ZM223.811 361.384V359.388H223.611V357.081C223.611 356.624 223.491 356.279 223.25 356.046C223.017 355.813 222.672 355.697 222.215 355.697C221.957 355.697 221.691 355.701 221.417 355.709C221.142 355.718 220.88 355.726 220.631 355.734C220.381 355.743 220.165 355.755 219.982 355.772V354.724C220.165 354.708 220.356 354.695 220.556 354.687C220.764 354.67 220.976 354.662 221.192 354.662C221.408 354.653 221.616 354.649 221.816 354.649C222.497 354.649 223.054 354.732 223.487 354.899C223.919 355.057 224.239 355.319 224.447 355.684C224.655 356.05 224.759 356.545 224.759 357.169V361.384H223.811ZM221.629 361.559C221.13 361.559 220.697 361.475 220.332 361.309C219.974 361.134 219.695 360.885 219.496 360.561C219.305 360.237 219.209 359.846 219.209 359.388C219.209 358.915 219.313 358.52 219.521 358.204C219.737 357.888 220.049 357.651 220.456 357.493C220.864 357.327 221.354 357.243 221.928 357.243H223.736V358.141H221.878C221.396 358.141 221.026 358.258 220.768 358.491C220.51 358.723 220.381 359.023 220.381 359.388C220.381 359.754 220.51 360.049 220.768 360.274C221.026 360.498 221.396 360.611 221.878 360.611C222.161 360.611 222.431 360.561 222.689 360.461C222.946 360.353 223.158 360.178 223.325 359.937C223.499 359.688 223.595 359.347 223.611 358.915L223.936 359.388C223.894 359.862 223.778 360.261 223.587 360.586C223.404 360.902 223.146 361.143 222.813 361.309C222.489 361.475 222.094 361.559 221.629 361.559ZM229.121 361.384V352.28H230.318V361.384H229.121ZM228.198 353.228V352.28H230.318V353.228H228.198ZM232.564 361.384V354.724H233.762V361.384H232.564ZM231.542 355.672V354.724H233.762V355.672H231.542ZM232.901 353.652C232.635 353.652 232.435 353.581 232.302 353.44C232.178 353.298 232.115 353.12 232.115 352.903C232.115 352.687 232.178 352.508 232.302 352.367C232.435 352.226 232.635 352.155 232.901 352.155C233.167 352.155 233.362 352.226 233.487 352.367C233.62 352.508 233.687 352.687 233.687 352.903C233.687 353.12 233.62 353.298 233.487 353.44C233.362 353.581 233.167 353.652 232.901 353.652ZM237.885 361.583C237.012 361.583 236.334 361.396 235.852 361.022C235.378 360.648 235.133 360.137 235.116 359.488H236.239C236.255 359.746 236.384 359.991 236.625 360.224C236.875 360.449 237.295 360.561 237.885 360.561C238.417 360.561 238.824 360.457 239.107 360.249C239.39 360.033 239.531 359.771 239.531 359.463C239.531 359.189 239.427 358.977 239.219 358.827C239.011 358.669 238.675 358.565 238.209 358.515L237.486 358.441C236.854 358.374 236.338 358.187 235.939 357.879C235.54 357.563 235.341 357.123 235.341 356.557C235.341 356.133 235.449 355.772 235.665 355.472C235.881 355.165 236.18 354.932 236.563 354.774C236.945 354.608 237.386 354.525 237.885 354.525C238.633 354.525 239.24 354.691 239.706 355.023C240.171 355.356 240.412 355.851 240.429 356.508H239.307C239.298 356.242 239.174 356.017 238.932 355.834C238.7 355.643 238.35 355.547 237.885 355.547C237.419 355.547 237.066 355.643 236.825 355.834C236.584 356.025 236.463 356.266 236.463 356.557C236.463 356.807 236.546 357.006 236.713 357.156C236.887 357.306 237.17 357.401 237.561 357.443L238.284 357.518C238.999 357.593 239.573 357.792 240.005 358.116C240.437 358.432 240.654 358.881 240.654 359.463C240.654 359.879 240.533 360.249 240.292 360.573C240.059 360.889 239.735 361.139 239.319 361.322C238.903 361.496 238.425 361.583 237.885 361.583ZM244.609 361.459C244.11 361.459 243.677 361.388 243.312 361.247C242.954 361.105 242.676 360.864 242.476 360.523C242.285 360.174 242.189 359.704 242.189 359.114V352.704H243.337V359.264C243.337 359.621 243.432 359.9 243.623 360.099C243.823 360.291 244.101 360.386 244.459 360.386H245.631V361.459H244.609ZM241.042 355.622V354.724H245.631V355.622H241.042ZM250.954 361.384V359.388H250.755V357.081C250.755 356.624 250.634 356.279 250.393 356.046C250.16 355.813 249.815 355.697 249.358 355.697C249.1 355.697 248.834 355.701 248.56 355.709C248.286 355.718 248.024 355.726 247.774 355.734C247.525 355.743 247.309 355.755 247.126 355.772V354.724C247.309 354.708 247.5 354.695 247.699 354.687C247.907 354.67 248.119 354.662 248.335 354.662C248.552 354.653 248.759 354.649 248.959 354.649C249.641 354.649 250.198 354.732 250.63 354.899C251.063 355.057 251.383 355.319 251.59 355.684C251.798 356.05 251.902 356.545 251.902 357.169V361.384H250.954ZM248.772 361.559C248.273 361.559 247.841 361.475 247.475 361.309C247.117 361.134 246.839 360.885 246.639 360.561C246.448 360.237 246.352 359.846 246.352 359.388C246.352 358.915 246.456 358.52 246.664 358.204C246.88 357.888 247.192 357.651 247.6 357.493C248.007 357.327 248.498 357.243 249.071 357.243H250.88V358.141H249.021C248.539 358.141 248.169 358.258 247.911 358.491C247.654 358.723 247.525 359.023 247.525 359.388C247.525 359.754 247.654 360.049 247.911 360.274C248.169 360.498 248.539 360.611 249.021 360.611C249.304 360.611 249.574 360.561 249.832 360.461C250.09 360.353 250.302 360.178 250.468 359.937C250.643 359.688 250.738 359.347 250.755 358.915L251.079 359.388C251.038 359.862 250.921 360.261 250.73 360.586C250.547 360.902 250.289 361.143 249.957 361.309C249.632 361.475 249.238 361.559 248.772 361.559ZM258.97 361.608C258.496 361.608 258.06 361.521 257.661 361.346C257.262 361.172 256.912 360.927 256.613 360.611C256.322 360.295 256.093 359.929 255.927 359.513C255.769 359.097 255.69 358.649 255.69 358.166V357.942C255.69 357.468 255.769 357.023 255.927 356.607C256.085 356.192 256.306 355.826 256.588 355.51C256.879 355.194 257.22 354.949 257.611 354.774C258.01 354.591 258.451 354.5 258.933 354.5C259.44 354.5 259.901 354.608 260.317 354.824C260.733 355.032 261.074 355.36 261.34 355.809C261.606 356.258 261.756 356.84 261.789 357.555L261.29 356.757V352.28H262.487V361.384H261.539V358.428H261.889C261.855 359.185 261.697 359.8 261.415 360.274C261.132 360.74 260.774 361.08 260.342 361.297C259.918 361.504 259.461 361.608 258.97 361.608ZM259.132 360.561C259.54 360.561 259.91 360.469 260.242 360.286C260.575 360.104 260.841 359.842 261.04 359.501C261.24 359.152 261.34 358.744 261.34 358.279V357.705C261.34 357.248 261.236 356.861 261.028 356.545C260.828 356.221 260.558 355.975 260.217 355.809C259.885 355.635 259.519 355.547 259.12 355.547C258.679 355.547 258.288 355.651 257.948 355.859C257.615 356.067 257.353 356.358 257.162 356.732C256.979 357.106 256.888 357.547 256.888 358.054C256.888 358.561 256.983 359.006 257.174 359.388C257.366 359.763 257.632 360.054 257.973 360.261C258.313 360.461 258.7 360.561 259.132 360.561ZM267.244 361.608C266.662 361.608 266.159 361.509 265.735 361.309C265.311 361.11 264.966 360.848 264.7 360.523C264.434 360.191 264.235 359.821 264.102 359.413C263.977 359.006 263.915 358.59 263.915 358.166V357.942C263.915 357.509 263.977 357.09 264.102 356.682C264.235 356.275 264.434 355.909 264.7 355.585C264.966 355.252 265.303 354.99 265.71 354.799C266.126 354.599 266.613 354.5 267.17 354.5C267.893 354.5 268.487 354.658 268.953 354.974C269.427 355.281 269.776 355.68 270.001 356.171C270.233 356.661 270.35 357.185 270.35 357.742V358.279H264.438V357.381H269.477L269.202 357.867C269.202 357.393 269.128 356.986 268.978 356.645C268.828 356.296 268.604 356.025 268.305 355.834C268.005 355.643 267.627 355.547 267.17 355.547C266.696 355.547 266.301 355.655 265.985 355.872C265.677 356.088 265.444 356.383 265.286 356.757C265.137 357.131 265.062 357.563 265.062 358.054C265.062 358.528 265.137 358.956 265.286 359.339C265.444 359.713 265.686 360.012 266.01 360.237C266.334 360.453 266.746 360.561 267.244 360.561C267.768 360.561 268.192 360.444 268.517 360.212C268.849 359.979 269.049 359.709 269.115 359.401H270.238C270.146 359.858 269.963 360.253 269.689 360.586C269.414 360.918 269.069 361.172 268.654 361.346C268.238 361.521 267.768 361.608 267.244 361.608ZM276.97 361.608C276.388 361.608 275.885 361.509 275.461 361.309C275.037 361.11 274.692 360.848 274.426 360.523C274.16 360.191 273.96 359.821 273.827 359.413C273.703 359.006 273.64 358.59 273.64 358.166V357.942C273.64 357.509 273.703 357.09 273.827 356.682C273.96 356.275 274.16 355.909 274.426 355.585C274.692 355.252 275.029 354.99 275.436 354.799C275.852 354.599 276.338 354.5 276.895 354.5C277.619 354.5 278.213 354.658 278.679 354.974C279.153 355.281 279.502 355.68 279.726 356.171C279.959 356.661 280.076 357.185 280.076 357.742V358.279H274.164V357.381H279.203L278.928 357.867C278.928 357.393 278.853 356.986 278.704 356.645C278.554 356.296 278.33 356.025 278.03 355.834C277.731 355.643 277.353 355.547 276.895 355.547C276.421 355.547 276.027 355.655 275.711 355.872C275.403 356.088 275.17 356.383 275.012 356.757C274.863 357.131 274.788 357.563 274.788 358.054C274.788 358.528 274.863 358.956 275.012 359.339C275.17 359.713 275.411 360.012 275.736 360.237C276.06 360.453 276.471 360.561 276.97 360.561C277.494 360.561 277.918 360.444 278.242 360.212C278.575 359.979 278.774 359.709 278.841 359.401H279.963C279.872 359.858 279.689 360.253 279.415 360.586C279.14 360.918 278.795 361.172 278.379 361.346C277.964 361.521 277.494 361.608 276.97 361.608ZM283.584 361.583C282.711 361.583 282.033 361.396 281.551 361.022C281.077 360.648 280.832 360.137 280.815 359.488H281.938C281.954 359.746 282.083 359.991 282.324 360.224C282.574 360.449 282.994 360.561 283.584 360.561C284.116 360.561 284.523 360.457 284.806 360.249C285.089 360.033 285.23 359.771 285.23 359.463C285.23 359.189 285.126 358.977 284.918 358.827C284.71 358.669 284.374 358.565 283.908 358.515L283.185 358.441C282.553 358.374 282.037 358.187 281.638 357.879C281.239 357.563 281.04 357.123 281.04 356.557C281.04 356.133 281.148 355.772 281.364 355.472C281.58 355.165 281.879 354.932 282.262 354.774C282.644 354.608 283.085 354.525 283.584 354.525C284.332 354.525 284.939 354.691 285.405 355.023C285.87 355.356 286.111 355.851 286.128 356.508H285.006C284.997 356.242 284.873 356.017 284.631 355.834C284.399 355.643 284.049 355.547 283.584 355.547C283.118 355.547 282.765 355.643 282.524 355.834C282.283 356.025 282.162 356.266 282.162 356.557C282.162 356.807 282.245 357.006 282.412 357.156C282.586 357.306 282.869 357.401 283.26 357.443L283.983 357.518C284.698 357.593 285.272 357.792 285.704 358.116C286.136 358.432 286.353 358.881 286.353 359.463C286.353 359.879 286.232 360.249 285.991 360.573C285.758 360.889 285.434 361.139 285.018 361.322C284.602 361.496 284.124 361.583 283.584 361.583ZM287.714 363.878V354.724H288.661V357.605L288.437 357.58C288.478 356.865 288.628 356.283 288.886 355.834C289.152 355.377 289.497 355.04 289.921 354.824C290.345 354.608 290.806 354.5 291.305 354.5C291.788 354.5 292.224 354.591 292.615 354.774C293.014 354.957 293.355 355.206 293.638 355.522C293.92 355.838 294.136 356.204 294.286 356.62C294.436 357.036 294.511 357.476 294.511 357.942V358.166C294.511 358.632 294.432 359.073 294.274 359.488C294.116 359.904 293.891 360.27 293.6 360.586C293.317 360.902 292.977 361.151 292.577 361.334C292.187 361.517 291.754 361.608 291.28 361.608C290.806 361.608 290.353 361.504 289.921 361.297C289.489 361.089 289.131 360.752 288.848 360.286C288.566 359.821 288.404 359.21 288.362 358.453L288.911 359.451V363.878H287.714ZM291.093 360.561C291.542 360.561 291.933 360.457 292.266 360.249C292.598 360.033 292.856 359.738 293.039 359.364C293.222 358.981 293.313 358.545 293.313 358.054C293.313 357.555 293.222 357.119 293.039 356.745C292.856 356.37 292.598 356.079 292.266 355.872C291.933 355.655 291.542 355.547 291.093 355.547C290.694 355.547 290.324 355.639 289.983 355.822C289.642 355.996 289.368 356.254 289.16 356.595C288.961 356.927 288.861 357.331 288.861 357.805V358.378C288.861 358.836 288.965 359.226 289.173 359.551C289.381 359.875 289.655 360.124 289.996 360.299C290.337 360.473 290.703 360.561 291.093 360.561ZM298.769 361.608C298.187 361.608 297.684 361.509 297.26 361.309C296.836 361.11 296.491 360.848 296.225 360.523C295.959 360.191 295.759 359.821 295.626 359.413C295.501 359.006 295.439 358.59 295.439 358.166V357.942C295.439 357.509 295.501 357.09 295.626 356.682C295.759 356.275 295.959 355.909 296.225 355.585C296.491 355.252 296.828 354.99 297.235 354.799C297.651 354.599 298.137 354.5 298.694 354.5C299.417 354.5 300.012 354.658 300.477 354.974C300.951 355.281 301.301 355.68 301.525 356.171C301.758 356.661 301.874 357.185 301.874 357.742V358.279H295.963V357.381H301.001L300.727 357.867C300.727 357.393 300.652 356.986 300.502 356.645C300.353 356.296 300.128 356.025 299.829 355.834C299.53 355.643 299.151 355.547 298.694 355.547C298.22 355.547 297.825 355.655 297.509 355.872C297.202 356.088 296.969 356.383 296.811 356.757C296.661 357.131 296.586 357.563 296.586 358.054C296.586 358.528 296.661 358.956 296.811 359.339C296.969 359.713 297.21 360.012 297.534 360.237C297.858 360.453 298.27 360.561 298.769 360.561C299.293 360.561 299.717 360.444 300.041 360.212C300.374 359.979 300.573 359.709 300.64 359.401H301.762C301.671 359.858 301.488 360.253 301.213 360.586C300.939 360.918 300.594 361.172 300.178 361.346C299.762 361.521 299.293 361.608 298.769 361.608ZM303.2 361.384V354.724H304.148V357.468H304.098C304.098 356.495 304.31 355.784 304.734 355.335C305.166 354.878 305.811 354.649 306.667 354.649H306.892V355.722H306.468C305.802 355.722 305.291 355.901 304.934 356.258C304.576 356.607 304.397 357.115 304.397 357.78V361.384H303.2ZM311.945 361.384V359.388H311.746V357.081C311.746 356.624 311.625 356.279 311.384 356.046C311.151 355.813 310.806 355.697 310.349 355.697C310.091 355.697 309.825 355.701 309.551 355.709C309.276 355.718 309.014 355.726 308.765 355.734C308.515 355.743 308.299 355.755 308.116 355.772V354.724C308.299 354.708 308.49 354.695 308.69 354.687C308.898 354.67 309.11 354.662 309.326 354.662C309.542 354.653 309.75 354.649 309.95 354.649C310.631 354.649 311.188 354.732 311.621 354.899C312.053 355.057 312.373 355.319 312.581 355.684C312.789 356.05 312.893 356.545 312.893 357.169V361.384H311.945ZM309.763 361.559C309.264 361.559 308.831 361.475 308.466 361.309C308.108 361.134 307.83 360.885 307.63 360.561C307.439 360.237 307.343 359.846 307.343 359.388C307.343 358.915 307.447 358.52 307.655 358.204C307.871 357.888 308.183 357.651 308.59 357.493C308.998 357.327 309.488 357.243 310.062 357.243H311.87V358.141H310.012C309.53 358.141 309.16 358.258 308.902 358.491C308.644 358.723 308.515 359.023 308.515 359.388C308.515 359.754 308.644 360.049 308.902 360.274C309.16 360.498 309.53 360.611 310.012 360.611C310.295 360.611 310.565 360.561 310.823 360.461C311.08 360.353 311.292 360.178 311.459 359.937C311.633 359.688 311.729 359.347 311.746 358.915L312.07 359.388C312.028 359.862 311.912 360.261 311.721 360.586C311.538 360.902 311.28 361.143 310.947 361.309C310.623 361.475 310.228 361.559 309.763 361.559Z" fill="#F67ACB"/>
<path d="M130.998 420.768L124.124 427.642L120 423.518" stroke="#F67ACB" stroke-width="1.5" stroke-linecap="round" stroke-linejoin="round"/>
<rect x="146.998" y="423.205" width="70" height="2" fill="white"/>
<path d="M130.998 459.642L124.124 466.516L120 462.392" stroke="#F67ACB" stroke-width="1.5" stroke-linecap="round" stroke-linejoin="round"/>
<rect x="146.998" y="462.079" width="70" height="2" fill="white"/>
<path d="M130.998 498.516L124.124 505.39L120 501.266" stroke="#F67ACB" stroke-width="1.5" stroke-linecap="round" stroke-linejoin="round"/>
<rect x="146.998" y="500.953" width="70" height="2" fill="white"/>
<path d="M358.34 363.485C358.134 363.422 357.921 363.353 357.701 363.278C357.494 363.201 357.29 363.078 357.088 362.908C356.901 362.749 356.728 362.516 356.568 362.208C356.403 361.834 356.279 361.463 356.194 361.096C356.123 360.727 356.074 360.296 356.046 359.803C355.989 359.112 355.985 358.511 356.036 357.998C356.099 357.471 356.215 356.933 356.383 356.384C356.407 356.341 356.444 356.225 356.495 356.033C356.558 355.827 356.626 355.607 356.701 355.374C356.788 355.139 356.853 354.96 356.896 354.836C356.984 354.601 357.118 354.289 357.3 353.899C357.494 353.495 357.702 353.103 357.924 352.723C358.262 352.119 358.543 351.641 358.768 351.288C358.993 350.934 359.209 350.635 359.416 350.391C359.623 350.146 359.858 349.912 360.12 349.69C360.395 349.453 360.745 349.163 361.171 348.819C361.446 348.582 361.755 348.443 362.1 348.401C362.457 348.358 362.796 348.41 363.116 348.557C363.435 348.691 363.681 348.911 363.854 349.218C364.023 349.485 364.124 349.817 364.158 350.216C364.19 350.601 364.164 351.018 364.081 351.467C363.997 351.902 363.865 352.321 363.684 352.724C363.504 353.127 363.285 353.467 363.027 353.742C362.867 353.916 362.713 353.989 362.563 353.962C362.427 353.933 362.259 353.84 362.059 353.683C361.92 353.467 361.843 353.339 361.826 353.301C361.823 353.261 361.847 353.232 361.899 353.214C361.971 353.114 362.064 352.946 362.178 352.709C362.292 352.472 362.405 352.222 362.517 351.958C362.628 351.682 362.703 351.461 362.743 351.297C362.802 350.73 362.843 350.332 362.864 350.103C362.884 349.861 362.829 349.685 362.699 349.575C362.642 349.526 362.56 349.513 362.455 349.535C362.363 349.556 362.209 349.636 361.993 349.774C361.699 349.933 361.325 350.265 360.872 350.771C360.418 351.264 360.009 351.806 359.643 352.399C359.171 353.147 358.778 353.809 358.464 354.384C358.151 354.958 357.925 355.539 357.787 356.126C357.765 356.181 357.726 356.285 357.672 356.437C357.631 356.587 357.611 356.662 357.611 356.662C357.629 356.715 357.62 356.849 357.584 357.066C357.548 357.27 357.502 357.448 357.448 357.599C357.353 358.223 357.32 358.868 357.349 359.534C357.376 360.188 357.458 360.763 357.593 361.26C357.741 361.756 357.923 362.095 358.139 362.278C358.322 362.383 358.558 362.404 358.847 362.339C359.149 362.274 359.487 362.152 359.86 361.974C360.233 361.796 360.612 361.603 360.996 361.398C361.304 361.238 361.584 361.068 361.836 360.886C362.089 360.704 362.277 360.548 362.399 360.417C362.499 360.329 362.625 360.238 362.778 360.145C362.943 360.038 363.085 359.979 363.205 359.969C363.385 359.887 363.49 359.852 363.517 359.863C363.545 359.874 363.563 359.932 363.572 360.039C363.588 360.225 363.498 360.44 363.305 360.683C363.124 360.926 362.882 361.153 362.579 361.366C362.481 361.481 362.351 361.606 362.189 361.74C362.026 361.874 361.854 361.982 361.674 362.063C361.412 362.299 361.084 362.534 360.689 362.768C360.294 363.001 359.888 363.189 359.471 363.331C359.068 363.472 358.691 363.523 358.34 363.485ZM368.794 362.032C368.745 362.089 368.687 362.114 368.62 362.106C368.553 362.112 368.444 362.088 368.292 362.033C368.034 361.988 367.867 361.902 367.789 361.774C367.726 361.659 367.749 361.45 367.857 361.146C367.903 361.049 367.952 360.844 368.007 360.532C368.073 360.205 368.142 359.832 368.214 359.411C368.286 358.99 368.358 358.569 368.43 358.148C368.502 357.728 368.565 357.361 368.619 357.049C368.672 356.723 368.708 356.506 368.726 356.398C368.717 356.292 368.726 356.077 368.752 355.753C368.792 355.429 368.822 355.065 368.842 354.662C368.965 354.371 369.039 354.057 369.064 353.72C369.103 353.383 369.129 353.14 369.144 352.991C369.179 352.774 369.22 352.543 369.267 352.299C369.327 352.053 369.373 351.808 369.406 351.565C369.442 351.347 369.476 351.124 369.511 350.894C369.558 350.662 369.579 350.513 369.574 350.447L369.547 350.128L368.81 350.189C368.612 350.219 368.319 350.244 367.933 350.262C367.546 350.281 367.2 350.303 366.895 350.329C366.268 350.354 365.845 350.33 365.624 350.254C365.416 350.165 365.286 349.975 365.236 349.685C365.196 349.527 365.219 349.412 365.307 349.338C365.394 349.263 365.61 349.205 365.955 349.163C366.299 349.121 366.831 349.083 367.551 349.05C368.107 348.977 368.592 348.936 369.006 348.929C369.419 348.908 369.652 348.895 369.705 348.89C369.754 348.833 369.782 348.777 369.791 348.723C369.8 348.668 369.816 348.614 369.838 348.558C369.832 348.492 369.833 348.418 369.839 348.337C369.858 348.242 369.919 348.17 370.022 348.121C370.112 347.913 370.225 347.824 370.361 347.852C370.509 347.867 370.665 347.974 370.829 348.175C370.892 348.29 370.95 348.412 371 348.542C371.065 348.67 371.148 348.783 371.25 348.882C371.298 348.824 371.435 348.78 371.66 348.747C371.885 348.715 372.123 348.682 372.374 348.648C372.68 348.622 372.951 348.593 373.19 348.56C373.427 348.513 373.591 348.486 373.684 348.478C373.799 348.402 373.949 348.356 374.135 348.34C374.334 348.324 374.534 348.32 374.736 348.33C375.041 348.305 375.255 348.3 375.377 348.317C375.512 348.333 375.602 348.372 375.648 348.435C375.652 348.488 375.657 348.541 375.661 348.594C375.679 348.646 375.716 348.697 375.774 348.746C375.832 348.794 375.861 348.832 375.864 348.858C375.865 348.872 375.843 348.934 375.799 349.045C375.75 349.102 375.661 349.156 375.531 349.207C375.401 349.245 375.256 349.27 375.096 349.284C375.003 349.291 374.845 349.318 374.621 349.363C374.397 349.396 374.204 349.418 374.045 349.432C373.744 349.51 373.402 349.586 373.02 349.658C372.65 349.715 372.234 349.777 371.771 349.842C371.572 349.859 371.387 349.887 371.216 349.928C371.045 349.956 370.962 350.003 370.967 350.07C370.914 350.074 370.853 350.22 370.783 350.506C370.727 350.792 370.671 351.091 370.617 351.403C370.566 351.755 370.505 352.062 370.433 352.322C370.374 352.581 370.321 352.753 370.275 352.837C370.333 352.885 370.358 352.95 370.351 353.031C370.358 353.111 370.33 353.254 370.267 353.46C370.229 353.65 370.188 353.801 370.144 353.911C370.113 354.021 370.102 354.129 370.111 354.235C370.111 354.235 370.086 354.344 370.038 354.562C370.001 354.766 369.969 355.023 369.941 355.333C369.939 355.628 369.92 355.877 369.883 356.081C369.86 356.283 369.824 356.413 369.775 356.471C369.775 356.471 369.753 356.52 369.707 356.617C369.661 356.701 369.642 356.796 369.651 356.903C369.661 357.022 369.651 357.224 369.621 357.507C369.603 357.776 369.578 358.033 369.544 358.276C369.511 358.52 369.476 358.657 369.438 358.687C369.573 358.702 369.568 358.883 369.423 359.23C369.434 359.362 369.426 359.497 369.397 359.633C369.368 359.769 369.356 359.864 369.36 359.917C369.302 360.176 369.232 360.463 369.151 360.778C369.07 361.092 368.999 361.366 368.938 361.598C368.879 361.844 368.831 361.988 368.794 362.032ZM372.754 361.822C372.504 361.709 372.359 361.574 372.319 361.417C372.293 361.258 372.362 360.971 372.528 360.556C372.694 360.141 372.955 359.497 373.311 358.624C373.58 358 373.78 357.515 373.912 357.169C374.056 356.81 374.148 356.554 374.189 356.404C374.243 356.252 374.269 356.156 374.265 356.116C374.229 355.999 374.234 355.905 374.282 355.834C374.328 355.75 374.409 355.676 374.524 355.613C374.585 355.541 374.682 355.413 374.813 355.228C374.958 355.042 375.087 354.824 375.2 354.573C375.297 354.284 375.412 353.987 375.547 353.681C375.683 353.376 375.865 352.993 376.094 352.532C376.322 352.058 376.619 351.445 376.984 350.692C377.211 350.205 377.464 349.708 377.743 349.203C378.021 348.685 378.319 348.172 378.638 347.664C378.769 347.466 378.889 347.308 379 347.192C379.11 347.062 379.225 346.999 379.346 347.003C379.505 346.989 379.689 347.028 379.897 347.117C380.118 347.206 380.323 347.329 380.51 347.488C380.697 347.646 380.839 347.821 380.935 348.014C381.01 348.115 381.056 348.339 381.071 348.685C381.087 349.032 381.095 349.452 381.096 349.947C381.097 350.442 381.095 350.971 381.088 351.534C381.094 352.082 381.088 352.731 381.07 353.482C381.052 354.233 381.037 355.016 381.025 355.834C381.026 356.65 381.039 357.438 381.062 358.199C381.084 358.946 381.138 359.597 381.225 360.152C381.248 360.27 381.258 360.383 381.253 360.491C381.249 360.598 381.249 360.685 381.255 360.752C381.182 360.838 381.052 360.882 380.864 360.884C380.692 360.899 380.516 360.873 380.336 360.808C380.17 360.742 380.069 360.65 380.032 360.532C379.989 360.496 379.958 360.445 379.939 360.38C379.933 360.3 379.926 360.14 379.919 359.9C379.913 359.659 379.894 359.28 379.864 358.76L379.695 355.523L379.437 355.565C379.318 355.575 379.093 355.607 378.763 355.661C378.433 355.715 378.078 355.785 377.697 355.87C377.315 355.942 376.96 356.019 376.632 356.1C376.317 356.166 376.101 356.224 375.984 356.274C375.865 356.284 375.725 356.376 375.566 356.55C375.42 356.723 375.284 356.941 375.159 357.206C375.121 357.396 375.038 357.604 374.91 357.829C374.794 358.039 374.738 358.178 374.744 358.244C374.656 358.318 374.583 358.405 374.525 358.503C374.479 358.601 374.457 358.649 374.457 358.649C374.463 358.729 374.413 358.934 374.307 359.264C374.213 359.579 374.089 359.938 373.935 360.338C373.78 360.726 373.621 361.067 373.459 361.362L373.093 362.034L372.754 361.822ZM376.345 355.06C376.345 355.06 376.41 355.041 376.541 355.003C376.685 354.965 376.849 354.924 377.032 354.882C377.228 354.826 377.406 354.791 377.566 354.778C378.112 354.598 378.511 354.478 378.76 354.417C379.008 354.343 379.178 354.302 379.271 354.294C379.378 354.285 379.472 354.297 379.555 354.331C379.614 354.393 379.664 354.429 379.705 354.439C379.759 354.447 379.786 354.452 379.786 354.452C379.797 354.424 379.804 354.27 379.808 353.988C379.811 353.707 379.815 353.359 379.821 352.944C379.84 352.527 379.851 352.098 379.854 351.657C379.87 351.2 379.875 350.785 379.871 350.411C379.865 350.023 379.861 349.729 379.857 349.529C379.849 349.275 379.844 349.048 379.841 348.848C379.836 348.634 379.834 348.527 379.834 348.527C379.754 348.534 379.594 348.695 379.352 349.009C379.124 349.322 378.871 349.732 378.592 350.237C378.313 350.741 378.056 351.278 377.823 351.846C377.711 352.11 377.604 352.346 377.501 352.555C377.398 352.765 377.313 352.872 377.246 352.877C377.222 352.906 377.152 353.032 377.037 353.256C376.934 353.465 376.821 353.709 376.697 353.987C376.572 354.252 376.472 354.494 376.396 354.714C376.32 354.922 376.303 355.037 376.345 355.06Z" fill="#F67ACB"/>
</g>
<path d="M15 95.1786C15 77.4068 29.4068 63 47.1786 63H1089.82C1107.59 63 1122 77.4068 1122 95.1786H1120C1120 78.5114 1106.49 65 1089.82 65H47.1786C30.5114 65 17 78.5114 17 95.1786H15ZM1121 593H16H1121ZM15 593V95.1786C15 77.4068 29.4068 63 47.1786 63V65C30.5114 65 17 78.5114 17 95.1786V593H15ZM1089.82 63C1107.59 63 1122 77.4068 1122 95.1786V593H1120V95.1786C1120 78.5114 1106.49 65 1089.82 65V63Z" fill="white" mask="url(#path-1-inside-1_10013_212)"/>
<g clip-path="url(#clip2_10013_212)">
<mask id="path-31-inside-2_10013_212" fill="white">
<path d="M857 40C857 17.9086 874.909 0 897 0H1192C1214.09 0 1232 17.9086 1232 40V610C1232 632.091 1214.09 650 1192 650H897C874.909 650 857 632.091 857 610V40Z"/>
</mask>
<path d="M857 40C857 17.9086 874.909 0 897 0H1192C1214.09 0 1232 17.9086 1232 40V610C1232 632.091 1214.09 650 1192 650H897C874.909 650 857 632.091 857 610V40Z" fill="url(#paint1_linear_10013_212)"/>
<rect width="375" height="88" transform="translate(857)" fill="url(#paint2_linear_10013_212)"/>
<path d="M1187 44.0001H1205" stroke="white" stroke-width="1.99832" stroke-linecap="round" stroke-linejoin="round"/>
<path d="M1187 38.0001H1205" stroke="white" stroke-width="1.99832" stroke-linecap="round" stroke-linejoin="round"/>
<path d="M1187 50.0001H1205" stroke="white" stroke-width="1.99832" stroke-linecap="round" stroke-linejoin="round"/>
<rect width="375" height="261" transform="translate(857 505)" fill="url(#paint3_linear_10013_212)"/>
<rect x="881.5" y="513.5" width="326" height="244" rx="11.5" stroke="white"/>
<circle cx="917" cy="124" r="35.6604" stroke="#343434" stroke-width="0.679245"/>
<g clip-path="url(#clip3_10013_212)">
<path d="M920.139 115.302L914.719 122.592L918.837 128.119L916.526 129.882L909.99 121.15L901.302 132.793H933.184L920.139 115.302Z" fill="#F67ACB"/>
</g>
<circle cx="1002" cy="124" r="35.6604" stroke="#343434" stroke-width="0.679245"/>
<g clip-path="url(#clip4_10013_212)">
<path d="M1005.14 115.302L999.719 122.592L1003.84 128.119L1001.53 129.882L994.99 121.15L986.302 132.793H1018.18L1005.14 115.302Z" fill="#F67ACB"/>
</g>
<circle cx="1087" cy="124" r="35.6604" stroke="#343434" stroke-width="0.679245"/>
<g clip-path="url(#clip5_10013_212)">
<path d="M1090.14 115.302L1084.72 122.592L1088.84 128.119L1086.53 129.882L1079.99 121.15L1071.3 132.793H1103.18L1090.14 115.302Z" fill="#F67ACB"/>
</g>
<circle cx="1172" cy="124" r="35.6604" stroke="#343434" stroke-width="0.679245"/>
<g clip-path="url(#clip6_10013_212)">
<path d="M1175.14 115.302L1169.72 122.592L1173.84 128.119L1171.53 129.882L1164.99 121.15L1156.3 132.793H1188.18L1175.14 115.302Z" fill="#F67ACB"/>
</g>
<rect width="375" height="261" transform="translate(857 176)" fill="url(#paint4_linear_10013_212)"/>
<rect x="881.5" y="184.5" width="326" height="244" rx="11.5" stroke="white"/>
<rect x="881" y="376" width="327" height="1" rx="0.5" fill="black"/>
<path d="M914.367 396.842C913.941 396.416 913.436 396.078 912.879 395.848C912.323 395.617 911.727 395.499 911.125 395.499C910.523 395.499 909.927 395.617 909.37 395.848C908.814 396.078 908.309 396.416 907.883 396.842L907 397.725L906.117 396.842C905.257 395.982 904.091 395.499 902.875 395.499C901.659 395.499 900.493 395.982 899.633 396.842C898.774 397.702 898.291 398.868 898.291 400.083C898.291 401.299 898.774 402.465 899.633 403.325L900.517 404.208L907 410.692L913.483 404.208L914.367 403.325C914.792 402.899 915.13 402.394 915.361 401.838C915.591 401.282 915.71 400.686 915.71 400.083C915.71 399.481 915.591 398.885 915.361 398.329C915.13 397.773 914.792 397.267 914.367 396.842V396.842Z" stroke="white" stroke-width="1.5" stroke-linecap="round" stroke-linejoin="round"/>
<path d="M950.5 405.5C950.5 405.942 950.324 406.366 950.012 406.679C949.699 406.991 949.275 407.167 948.833 407.167H938.833L935.5 410.5V397.167C935.5 396.725 935.676 396.301 935.988 395.988C936.301 395.676 936.725 395.5 937.167 395.5H948.833C949.275 395.5 949.699 395.676 950.012 395.988C950.324 396.301 950.5 396.725 950.5 397.167V405.5Z" stroke="white" stroke-width="1.5" stroke-linecap="round" stroke-linejoin="round"/>
<path d="M1187.83 410.5L1182 406.333L1176.17 410.5V397.167C1176.17 396.725 1176.34 396.301 1176.65 395.988C1176.97 395.676 1177.39 395.5 1177.83 395.5H1186.17C1186.61 395.5 1187.03 395.676 1187.35 395.988C1187.66 396.301 1187.83 396.725 1187.83 397.167V410.5Z" stroke="white" stroke-width="1.5" stroke-linecap="round" stroke-linejoin="round"/>
<rect width="375" height="68" transform="translate(857 437)" fill="url(#paint5_linear_10013_212)"/>
<rect x="881" y="461" width="208" height="2" fill="white"/>
<rect x="881" y="479" width="122" height="2" fill="white"/>
<path d="M917.927 53.2705C914.263 53.2705 911.796 50.9275 911.796 48.0112H914.812C914.837 49.3572 916.108 50.5785 918.002 50.5785C919.747 50.5785 920.869 49.5067 920.869 48.1608C920.869 46.9643 919.847 46.2664 918.401 45.8676L916.257 45.2694C912.568 44.3222 911.92 42.1038 911.92 40.6083C911.92 37.5673 914.587 35.4985 917.753 35.4985C920.894 35.4985 923.361 37.4427 923.361 40.6581H920.345C920.345 39.2374 919.273 38.2154 917.678 38.2154C916.208 38.2154 914.986 39.2124 914.986 40.5584C914.986 41.032 915.136 42.029 917.105 42.5525L919.149 43.1507C921.841 43.8985 923.91 45.2943 923.91 48.0361C923.91 51.1768 921.292 53.2705 917.927 53.2705Z" fill="white"/>
<path d="M929.676 41.3311H932.144V43.6243H929.676V52.9714H926.785V43.6243H924.691V41.3311H926.785V37.0439H929.676V41.3311Z" fill="white"/>
<path d="M939.839 41.032C940.537 41.032 941.284 41.1816 941.733 41.4308L941.16 44.1726C940.487 43.8237 939.888 43.7489 939.465 43.7489C937.57 43.7489 936.523 45.6433 936.523 48.9085V52.9714H933.607V41.3311H936.499V43.8237C937.122 41.8795 938.393 41.032 939.839 41.032Z" fill="white"/>
<path d="M951.038 47.5625V41.3311H953.93V52.9714H951.038V51.1518C950.44 52.6224 948.596 53.2705 947.424 53.2705C944.433 53.2705 942.763 51.2515 942.763 47.8616V41.3311H945.654V47.737C945.654 49.6064 946.776 50.5785 948.072 50.5785C949.393 50.5785 951.038 49.8308 951.038 47.5625Z" fill="white"/>
<path d="M962.207 53.2705C958.842 53.2705 955.876 50.8278 955.876 47.1388C955.876 43.4498 958.842 41.032 962.207 41.032C964.226 41.032 965.871 41.9293 966.943 43.2753L964.899 44.8955C964.301 44.1726 963.304 43.724 962.257 43.724C960.238 43.724 958.792 45.1697 958.792 47.1388C958.792 49.083 960.238 50.5785 962.257 50.5785C963.304 50.5785 964.301 50.1299 964.899 49.407L966.943 51.0272C965.871 52.3732 964.226 53.2705 962.207 53.2705Z" fill="white"/>
<path d="M972.618 41.3311H975.085V43.6243H972.618V52.9714H969.726V43.6243H967.632V41.3311H969.726V37.0439H972.618V41.3311Z" fill="white"/>
<path d="M983.054 41.032C986.319 41.032 988.961 43.5994 988.961 47.1388C988.961 50.6782 986.319 53.2705 983.054 53.2705C981.11 53.2705 979.265 52.2735 978.418 50.6782V52.9714H976.823V35H978.418V43.5994C979.29 42.0041 981.085 41.032 983.054 41.032ZM982.929 51.75C985.397 51.75 987.391 49.7061 987.391 47.1139C987.391 44.5465 985.397 42.5525 982.929 42.5525C980.611 42.5525 978.418 44.3721 978.418 47.1887C978.418 49.8806 980.512 51.75 982.929 51.75Z" fill="white"/>
<path d="M996.694 53.2705C993.379 53.2705 990.612 50.8278 990.612 47.1388C990.612 43.4498 993.379 41.032 996.694 41.032C1000.01 41.032 1002.8 43.4498 1002.8 47.1388C1002.8 50.8278 1000.01 53.2705 996.694 53.2705ZM996.694 51.75C999.137 51.75 1001.21 49.8806 1001.21 47.1388C1001.21 44.397 999.137 42.5525 996.694 42.5525C994.227 42.5525 992.208 44.397 992.208 47.1388C992.208 49.8806 994.227 51.75 996.694 51.75Z" fill="white"/>
<path d="M1010.5 53.2705C1007.19 53.2705 1004.42 50.8278 1004.42 47.1388C1004.42 43.4498 1007.19 41.032 1010.5 41.032C1013.82 41.032 1016.61 43.4498 1016.61 47.1388C1016.61 50.8278 1013.82 53.2705 1010.5 53.2705ZM1010.5 51.75C1012.95 51.75 1015.01 49.8806 1015.01 47.1388C1015.01 44.397 1012.95 42.5525 1010.5 42.5525C1008.04 42.5525 1006.02 44.397 1006.02 47.1388C1006.02 49.8806 1008.04 51.75 1010.5 51.75Z" fill="white"/>
<path d="M1022.32 53.2705C1020.3 53.2705 1018.28 52.099 1018.08 49.8806H1019.55C1019.72 50.8527 1020.62 51.8498 1022.32 51.8498C1023.99 51.8498 1025.01 50.9774 1025.01 49.8058C1025.01 48.8587 1024.36 48.2355 1023.16 47.9364L1021.49 47.5376C1019.85 47.1388 1018.53 46.2913 1018.53 44.3471C1018.53 42.4528 1020.15 41.032 1022.37 41.032C1024.31 41.032 1026.11 42.1038 1026.18 44.1976H1024.64C1024.56 43.1507 1023.54 42.4528 1022.39 42.4528C1021.05 42.4528 1020.12 43.2753 1020.12 44.3721C1020.12 45.4688 1021.07 45.9424 1021.92 46.1418L1023.64 46.5655C1025.91 47.1139 1026.6 48.4848 1026.6 49.8308C1026.6 51.8996 1024.73 53.2705 1022.32 53.2705Z" fill="white"/>
<path d="M1031.33 41.3311H1034V42.702H1031.33V52.9714H1029.76V42.702H1027.64V41.3311H1029.76V36.9691H1031.33V41.3311Z" fill="white"/>
<path d="M901.222 36.2186H890.533C890.097 36.2186 890.004 36.25 889.754 36.5014L881.28 44.418C881.031 44.6693 881 44.7636 881 45.2034V49.8533C881 52.4917 882.309 53.8112 884.926 53.8112H895.614C896.05 53.8112 896.143 53.7798 896.392 53.5285L904.867 45.6119C905.116 45.3605 905.147 45.2663 905.147 44.8264V40.1773C905.147 37.5382 903.839 36.2186 901.222 36.2186Z" fill="#F67ACB"/>
<g clip-path="url(#clip7_10013_212)">
<path d="M1052.03 268.374L1038.6 286.429L1048.8 300.118L1043.08 304.483L1026.89 282.857L1005.37 311.692H1084.33L1052.03 268.374Z" fill="#F67ACB"/>
</g>
</g>
<path d="M856 40C856 17.3563 874.356 -1 897 -1H1192C1214.64 -1 1233 17.3563 1233 40H1231C1231 18.4609 1213.54 1 1192 1H897C875.461 1 858 18.4609 858 40H856ZM1232 650H857H1232ZM897 650C874.356 650 856 631.644 856 609V40C856 17.3563 874.356 -1 897 -1V1C875.461 1 858 18.4609 858 40V610C858 632.091 875.461 650 897 650ZM1192 -1C1214.64 -1 1233 17.3563 1233 40V609C1233 631.644 1214.64 650 1192 650C1213.54 650 1231 632.091 1231 610V40C1231 18.4609 1213.54 1 1192 1V-1Z" fill="white" mask="url(#path-31-inside-2_10013_212)"/>
<path d="M3.99931 83.4434C6.55601 82.7366 9.01201 82.0684 11.4638 81.3915C11.9532 81.2587 12.2985 81.1645 12.8864 80.8993C13.325 80.7068 14.2467 80.2791 13.9475 79.8655C13.6635 79.55 13.4201 79.3625 12.5481 79.5128C10.2979 79.912 8.1187 80.6355 5.9529 81.3419C4.0408 81.9669 2.59191 82.472 0.931207 83.1223C0.155607 83.4261 0.0315071 83.9298 0.443307 84.5524C0.813107 85.111 1.1824 85.691 1.6539 86.1684C3.3442 87.8992 5.0746 89.5787 6.7958 91.2838C7.0083 91.4969 7.1606 91.676 7.4512 91.8933C7.8059 92.1532 8.0488 92.3621 8.3766 92.0758C8.691 91.8066 8.42421 91.3034 8.23811 91.0774C6.72591 89.1545 3.538 85.2404 3.4175 84.9931C4.9169 85.1494 6.30871 85.2631 7.69441 85.4537C17.337 86.8262 26.7823 88.8645 35.5668 93.0927C42.5198 96.4395 48.9308 100.546 54.6688 105.636C55.0098 105.934 55.3808 106.207 55.7448 106.462C56.2318 106.816 56.5508 106.914 56.7608 106.675C57.0928 106.175 56.8268 105.851 56.6378 105.574C56.2678 105.015 55.7698 104.529 55.2898 104.056C48.7968 97.7941 41.1218 93.2789 32.7868 89.7501C24.2328 86.1276 15.1637 84.5497 5.9085 83.7273C5.4182 83.7022 4.21461 83.5286 3.99931 83.4434Z" fill="#F67ACB"/>
<defs>
<linearGradient id="paint0_linear_10013_212" x1="-127.497" y1="-121.423" x2="1301.37" y2="-162.736" gradientUnits="userSpaceOnUse">
<stop stop-color="#000205"/>
<stop offset="1" stop-color="#000205"/>
</linearGradient>
<linearGradient id="paint1_linear_10013_212" x1="808.302" y1="-227.836" x2="1293.59" y2="-231.711" gradientUnits="userSpaceOnUse">
<stop stop-color="#000205"/>
<stop offset="1" stop-color="#000205"/>
</linearGradient>
<linearGradient id="paint2_linear_10013_212" x1="-48.6979" y1="-30.8455" x2="434.934" y2="-59.3718" gradientUnits="userSpaceOnUse">
<stop stop-color="#050003"/>
<stop offset="1" stop-color="#060004"/>
</linearGradient>
<linearGradient id="paint3_linear_10013_212" x1="-48.6979" y1="-91.4849" x2="436.425" y2="-101.133" gradientUnits="userSpaceOnUse">
<stop stop-color="#000205"/>
<stop offset="1" stop-color="#000205"/>
</linearGradient>
<linearGradient id="paint4_linear_10013_212" x1="-48.6979" y1="-91.4849" x2="436.425" y2="-101.133" gradientUnits="userSpaceOnUse">
<stop stop-color="#000205"/>
<stop offset="1" stop-color="#000205"/>
</linearGradient>
<linearGradient id="paint5_linear_10013_212" x1="-48.6979" y1="-23.8351" x2="433.805" y2="-60.6653" gradientUnits="userSpaceOnUse">
<stop stop-color="#000205"/>
<stop offset="1" stop-color="#000205"/>
</linearGradient>
<clipPath id="clip0_10013_212">
<path d="M16 95.1786C16 77.9591 29.9591 64 47.1786 64H1089.82C1107.04 64 1121 77.9591 1121 95.1786V593H16V95.1786Z" fill="white"/>
</clipPath>
<clipPath id="clip1_10013_212">
<rect width="161" height="88" fill="white" transform="translate(751 327)"/>
</clipPath>
<clipPath id="clip2_10013_212">
<path d="M857 40C857 17.9086 874.909 0 897 0H1192C1214.09 0 1232 17.9086 1232 40V610C1232 632.091 1214.09 650 1192 650H897C874.909 650 857 632.091 857 610V40Z" fill="white"/>
</clipPath>
<clipPath id="clip3_10013_212">
<rect width="32" height="17.4907" fill="white" transform="translate(901.302 115.302)"/>
</clipPath>
<clipPath id="clip4_10013_212">
<rect width="32" height="17.4907" fill="white" transform="translate(986.302 115.302)"/>
</clipPath>
<clipPath id="clip5_10013_212">
<rect width="32" height="17.4907" fill="white" transform="translate(1071.3 115.302)"/>
</clipPath>
<clipPath id="clip6_10013_212">
<rect width="32" height="17.4907" fill="white" transform="translate(1156.3 115.302)"/>
</clipPath>
<clipPath id="clip7_10013_212">
<rect width="79.2523" height="43.318" fill="white" transform="translate(1005.37 268.374)"/>
</clipPath>
</defs>
</svg>
