<svg width="20" height="20" fill="none" xmlns="http://www.w3.org/2000/svg"><path d="M10 6.147a3.853 3.853 0 100 7.707 3.853 3.853 0 000-7.707zm0 6.356a2.503 2.503 0 110-5.006 2.503 2.503 0 010 5.006zM14.005 6.904a.898.898 0 100-1.796.898.898 0 000 1.796z" fill="#F67ACB"/><path d="M17.11 5.092A3.838 3.838 0 0014.917 2.9a5.505 5.505 0 00-1.821-.35c-.803-.035-1.057-.045-3.092-.045s-2.296 0-3.092.045a5.462 5.462 0 00-1.82.35 3.833 3.833 0 00-2.194 2.193 5.488 5.488 0 00-.349 1.822c-.036.802-.047 1.056-.047 3.092 0 2.035 0 2.294.047 3.091.013.624.13 1.239.35 1.823a3.841 3.841 0 002.194 2.193 5.485 5.485 0 001.821.375c.803.035 1.057.046 3.092.046s2.296 0 3.091-.046a5.511 5.511 0 001.822-.349 3.844 3.844 0 002.194-2.194c.22-.583.337-1.198.35-1.822.035-.801.046-1.055.046-3.091 0-2.036 0-2.295-.046-3.092a5.483 5.483 0 00-.351-1.848zm-1.014 7.944c-.006.48-.093.956-.26 1.407a2.491 2.491 0 01-1.426 1.425 4.153 4.153 0 01-1.392.26c-.792.036-1.015.045-3.045.045-2.032 0-2.239 0-3.046-.045a4.132 4.132 0 01-1.39-.26 2.488 2.488 0 01-1.433-1.425 4.234 4.234 0 01-.26-1.391c-.035-.792-.043-1.015-.043-3.045 0-2.031 0-2.239.044-3.046.005-.48.093-.956.259-1.406a2.489 2.489 0 011.432-1.427 4.175 4.175 0 011.391-.259c.793-.036 1.015-.046 3.046-.046 2.031 0 2.24 0 3.045.046.475.006.946.094 1.392.26a2.493 2.493 0 011.426 1.426c.164.446.252.916.26 1.39.035.793.045 1.016.045 3.047 0 2.03 0 2.248-.036 3.045l-.01-.001z" fill="#F67ACB"/></svg>