<svg width="23" height="17" fill="none" xmlns="http://www.w3.org/2000/svg"><path d="M22.062 8.49c0-.054 0-.116-.002-.187l-.013-.663a37.148 37.148 0 00-.108-2.016c-.074-.89-.182-1.63-.33-2.187a3.436 3.436 0 00-2.42-2.425c-.697-.187-2.061-.303-3.982-.374-.913-.035-1.89-.057-2.868-.07l-.946-.01h-.724l-.945.01c-.978.013-1.955.035-2.869.07-1.92.074-3.287.19-3.982.374a3.431 3.431 0 00-2.42 2.425c-.15.557-.256 1.298-.33 2.187C.07 6.269.034 6.954.015 7.64c-.008.24-.01.463-.013.663L0 8.49v.138c0 .054 0 .116.002.187l.013.662c.02.687.054 1.372.108 2.017.074.889.182 1.63.33 2.186a3.431 3.431 0 002.42 2.426c.695.187 2.061.303 3.982.374.914.035 1.891.057 2.869.069.342.005.66.007.945.01h.724c.286-.003.603-.005.946-.01.977-.012 1.955-.034 2.868-.069 1.92-.074 3.287-.19 3.982-.374a3.427 3.427 0 002.42-2.426c.15-.556.256-1.297.33-2.186.054-.645.089-1.33.108-2.017.008-.239.01-.463.013-.662l.002-.187V8.49zm-1.773.128c0 .052 0 .108-.002.175l-.012.633a33.27 33.27 0 01-.104 1.918c-.066.793-.16 1.443-.276 1.878-.152.57-.6 1.02-1.167 1.17-.517.138-1.82.249-3.59.315a111.683 111.683 0 01-3.755.076h-.704l-.93-.007c-.964-.012-1.926-.034-2.825-.069-1.77-.069-3.075-.177-3.59-.315a1.66 1.66 0 01-1.167-1.17c-.116-.435-.21-1.085-.276-1.878a35.679 35.679 0 01-.103-1.918c-.008-.23-.01-.444-.013-.633l-.002-.175V8.5c0-.052 0-.109.002-.175l.013-.633c.017-.655.051-1.31.103-1.918.067-.793.16-1.443.276-1.879.152-.569.6-1.02 1.167-1.17.517-.137 1.82-.248 3.59-.315a111.864 111.864 0 013.755-.076h.704l.93.008c.964.012 1.926.034 2.825.068 1.77.07 3.076.178 3.59.316.566.152 1.015.6 1.167 1.17.116.435.21 1.085.276 1.878.052.608.084 1.263.104 1.918.007.23.01.443.012.633l.002.175v.118zm-11.45 3.24l5.713-3.324L8.84 5.26v6.6z" fill="white"/></svg>