<svg width="17" height="17" fill="none" xmlns="http://www.w3.org/2000/svg"><path d="M8.131.559c-2.174 0-2.445.01-3.297.046C3.98.647 3.402.78 2.892.978a3.924 3.924 0 00-1.417.925A3.879 3.879 0 00.55 3.319C.352 3.83.22 4.407.178 5.262.139 6.114.13 6.384.13 8.559s.01 2.446.047 3.297c.042.852.174 1.432.372 1.943.202.533.517 1.017.925 1.416a3.88 3.88 0 001.417.925c.51.195 1.09.33 1.942.372.852.039 1.123.047 3.297.047 2.175 0 2.446-.01 3.297-.047.852-.042 1.433-.177 1.943-.372a3.925 3.925 0 001.417-.925c.409-.398.725-.882.924-1.416.196-.51.33-1.091.373-1.943.038-.852.046-1.122.046-3.297s-.01-2.446-.046-3.297c-.042-.852-.178-1.436-.373-1.943a3.924 3.924 0 00-.924-1.416A3.859 3.859 0 0013.37.978c-.51-.198-1.09-.33-1.943-.373C10.577.567 10.306.56 8.131.56zm0 1.44c2.136 0 2.391.01 3.235.047.779.036 1.203.166 1.484.276.348.129.664.333.923.599.265.258.468.572.596.92.11.28.24.705.276 1.483.036.845.047 1.1.047 3.235 0 2.136-.01 2.391-.05 3.235-.042.779-.172 1.203-.281 1.484a2.6 2.6 0 01-.6.922c-.26.264-.575.468-.922.597-.278.11-.708.24-1.49.276-.848.036-1.098.047-3.24.047-2.14 0-2.39-.01-3.24-.05-.779-.042-1.208-.172-1.49-.281a2.51 2.51 0 01-.92-.6 2.402 2.402 0 01-.598-.922c-.112-.278-.24-.708-.281-1.49-.029-.838-.042-1.098-.042-3.23 0-2.13.013-2.39.042-3.24.041-.781.169-1.21.281-1.49.138-.38.318-.64.599-.921.278-.279.54-.459.92-.6.28-.11.7-.24 1.481-.278.85-.031 1.1-.042 3.237-.042l.033.023zm0 2.454a4.106 4.106 0 00-2.904 7.011 4.105 4.105 0 004.476.89 4.106 4.106 0 001.333-6.699A4.106 4.106 0 008.13 4.453zm0 6.774A2.665 2.665 0 015.465 8.56 2.665 2.665 0 018.13 5.893a2.665 2.665 0 012.667 2.667 2.665 2.665 0 01-2.667 2.667zm5.233-6.938a.962.962 0 01-1.921 0 .96.96 0 011.921 0z" fill="white"/></svg>