<svg width="20" height="17" fill="none" xmlns="http://www.w3.org/2000/svg"><path d="M19.826 2.46a8.094 8.094 0 01-2.324.624A4.026 4.026 0 0019.277.86c-.791.471-1.658.8-2.561.976a4.026 4.026 0 00-2.95-1.276 4.035 4.035 0 00-4.035 4.038c0 .312.038.625.1.925a11.47 11.47 0 01-8.322-4.225 4.008 4.008 0 00-.55 2.038c0 1.401.713 2.637 1.8 3.363a4.071 4.071 0 01-1.825-.513v.05a4.037 4.037 0 003.235 3.962c-.347.09-.704.136-1.063.137a5.37 5.37 0 01-.762-.061c.512 1.6 2 2.762 3.773 2.8a8.089 8.089 0 01-5.01 1.725c-.339 0-.651-.012-.976-.05a11.429 11.429 0 006.2 1.81c7.422 0 11.483-6.148 11.483-11.486 0-.175 0-.35-.012-.525a8.693 8.693 0 002.024-2.088z" fill="white"/></svg>