<svg width="213" height="459" fill="none" xmlns="http://www.w3.org/2000/svg"><mask id="a" style="mask-type:alpha" maskUnits="userSpaceOnUse" x="0" y="0" width="213" height="459"><path fill-rule="evenodd" clip-rule="evenodd" d="M.806 25.358c-.024.452-.036.907-.036 1.365v406.218c0 14.333 11.62 25.952 25.953 25.952H186.39c14.334 0 25.953-11.619 25.953-25.952V26.723l-.001-.168C212.251 12.3 200.667.77 186.389.77h-16.973a5 5 0 00-3.338 4.715c0 6.9-5.593 12.493-12.492 12.493H58.963c-6.9 0-12.493-5.593-12.493-12.493A5 5 0 0043.132.77H26.723A25.851 25.851 0 009.797 7.048a26.096 26.096 0 00-4.594 5.165A25.812 25.812 0 00.806 25.358z" fill="black"/></mask><g mask="url(#a)"><path d="M.767.77h211.572v458.123H.767V.77z" fill="url(#paint0_linear_115_644)"/><rect x=".508" y=".934" width="211.364" height="457.674" rx="9.018" fill="url(#paint1_linear_115_644)"/><path fill-rule="evenodd" clip-rule="evenodd" d="M53.995 74.906a.376.376 0 00.678 0l2.745-5.755h.273l2.744 5.755a.376.376 0 00.679 0l2.745-5.755h.272l2.745 5.755a.376.376 0 00.678 0l2.745-5.755h.272l2.745 5.755a.376.376 0 00.679 0l2.744-5.755h.273l2.745 5.755a.376.376 0 00.678 0l2.745-5.755h.273l2.745 5.755a.376.376 0 00.678 0l2.745-5.755h.272l2.745 5.755a.376.376 0 00.678 0l2.745-5.755h.272l2.745 5.755a.376.376 0 00.679 0l2.744-5.755h.273l2.745 5.755a.376.376 0 00.678 0l2.745-5.755h.273l2.745 5.755a.376.376 0 00.678 0l2.745-5.755h.272l2.745 5.755a.376.376 0 00.678 0l2.745-5.755h.273l2.744 5.755a.376.376 0 00.679 0l2.745-5.755h.272l2.745 5.755a.376.376 0 00.679 0l2.744-5.755h.273l2.745 5.755a.376.376 0 00.678 0l2.745-5.755h.272l2.745 5.755a.376.376 0 00.678 0l2.745-5.755h.273l2.744 5.755a.376.376 0 00.679 0l2.745-5.755h.272l2.745 5.755a.376.376 0 00.679 0l2.744-5.755h.272l2.745 5.755a.376.376 0 00.679 0l2.745-5.755h.272l2.745 5.755a.376.376 0 00.678 0l2.745-5.755h.288l2.745 5.755a.376.376 0 00.678 0l2.745-5.755h.288l2.744 5.755a.376.376 0 00.679 0l2.745-5.755h.287l2.745 5.755a.376.376 0 00.678 0l2.745-5.755h.394v301.358H18.544V69.151h.503l2.745 5.755a.376.376 0 00.679 0l2.744-5.755h.273l2.745 5.755a.376.376 0 00.678 0l2.745-5.755h.272l2.745 5.755a.376.376 0 00.679 0l2.745-5.755h.272l2.745 5.755a.376.376 0 00.678 0l2.745-5.755h.272l2.745 5.755a.376.376 0 00.678 0l2.745-5.755h.273l2.745 5.755z" fill="#FBF9BE"/><path opacity=".6" fill="url(#paint2_linear_115_644)" d="M18.544 327.673h174.728v37.576H18.544z"/><path d="M9.15 353.976h193.516v19.539a3.006 3.006 0 01-3.006 3.006H12.156a3.006 3.006 0 01-3.006-3.006v-19.539zM18.544 353.976H9.15l9.394-4.885v4.885zM193.272 353.976h9.394l-9.394-4.885v4.885z" fill="#33159E"/><path d="M71.607 48.063a4.15 4.15 0 003.379-1.72l-1.275-.938c-.469.674-1.166 1.083-2.056 1.083-1.503 0-2.585-1.203-2.585-2.682 0-1.479 1.094-2.657 2.597-2.657.878 0 1.575.409 2.044 1.07l1.275-.926a4.117 4.117 0 00-3.379-1.72c-2.345 0-4.208 1.9-4.208 4.233 0 2.357 1.863 4.257 4.208 4.257zm7.098 0c1.6 0 3.019-1.155 3.019-2.922 0-1.78-1.42-2.934-3.019-2.934-1.599 0-3.018 1.154-3.018 2.934 0 1.767 1.42 2.922 3.018 2.922zm0-1.467c-.781 0-1.418-.59-1.418-1.455 0-.878.637-1.467 1.418-1.467.782 0 1.42.59 1.42 1.467 0 .866-.638 1.455-1.42 1.455zm11.1-4.389c-.576 0-1.442.264-1.875 1.082-.325-.685-.974-1.082-1.804-1.082-.625 0-1.418.373-1.587 1.142v-.998h-1.575v5.604h1.575v-2.922c0-1.01.577-1.275 1.143-1.275.529 0 .986.349.986 1.227v2.97h1.575v-2.97c.036-.842.48-1.239 1.106-1.227.553 0 1.01.36 1.01 1.239v2.958h1.587v-3.079c0-1.683-.733-2.669-2.14-2.669zm7.024 0c-.637 0-1.407.252-1.804.818v-.674H93.45v8.357h1.575v-3.45c.397.564 1.167.805 1.804.805 1.443 0 2.754-1.118 2.754-2.922s-1.311-2.934-2.754-2.934zm-.3 4.377c-.734 0-1.456-.577-1.456-1.443 0-.854.686-1.455 1.455-1.455.794 0 1.443.637 1.443 1.455 0 .83-.65 1.443-1.443 1.443zm7.518-4.377c-.698 0-1.335.397-1.648 1.335v-1.19h-1.563v5.603h1.575V46.03c0-1.6.553-2.345 1.359-2.345.192 0 .469.024.806.204l.36-1.503c-.252-.132-.589-.18-.889-.18zm4.273 5.856c1.599 0 3.018-1.155 3.018-2.922 0-1.78-1.419-2.934-3.018-2.934-1.599 0-3.018 1.154-3.018 2.934 0 1.767 1.419 2.922 3.018 2.922zm0-1.467c-.782 0-1.419-.59-1.419-1.455 0-.878.637-1.467 1.419-1.467.781 0 1.419.59 1.419 1.467 0 .866-.638 1.455-1.419 1.455zm7.809-4.245l-1.347 3.584-1.371-3.584h-1.707l2.369 5.604h1.406l2.369-5.604h-1.719zm6.647 0v.674c-.397-.566-1.154-.806-1.804-.806-1.443 0-2.753 1.118-2.753 2.922s1.31 2.922 2.753 2.922c.626 0 1.407-.253 1.804-.806v.698h1.575V42.35h-1.575zm-1.503 4.245a1.452 1.452 0 01-1.455-1.455c0-.83.661-1.443 1.455-1.443.733 0 1.455.577 1.455 1.443 0 .854-.686 1.455-1.455 1.455zm7.927-4.389c-.553 0-1.443.325-1.683 1.082v-.938h-1.576v5.604h1.576V45.08c0-1.022.697-1.323 1.262-1.323.541 0 1.07.397 1.07 1.287v2.91h1.576v-3.079c.012-1.683-.758-2.669-2.225-2.669zm6.976.144h-1.19v-2.056h-1.575v2.056h-1.022v1.215h1.022v4.389h1.575v-4.39h1.19v-1.214zm6.476 2.706c0-1.72-1.311-2.85-2.91-2.85-1.611 0-2.982 1.13-2.982 2.946 0 1.731 1.263 2.91 2.982 2.91.986 0 1.972-.385 2.501-1.094l-.926-.926c-.336.397-.902.625-1.467.625-.757 0-1.286-.36-1.455-1.01h4.233c.012-.253.024-.445.024-.601zm-4.257-.421c.169-.758.734-1.058 1.371-1.058.71 0 1.263.397 1.311 1.058h-2.682z" fill="white"/><path fill-rule="evenodd" clip-rule="evenodd" d="M23.518 43.836l-4.58 4.58.797.798 4.58-4.58 4.58 4.58.797-.797-4.58-4.58 4.58-4.581-.797-.797-4.58 4.58-4.58-4.58-.798.797 4.58 4.58z" fill="white"/><rect x="38.835" y="406.378" width="133.723" height="27.43" rx="13.715" fill="white"/><path d="M81.304 423.631c-1.783 0-3.2-1.463-3.2-3.246s1.417-3.274 3.2-3.274c.997 0 1.865.439 2.423 1.134l-.695.558a2.215 2.215 0 00-1.719-.814c-1.28 0-2.267 1.097-2.267 2.396 0 1.289.978 2.368 2.267 2.368.695 0 1.317-.32 1.72-.814l.694.558c-.558.695-1.426 1.134-2.423 1.134zm5.29 0c-1.217 0-2.24-.896-2.24-2.25 0-1.353 1.023-2.24 2.24-2.24 1.216 0 2.249.887 2.249 2.24 0 1.354-1.033 2.25-2.25 2.25zm0-.841c.731 0 1.353-.577 1.353-1.409 0-.822-.622-1.399-1.353-1.399-.732 0-1.345.577-1.345 1.399 0 .832.613 1.409 1.345 1.409zm8.404-3.649c1.07 0 1.645.723 1.645 1.939v2.441h-.905v-2.396c0-.694-.365-1.124-.942-1.124-.704-.009-1.07.494-1.07 1.39v2.13h-.904v-2.396c0-.694-.366-1.124-.897-1.124-.557 0-1.124.356-1.124 1.225v2.295h-.896v-4.27h.896v.667c.192-.475.759-.777 1.335-.777a1.49 1.49 0 011.399.896c.365-.74 1.033-.896 1.463-.896zm5.302 0c1.153 0 2.122.896 2.122 2.25 0 1.362-.96 2.24-2.122 2.24-.603 0-1.197-.256-1.48-.741v2.707h-.897v-6.346h.896v.64c.284-.485.905-.75 1.481-.75zm-.109 3.649c.74 0 1.326-.586 1.326-1.39 0-.805-.586-1.418-1.326-1.418-.713 0-1.363.558-1.363 1.418 0 .859.704 1.39 1.363 1.39zm6.614-2.899v-.64h.896v4.27h-.896v-.722c-.274.493-.859.832-1.518.832-1.115 0-2.075-.933-2.075-2.25 0-1.271.905-2.24 2.112-2.24.622 0 1.207.265 1.481.75zm-1.362 2.899c.713 0 1.353-.604 1.353-1.409a1.4 1.4 0 00-1.372-1.399c-.731 0-1.307.641-1.307 1.399 0 .768.576 1.409 1.326 1.409zm5.709-3.649c.292 0 .594.073.731.156l-.155.85a1.51 1.51 0 00-.631-.146c-.777 0-1.143.832-1.143 1.984v1.536h-.905v-4.27h.905v.96c.22-.75.649-1.07 1.198-1.07zm2.739.11h.914v.75h-.914v3.52h-.896v-3.52h-.768v-.75h.768v-1.6h.896v1.6zm2.213-.978c-.329 0-.612-.247-.612-.576 0-.33.283-.576.612-.576.339 0 .613.246.613.576 0 .329-.274.576-.613.576zm.449 5.248h-.897v-4.27h.897v4.27zm2.241 0h-.896v-6.592h.896v6.592zm3.631-4.38c1.079 0 1.719.723 1.71 1.939v2.441h-.896v-2.386c0-.695-.421-1.116-.97-1.116-.557 0-1.234.329-1.234 1.207v2.295h-.896v-6.592h.896v2.971c.247-.521.933-.759 1.39-.759zm6.31.75v-.64h.896v4.27h-.896v-.722c-.274.493-.859.832-1.518.832-1.115 0-2.075-.933-2.075-2.25 0-1.271.905-2.24 2.112-2.24.622 0 1.207.265 1.481.75zm-1.362 2.899c.713 0 1.353-.604 1.353-1.409a1.4 1.4 0 00-1.372-1.399c-.731 0-1.307.641-1.307 1.399 0 .768.576 1.409 1.326 1.409zm5.709-3.649c.292 0 .594.073.731.156l-.155.85a1.51 1.51 0 00-.631-.146c-.777 0-1.143.832-1.143 1.984v1.536h-.905v-4.27h.905v.96c.22-.75.649-1.07 1.198-1.07zM57.755 126.865c-1.758 0-3.156-1.443-3.156-3.201 0-1.759 1.398-3.229 3.156-3.229.956 0 1.786.406 2.336 1.055l-.595.505a2.293 2.293 0 00-1.74-.802c-1.308 0-2.337 1.136-2.337 2.471 0 1.325 1.029 2.444 2.336 2.444.695 0 1.326-.316 1.74-.803l.596.505c-.55.649-1.38 1.055-2.336 1.055zm5.182 0c-1.2 0-2.2-.884-2.2-2.218 0-1.335 1-2.21 2.2-2.21 1.2 0 2.21.875 2.21 2.21 0 1.334-1.01 2.218-2.21 2.218zm0-.739c.775 0 1.425-.605 1.425-1.479 0-.866-.65-1.47-1.425-1.47-.767 0-1.407.604-1.407 1.47 0 .874.64 1.479 1.407 1.479zm8.298-3.689c1.055 0 1.632.704 1.632 1.885v2.435h-.785v-2.39c0-.703-.387-1.172-1-1.172-.75-.009-1.137.514-1.137 1.452v2.11h-.784v-2.39c0-.712-.388-1.172-.947-1.172-.596 0-1.19.388-1.19 1.28v2.282h-.785v-4.212h.784v.65c.208-.46.758-.758 1.353-.758.613 0 1.145.325 1.389.902.388-.757 1.046-.902 1.47-.902zm5.22 0c1.154 0 2.11.893 2.11 2.219 0 1.334-.947 2.209-2.1 2.209-.632 0-1.227-.27-1.507-.766v2.705h-.784v-6.259h.784v.659c.28-.478.893-.767 1.497-.767zm-.072 3.689c.776 0 1.389-.614 1.389-1.461 0-.839-.613-1.488-1.389-1.488-.748 0-1.425.586-1.425 1.488 0 .911.74 1.461 1.425 1.461zm5.252-3.689c.298 0 .604.081.73.163l-.126.739a1.46 1.46 0 00-.613-.144c-.839 0-1.172.911-1.172 2.02v1.542h-.794v-4.212h.794v.956c.216-.739.622-1.064 1.181-1.064zm3.284 4.428c-1.2 0-2.2-.884-2.2-2.218 0-1.335 1-2.21 2.2-2.21 1.2 0 2.21.875 2.21 2.21 0 1.334-1.01 2.218-2.21 2.218zm0-.739c.775 0 1.425-.605 1.425-1.479 0-.866-.65-1.47-1.425-1.47-.767 0-1.407.604-1.407 1.47 0 .874.64 1.479 1.407 1.479zm4.783-.37l1.29-3.211h.847l-1.758 4.212h-.767l-1.75-4.212h.84l1.298 3.211zm6.17-2.552v-.659h.785v4.212h-.785v-.749c-.28.505-.866.857-1.542.857-1.1 0-2.065-.929-2.065-2.218 0-1.245.91-2.21 2.101-2.21.631 0 1.227.271 1.506.767zm-1.425 2.922c.749 0 1.425-.623 1.425-1.479 0-.866-.73-1.47-1.434-1.47-.766 0-1.38.676-1.38 1.47 0 .802.614 1.479 1.39 1.479zm5.767-3.689c1.046 0 1.704.704 1.695 1.885v2.435h-.784v-2.39c0-.703-.433-1.154-1.02-1.154-.586 0-1.29.352-1.29 1.262v2.282h-.784v-4.212h.785v.641c.252-.514.938-.749 1.398-.749zm4.061.108h.911v.677h-.911v3.535h-.785v-3.535h-.757v-.677h.757v-1.587h.785v1.587zm5.677 2.093c0 .117-.009.234-.018.351h-3.427c.117.749.658 1.137 1.38 1.137.514 0 .983-.235 1.226-.659l.677.271c-.361.73-1.119 1.127-1.93 1.127-1.2 0-2.165-.893-2.165-2.227 0-1.335.965-2.201 2.165-2.201 1.199 0 2.092.866 2.092 2.201zm-3.436-.325h2.651c-.099-.721-.613-1.136-1.307-1.136-.713 0-1.218.378-1.344 1.136zm9.825.721h-3.12v-.757h3.12v.757zm6.446-.983l-1.389 1.597h2.093v1.109h-3.977v-.64l2.308-2.769c.244-.298.406-.604.406-.803 0-.396-.325-.676-.784-.676-.524 0-.821.343-.893.857l-1.073-.181c.144-1.055.829-1.776 2.011-1.776 1.181 0 1.948.712 1.948 1.785 0 .569-.271 1.074-.65 1.497zm3.843 2.814c-1.723 0-2.21-1.371-2.21-3.048 0-1.704.487-3.048 2.21-3.048 1.704 0 2.182 1.344 2.182 3.048 0 1.677-.478 3.048-2.182 3.048zm0-1.1c.757 0 .974-.875.974-1.948 0-1.091-.217-1.948-.974-1.948-.776 0-1.01.857-1.01 1.948 0 1.073.234 1.948 1.01 1.948zm6.329-1.714l-1.389 1.597h2.093v1.109h-3.977v-.64l2.308-2.769c.244-.298.406-.604.406-.803 0-.396-.325-.676-.785-.676-.523 0-.82.343-.892.857l-1.074-.181c.145-1.055.83-1.776 2.011-1.776 1.182 0 1.948.712 1.948 1.785 0 .569-.27 1.074-.649 1.497zm3.788-3.282c1.38 0 2.291 1.154 2.291 2.832 0 1.749-.848 3.264-2.498 3.264-.776 0-1.542-.37-1.903-1.172l.956-.532c.18.406.55.604.929.604.739 0 1.271-.676 1.317-1.614-.289.297-.713.505-1.281.505-1.199 0-1.993-.875-1.993-1.903 0-1.127.866-1.984 2.182-1.984zm-.036 2.886c.595 0 1.019-.361 1.028-.875 0-.523-.405-.902-.992-.911-.577 0-.992.37-.992.893 0 .514.397.884.956.893zm6.897.92h.902v1.055h-.902v1.127h-1.199v-1.127h-2.85v-.352l3.346-4.428h.703v3.725zm-1.199-1.561l-1.163 1.561h1.163v-1.561zm5.065-2.245c1.38 0 2.291 1.154 2.291 2.832 0 1.749-.848 3.264-2.498 3.264-.776 0-1.542-.37-1.903-1.172l.956-.532c.18.406.55.604.929.604.739 0 1.271-.676 1.316-1.614-.288.297-.712.505-1.28.505-1.2 0-1.993-.875-1.993-1.903 0-1.127.865-1.984 2.182-1.984zm-.036 2.886c.595 0 1.019-.361 1.028-.875 0-.523-.406-.902-.992-.911-.577 0-.992.37-.992.893 0 .514.397.884.956.893zm2.992-1.867l2.453-1.019h.099v5.988h-1.19v-4.383l-1.362.523v-1.109zm5.975 5.077c-1.722 0-2.209-1.371-2.209-3.048 0-1.704.487-3.048 2.209-3.048 1.705 0 2.183 1.344 2.183 3.048 0 1.677-.478 3.048-2.183 3.048zm0-1.1c.758 0 .974-.875.974-1.948 0-1.091-.216-1.948-.974-1.948-.775 0-1.01.857-1.01 1.948 0 1.073.235 1.948 1.01 1.948z" fill="#33159E"/><path opacity=".3" d="M31.696 142.799h147.673M31.696 245.006h147.673" stroke="#855B35" stroke-width=".752"/><path d="M75.472 170h-1.976v-5.013h1.977c1.57 0 2.66 1 2.66 2.51 0 1.511-1.09 2.503-2.66 2.503zm-.909-4.073v3.134h.91c.992 0 1.57-.714 1.57-1.564 0-.886-.54-1.57-1.57-1.57h-.91zM82.437 170H78.89v-5.013h3.547v.917h-2.48v1.09h2.428v.917h-2.428v1.165h2.48V170zm7.725 0h-1.135l-.88-3.442-.87 3.442H86.14l-1.435-5.013H85.9l.88 3.623.953-3.623h.835l.947 3.623.871-3.623h1.203L90.162 170zm2.998 0h-1.067v-5.013h1.067V170zm4.182 0h-3.187v-5.013h1.067v4.074h2.12V170zm3.934 0h-3.187v-5.013h1.067v4.074h2.12V170zm1.814 0h-1.067v-5.013h1.067V170zm5.67 0h-1.165l-.316-.864h-2.239l-.316.864h-1.173l1.939-5.013h1.338L108.76 170zm-1.774-1.789l-.827-2.299-.834 2.299h1.661zm7.67 1.789h-1.075v-3.607L112.168 170h-.466l-1.412-3.607V170h-1.068v-5.013h1.496l1.217 3.127 1.218-3.127h1.503V170zm8.352 0h-1.075v-3.607L120.52 170h-.466l-1.413-3.607V170h-1.067v-5.013h1.496l1.217 3.127 1.218-3.127h1.503V170zm.755-2.503c0-1.51 1.104-2.592 2.615-2.592 1.518 0 2.623 1.082 2.623 2.592 0 1.511-1.105 2.593-2.623 2.593-1.511 0-2.615-1.082-2.615-2.593zm4.141 0c0-.939-.602-1.645-1.526-1.645s-1.518.706-1.518 1.645c0 .932.594 1.646 1.518 1.646s1.526-.714 1.526-1.646zm5.904 2.503h-1.225l-.985-1.796h-.781V170h-1.067v-5.013h2.344c1.045 0 1.684.684 1.684 1.616 0 .887-.556 1.36-1.097 1.488l1.127 1.909zm-1.12-3.404c0-.421-.323-.692-.751-.692h-1.12v1.383h1.12c.428 0 .751-.271.751-.691zm5.438 3.404h-3.547v-5.013h3.547v.917h-2.48v1.09h2.427v.917h-2.427v1.165h2.48V170zm1.901 0h-1.067v-5.013h1.067V170zm5.054 0h-1.225l-.985-1.796h-.781V170h-1.068v-5.013h2.345c1.045 0 1.684.684 1.684 1.616 0 .887-.557 1.36-1.098 1.488l1.128 1.909zm-1.12-3.404c0-.421-.323-.692-.752-.692h-1.119v1.383h1.119c.429 0 .752-.271.752-.691zm6.565 3.404h-1.165l-.316-.864h-2.239l-.316.864h-1.172l1.939-5.013h1.338l1.931 5.013zm-1.774-1.789l-.826-2.299-.835 2.299h1.661zM74.563 272h-1.067v-5.013h2.345c1.09 0 1.683.737 1.683 1.616 0 .872-.601 1.601-1.683 1.601h-1.278V272zm1.871-3.404c0-.414-.315-.692-.736-.692h-1.135v1.383h1.135c.42 0 .736-.271.736-.691zM82.302 272h-1.165l-.315-.864h-2.24l-.315.864h-1.173l1.94-5.013h1.337L82.302 272zm-1.773-1.789l-.827-2.299-.834 2.299h1.66zM86.823 272h-1.225l-.984-1.796h-.782V272h-1.067v-5.013h2.345c1.044 0 1.683.684 1.683 1.616 0 .887-.556 1.36-1.097 1.488L86.823 272zm-1.12-3.404c0-.421-.323-.692-.75-.692h-1.12v1.383h1.12c.427 0 .75-.271.75-.691zM92.27 272h-1.165l-.316-.864h-2.24l-.315.864h-1.172L89 266.987h1.337L92.27 272zm-1.774-1.789l-.827-2.299-.834 2.299h1.661zm6.88 1.789h-2.72v-5.013h2.637c.955 0 1.443.609 1.443 1.278 0 .631-.39 1.052-.864 1.15.534.082.962.601.962 1.232 0 .752-.504 1.353-1.458 1.353zm-1.653-4.103v1.104h1.337c.361 0 .587-.233.587-.556 0-.308-.226-.548-.587-.548h-1.337zm0 2.014v1.18h1.375c.406 0 .646-.233.646-.594 0-.316-.225-.586-.646-.586h-1.375zm4.983 2.089h-1.067v-5.013h1.067V272zm5.669 0h-1.165l-.315-.864h-2.24l-.315.864h-1.173l1.939-5.013h1.338l1.931 5.013zm-1.773-1.789l-.827-2.299-.834 2.299h1.661zm6.723 1.789h-1.03l-2.39-3.367V272h-1.067v-5.013h1.097l2.323 3.247v-3.247h1.067V272zm3.378.09c-1.466 0-2.63-1.052-2.63-2.593 0-1.54 1.164-2.592 2.63-2.592 1.142 0 1.781.601 2.134 1.225l-.917.451a1.371 1.371 0 00-1.217-.729c-.872 0-1.533.699-1.533 1.645 0 .947.661 1.646 1.533 1.646.556 0 1.007-.315 1.217-.729l.917.444c-.36.623-.992 1.232-2.134 1.232zm7.393-.09h-1.165l-.316-.864h-2.239l-.316.864h-1.172l1.938-5.013h1.338l1.932 5.013zm-1.774-1.789l-.827-2.299-.834 2.299h1.661zm9.593 1.789h-1.075v-3.607L127.426 272h-.466l-1.413-3.607V272h-1.067v-5.013h1.496l1.217 3.127 1.218-3.127h1.503V272zm.755-2.503c0-1.51 1.104-2.592 2.615-2.592 1.518 0 2.623 1.082 2.623 2.592 0 1.511-1.105 2.593-2.623 2.593-1.511 0-2.615-1.082-2.615-2.593zm4.141 0c0-.939-.602-1.645-1.526-1.645s-1.518.706-1.518 1.645c0 .932.594 1.646 1.518 1.646s1.526-.714 1.526-1.646zm5.904 2.503h-1.225l-.985-1.796h-.781V272h-1.067v-5.013H139c1.045 0 1.684.684 1.684 1.616 0 .887-.556 1.36-1.097 1.488l1.127 1.909zm-1.12-3.404c0-.421-.323-.692-.751-.692h-1.12v1.383h1.12c.428 0 .751-.271.751-.691zm5.438 3.404h-3.547v-5.013h3.547v.917h-2.48v1.09h2.427v.917h-2.427v1.165h2.48V272zm1.901 0h-1.067v-5.013h1.067V272zm5.054 0h-1.225l-.985-1.796h-.781V272h-1.068v-5.013h2.345c1.045 0 1.684.684 1.684 1.616 0 .887-.557 1.36-1.098 1.488l1.128 1.909zm-1.12-3.404c0-.421-.323-.692-.752-.692h-1.119v1.383h1.119c.429 0 .752-.271.752-.691zm6.565 3.404h-1.165l-.316-.864h-2.239l-.316.864h-1.172l1.939-5.013h1.338l1.931 5.013zm-1.774-1.789l-.826-2.299-.834 2.299h1.66zM33.777 196.521h.774l2.022-5.013h-.714l-1.69 4.329-1.692-4.329h-.714l2.014 5.013zm5.221 0h.564v-2.495c0-.88-.639-1.225-1.405-1.225-.594 0-1.06.195-1.45.601l.262.391c.323-.346.677-.504 1.112-.504.527 0 .917.278.917.767v.654c-.293-.339-.706-.496-1.202-.496-.616 0-1.27.383-1.27 1.195 0 .789.654 1.202 1.27 1.202.488 0 .902-.173 1.202-.504v.414zm0-.767c-.218.301-.6.451-1 .451-.525 0-.893-.331-.893-.789 0-.466.368-.797.894-.797.398 0 .781.151 1 .451v.684zm1.694.767h.563v-5.013h-.563v5.013zm3.273.09c1.105 0 1.797-.857 1.797-1.909s-.692-1.901-1.797-1.901c-1.104 0-1.796.849-1.796 1.901s.692 1.909 1.797 1.909zm0-.504c-.774 0-1.21-.661-1.21-1.405 0-.736.436-1.398 1.21-1.398.775 0 1.203.662 1.203 1.398 0 .744-.428 1.405-1.203 1.405zm2.715.414h.564v-2.57c.166-.294.639-.579.985-.579.09 0 .157.007.225.022v-.578c-.496 0-.917.278-1.21.661v-.586h-.563v3.63zm-14.398 16h2.285c.916 0 1.45-.549 1.45-1.353 0-.601-.444-1.15-.977-1.232.458-.098.88-.519.88-1.15 0-.752-.534-1.278-1.406-1.278h-2.232v5.013zm.624-2.841v-1.616h1.503c.563 0 .864.361.864.812 0 .458-.3.804-.864.804h-1.503zm0 2.285v-1.729h1.533c.616 0 .932.406.932.864 0 .534-.346.865-.932.865h-1.533zm6.35.556h.563v-2.495c0-.88-.639-1.225-1.406-1.225-.593 0-1.06.195-1.45.601l.263.391c.323-.346.677-.504 1.112-.504.526 0 .917.278.917.767v.654c-.293-.339-.706-.496-1.202-.496-.616 0-1.27.383-1.27 1.195 0 .789.654 1.202 1.27 1.202.488 0 .902-.173 1.202-.504v.414zm0-.767c-.219.301-.602.451-1 .451-.526 0-.895-.331-.895-.789 0-.466.369-.797.895-.797.398 0 .781.151 1 .451v.684zm4.143.767h.563v-2.548c0-.789-.398-1.172-1.157-1.172-.541 0-1.037.315-1.293.616v-.526h-.563v3.63h.563v-2.653c.21-.293.632-.564 1.075-.564.488 0 .812.203.812.842v2.375zm1.478-1.819c0 1.082.73 1.909 1.812 1.909.661 0 1.052-.271 1.33-.631l-.376-.346c-.24.323-.549.473-.924.473-.774 0-1.255-.601-1.255-1.405s.48-1.398 1.255-1.398c.375 0 .684.143.924.474l.376-.346c-.278-.361-.669-.631-1.33-.631-1.083 0-1.812.826-1.812 1.901zm5.517 1.909c1.105 0 1.797-.857 1.797-1.909s-.692-1.901-1.797-1.901c-1.104 0-1.796.849-1.796 1.901s.692 1.909 1.797 1.909zm0-.504c-.773 0-1.21-.661-1.21-1.405 0-.736.437-1.398 1.21-1.398.775 0 1.203.662 1.203 1.398 0 .744-.428 1.405-1.203 1.405zm2.603-2.855c0 .225.188.413.413.413a.417.417 0 00.413-.413.417.417 0 00-.413-.414.417.417 0 00-.413.414zm0 2.931c0 .225.188.413.413.413a.417.417 0 00.413-.413.417.417 0 00-.413-.414.417.417 0 00-.413.414zm-17.115 16.338h.691l-2.022-5.013h-.774l-2.014 5.013h.692l.443-1.112h2.54l.444 1.112zm-1.714-4.457l1.082 2.788h-2.172l1.09-2.788zm3.03 5.389c.429.42.85.541 1.466.541.887 0 1.728-.376 1.728-1.578v-3.525h-.563v.549c-.294-.399-.73-.639-1.218-.639-.954 0-1.616.721-1.616 1.886 0 1.172.67 1.879 1.616 1.879.511 0 .955-.278 1.218-.646v.518c0 .797-.564 1.09-1.165 1.09-.519 0-.88-.135-1.18-.496l-.286.421zm2.63-1.977a1.343 1.343 0 01-1.082.594c-.729 0-1.164-.586-1.164-1.383 0-.804.435-1.383 1.164-1.383.451 0 .887.271 1.083.586v1.586zm3.888-3.134h.383l-.737-1.082h-.54l-.715 1.082h.384l.6-.796.625.796zm-2.405 2.36c0 1.135.774 1.909 1.849 1.909.593 0 1.082-.195 1.442-.556l-.27-.368a1.586 1.586 0 01-1.12.458c-.782 0-1.263-.571-1.308-1.255h2.939v-.143c0-1.09-.646-1.946-1.744-1.946-1.037 0-1.788.849-1.788 1.901zm1.78-1.435c.828 0 1.188.669 1.196 1.21h-2.383c.03-.556.414-1.21 1.188-1.21zm5.115 3.254h.563v-2.548c0-.789-.398-1.172-1.157-1.172-.541 0-1.037.315-1.293.616v-.526h-.563v3.63h.563v-2.653c.21-.293.632-.564 1.075-.564.489 0 .812.203.812.842v2.375zm1.479-1.819c0 1.082.729 1.909 1.81 1.909.662 0 1.053-.271 1.33-.631l-.375-.346c-.24.323-.548.473-.924.473-.774 0-1.255-.601-1.255-1.405s.48-1.398 1.255-1.398c.376 0 .684.143.924.474l.376-.346c-.278-.361-.669-.631-1.33-.631-1.082 0-1.811.826-1.811 1.901zm4.209-2.42c.21 0 .383-.173.383-.383a.378.378 0 00-.383-.376.377.377 0 00-.376.376c0 .21.173.383.376.383zm-.278 4.239h.563v-3.63h-.563v3.63zm3.958 0h.563v-2.495c0-.88-.639-1.225-1.405-1.225-.594 0-1.06.195-1.45.601l.262.391c.324-.346.677-.504 1.113-.504.526 0 .917.278.917.767v.654c-.294-.339-.707-.496-1.203-.496-.616 0-1.27.383-1.27 1.195 0 .789.654 1.202 1.27 1.202.488 0 .902-.173 1.203-.504v.414zm0-.767c-.218.301-.602.451-1 .451-.526 0-.894-.331-.894-.789 0-.466.368-.797.894-.797.398 0 .782.151 1 .451v.684zm1.58-2.502c0 .225.188.413.414.413a.417.417 0 00.413-.413.417.417 0 00-.413-.414.417.417 0 00-.414.414zm0 2.931c0 .225.188.413.414.413a.417.417 0 00.413-.413.417.417 0 00-.413-.414.417.417 0 00-.414.414zM35.01 297.69c.91 0 1.51-.421 1.931-.992l-.534-.293a1.683 1.683 0 01-1.397.729c-1.075 0-1.91-.849-1.91-2.037 0-1.195.835-2.036 1.91-2.036a1.7 1.7 0 011.398.729l.526-.294c-.399-.563-1.015-.992-1.924-.992-1.42 0-2.555 1.053-2.555 2.593 0 1.541 1.134 2.593 2.555 2.593zm2.726-.09h.624v-1.992h1.39c.992 0 1.57-.691 1.57-1.51 0-.819-.563-1.511-1.57-1.511h-2.014v5.013zm2.939-3.502c0 .563-.406.954-1 .954H38.36v-1.909h1.315c.594 0 1 .391 1 .955zm1.472 3.502h.624v-2.285h2.607v-.556h-2.607v-1.616h2.66v-.556h-3.284v5.013zm3.996-3.269c0 .225.188.413.414.413a.417.417 0 00.413-.413.417.417 0 00-.413-.414.417.417 0 00-.414.414zm0 2.931c0 .225.188.413.414.413a.417.417 0 00.413-.413.417.417 0 00-.413-.414.417.417 0 00-.414.414zM32.657 313.6h2.285c.917 0 1.45-.549 1.45-1.353 0-.601-.443-1.15-.977-1.232.459-.098.88-.519.88-1.15 0-.752-.534-1.278-1.406-1.278h-2.232v5.013zm.624-2.841v-1.616h1.503c.564 0 .864.361.864.812 0 .458-.3.804-.864.804h-1.503zm0 2.285v-1.729h1.533c.617 0 .932.406.932.864 0 .534-.346.865-.932.865h-1.533zm6.35.556h.563v-2.495c0-.88-.638-1.225-1.405-1.225-.594 0-1.06.195-1.45.601l.263.391c.323-.346.676-.504 1.112-.504.526 0 .917.278.917.767v.654c-.293-.339-.707-.496-1.203-.496-.616 0-1.27.383-1.27 1.194 0 .79.654 1.203 1.27 1.203.489 0 .902-.173 1.203-.504v.414zm0-.767c-.218.301-.601.451-1 .451-.526 0-.894-.331-.894-.789 0-.466.368-.797.894-.797.399 0 .782.151 1 .451v.684zm4.143.767h.564v-2.548c0-.789-.398-1.172-1.157-1.172-.541 0-1.037.315-1.293.616v-.526h-.564v3.63h.564v-2.653c.21-.293.631-.564 1.075-.564.488 0 .811.203.811.842v2.375zm1.48-1.819c0 1.082.728 1.909 1.81 1.909.662 0 1.052-.271 1.33-.631l-.375-.346c-.24.323-.549.473-.925.473-.774 0-1.255-.601-1.255-1.405s.481-1.398 1.255-1.398c.376 0 .684.143.925.474l.376-.346c-.279-.361-.67-.631-1.33-.631-1.083 0-1.812.826-1.812 1.901zm5.516 1.909c1.105 0 1.796-.857 1.796-1.909s-.691-1.901-1.796-1.901-1.796.849-1.796 1.901.691 1.909 1.796 1.909zm0-.504c-.774 0-1.21-.661-1.21-1.405 0-.736.436-1.398 1.21-1.398s1.203.662 1.203 1.398c0 .744-.429 1.405-1.203 1.405zm2.602-2.855c0 .225.188.413.414.413a.417.417 0 00.413-.413.417.417 0 00-.413-.414.417.417 0 00-.414.414zm0 2.931c0 .225.188.413.414.413a.417.417 0 00.413-.413.417.417 0 00-.413-.414.417.417 0 00-.414.414zM36.257 329.6h.692l-2.022-5.013h-.774l-2.014 5.013h.691l.444-1.113h2.54l.443 1.113zm-1.713-4.457l1.082 2.788h-2.172l1.09-2.788zm3.03 5.389c.428.42.85.541 1.465.541.887 0 1.729-.376 1.729-1.578v-3.525h-.564v.549c-.293-.399-.729-.639-1.217-.639-.955 0-1.616.721-1.616 1.886 0 1.172.669 1.879 1.616 1.879.51 0 .954-.278 1.217-.646v.518c0 .797-.563 1.09-1.165 1.09-.518 0-.879-.136-1.18-.496l-.285.421zm2.63-1.977a1.343 1.343 0 01-1.082.594c-.729 0-1.165-.586-1.165-1.383 0-.804.436-1.383 1.165-1.383.451 0 .887.271 1.082.586v1.586zm3.887-3.134h.383l-.736-1.082h-.541l-.714 1.082h.383l.602-.796.623.796zm-2.405 2.36c0 1.135.774 1.909 1.85 1.909.593 0 1.081-.195 1.442-.556l-.27-.368a1.587 1.587 0 01-1.12.458c-.782 0-1.263-.571-1.308-1.255h2.938v-.143c0-1.09-.646-1.946-1.743-1.946-1.037 0-1.789.849-1.789 1.901zm1.782-1.435c.826 0 1.187.669 1.194 1.21H42.28c.03-.557.413-1.21 1.188-1.21zm5.113 3.254h.564v-2.548c0-.789-.398-1.172-1.157-1.172-.541 0-1.037.315-1.293.616v-.526h-.564v3.63h.564v-2.653c.21-.293.631-.564 1.075-.564.488 0 .811.203.811.842v2.375zm1.48-1.819c0 1.082.728 1.909 1.81 1.909.662 0 1.052-.271 1.33-.631l-.375-.346c-.24.323-.549.473-.925.473-.774 0-1.255-.601-1.255-1.405s.481-1.398 1.255-1.398c.376 0 .684.143.925.474l.376-.346c-.279-.361-.67-.631-1.33-.631-1.083 0-1.812.826-1.812 1.901zm4.209-2.42c.21 0 .383-.173.383-.383a.378.378 0 00-.383-.376.377.377 0 00-.376.376c0 .21.173.383.376.383zm-.279 4.239h.564v-3.63h-.563v3.63zm3.958 0h.564v-2.495c0-.88-.64-1.225-1.406-1.225-.593 0-1.06.195-1.45.601l.263.391c.323-.346.676-.504 1.112-.504.526 0 .917.278.917.767v.654c-.293-.339-.706-.496-1.202-.496-.617 0-1.27.383-1.27 1.194 0 .79.653 1.203 1.27 1.203.488 0 .901-.173 1.202-.504v.414zm0-.767c-.218.301-.601.451-1 .451-.526 0-.894-.331-.894-.789 0-.466.368-.797.895-.797.398 0 .781.151 1 .451v.684zm1.58-2.502c0 .225.189.413.414.413a.417.417 0 00.413-.413.417.417 0 00-.413-.414.417.417 0 00-.413.414zm0 2.931c0 .225.189.413.414.413a.417.417 0 00.413-.413.417.417 0 00-.413-.414.417.417 0 00-.413.414zM76.095 196.521h.872l-1.285-2.007c.639-.082 1.247-.563 1.247-1.465 0-.925-.653-1.541-1.608-1.541H73.21v5.013h.752v-1.932h.94l1.194 1.932zm.06-3.472c0 .526-.39.879-.931.879H73.96v-1.759h1.263c.54 0 .931.354.931.88zm5.307 2.051c0-.999-.826-1.285-1.608-1.495v-1.466c.398.068.767.248 1.052.549l.444-.556c-.376-.383-.872-.624-1.496-.684v-.699h-.534v.691c-.931.068-1.57.647-1.57 1.421 0 .947.804 1.225 1.57 1.42v1.639a2.105 2.105 0 01-1.3-.684l-.428.578c.383.429.954.737 1.728.789v.669h.534v-.676c1.142-.09 1.608-.774 1.608-1.496zm-2.938-2.292c0-.391.316-.661.796-.699v1.353c-.45-.128-.796-.293-.796-.654zm1.33 3.112v-1.496c.474.143.842.316.842.744 0 .316-.226.684-.842.752zm4.077-.128c.323.451.97.819 1.84.819 1.136 0 1.835-.609 1.835-1.45 0-.79-.692-1.18-1.165-1.225.496-.091 1.09-.459 1.09-1.158 0-.841-.737-1.345-1.76-1.345-.803 0-1.397.338-1.773.782l.399.466c.368-.376.781-.579 1.307-.579.594 0 1.075.27 1.075.781 0 .519-.496.744-1.105.744-.195 0-.458 0-.54-.007v.684c.074-.008.337-.008.54-.008.73 0 1.18.233 1.18.789 0 .526-.413.857-1.105.857a1.824 1.824 0 01-1.397-.639l-.421.489zm4.474.338c0 .255.21.473.466.473a.481.481 0 00.474-.473.475.475 0 00-.474-.466.468.468 0 00-.466.466zm1.761.391h3.532v-.662h-2.337c1.375-1.059 2.315-1.938 2.315-2.915 0-1-.85-1.511-1.751-1.511-.7 0-1.383.278-1.796.797l.443.488c.308-.368.766-.616 1.36-.616.489 0 .977.255.977.842 0 .789-.864 1.54-2.743 2.983v.594zm4.395-2.503c0 1.24.571 2.593 1.961 2.593 1.39 0 1.962-1.353 1.962-2.593s-.571-2.585-1.962-2.585c-1.39 0-1.96 1.345-1.96 2.585zm3.156 0c0 .977-.308 1.924-1.195 1.924-.886 0-1.194-.947-1.194-1.924s.308-1.916 1.194-1.916c.887 0 1.195.939 1.195 1.916zm1.46 0c0 1.24.572 2.593 1.962 2.593 1.39 0 1.961-1.353 1.961-2.593s-.571-2.585-1.961-2.585c-1.39 0-1.962 1.345-1.962 2.585zm3.157 0c0 .977-.308 1.924-1.195 1.924s-1.195-.947-1.195-1.924.308-1.916 1.195-1.916 1.195.939 1.195 1.916zm1.645 3.48c.383-.271.661-.722.661-1.21 0-.399-.248-.624-.526-.624a.455.455 0 00-.458.458c0 .248.173.429.406.429.037 0 .097-.015.112-.015-.037.248-.27.548-.511.699l.316.263zm1.392-3.48c0 1.24.572 2.593 1.962 2.593 1.39 0 1.961-1.353 1.961-2.593s-.571-2.585-1.961-2.585c-1.39 0-1.962 1.345-1.962 2.585zm3.157 0c0 .977-.308 1.924-1.195 1.924s-1.195-.947-1.195-1.924.308-1.916 1.195-1.916 1.195.939 1.195 1.916zm1.46 0c0 1.24.571 2.593 1.961 2.593 1.39 0 1.962-1.353 1.962-2.593s-.572-2.585-1.962-2.585c-1.39 0-1.961 1.345-1.961 2.585zm3.156 0c0 .977-.308 1.924-1.195 1.924s-1.195-.947-1.195-1.924.308-1.916 1.195-1.916 1.195.939 1.195 1.916zm-40.145 16.008c0 1.375.564 2.585 2 2.585 1.104 0 1.803-.759 1.803-1.661 0-1.067-.76-1.608-1.661-1.608-.616 0-1.157.398-1.375.736-.008-.052-.008-.105-.008-.165 0-.932.459-1.811 1.368-1.811.496 0 .789.188 1.044.481l.369-.571c-.323-.346-.782-.579-1.413-.579-1.436 0-2.127 1.187-2.127 2.593zm3.044.947c0 .443-.361.969-1.083.969-.819 0-1.127-.699-1.187-1.285.263-.398.714-.669 1.18-.669.594 0 1.09.316 1.09.985zm1.546.849c.39.488.962.789 1.818.789 1.06 0 1.841-.646 1.841-1.676 0-1.03-.759-1.608-1.6-1.608-.489 0-.91.203-1.15.443v-1.601h2.42v-.661h-3.172v2.751l.541.173a1.54 1.54 0 011.128-.451c.646 0 1.074.383 1.074.984 0 .549-.436.977-1.09.977-.585 0-1.036-.225-1.367-.631l-.443.511zm4.469 0c.39.488.962.789 1.819.789 1.06 0 1.84-.646 1.84-1.676 0-1.03-.758-1.608-1.6-1.608-.488 0-.91.203-1.15.443v-1.601h2.42v-.661h-3.171v2.751l.54.173a1.54 1.54 0 011.128-.451c.647 0 1.075.383 1.075.984 0 .549-.436.977-1.09.977-.586 0-1.037-.225-1.368-.631l-.443.511zm8.111-.827h1.804v-.586H90.17v.586zm4.522 1.526h2.412c.925 0 1.45-.564 1.45-1.353 0-.609-.435-1.15-.969-1.232.459-.098.872-.519.872-1.15 0-.729-.519-1.278-1.413-1.278h-2.352v5.013zm.751-2.886v-1.466H96.9c.504 0 .782.324.782.737s-.278.729-.782.729h-1.458zm0 2.224v-1.563h1.496c.556 0 .841.361.841.774 0 .489-.315.789-.841.789h-1.496zm6.266.662h.676v-2.45c0-.925-.669-1.27-1.458-1.27-.586 0-1.082.195-1.488.593l.293.466c.323-.323.677-.481 1.09-.481.518 0 .887.271.887.722v.601c-.278-.323-.699-.481-1.188-.481-.608 0-1.262.361-1.262 1.188 0 .796.661 1.202 1.262 1.202.489 0 .902-.173 1.188-.489v.399zm0-.797c-.203.271-.556.413-.932.413-.489 0-.834-.293-.834-.721s.345-.721.834-.721c.376 0 .729.142.932.413v.616zm4.21.797h.676v-2.548c0-.766-.398-1.172-1.165-1.172-.563 0-1.044.308-1.285.601v-.511h-.676v3.63h.676v-2.593c.196-.271.579-.526 1-.526.466 0 .774.195.774.797v2.322zm1.522-1.819c0 1.09.752 1.909 1.849 1.909.684 0 1.097-.286 1.36-.639l-.451-.413c-.217.3-.511.451-.879.451-.714 0-1.172-.556-1.172-1.308 0-.751.458-1.3 1.172-1.3.368 0 .662.143.879.451l.451-.413c-.263-.354-.676-.639-1.36-.639-1.097 0-1.849.811-1.849 1.901zm5.562 1.909c1.135 0 1.834-.857 1.834-1.909 0-1.045-.699-1.901-1.834-1.901-1.127 0-1.833.856-1.833 1.901 0 1.052.706 1.909 1.833 1.909zm0-.601c-.721 0-1.127-.617-1.127-1.308 0-.684.406-1.3 1.127-1.3.729 0 1.128.616 1.128 1.3 0 .691-.399 1.308-1.128 1.308zm6.118.511h.94l1.991-5.013h-.857l-1.608 4.194-1.601-4.194h-.856l1.991 5.013zm4.678.09c1.135 0 1.834-.857 1.834-1.909 0-1.045-.699-1.901-1.834-1.901-1.127 0-1.834.856-1.834 1.901 0 1.052.707 1.909 1.834 1.909zm0-.601c-.721 0-1.127-.617-1.127-1.308 0-.684.406-1.3 1.127-1.3.729 0 1.127.616 1.127 1.3 0 .691-.398 1.308-1.127 1.308zm3.692.601c.353 0 .564-.098.706-.233l-.172-.511a.523.523 0 01-.369.143c-.233 0-.353-.188-.353-.444v-2.081h.737v-.594h-.737v-.992h-.676v.992h-.601v.594h.601v2.232c0 .571.293.894.864.894zm2.906 0c1.135 0 1.834-.857 1.834-1.909 0-1.045-.699-1.901-1.834-1.901-1.127 0-1.834.856-1.834 1.901 0 1.052.707 1.909 1.834 1.909zm0-.601c-.722 0-1.127-.617-1.127-1.308 0-.684.405-1.3 1.127-1.3.729 0 1.127.616 1.127 1.3 0 .691-.398 1.308-1.127 1.308zm2.692.511h.677v-2.525c.157-.271.616-.526.954-.526.09 0 .165.007.233.022v-.684c-.481 0-.909.278-1.187.639v-.556h-.677v3.63zm4.779 0h.676v-2.45c0-.925-.668-1.27-1.458-1.27-.586 0-1.082.195-1.488.593l.294.466c.323-.323.676-.481 1.089-.481.519 0 .887.271.887.722v.601c-.278-.323-.699-.481-1.187-.481-.609 0-1.263.361-1.263 1.188 0 .796.661 1.202 1.263 1.202.488 0 .901-.173 1.187-.489v.399zm0-.797c-.203.271-.556.413-.932.413-.488 0-.834-.293-.834-.721s.346-.721.834-.721c.376 0 .729.142.932.413v.616zm4.21.797h.677v-2.548c0-.766-.399-1.172-1.165-1.172a1.73 1.73 0 00-1.285.601v-.511h-.677v3.63h.677v-2.593c.195-.271.578-.526.999-.526.466 0 .774.195.774.797v2.322zm2.748.09c.353 0 .563-.098.706-.233l-.173-.511a.519.519 0 01-.368.143c-.233 0-.353-.188-.353-.444v-2.081h.736v-.594h-.736v-.992h-.676v.992h-.602v.594h.602v2.232c0 .571.293.894.864.894zm1.628-4.329a.43.43 0 00.436-.428.436.436 0 10-.872 0c0 .24.203.428.436.428zm-.331 4.239h.677v-3.63h-.677v3.63zm6.166 0h.676v-2.623c0-.729-.361-1.097-1.029-1.097-.534 0-1.015.338-1.225.676-.113-.391-.436-.676-.985-.676-.541 0-1.022.376-1.172.601v-.511h-.677v3.63h.677v-2.593c.18-.263.533-.526.887-.526.458 0 .638.278.638.699v2.42h.677v-2.6c.173-.264.533-.519.902-.519.443 0 .631.278.631.699v2.42zm-76.719 16.09c.985 0 1.593-.474 1.992-1.06l-.64-.338a1.588 1.588 0 01-1.352.729c-1.014 0-1.796-.804-1.796-1.924 0-1.127.782-1.924 1.796-1.924.594 0 1.09.308 1.353.729l.639-.338c-.391-.586-1.007-1.06-1.992-1.06-1.428 0-2.57 1.053-2.57 2.593 0 1.541 1.142 2.593 2.57 2.593zm4.334 0c1.135 0 1.834-.857 1.834-1.909 0-1.045-.699-1.901-1.834-1.901-1.127 0-1.833.856-1.833 1.901 0 1.052.706 1.909 1.833 1.909zm0-.601c-.721 0-1.127-.617-1.127-1.308 0-.684.406-1.3 1.127-1.3.73 0 1.128.616 1.128 1.3 0 .691-.399 1.308-1.128 1.308zm5.143.511h.676v-2.548c0-.766-.398-1.172-1.165-1.172a1.73 1.73 0 00-1.285.601v-.511h-.676v3.63h.676v-2.593c.195-.271.579-.526 1-.526.465 0 .774.195.774.797v2.322zm2.747.09c.353 0 .564-.098.707-.233l-.173-.511a.52.52 0 01-.368.143c-.234 0-.354-.188-.354-.444v-2.081h.737v-.594h-.737v-.992h-.676v.992h-.601v.594h.6v2.232c0 .571.294.894.865.894zm3.537-.09h.677v-2.45c0-.925-.67-1.27-1.458-1.27-.587 0-1.083.195-1.488.593l.293.466c.323-.323.676-.481 1.09-.481.518 0 .886.271.886.722v.601c-.278-.323-.699-.481-1.187-.481-.609 0-1.263.361-1.263 1.188 0 .796.662 1.202 1.263 1.202.488 0 .902-.173 1.187-.489v.399zm0-.797c-.203.271-.556.413-.932.413-.488 0-.834-.293-.834-.721s.346-.721.834-.721c.376 0 .73.142.932.413v.616zm1.64-2.412c0 .248.21.466.466.466a.48.48 0 00.474-.466.482.482 0 00-.474-.474.475.475 0 00-.466.474zm0 2.818c0 .255.21.473.466.473a.481.481 0 00.474-.473.475.475 0 00-.474-.466.468.468 0 00-.466.466zm3.653-2.112c0 1.24.572 2.593 1.962 2.593 1.39 0 1.961-1.353 1.961-2.593s-.57-2.585-1.961-2.585c-1.39 0-1.962 1.345-1.962 2.585zm3.157 0c0 .977-.308 1.924-1.195 1.924s-1.195-.947-1.195-1.924.308-1.916 1.195-1.916 1.195.939 1.195 1.916zm1.46 0c0 1.24.571 2.593 1.961 2.593 1.39 0 1.962-1.353 1.962-2.593s-.572-2.585-1.962-2.585c-1.39 0-1.961 1.345-1.961 2.585zm3.156 0c0 .977-.308 1.924-1.195 1.924s-1.195-.947-1.195-1.924.308-1.916 1.195-1.916 1.195.939 1.195 1.916zm1.46 0c0 1.24.571 2.593 1.961 2.593 1.391 0 1.962-1.353 1.962-2.593s-.571-2.585-1.962-2.585c-1.39 0-1.961 1.345-1.961 2.585zm3.156 0c0 .977-.308 1.924-1.195 1.924-.886 0-1.195-.947-1.195-1.924s.309-1.916 1.195-1.916c.887 0 1.195.939 1.195 1.916zm1.46 0c0 1.24.571 2.593 1.962 2.593 1.39 0 1.961-1.353 1.961-2.593s-.571-2.585-1.961-2.585c-1.391 0-1.962 1.345-1.962 2.585zm3.156 0c0 .977-.308 1.924-1.194 1.924-.887 0-1.195-.947-1.195-1.924s.308-1.916 1.195-1.916c.886 0 1.194.939 1.194 1.916zm1.46 0c0 1.24.572 2.593 1.962 2.593 1.39 0 1.961-1.353 1.961-2.593s-.571-2.585-1.961-2.585c-1.39 0-1.962 1.345-1.962 2.585zm3.157 0c0 .977-.308 1.924-1.195 1.924s-1.195-.947-1.195-1.924.308-1.916 1.195-1.916 1.195.939 1.195 1.916zm1.339.977h1.804v-.586h-1.804v.586zm2.374-.977c0 1.24.571 2.593 1.961 2.593 1.39 0 1.962-1.353 1.962-2.593s-.572-2.585-1.962-2.585c-1.39 0-1.961 1.345-1.961 2.585zm3.156 0c0 .977-.308 1.924-1.195 1.924s-1.195-.947-1.195-1.924.308-1.916 1.195-1.916 1.195.939 1.195 1.916zM72.999 296.6c0 1.24.571 2.593 1.962 2.593 1.39 0 1.96-1.353 1.96-2.593s-.57-2.585-1.96-2.585c-1.39 0-1.962 1.345-1.962 2.585zm3.156 0c0 .977-.308 1.924-1.195 1.924-.886 0-1.194-.947-1.194-1.924s.308-1.916 1.194-1.916c.887 0 1.195.939 1.195 1.916zm1.46 0c0 1.24.571 2.593 1.962 2.593 1.39 0 1.961-1.353 1.961-2.593s-.571-2.585-1.961-2.585c-1.39 0-1.962 1.345-1.962 2.585zm3.157 0c0 .977-.309 1.924-1.195 1.924-.887 0-1.195-.947-1.195-1.924s.308-1.916 1.195-1.916c.886 0 1.195.939 1.195 1.916zm1.322 2.112c0 .256.21.473.466.473a.48.48 0 00.473-.473.474.474 0 00-.473-.466.468.468 0 00-.466.466zm1.715-2.112c0 1.24.572 2.593 1.962 2.593 1.39 0 1.961-1.353 1.961-2.593s-.57-2.585-1.961-2.585c-1.39 0-1.962 1.345-1.962 2.585zm3.157 0c0 .977-.308 1.924-1.195 1.924s-1.195-.947-1.195-1.924.308-1.916 1.195-1.916 1.195.939 1.195 1.916zm1.46 0c0 1.24.57 2.593 1.961 2.593 1.39 0 1.962-1.353 1.962-2.593s-.572-2.585-1.962-2.585c-1.39 0-1.961 1.345-1.961 2.585zm3.156 0c0 .977-.308 1.924-1.195 1.924s-1.195-.947-1.195-1.924.308-1.916 1.195-1.916 1.195.939 1.195 1.916zm1.46 0c0 1.24.571 2.593 1.961 2.593 1.39 0 1.962-1.353 1.962-2.593s-.571-2.585-1.962-2.585c-1.39 0-1.961 1.345-1.961 2.585zm3.156 0c0 .977-.308 1.924-1.195 1.924-.886 0-1.195-.947-1.195-1.924s.309-1.916 1.195-1.916c.887 0 1.195.939 1.195 1.916zm1.323 2.112c0 .256.21.473.465.473a.48.48 0 00.474-.473.475.475 0 00-.474-.466.468.468 0 00-.466.466zm1.715-2.112c0 1.24.571 2.593 1.962 2.593 1.39 0 1.961-1.353 1.961-2.593s-.571-2.585-1.961-2.585c-1.39 0-1.962 1.345-1.962 2.585zm3.156 0c0 .977-.308 1.924-1.194 1.924-.887 0-1.195-.947-1.195-1.924s.308-1.916 1.195-1.916c.886 0 1.194.939 1.194 1.916zm1.46 0c0 1.24.571 2.593 1.962 2.593 1.39 0 1.961-1.353 1.961-2.593s-.571-2.585-1.961-2.585c-1.391 0-1.962 1.345-1.962 2.585zm3.157 0c0 .977-.308 1.924-1.195 1.924s-1.195-.947-1.195-1.924.308-1.916 1.195-1.916 1.195.939 1.195 1.916zm1.46 0c0 1.24.571 2.593 1.961 2.593 1.39 0 1.961-1.353 1.961-2.593s-.571-2.585-1.961-2.585c-1.39 0-1.961 1.345-1.961 2.585zm3.156 0c0 .977-.308 1.924-1.195 1.924s-1.195-.947-1.195-1.924.308-1.916 1.195-1.916 1.195.939 1.195 1.916zm1.114 2.653h.519l1.781-5.313h-.519l-1.781 5.313zm2.643-2.653c0 1.24.571 2.593 1.961 2.593 1.391 0 1.962-1.353 1.962-2.593s-.571-2.585-1.962-2.585c-1.39 0-1.961 1.345-1.961 2.585zm3.156 0c0 .977-.308 1.924-1.195 1.924-.886 0-1.195-.947-1.195-1.924s.309-1.916 1.195-1.916c.887 0 1.195.939 1.195 1.916zm1.46 0c0 1.24.571 2.593 1.962 2.593 1.39 0 1.961-1.353 1.961-2.593s-.571-2.585-1.961-2.585c-1.391 0-1.962 1.345-1.962 2.585zm3.157 0c0 .977-.309 1.924-1.195 1.924-.887 0-1.195-.947-1.195-1.924s.308-1.916 1.195-1.916c.886 0 1.195.939 1.195 1.916zm1.459 0c0 1.24.572 2.593 1.962 2.593 1.39 0 1.961-1.353 1.961-2.593s-.571-2.585-1.961-2.585c-1.39 0-1.962 1.345-1.962 2.585zm3.157 0c0 .977-.308 1.924-1.195 1.924s-1.195-.947-1.195-1.924.308-1.916 1.195-1.916 1.195.939 1.195 1.916zm2.504 2.503h.752v-5.013h-.662l-1.345 1.375.444.459.811-.849v4.028zm1.536-1.526h1.804v-.586h-1.804v.586zm2.374-.977c0 1.24.571 2.593 1.961 2.593 1.39 0 1.961-1.353 1.961-2.593s-.571-2.585-1.961-2.585c-1.39 0-1.961 1.345-1.961 2.585zm3.156 0c0 .977-.308 1.924-1.195 1.924s-1.195-.947-1.195-1.924.308-1.916 1.195-1.916 1.195.939 1.195 1.916zm1.46 0c0 1.24.571 2.593 1.961 2.593 1.391 0 1.962-1.353 1.962-2.593s-.571-2.585-1.962-2.585c-1.39 0-1.961 1.345-1.961 2.585zm3.156 0c0 .977-.308 1.924-1.195 1.924s-1.195-.947-1.195-1.924.308-1.916 1.195-1.916 1.195.939 1.195 1.916zm-68.958 16.008c0 1.375.564 2.585 2 2.585 1.104 0 1.803-.759 1.803-1.661 0-1.067-.76-1.608-1.661-1.608-.616 0-1.157.398-1.375.736-.008-.052-.008-.105-.008-.165 0-.932.459-1.811 1.368-1.811.496 0 .789.188 1.044.481l.369-.571c-.323-.346-.782-.579-1.413-.579-1.436 0-2.127 1.187-2.127 2.593zm3.044.947c0 .443-.361.969-1.083.969-.819 0-1.127-.699-1.187-1.285.263-.398.714-.669 1.18-.669.594 0 1.09.316 1.09.985zm1.546.849c.39.488.962.789 1.818.789 1.06 0 1.841-.646 1.841-1.676 0-1.029-.759-1.608-1.6-1.608-.489 0-.91.203-1.15.443v-1.6h2.42v-.662h-3.172v2.751l.541.173a1.54 1.54 0 011.128-.451c.646 0 1.074.383 1.074.984 0 .549-.436.977-1.09.977-.585 0-1.036-.225-1.367-.631l-.443.511zm4.469 0c.39.488.962.789 1.819.789 1.06 0 1.84-.646 1.84-1.676 0-1.029-.758-1.608-1.6-1.608-.488 0-.91.203-1.15.443v-1.6h2.42v-.662h-3.171v2.751l.54.173a1.54 1.54 0 011.128-.451c.647 0 1.075.383 1.075.984 0 .549-.436.977-1.09.977-.586 0-1.037-.225-1.368-.631l-.443.511zm8.111-.827h1.804v-.586H90.17v.586zm4.522 1.526h2.412c.925 0 1.45-.564 1.45-1.353 0-.609-.435-1.15-.969-1.232.459-.098.872-.519.872-1.15 0-.729-.519-1.278-1.413-1.278h-2.352v5.013zm.751-2.886v-1.465H96.9c.504 0 .782.323.782.736s-.278.729-.782.729h-1.458zm0 2.224v-1.563h1.496c.556 0 .841.361.841.774 0 .489-.315.789-.841.789h-1.496zm6.266.662h.676v-2.45c0-.925-.669-1.27-1.458-1.27-.586 0-1.082.195-1.488.593l.293.466c.323-.323.677-.481 1.09-.481.518 0 .887.271.887.722v.601c-.278-.323-.699-.481-1.188-.481-.608 0-1.262.361-1.262 1.188 0 .796.661 1.202 1.262 1.202.489 0 .902-.173 1.188-.489v.399zm0-.797c-.203.271-.556.414-.932.414-.489 0-.834-.294-.834-.722s.345-.721.834-.721c.376 0 .729.142.932.413v.616zm4.21.797h.676v-2.548c0-.766-.398-1.172-1.165-1.172-.563 0-1.044.308-1.285.601v-.511h-.676v3.63h.676v-2.593c.196-.27.579-.526 1-.526.466 0 .774.195.774.797v2.322zm1.522-1.819c0 1.09.752 1.909 1.849 1.909.684 0 1.097-.286 1.36-.639l-.451-.413c-.217.3-.511.451-.879.451-.714 0-1.172-.556-1.172-1.308 0-.751.458-1.3 1.172-1.3.368 0 .662.143.879.451l.451-.413c-.263-.354-.676-.639-1.36-.639-1.097 0-1.849.811-1.849 1.901zm5.562 1.909c1.135 0 1.834-.857 1.834-1.909 0-1.044-.699-1.901-1.834-1.901-1.127 0-1.833.857-1.833 1.901 0 1.052.706 1.909 1.833 1.909zm0-.601c-.721 0-1.127-.616-1.127-1.308 0-.684.406-1.3 1.127-1.3.729 0 1.128.616 1.128 1.3 0 .692-.399 1.308-1.128 1.308zm6.118.511h.94l1.991-5.013h-.857l-1.608 4.194-1.601-4.194h-.856l1.991 5.013zm4.678.09c1.135 0 1.834-.857 1.834-1.909 0-1.044-.699-1.901-1.834-1.901-1.127 0-1.834.857-1.834 1.901 0 1.052.707 1.909 1.834 1.909zm0-.601c-.721 0-1.127-.616-1.127-1.308 0-.684.406-1.3 1.127-1.3.729 0 1.127.616 1.127 1.3 0 .692-.398 1.308-1.127 1.308zm3.692.601c.353 0 .564-.098.706-.233l-.172-.511a.523.523 0 01-.369.143c-.233 0-.353-.188-.353-.444v-2.081h.737v-.594h-.737v-.992h-.676v.992h-.601v.594h.601v2.232c0 .571.293.894.864.894zm2.906 0c1.135 0 1.834-.857 1.834-1.909 0-1.044-.699-1.901-1.834-1.901-1.127 0-1.834.857-1.834 1.901 0 1.052.707 1.909 1.834 1.909zm0-.601c-.722 0-1.127-.616-1.127-1.308 0-.684.405-1.3 1.127-1.3.729 0 1.127.616 1.127 1.3 0 .692-.398 1.308-1.127 1.308zm2.692.511h.677v-2.525c.157-.271.616-.526.954-.526.09 0 .165.007.233.022v-.684c-.481 0-.909.278-1.187.639v-.556h-.677v3.63zm4.779 0h.676v-2.45c0-.925-.668-1.27-1.458-1.27-.586 0-1.082.195-1.488.593l.294.466c.323-.323.676-.481 1.089-.481.519 0 .887.271.887.722v.601c-.278-.323-.699-.481-1.187-.481-.609 0-1.263.361-1.263 1.188 0 .796.661 1.202 1.263 1.202.488 0 .901-.173 1.187-.489v.399zm0-.797c-.203.271-.556.414-.932.414-.488 0-.834-.294-.834-.722s.346-.721.834-.721c.376 0 .729.142.932.413v.616zm4.21.797h.677v-2.548c0-.766-.399-1.172-1.165-1.172a1.73 1.73 0 00-1.285.601v-.511h-.677v3.63h.677v-2.593c.195-.27.578-.526.999-.526.466 0 .774.195.774.797v2.322zm2.748.09c.353 0 .563-.098.706-.233l-.173-.511a.519.519 0 01-.368.143c-.233 0-.353-.188-.353-.444v-2.081h.736v-.594h-.736v-.992h-.676v.992h-.602v.594h.602v2.232c0 .571.293.894.864.894zm1.628-4.329a.43.43 0 00.436-.428.436.436 0 10-.872 0c0 .24.203.428.436.428zm-.331 4.239h.677v-3.63h-.677v3.63zm6.166 0h.676v-2.623c0-.729-.361-1.097-1.029-1.097-.534 0-1.015.338-1.225.676-.113-.391-.436-.676-.985-.676-.541 0-1.022.376-1.172.601v-.511h-.677v3.63h.677v-2.593c.18-.263.533-.526.887-.526.458 0 .638.278.638.699v2.42h.677v-2.6c.173-.263.533-.519.902-.519.443 0 .631.278.631.699v2.42zm-76.719 16.09c.985 0 1.593-.473 1.992-1.06l-.64-.338a1.588 1.588 0 01-1.352.729c-1.014 0-1.796-.804-1.796-1.924 0-1.127.782-1.924 1.796-1.924.594 0 1.09.308 1.353.729l.639-.338c-.391-.586-1.007-1.059-1.992-1.059-1.428 0-2.57 1.052-2.57 2.592 0 1.541 1.142 2.593 2.57 2.593zm4.334 0c1.135 0 1.834-.857 1.834-1.909 0-1.044-.699-1.901-1.834-1.901-1.127 0-1.833.857-1.833 1.901 0 1.052.706 1.909 1.833 1.909zm0-.601c-.721 0-1.127-.616-1.127-1.308 0-.684.406-1.3 1.127-1.3.73 0 1.128.616 1.128 1.3 0 .692-.399 1.308-1.128 1.308zm5.143.511h.676v-2.548c0-.766-.398-1.172-1.165-1.172a1.73 1.73 0 00-1.285.601v-.511h-.676v3.63h.676v-2.593c.195-.27.579-.526 1-.526.465 0 .774.195.774.797v2.322zm2.747.09c.353 0 .564-.098.707-.233l-.173-.511a.52.52 0 01-.368.143c-.234 0-.354-.188-.354-.444v-2.081h.737v-.594h-.737v-.992h-.676v.992h-.601v.594h.6v2.232c0 .571.294.894.865.894zm3.537-.09h.677v-2.45c0-.925-.67-1.27-1.458-1.27-.587 0-1.083.195-1.488.593l.293.466c.323-.323.676-.481 1.09-.481.518 0 .886.271.886.722v.601c-.278-.323-.699-.481-1.187-.481-.609 0-1.263.361-1.263 1.188 0 .796.662 1.202 1.263 1.202.488 0 .902-.173 1.187-.489v.399zm0-.797c-.203.271-.556.414-.932.414-.488 0-.834-.294-.834-.722s.346-.721.834-.721c.376 0 .73.142.932.413v.616zm1.64-2.412c0 .248.21.466.466.466a.48.48 0 00.474-.466.482.482 0 00-.474-.474.475.475 0 00-.466.474zm0 2.818c0 .256.21.473.466.473a.48.48 0 00.474-.473.475.475 0 00-.474-.466.468.468 0 00-.466.466zm3.653-2.112c0 1.24.572 2.593 1.962 2.593 1.39 0 1.961-1.353 1.961-2.593s-.57-2.585-1.961-2.585c-1.39 0-1.962 1.345-1.962 2.585zm3.157 0c0 .977-.308 1.924-1.195 1.924s-1.195-.947-1.195-1.924.308-1.916 1.195-1.916 1.195.939 1.195 1.916zm1.46 0c0 1.24.571 2.593 1.961 2.593 1.39 0 1.962-1.353 1.962-2.593s-.572-2.585-1.962-2.585c-1.39 0-1.961 1.345-1.961 2.585zm3.156 0c0 .977-.308 1.924-1.195 1.924s-1.195-.947-1.195-1.924.308-1.916 1.195-1.916 1.195.939 1.195 1.916zm1.46 0c0 1.24.571 2.593 1.961 2.593 1.391 0 1.962-1.353 1.962-2.593s-.571-2.585-1.962-2.585c-1.39 0-1.961 1.345-1.961 2.585zm3.156 0c0 .977-.308 1.924-1.195 1.924-.886 0-1.195-.947-1.195-1.924s.309-1.916 1.195-1.916c.887 0 1.195.939 1.195 1.916zm1.46 0c0 1.24.571 2.593 1.962 2.593 1.39 0 1.961-1.353 1.961-2.593s-.571-2.585-1.961-2.585c-1.391 0-1.962 1.345-1.962 2.585zm3.156 0c0 .977-.308 1.924-1.194 1.924-.887 0-1.195-.947-1.195-1.924s.308-1.916 1.195-1.916c.886 0 1.194.939 1.194 1.916zm1.46 0c0 1.24.572 2.593 1.962 2.593 1.39 0 1.961-1.353 1.961-2.593s-.571-2.585-1.961-2.585c-1.39 0-1.962 1.345-1.962 2.585zm3.157 0c0 .977-.308 1.924-1.195 1.924s-1.195-.947-1.195-1.924.308-1.916 1.195-1.916 1.195.939 1.195 1.916zm1.339.977h1.804v-.586h-1.804v.586zm2.374-.977c0 1.24.571 2.593 1.961 2.593 1.39 0 1.962-1.353 1.962-2.593s-.572-2.585-1.962-2.585c-1.39 0-1.961 1.345-1.961 2.585zm3.156 0c0 .977-.308 1.924-1.195 1.924s-1.195-.947-1.195-1.924.308-1.916 1.195-1.916 1.195.939 1.195 1.916z" fill="#855B35"/><circle cx="42.217" cy="166.472" r="10.521" fill="#653DF5"/><path d="M38.46 166.472l.791.792 2.406-2.405v5.371h1.12v-5.371l2.405 2.405.792-.792-3.757-3.757-3.758 3.757z" fill="#FBF9BE"/><circle cx="42.217" cy="268.678" r="10.521" fill="#653DF5"/><path d="M45.974 268.678l-.792-.792-2.405 2.405v-5.37h-1.12v5.37l-2.406-2.405-.792.792 3.758 3.758 3.757-3.758z" fill="#FBF9BE"/><path d="M72.432 93.07h-7.1c-.29 0-.352.02-.517.188l-5.629 5.258c-.165.167-.186.23-.186.522v3.088c0 1.752.87 2.629 2.608 2.629h7.099c.29 0 .351-.021.517-.188l5.629-5.258c.165-.167.186-.23.186-.522V95.7c0-1.753-.869-2.63-2.607-2.63z" fill="#653DF5"/><path d="M84.757 98.252c1.39.282 2.102 1.59 2.102 2.848 0 1.606-1.142 3.245-3.51 3.245h-4.784V92.938h4.437c1.987 0 3.245 1.192 3.245 2.93 0 .894-.331 1.97-1.49 2.384zm-.53-2.102c0-.795-.43-1.408-1.308-1.408h-2.334v2.798h2.334c.845 0 1.308-.563 1.308-1.39zm-3.642 6.39h2.45c1.176 0 1.788-.778 1.788-1.639 0-.811-.53-1.655-1.738-1.655h-2.5v3.294zM94.157 97.69v-1.077h1.92v7.732h-1.92v-1.209c-.513.845-1.54 1.407-2.649 1.407-2.07 0-3.725-1.672-3.725-4.072 0-2.335 1.59-4.056 3.775-4.056 1.06 0 2.086.463 2.6 1.274zm-2.251 5.065c1.192 0 2.218-.993 2.218-2.284a2.264 2.264 0 00-2.235-2.269c-1.242 0-2.185 1.027-2.185 2.269 0 1.241.943 2.284 2.202 2.284zM102.192 96.415c1.987 0 3.096 1.34 3.096 3.592v4.338h-1.92v-4.205c0-1.242-.745-1.904-1.606-1.904-.878 0-1.97.513-1.97 2.003v4.106h-1.92v-7.732h1.92v1.225c.397-.976 1.606-1.423 2.4-1.423zM110.471 99.99l3.875 4.355h-2.434l-3.013-3.51v3.51h-1.921V92.408h1.921v6.672l2.218-2.467h2.5l-3.146 3.377zM119.161 96.415c2.169 0 3.924 1.705 3.924 4.056s-1.755 4.072-3.924 4.072c-1.291 0-2.516-.662-3.079-1.721v1.523h-1.06V92.408h1.06v5.712c.579-1.06 1.771-1.706 3.079-1.706zm-.082 7.119c1.639 0 2.963-1.358 2.963-3.08 0-1.705-1.324-3.03-2.963-3.03-1.54 0-2.997 1.209-2.997 3.08 0 1.788 1.391 3.03 2.997 3.03zM128.221 104.543c-2.202 0-4.039-1.622-4.039-4.072s1.837-4.056 4.039-4.056 4.056 1.605 4.056 4.056c0 2.45-1.854 4.072-4.056 4.072zm0-1.009c1.623 0 2.997-1.242 2.997-3.063 0-1.822-1.374-3.047-2.997-3.047-1.639 0-2.98 1.225-2.98 3.047 0 1.821 1.341 3.063 2.98 3.063zM137.393 104.543c-2.202 0-4.04-1.622-4.04-4.072s1.838-4.056 4.04-4.056 4.056 1.605 4.056 4.056c0 2.45-1.854 4.072-4.056 4.072zm0-1.009c1.622 0 2.997-1.242 2.997-3.063 0-1.822-1.375-3.047-2.997-3.047-1.639 0-2.98 1.225-2.98 3.047 0 1.821 1.341 3.063 2.98 3.063zM145.24 104.543c-1.341 0-2.682-.778-2.814-2.251h.976c.116.645.712 1.308 1.838 1.308 1.109 0 1.788-.58 1.788-1.358 0-.629-.43-1.043-1.225-1.242l-1.109-.264c-1.093-.265-1.97-.828-1.97-2.12 0-1.258 1.076-2.201 2.549-2.201 1.292 0 2.484.711 2.533 2.102h-1.026c-.05-.695-.729-1.159-1.49-1.159-.894 0-1.507.546-1.507 1.275 0 .728.629 1.043 1.192 1.175l1.143.282c1.506.364 1.97 1.275 1.97 2.169 0 1.374-1.242 2.284-2.848 2.284zM151.229 96.613H153v.91h-1.771v6.822h-1.043v-6.821h-1.408v-.91h1.408v-2.898h1.043v2.897z" fill="#11004F"/></g><defs><linearGradient id="paint0_linear_115_644" x1="202.49" y1=".945" x2="-67.035" y2="549.879" gradientUnits="userSpaceOnUse"><stop stop-color="white"/><stop offset="1" stop-color="#FFF5D5"/></linearGradient><linearGradient id="paint1_linear_115_644" x1="-162.791" y1="-142.743" x2="361.212" y2="-84.087" gradientUnits="userSpaceOnUse"><stop stop-color="#1A0078"/><stop offset="1" stop-color="#6F47FF"/></linearGradient><linearGradient id="paint2_linear_115_644" x1="105.908" y1="327.673" x2="106.095" y2="382.721" gradientUnits="userSpaceOnUse"><stop stop-color="#CCB579" stop-opacity="0"/><stop offset="1" stop-color="#CCB579"/></linearGradient></defs></svg>