<svg width="40" height="40" fill="none" xmlns="http://www.w3.org/2000/svg"><path d="M33.333 17.5V8.333A3.332 3.332 0 0030 5H8.333A3.332 3.332 0 005 8.333V25M25 30H5c-.92 0-1.667-.747-1.667-1.667v-1.666C3.333 25.747 4.08 25 5 25h20" stroke="#F67ACB" stroke-width="2.5" stroke-linecap="round" stroke-linejoin="round"/><path clip-rule="evenodd" d="M35 35h-8.333c-.92 0-1.667-.747-1.667-1.667V19.167c0-.92.747-1.667 1.667-1.667H35c.92 0 1.667.747 1.667 1.667v14.166c0 .92-.747 1.667-1.667 1.667z" stroke="#F67ACB" stroke-width="2.5" stroke-linecap="round" stroke-linejoin="round"/><path d="M25 30h11.667" stroke="#F67ACB" stroke-width="2.5" stroke-linecap="round" stroke-linejoin="round"/></svg>