<svg width="176" height="24" fill="none" xmlns="http://www.w3.org/2000/svg"><path d="M25.148 1.24H11.856c-.543 0-.659.038-.969.35L.35 11.437c-.31.313-.349.43-.349.977v5.783c0 3.28 1.627 4.922 4.882 4.922h13.293c.541 0 .657-.04.967-.352l10.54-9.845c.309-.313.348-.43.348-.977V6.162c0-3.282-1.627-4.923-4.882-4.923zM48.225 10.942c2.604.527 3.937 2.976 3.937 5.332 0 3.007-2.139 6.076-6.571 6.076h-8.959V.992h8.308c3.72 0 6.075 2.232 6.075 5.487 0 1.674-.62 3.688-2.79 4.463zm-.991-3.936c0-1.488-.806-2.635-2.45-2.635h-4.37v5.238h4.37c1.582 0 2.45-1.053 2.45-2.603zm-6.82 11.965h4.588c2.2 0 3.347-1.457 3.347-3.069 0-1.519-.991-3.1-3.254-3.1h-4.681v6.169zM65.826 9.888V7.874h3.596V22.35h-3.596v-2.263c-.961 1.58-2.883 2.635-4.96 2.635-3.874 0-6.974-3.131-6.974-7.626 0-4.37 2.975-7.594 7.067-7.594 1.984 0 3.906.868 4.867 2.386zm-4.216 9.486c2.232 0 4.154-1.86 4.154-4.278 0-2.48-2.046-4.247-4.185-4.247-2.325 0-4.092 1.922-4.092 4.247s1.767 4.278 4.123 4.278zM80.87 7.502c3.72 0 5.797 2.51 5.797 6.726v8.122h-3.596v-7.874c0-2.325-1.395-3.565-3.007-3.565-1.643 0-3.688.961-3.688 3.751v7.688H72.78V7.874h3.596v2.293c.743-1.828 3.006-2.665 4.494-2.665zM96.372 14.197l7.253 8.153h-4.556l-5.642-6.572v6.572h-3.596V0h3.596v12.492l4.154-4.618h4.68l-5.89 6.323zM112.642 7.502c4.061 0 7.347 3.192 7.347 7.594s-3.286 7.626-7.347 7.626c-2.418 0-4.711-1.24-5.765-3.224v2.852h-1.984V0h1.984v10.694c1.085-1.984 3.316-3.192 5.765-3.192zm-.155 13.329c3.069 0 5.549-2.542 5.549-5.766 0-3.193-2.48-5.673-5.549-5.673-2.883 0-5.61 2.263-5.61 5.766 0 3.348 2.603 5.673 5.61 5.673zM129.606 22.722c-4.123 0-7.564-3.038-7.564-7.626 0-4.588 3.441-7.594 7.564-7.594 4.122 0 7.594 3.006 7.594 7.594 0 4.588-3.472 7.626-7.594 7.626zm0-1.891c3.037 0 5.61-2.325 5.61-5.735s-2.573-5.704-5.61-5.704c-3.069 0-5.58 2.294-5.58 5.704 0 3.41 2.511 5.735 5.58 5.735zM146.778 22.722c-4.123 0-7.563-3.038-7.563-7.626 0-4.588 3.44-7.594 7.563-7.594 4.123 0 7.595 3.006 7.595 7.594 0 4.588-3.472 7.626-7.595 7.626zm0-1.891c3.038 0 5.611-2.325 5.611-5.735s-2.573-5.704-5.611-5.704c-3.069 0-5.58 2.294-5.58 5.704 0 3.41 2.511 5.735 5.58 5.735zM161.471 22.722c-2.511 0-5.022-1.457-5.27-4.216h1.829c.217 1.209 1.333 2.449 3.441 2.449 2.077 0 3.348-1.085 3.348-2.542 0-1.178-.806-1.953-2.294-2.325l-2.077-.496c-2.046-.496-3.689-1.55-3.689-3.968 0-2.356 2.015-4.122 4.774-4.122 2.418 0 4.65 1.333 4.743 3.936h-1.922c-.093-1.302-1.364-2.17-2.79-2.17-1.674 0-2.821 1.023-2.821 2.387s1.178 1.953 2.232 2.201l2.139.527c2.821.682 3.688 2.387 3.688 4.061 0 2.573-2.324 4.278-5.331 4.278zM172.683 7.874H176v1.704h-3.317V22.35h-1.953V9.578h-2.635V7.874h2.635V2.449h1.953v5.425z" fill="white"/></svg>